<?xml version="1.0" encoding="utf-8"?>
<svg version="1.1" xmlns:xlink="http://www.w3.org/1999/xlink" width="4px" height="4px" xmlns="http://www.w3.org/2000/svg">
  <g transform="matrix(1 0 0 1 -13 -13 )">
    <path d="M 15 13  C 16.12 13  17 13.88  17 15  C 17 16.12  16.12 17  15 17  C 13.88 17  13 16.12  13 15  C 13 13.88  13.88 13  15 13  Z " fill-rule="nonzero" fill="#ffff00" stroke="none" />
    <path d="M 15 13.5  C 15.84 13.5  16.5 14.16  16.5 15  C 16.5 15.84  15.84 16.5  15 16.5  C 14.16 16.5  13.5 15.84  13.5 15  C 13.5 14.16  14.16 13.5  15 13.5  Z " stroke-width="1" stroke="#ffff00" fill="none" />
  </g>
</svg>