<?xml version="1.0" encoding="utf-8"?>
<svg version="1.1" xmlns:xlink="http://www.w3.org/1999/xlink" width="6px" height="5px" xmlns="http://www.w3.org/2000/svg">
  <g transform="matrix(1 0 0 1 -846 -420 )">
    <path d="M 849 420  C 850.68 420  852 421.1  852 422.5  C 852 423.9  850.68 425  849 425  C 847.32 425  846 423.9  846 422.5  C 846 421.1  847.32 420  849 420  Z " fill-rule="nonzero" fill="#ff6600" stroke="none" />
    <path d="M 849 420.5  C 850.4 420.5  851.5 421.38  851.5 422.5  C 851.5 423.62  850.4 424.5  849 424.5  C 847.6 424.5  846.5 423.62  846.5 422.5  C 846.5 421.38  847.6 420.5  849 420.5  Z " stroke-width="1" stroke="#ffffff" fill="none" />
  </g>
</svg>