<?xml version="1.0" encoding="utf-8"?>
<svg version="1.1" xmlns:xlink="http://www.w3.org/1999/xlink" width="204px" height="203px" xmlns="http://www.w3.org/2000/svg">
  <defs>
    <mask fill="white" id="clip47">
      <path d="M 194.338865636918 178.07170972973  C 194.338865636918 178.07170972973  196.511424790236 180.640702162162  196.511424790236 180.640702162162  C 196.511424790236 180.640702162162  196.224684324943 182.11536  196.224684324943 182.11536  C 196.224684324943 182.11536  181.296478604119 182.039207567568  181.296478604119 182.039207567568  C 181.296478604119 182.039207567568  170.085350762776 182.494695675676  170.085350762776 182.494695675676  C 170.085350762776 182.494695675676  163.082578756674 183.089430810811  163.082578756674 183.089430810811  C 163.082578756674 183.089430810811  147.259718535469 184.266501621622  147.259718535469 184.266501621622  C 147.259718535469 184.266501621622  141.630027192982 184.551030810811  141.630027192982 184.551030810811  C 141.630027192982 184.551030810811  131.559435316552 185.241121081081  131.559435316552 185.241121081081  C 131.559435316552 185.241121081081  128.341516209001 186.65860972973  128.341516209001 186.65860972973  C 128.341516209001 186.65860972973  127.959114759725 187.240945405405  127.959114759725 187.240945405405  C 127.959114759725 187.240945405405  126.121429672006 187.30404  126.121429672006 187.30404  C 126.121429672006 187.30404  125.711142257819 187.766002162162  125.711142257819 187.766002162162  C 125.711142257819 187.766002162162  121.858150610221 187.7344  121.858150610221 187.7344  C 121.858150610221 187.7344  121.482053813883 186.550855135135  121.482053813883 186.550855135135  C 121.482053813883 186.550855135135  115.12187143402 187.259928648649  115.12187143402 187.259928648649  C 115.12187143402 187.259928648649  114.103669984745 186.974741081081  114.103669984745 186.974741081081  C 114.103669984745 186.974741081081  112.07442044241 188.918054594595  112.07442044241 188.918054594595  C 112.07442044241 188.918054594595  113.577837681159 192.575895135135  113.577837681159 192.575895135135  C 113.577837681159 192.575895135135  112.361645881007 193.766023783784  112.361645881007 193.766023783784  C 112.361645881007 193.766023783784  110.954253356217 193.905270810811  110.954253356217 193.905270810811  C 110.954253356217 193.905270810811  109.341595881007 191.9365  109.341595881007 191.9365  C 109.341595881007 191.9365  107.128420213577 194.18990972973  107.128420213577 194.18990972973  C 107.128420213577 194.18990972973  101.67295553013 199.836162702703  101.67295553013 199.836162702703  C 101.67295553013 199.836162702703  100.921731884058 200.196954054054  100.921731884058 200.196954054054  C 100.921731884058 200.196954054054  91.0901106025935 199.202802702703  91.0901106025935 199.202802702703  C 91.0901106025935 199.202802702703  87.6330996567506 198.582390810811  87.6330996567506 198.582390810811  C 87.6330996567506 198.582390810811  87.4418989321129 201.78595027027  87.4418989321129 201.78595027027  C 87.4418989321129 201.78595027027  83.5817539282991 202.355667027027  83.5817539282991 202.355667027027  C 83.5817539282991 202.355667027027  79.7491311594203 202.659289189189  79.7491311594203 202.659289189189  C 79.7491311594203 202.659289189189  72.4455544622426 201.874063243243  72.4455544622426 201.874063243243  C 72.4455544622426 201.874063243243  70.6827977498093 201.861554054054  70.6827977498093 201.861554054054  C 70.6827977498093 201.861554054054  68.5583721967963 201.279328108108  68.5583721967963 201.279328108108  C 68.5583721967963 201.279328108108  67.8752872997712 200.336310810811  67.8752872997712 200.336310810811  C 67.8752872997712 200.336310810811  67.1780169336385 197.867391891892  67.1780169336385 197.867391891892  C 67.1780169336385 197.867391891892  64.7804301678109 195.924188108108  64.7804301678109 195.924188108108  C 64.7804301678109 195.924188108108  57.6887868039665 193.227799459459  57.6887868039665 193.227799459459  C 57.6887868039665 193.227799459459  56.2470824180016 193.316570810811  56.2470824180016 193.316570810811  C 56.2470824180016 193.316570810811  54.1767313882533 194.227985945946  54.1767313882533 194.227985945946  C 54.1767313882533 194.227985945946  49.6267118611747 197.266072972973  49.6267118611747 197.266072972973  C 49.6267118611747 197.266072972973  50.8704258962624 187.19025027027  50.8704258962624 187.19025027027  C 50.8704258962624 187.19025027027  55.1950540808544 187.816587567568  55.1950540808544 187.816587567568  C 55.1950540808544 187.816587567568  57.8388860411899 187.873756756757  57.8388860411899 187.873756756757  C 57.8388860411899 187.873756756757  59.635469641495 186.323385405405  59.635469641495 186.323385405405  C 59.635469641495 186.323385405405  60.0931631960335 183.513316756757  60.0931631960335 183.513316756757  C 60.0931631960335 183.513316756757  58.8706667429443 180.691287567568  58.8706667429443 180.691287567568  C 58.8706667429443 180.691287567568  58.8228968726163 179.470215135135  58.8228968726163 179.470215135135  C 58.8228968726163 179.470215135135  59.4374792906179 176.395039459459  59.4374792906179 176.395039459459  C 59.4374792906179 176.395039459459  60.7629113272311 173.573558918919  60.7629113272311 173.573558918919  C 60.7629113272311 173.573558918919  61.6034913043479 168.366992972973  61.6034913043479 168.366992972973  C 61.6034913043479 168.366992972973  62.2388063310449 160.359575675676  62.2388063310449 160.359575675676  C 62.2388063310449 160.359575675676  61.992561136537 156.065522162162  61.992561136537 156.065522162162  C 61.992561136537 156.065522162162  61.6444715484362 153.504101081081  61.6444715484362 153.504101081081  C 61.6444715484362 153.504101081081  60.5919582379862 152.587199459459  60.5919582379862 152.587199459459  C 60.5919582379862 152.587199459459  58.8499341342487 152.309144324324  58.8499341342487 152.309144324324  C 58.8499341342487 152.309144324324  58.0508193745233 151.120112972973  58.0508193745233 151.120112972973  C 58.0508193745233 151.120112972973  58.1942502288329 150.285398918919  58.1942502288329 150.285398918919  C 58.1942502288329 150.285398918919  59.6629918764302 148.881955675676  59.6629918764302 148.881955675676  C 59.6629918764302 148.881955675676  60.237079023646 147.275622162162  60.237079023646 147.275622162162  C 60.237079023646 147.275622162162  60.0251456903127 145.366105405405  60.0251456903127 145.366105405405  C 60.0251456903127 145.366105405405  63.7553178489702 143.469646486486  63.7553178489702 143.469646486486  C 63.7553178489702 143.469646486486  66.4949320366132 142.400878918919  66.4949320366132 142.400878918919  C 66.4949320366132 142.400878918919  66.8502962242563 140.959469189189  66.8502962242563 140.959469189189  C 66.8502962242563 140.959469189189  66.0850083524027 138.576468648649  66.0850083524027 138.576468648649  C 66.0850083524027 138.576468648649  65.8870180015256 136.06684  65.8870180015256 136.06684  C 65.8870180015256 136.06684  65.1762896262395 134.214492432432  65.1762896262395 134.214492432432  C 65.1762896262395 134.214492432432  65.3061412280701 132.830690810811  65.3061412280701 132.830690810811  C 65.3061412280701 132.830690810811  66.747845614035 129.259317297297  66.747845614035 129.259317297297  C 66.747845614035 129.259317297297  67.5609033562167 127.805837297297  67.5609033562167 127.805837297297  C 67.5609033562167 127.805837297297  67.7245818459192 124.961423243243  67.7245818459192 124.961423243243  C 67.7245818459192 124.961423243243  60.237079023646 124.291523243243  60.237079023646 124.291523243243  C 60.237079023646 124.291523243243  60.2573266590389 123.015476216216  60.2573266590389 123.015476216216  C 60.2573266590389 123.015476216216  61.0294041571319 122.522460540541  61.0294041571319 122.522460540541  C 61.0294041571319 122.522460540541  64.7870985507246 122.989909189189  64.7870985507246 122.989909189189  C 64.7870985507246 122.989909189189  65.8870180015256 121.934748108108  65.8870180015256 121.934748108108  C 65.8870180015256 121.934748108108  68.4488894736842 121.303034054054  68.4488894736842 121.303034054054  C 68.4488894736842 121.303034054054  65.7913570175438 119.862063243243  65.7913570175438 119.862063243243  C 65.7913570175438 119.862063243243  62.9901512204425 117.60591027027  62.9901512204425 117.60591027027  C 62.9901512204425 117.60591027027  61.0979066361557 116.740691351351  61.0979066361557 116.740691351351  C 61.0979066361557 116.740691351351  59.7175513729977 116.550749189189  59.7175513729977 116.550749189189  C 59.7175513729977 116.550749189189  47.8981457665905 118.756316756757  47.8981457665905 118.756316756757  C 47.8981457665905 118.756316756757  46.9146199084667 133.196858918919  46.9146199084667 133.196858918919  C 46.9146199084667 133.196858918919  46.5048174675821 134.916433513514  46.5048174675821 134.916433513514  C 46.5048174675821 134.916433513514  45.2064226926011 136.572364864865  45.2064226926011 136.572364864865  C 45.2064226926011 136.572364864865  41.3120870709382 139.581592972973  41.3120870709382 139.581592972973  C 41.3120870709382 139.581592972973  39.7476844393593 141.155885405405  39.7476844393593 141.155885405405  C 39.7476844393593 141.155885405405  38.9004360793288 143.513757837838  38.9004360793288 143.513757837838  C 38.9004360793288 143.513757837838  38.2240195652174 146.744420540541  38.2240195652174 146.744420540541  C 38.2240195652174 146.744420540541  37.6228951563692 148.34428  37.6228951563692 148.34428  C 37.6228951563692 148.34428  36.4819954614797 149.457158918919  36.4819954614797 149.457158918919  C 36.4819954614797 149.457158918919  33.1752049961861 150.861150810811  33.1752049961861 150.861150810811  C 33.1752049961861 150.861150810811  31.6996737223494 152.599708648649  31.6996737223494 152.599708648649  C 31.6996737223494 152.599708648649  30.4423804347827 155.432601081081  30.4423804347827 155.432601081081  C 30.4423804347827 155.432601081081  29.8137337909992 160.239311891892  29.8137337909992 160.239311891892  C 29.8137337909992 160.239311891892  24.4506565217391 160.429254054054  24.4506565217391 160.429254054054  C 24.4506565217391 160.429254054054  22.5855704424104 162.06718972973  22.5855704424104 162.06718972973  C 22.5855704424104 162.06718972973  20.0236989702517 162.218945945946  20.0236989702517 162.218945945946  C 20.0236989702517 162.218945945946  16.6414951563692 163.48412972973  16.6414951563692 163.48412972973  C 16.6414951563692 163.48412972973  12.4332605644546 163.616902702703  12.4332605644546 163.616902702703  C 12.4332605644546 163.616902702703  11.1281974065599 163.09832  11.1281974065599 163.09832  C 11.1281974065599 163.09832  9.33840343249433 161.472344864865  9.33840343249433 161.472344864865  C 9.33840343249433 161.472344864865  6.55793024408848 160.549517837838  6.55793024408848 160.549517837838  C 6.55793024408848 160.549517837838  6.0727144546148 159.828483783784  6.0727144546148 159.828483783784  C 6.0727144546148 159.828483783784  6.31847467582002 150.54490972973  6.31847467582002 150.54490972973  C 6.31847467582002 150.54490972973  6.31847467582002 143.709625405405  6.31847467582002 143.709625405405  C 6.31847467582002 143.709625405405  5.56712978642261 141.414847567568  5.56712978642261 141.414847567568  C 5.56712978642261 141.414847567568  4.26206662852792 140.257967027027  4.26206662852792 140.257967027027  C 4.26206662852792 140.257967027027  3.85214294431729 139.120179459459  3.85214294431729 139.120179459459  C 3.85214294431729 139.120179459459  3.46307311212811 135.080808648649  3.46307311212811 135.080808648649  C 3.46307311212811 135.080808648649  0.675204080854272 131.755888108108  0.675204080854272 131.755888108108  C 0.675204080854272 131.755888108108  0.360941380625449 129.126544324324  0.360941380625449 129.126544324324  C 0.360941380625449 129.126544324324  10.0965379481312 126.927011891892  10.0965379481312 126.927011891892  C 10.0965379481312 126.927011891892  10.5545952326468 125.890834054054  10.5545952326468 125.890834054054  C 10.5545952326468 125.890834054054  10.4315332570556 122.383213513514  10.4315332570556 122.383213513514  C 10.4315332570556 122.383213513514  9.33161380625475 121.953841081081  9.33161380625475 121.953841081081  C 9.33161380625475 121.953841081081  9.54997303585048 119.931741621622  9.54997303585048 119.931741621622  C 9.54997303585048 119.931741621622  10.041857208238 118.901598918919  10.041857208238 118.901598918919  C 10.041857208238 118.901598918919  13.0957340961099 116.974086486486  13.0957340961099 116.974086486486  C 13.0957340961099 116.974086486486  14.1139355453852 116.039298918919  14.1139355453852 116.039298918919  C 14.1139355453852 116.039298918919  14.4417774980931 114.130879459459  14.4417774980931 114.130879459459  C 14.4417774980931 114.130879459459  13.6422990083906 113.176889189189  13.6422990083906 113.176889189189  C 13.6422990083906 113.176889189189  12.1122082379863 113.145396756757  12.1122082379863 113.145396756757  C 12.1122082379863 113.145396756757  11.1625092677345 112.437969189189  11.1625092677345 112.437969189189  C 11.1625092677345 112.437969189189  10.9167490465294 110.952887027027  10.9167490465294 110.952887027027  C 10.9167490465294 110.952887027027  11.5246630816171 106.707882702703  11.5246630816171 106.707882702703  C 11.5246630816171 106.707882702703  12.3579684591915 105.49493027027  12.3579684591915 105.49493027027  C 12.3579684591915 105.49493027027  14.8792234172387 103.504871891892  14.8792234172387 103.504871891892  C 14.8792234172387 103.504871891892  16.6212475209764 94.1715902702703  16.6212475209764 94.1715902702703  C 16.6212475209764 94.1715902702703  18.7118461861174 95.5674621621621  18.7118461861174 95.5674621621621  C 18.7118461861174 95.5674621621621  23.8838439740655 96.539887027027  23.8838439740655 96.539887027027  C 23.8838439740655 96.539887027027  26.0975046147979 97.165127027027  26.0975046147979 97.165127027027  C 26.0975046147979 97.165127027027  25.6122888253242 91.2793340540541  25.6122888253242 91.2793340540541  C 25.6122888253242 91.2793340540541  25.2705038901602 89.4477254054054  25.2705038901602 89.4477254054054  C 25.2705038901602 89.4477254054054  23.8770543478261 88.1156064864865  23.8770543478261 88.1156064864865  C 23.8770543478261 88.1156064864865  22.8862538901602 80.1908156756757  22.8862538901602 80.1908156756757  C 22.8862538901602 80.1908156756757  19.4360325705568 79.9324021621622  19.4360325705568 79.9324021621622  C 19.4360325705568 79.9324021621622  19.6069856598017 63.9175675675676  19.6069856598017 63.9175675675676  C 19.6069856598017 63.9175675675676  18.7461580472921 63.2362556756757  18.7461580472921 63.2362556756757  C 18.7461580472921 63.2362556756757  15.5692191838291 63.2487648648648  15.5692191838291 63.2487648648648  C 15.5692191838291 63.2487648648648  14.4215298627002 62.3775108108108  14.4215298627002 62.3775108108108  C 14.4215298627002 62.3775108108108  14.1275147978642 58.982472972973  14.1275147978642 58.982472972973  C 14.1275147978642 58.982472972973  20.9593337147216 55.7011151351351  20.9593337147216 55.7011151351351  C 20.9593337147216 55.7011151351351  24.2869780320367 55.4361178378378  24.2869780320367 55.4361178378378  C 24.2869780320367 55.4361178378378  27.3678921815408 55.9596383783784  27.3678921815408 55.9596383783784  C 27.3678921815408 55.9596383783784  34.9857315789474 58.5030637837838  34.9857315789474 58.5030637837838  C 34.9857315789474 58.5030637837838  36.9261097635393 59.5315605405406  36.9261097635393 59.5315605405406  C 36.9261097635393 59.5315605405406  38.5928417620137 60.9322605405405  38.5928417620137 60.9322605405405  C 38.5928417620137 60.9322605405405  42.3573257818458 66.1959956756756  42.3573257818458 66.1959956756756  C 42.3573257818458 66.1959956756756  43.7102800533944 67.1237605405406  43.7102800533944 67.1237605405406  C 43.7102800533944 67.1237605405406  47.064840389016 68.4242772972973  47.064840389016 68.4242772972973  C 47.064840389016 68.4242772972973  58.0711882532418 68.4744237837838  58.0711882532418 68.4744237837838  C 58.0711882532418 68.4744237837838  60.1959775362319 68.1402967567568  60.1959775362319 68.1402967567568  C 60.1959775362319 68.1402967567568  72.0699426392068 64.1068513513513  72.0699426392068 64.1068513513513  C 72.0699426392068 64.1068513513513  75.2193592677346 63.7853432432432  75.2193592677346 63.7853432432432  C 75.2193592677346 63.7853432432432  84.6000766209001 64.7065243243243  84.6000766209001 64.7065243243243  C 84.6000766209001 64.7065243243243  86.4308508390542 64.6559389189189  86.4308508390542 64.6559389189189  C 86.4308508390542 64.6559389189189  94.1781781083142 63.7346481081081  94.1781781083142 63.7346481081081  C 94.1781781083142 63.7346481081081  94.9980254767355 63.7912686486487  94.9980254767355 63.7912686486487  C 94.9980254767355 63.7912686486487  96.7198019450801 65.1358967567568  96.7198019450801 65.1358967567568  C 96.7198019450801 65.1358967567568  97.9567263539283 62.2958718918919  97.9567263539283 62.2958718918919  C 97.9567263539283 62.2958718918919  98.7286826086958 61.6456135135135  98.7286826086958 61.6456135135135  C 98.7286826086958 61.6456135135135  100.86717238749 61.4181437837838  100.86717238749 61.4181437837838  C 100.86717238749 61.4181437837838  102.390473531655 60.4021562162162  102.390473531655 60.4021562162162  C 102.390473531655 60.4021562162162  105.112628680397 58.2189735135135  105.112628680397 58.2189735135135  C 105.112628680397 58.2189735135135  105.789045194508 56.6540081081081  105.789045194508 56.6540081081081  C 105.789045194508 56.6540081081081  106.424481464531 53.9532302702702  106.424481464531 53.9532302702702  C 106.424481464531 53.9532302702702  108.972773684211 49.1455318918919  108.972773684211 49.1455318918919  C 108.972773684211 49.1455318918919  109.382697368421 47.3851378378379  109.382697368421 47.3851378378379  C 109.382697368421 47.3851378378379  109.293826010679 44.8112075675676  109.293826010679 44.8112075675676  C 109.293826010679 44.8112075675676  106.998568611747 42.7227216216216  106.998568611747 42.7227216216216  C 106.998568611747 42.7227216216216  106.260802974828 41.4233021621621  106.260802974828 41.4233021621621  C 106.260802974828 41.4233021621621  105.953208657513 39.7456443243243  105.953208657513 39.7456443243243  C 105.953208657513 39.7456443243243  106.445214073227 36.1693329729729  106.445214073227 36.1693329729729  C 106.445214073227 36.1693329729729  107.319620938215 34.239187027027  107.319620938215 34.239187027027  C 107.319620938215 34.239187027027  107.797562128146 29.798754054054  107.797562128146 29.798754054054  C 107.797562128146 29.798754054054  108.494832494279 28.0019297297297  108.494832494279 28.0019297297297  C 108.494832494279 28.0019297297297  109.83360129672 26.7024005405406  109.83360129672 26.7024005405406  C 109.83360129672 26.7024005405406  111.732999237223 26.1223691891892  111.732999237223 26.1223691891892  C 111.732999237223 26.1223691891892  114.008130244089 24.2498313513514  114.008130244089 24.2498313513514  C 114.008130244089 24.2498313513514  116.713796300534 19.4829524324325  116.713796300534 19.4829524324325  C 116.713796300534 19.4829524324325  116.713796300534 17.2633394594595  116.713796300534 17.2633394594595  C 116.713796300534 17.2633394594595  115.135450686499 14.7035643243243  115.135450686499 14.7035643243243  C 115.135450686499 14.7035643243243  114.98523020595 12.2199416216216  114.98523020595 12.2199416216216  C 114.98523020595 12.2199416216216  115.914196567506 9.84352486486483  115.914196567506 9.84352486486483  C 115.914196567506 9.84352486486483  117.403670823799 7.15152540540544  117.403670823799 7.15152540540544  C 117.403670823799 7.15152540540544  123.27912238749 0.955636216216249  123.27912238749 0.955636216216249  C 123.27912238749 0.955636216216249  126.415081006865 3.32557891891889  126.415081006865 3.32557891891889  C 126.415081006865 3.32557891891889  128.765382875667 3.9561956756757  128.765382875667 3.9561956756757  C 128.765382875667 3.9561956756757  134.517651220442 1.74360540540539  134.517651220442 1.74360540540539  C 134.517651220442 1.74360540540539  138.439630320366 1.90139675675675  138.439630320366 1.90139675675675  C 138.439630320366 1.90139675675675  144.321750266972 5.36775891891892  144.321750266972 5.36775891891892  C 144.321750266972 5.36775891891892  138.630831045004 23.6001216216216  138.630831045004 23.6001216216216  C 138.630831045004 23.6001216216216  137.933681922197 26.8096064864865  137.933681922197 26.8096064864865  C 137.933681922197 26.8096064864865  137.018173569794 28.7648805405406  137.018173569794 28.7648805405406  C 137.018173569794 28.7648805405406  127.275908619375 24.4386762162162  127.275908619375 24.4386762162162  C 127.275908619375 24.4386762162162  124.372252212052 23.8270427027027  124.372252212052 23.8270427027027  C 124.372252212052 23.8270427027027  122.295111556064 23.7639481081081  122.295111556064 23.7639481081081  C 122.295111556064 23.7639481081081  118.435087795576 24.6971994594595  118.435087795576 24.6971994594595  C 118.435087795576 24.6971994594595  116.549632837529 25.8323535135135  116.549632837529 25.8323535135135  C 116.549632837529 25.8323535135135  115.196799809306 27.440332972973  115.196799809306 27.440332972973  C 115.196799809306 27.440332972973  111.30961754386 37.771387027027  111.30961754386 37.771387027027  C 111.30961754386 37.771387027027  110.783300266972 41.6252048648649  110.783300266972 41.6252048648649  C 110.783300266972 41.6252048648649  110.947463729977 46.0035308108108  110.947463729977 46.0035308108108  C 110.947463729977 46.0035308108108  110.680970900076 48.4577459459459  110.680970900076 48.4577459459459  C 110.680970900076 48.4577459459459  110.004554385965 50.7034745945946  110.004554385965 50.7034745945946  C 110.004554385965 50.7034745945946  107.333078947369 55.6571135135135  107.333078947369 55.6571135135135  C 107.333078947369 55.6571135135135  104.402385278414 60.4212491891892  104.402385278414 60.4212491891892  C 104.402385278414 60.4212491891892  99.6030894736843 67.2124221621622  99.6030894736843 67.2124221621622  C 99.6030894736843 67.2124221621622  99.4118887490466 68.7584043243244  99.4118887490466 68.7584043243244  C 99.4118887490466 68.7584043243244  99.9584536613272 69.9012394594595  99.9584536613272 69.9012394594595  C 99.9584536613272 69.9012394594595  101.80280713196 70.9237010810811  101.80280713196 70.9237010810811  C 101.80280713196 70.9237010810811  101.550378527841 72.4452135135135  101.550378527841 72.4452135135135  C 101.550378527841 72.4452135135135  97.4028868421053 74.1870632432432  97.4028868421053 74.1870632432432  C 97.4028868421053 74.1870632432432  96.7815147978643 74.7997940540541  96.7815147978643 74.7997940540541  C 96.7815147978643 74.7997940540541  97.1914384820749 76.491607027027  97.1914384820749 76.491607027027  C 97.1914384820749 76.491607027027  100.081151906941 80.5570935135136  100.081151906941 80.5570935135136  C 100.081151906941 80.5570935135136  107.784104118993 84.1371356756757  107.784104118993 84.1371356756757  C 107.784104118993 84.1371356756757  109.184707017544 84.1371356756757  109.184707017544 84.1371356756757  C 109.184707017544 84.1371356756757  110.079846491228 82.3566610810811  110.079846491228 82.3566610810811  C 110.079846491228 82.3566610810811  111.234325438596 78.3287021621622  111.234325438596 78.3287021621622  C 111.234325438596 78.3287021621622  112.006281693364 77.6593508108108  112.006281693364 77.6593508108108  C 112.006281693364 77.6593508108108  116.740833562166 75.1278859459459  116.740833562166 75.1278859459459  C 116.740833562166 75.1278859459459  117.799651525553 74.8944908108108  117.799651525553 74.8944908108108  C 117.799651525553 74.8944908108108  120.628500800915 75.1153767567567  120.628500800915 75.1153767567567  C 120.628500800915 75.1153767567567  122.787116971777 74.2376486486486  122.787116971777 74.2376486486486  C 122.787116971777 74.2376486486486  124.9733766209 71.8955772972973  124.9733766209 71.8955772972973  C 124.9733766209 71.8955772972973  126.30596201373 71.5423572972973  126.30596201373 71.5423572972973  C 126.30596201373 71.5423572972973  126.981893554538 72.0980286486487  126.981893554538 72.0980286486487  C 126.981893554538 72.0980286486487  128.7924201373 72.0980286486487  128.7924201373 72.0980286486487  C 128.7924201373 72.0980286486487  130.391013386728 71.5739594594595  130.391013386728 71.5739594594595  C 130.391013386728 71.5739594594595  132.031193096873 72.6535902702703  132.031193096873 72.6535902702703  C 132.031193096873 72.6535902702703  133.3632935164 72.6219881081081  133.3632935164 72.6219881081081  C 133.3632935164 72.6219881081081  139.149873722349 76.7882064864865  139.149873722349 76.7882064864865  C 139.149873722349 76.7882064864865  143.611143135011 79.5221227027027  143.611143135011 79.5221227027027  C 143.611143135011 79.5221227027027  144.492703356217 79.6227448648648  144.492703356217 79.6227448648648  C 144.492703356217 79.6227448648648  148.07956590389 84.2068140540541  148.07956590389 84.2068140540541  C 148.07956590389 84.2068140540541  148.728460183066 84.5981102702702  148.728460183066 84.5981102702702  C 148.728460183066 84.5981102702702  150.259035926773 83.1082  150.259035926773 83.1082  C 150.259035926773 83.1082  154.207446071701 81.5675945945946  154.207446071701 81.5675945945946  C 154.207446071701 81.5675945945946  156.024762280702 81.9213632432433  156.024762280702 81.9213632432433  C 156.024762280702 81.9213632432433  157.364137299771 81.4603886486486  157.364137299771 81.4603886486486  C 157.364137299771 81.4603886486486  160.602425286041 81.5550854054054  160.602425286041 81.5550854054054  C 160.602425286041 81.5550854054054  161.695555110603 81.0942205405405  161.695555110603 81.0942205405405  C 161.695555110603 81.0942205405405  162.88422467582 78.7956021621622  162.88422467582 78.7956021621622  C 162.88422467582 78.7956021621622  162.959516781083 76.8513010810811  162.959516781083 76.8513010810811  C 162.959516781083 76.8513010810811  163.718015026697 74.3829308108108  163.718015026697 74.3829308108108  C 163.718015026697 74.3829308108108  164.503550533944 74.3389291891892  164.503550533944 74.3389291891892  C 164.503550533944 74.3389291891892  168.616245385202 78.8402621621622  168.616245385202 78.8402621621622  C 168.616245385202 78.8402621621622  170.761888520214 80.5129821621621  170.761888520214 80.5129821621621  C 170.761888520214 80.5129821621621  173.282658504958 79.6037616216216  173.282658504958 79.6037616216216  C 173.282658504958 79.6037616216216  174.854214492753 80.8982432432433  174.854214492753 80.8982432432433  C 174.854214492753 80.8982432432433  175.871930968726 80.7970724324324  175.871930968726 80.7970724324324  C 175.871930968726 80.7970724324324  179.055659458429 79.3071621621622  179.055659458429 79.3071621621622  C 179.055659458429 79.3071621621622  181.13946849733 77.5081432432432  181.13946849733 77.5081432432432  C 181.13946849733 77.5081432432432  182.629063996949 80.2164924324325  182.629063996949 80.2164924324325  C 182.629063996949 80.2164924324325  182.273699809306 81.6367243243243  182.273699809306 81.6367243243243  C 182.273699809306 81.6367243243243  184.821992028986 82.8491281081081  184.821992028986 82.8491281081081  C 184.821992028986 82.8491281081081  187.247222273074 86.5369248648649  187.247222273074 86.5369248648649  C 187.247222273074 86.5369248648649  188.818778260869 85.2864448648649  188.818778260869 85.2864448648649  C 188.818778260869 85.2864448648649  183.079967925248 78.5936994594595  183.079967925248 78.5936994594595  C 183.079967925248 78.5936994594595  188.504394317315 73.8654454054054  188.504394317315 73.8654454054054  C 188.504394317315 73.8654454054054  193.300780282227 79.1749378378378  193.300780282227 79.1749378378378  C 193.300780282227 79.1749378378378  190.957146796339 81.2454281081081  190.957146796339 81.2454281081081  C 190.957146796339 81.2454281081081  195.541478184592 87.4778572972973  195.541478184592 87.4778572972973  C 195.541478184592 87.4778572972973  200.959236193745 84.7814686486486  200.959236193745 84.7814686486486  C 200.959236193745 84.7814686486486  203.405199046529 88.9427491891892  203.405199046529 88.9427491891892  C 203.405199046529 88.9427491891892  185.935854462242 102.961819459459  185.935854462242 102.961819459459  C 185.935854462242 102.961819459459  185.860562356979 104.780918918919  185.860562356979 104.780918918919  C 185.860562356979 104.780918918919  177.347947215866 110.472929189189  177.347947215866 110.472929189189  C 177.347947215866 110.472929189189  181.412750953471 118.964693513514  181.412750953471 118.964693513514  C 181.412750953471 118.964693513514  177.395717086194 121.391147027027  177.395717086194 121.391147027027  C 177.395717086194 121.391147027027  176.391458619374 121.088073513514  176.391458619374 121.088073513514  C 176.391458619374 121.088073513514  174.23235747521 118.851013513514  174.23235747521 118.851013513514  C 174.23235747521 118.851013513514  171.021106750572 118.149511351351  171.021106750572 118.149511351351  C 171.021106750572 118.149511351351  168.760039969489 121.694220540541  168.760039969489 121.694220540541  C 168.760039969489 121.694220540541  161.128621319603 129.600467027027  161.128621319603 129.600467027027  C 161.128621319603 129.600467027027  158.969520175439 130.649592972973  158.969520175439 130.649592972973  C 158.969520175439 130.649592972973  152.192139511823 131.161701621622  152.192139511823 131.161701621622  C 152.192139511823 131.161701621622  149.206522616323 147.591753513513  149.206522616323 147.591753513513  C 149.206522616323 147.591753513513  152.021307665904 150.576511891892  152.021307665904 150.576511891892  C 152.021307665904 150.576511891892  157.391174561403 154.977771351351  157.391174561403 154.977771351351  C 157.391174561403 154.977771351351  160.513553928299 157.836230810811  160.513553928299 157.836230810811  C 160.513553928299 157.836230810811  163.308091342487 159.651050810811  163.308091342487 159.651050810811  C 163.308091342487 159.651050810811  167.2498331045 161.156213513514  167.2498331045 161.156213513514  C 167.2498331045 161.156213513514  171.192059839817 162.042061621622  171.192059839817 162.042061621622  C 171.192059839817 162.042061621622  171.472131922197 160.036860540541  171.472131922197 160.036860540541  C 171.472131922197 160.036860540541  173.829223417239 156.729387027027  173.829223417239 156.729387027027  C 173.829223417239 156.729387027027  174.901984363081 157.501006486486  174.901984363081 157.501006486486  C 174.901984363081 157.501006486486  172.312590655988 162.750037837838  172.312590655988 162.750037837838  C 172.312590655988 162.750037837838  175.134286575134 165.577553513514  175.134286575134 165.577553513514  C 175.134286575134 165.577553513514  175.742079366895 167.74712972973  175.742079366895 167.74712972973  C 175.742079366895 167.74712972973  178.023878756674 168.968311891892  178.023878756674 168.968311891892  C 178.023878756674 168.968311891892  180.326410755149 169.76494972973  180.326410755149 169.76494972973  C 180.326410755149 169.76494972973  179.636536231884 171.922565405405  179.636536231884 171.922565405405  C 179.636536231884 171.922565405405  179.43139252479 173.870707027027  179.43139252479 173.870707027027  C 179.43139252479 173.870707027027  183.933642181541 174.788157297297  183.933642181541 174.788157297297  C 183.933642181541 174.788157297297  187.971408657513 175.888965945946  187.971408657513 175.888965945946  C 187.971408657513 175.888965945946  194.338865636918 178.07170972973  194.338865636918 178.07170972973  Z " fill-rule="evenodd" />
    </mask>
  </defs>
  <g transform="matrix(1 0 0 1 -936 -294 )">
    <path d="M 194.338865636918 178.07170972973  C 194.338865636918 178.07170972973  196.511424790236 180.640702162162  196.511424790236 180.640702162162  C 196.511424790236 180.640702162162  196.224684324943 182.11536  196.224684324943 182.11536  C 196.224684324943 182.11536  181.296478604119 182.039207567568  181.296478604119 182.039207567568  C 181.296478604119 182.039207567568  170.085350762776 182.494695675676  170.085350762776 182.494695675676  C 170.085350762776 182.494695675676  163.082578756674 183.089430810811  163.082578756674 183.089430810811  C 163.082578756674 183.089430810811  147.259718535469 184.266501621622  147.259718535469 184.266501621622  C 147.259718535469 184.266501621622  141.630027192982 184.551030810811  141.630027192982 184.551030810811  C 141.630027192982 184.551030810811  131.559435316552 185.241121081081  131.559435316552 185.241121081081  C 131.559435316552 185.241121081081  128.341516209001 186.65860972973  128.341516209001 186.65860972973  C 128.341516209001 186.65860972973  127.959114759725 187.240945405405  127.959114759725 187.240945405405  C 127.959114759725 187.240945405405  126.121429672006 187.30404  126.121429672006 187.30404  C 126.121429672006 187.30404  125.711142257819 187.766002162162  125.711142257819 187.766002162162  C 125.711142257819 187.766002162162  121.858150610221 187.7344  121.858150610221 187.7344  C 121.858150610221 187.7344  121.482053813883 186.550855135135  121.482053813883 186.550855135135  C 121.482053813883 186.550855135135  115.12187143402 187.259928648649  115.12187143402 187.259928648649  C 115.12187143402 187.259928648649  114.103669984745 186.974741081081  114.103669984745 186.974741081081  C 114.103669984745 186.974741081081  112.07442044241 188.918054594595  112.07442044241 188.918054594595  C 112.07442044241 188.918054594595  113.577837681159 192.575895135135  113.577837681159 192.575895135135  C 113.577837681159 192.575895135135  112.361645881007 193.766023783784  112.361645881007 193.766023783784  C 112.361645881007 193.766023783784  110.954253356217 193.905270810811  110.954253356217 193.905270810811  C 110.954253356217 193.905270810811  109.341595881007 191.9365  109.341595881007 191.9365  C 109.341595881007 191.9365  107.128420213577 194.18990972973  107.128420213577 194.18990972973  C 107.128420213577 194.18990972973  101.67295553013 199.836162702703  101.67295553013 199.836162702703  C 101.67295553013 199.836162702703  100.921731884058 200.196954054054  100.921731884058 200.196954054054  C 100.921731884058 200.196954054054  91.0901106025935 199.202802702703  91.0901106025935 199.202802702703  C 91.0901106025935 199.202802702703  87.6330996567506 198.582390810811  87.6330996567506 198.582390810811  C 87.6330996567506 198.582390810811  87.4418989321129 201.78595027027  87.4418989321129 201.78595027027  C 87.4418989321129 201.78595027027  83.5817539282991 202.355667027027  83.5817539282991 202.355667027027  C 83.5817539282991 202.355667027027  79.7491311594203 202.659289189189  79.7491311594203 202.659289189189  C 79.7491311594203 202.659289189189  72.4455544622426 201.874063243243  72.4455544622426 201.874063243243  C 72.4455544622426 201.874063243243  70.6827977498093 201.861554054054  70.6827977498093 201.861554054054  C 70.6827977498093 201.861554054054  68.5583721967963 201.279328108108  68.5583721967963 201.279328108108  C 68.5583721967963 201.279328108108  67.8752872997712 200.336310810811  67.8752872997712 200.336310810811  C 67.8752872997712 200.336310810811  67.1780169336385 197.867391891892  67.1780169336385 197.867391891892  C 67.1780169336385 197.867391891892  64.7804301678109 195.924188108108  64.7804301678109 195.924188108108  C 64.7804301678109 195.924188108108  57.6887868039665 193.227799459459  57.6887868039665 193.227799459459  C 57.6887868039665 193.227799459459  56.2470824180016 193.316570810811  56.2470824180016 193.316570810811  C 56.2470824180016 193.316570810811  54.1767313882533 194.227985945946  54.1767313882533 194.227985945946  C 54.1767313882533 194.227985945946  49.6267118611747 197.266072972973  49.6267118611747 197.266072972973  C 49.6267118611747 197.266072972973  50.8704258962624 187.19025027027  50.8704258962624 187.19025027027  C 50.8704258962624 187.19025027027  55.1950540808544 187.816587567568  55.1950540808544 187.816587567568  C 55.1950540808544 187.816587567568  57.8388860411899 187.873756756757  57.8388860411899 187.873756756757  C 57.8388860411899 187.873756756757  59.635469641495 186.323385405405  59.635469641495 186.323385405405  C 59.635469641495 186.323385405405  60.0931631960335 183.513316756757  60.0931631960335 183.513316756757  C 60.0931631960335 183.513316756757  58.8706667429443 180.691287567568  58.8706667429443 180.691287567568  C 58.8706667429443 180.691287567568  58.8228968726163 179.470215135135  58.8228968726163 179.470215135135  C 58.8228968726163 179.470215135135  59.4374792906179 176.395039459459  59.4374792906179 176.395039459459  C 59.4374792906179 176.395039459459  60.7629113272311 173.573558918919  60.7629113272311 173.573558918919  C 60.7629113272311 173.573558918919  61.6034913043479 168.366992972973  61.6034913043479 168.366992972973  C 61.6034913043479 168.366992972973  62.2388063310449 160.359575675676  62.2388063310449 160.359575675676  C 62.2388063310449 160.359575675676  61.992561136537 156.065522162162  61.992561136537 156.065522162162  C 61.992561136537 156.065522162162  61.6444715484362 153.504101081081  61.6444715484362 153.504101081081  C 61.6444715484362 153.504101081081  60.5919582379862 152.587199459459  60.5919582379862 152.587199459459  C 60.5919582379862 152.587199459459  58.8499341342487 152.309144324324  58.8499341342487 152.309144324324  C 58.8499341342487 152.309144324324  58.0508193745233 151.120112972973  58.0508193745233 151.120112972973  C 58.0508193745233 151.120112972973  58.1942502288329 150.285398918919  58.1942502288329 150.285398918919  C 58.1942502288329 150.285398918919  59.6629918764302 148.881955675676  59.6629918764302 148.881955675676  C 59.6629918764302 148.881955675676  60.237079023646 147.275622162162  60.237079023646 147.275622162162  C 60.237079023646 147.275622162162  60.0251456903127 145.366105405405  60.0251456903127 145.366105405405  C 60.0251456903127 145.366105405405  63.7553178489702 143.469646486486  63.7553178489702 143.469646486486  C 63.7553178489702 143.469646486486  66.4949320366132 142.400878918919  66.4949320366132 142.400878918919  C 66.4949320366132 142.400878918919  66.8502962242563 140.959469189189  66.8502962242563 140.959469189189  C 66.8502962242563 140.959469189189  66.0850083524027 138.576468648649  66.0850083524027 138.576468648649  C 66.0850083524027 138.576468648649  65.8870180015256 136.06684  65.8870180015256 136.06684  C 65.8870180015256 136.06684  65.1762896262395 134.214492432432  65.1762896262395 134.214492432432  C 65.1762896262395 134.214492432432  65.3061412280701 132.830690810811  65.3061412280701 132.830690810811  C 65.3061412280701 132.830690810811  66.747845614035 129.259317297297  66.747845614035 129.259317297297  C 66.747845614035 129.259317297297  67.5609033562167 127.805837297297  67.5609033562167 127.805837297297  C 67.5609033562167 127.805837297297  67.7245818459192 124.961423243243  67.7245818459192 124.961423243243  C 67.7245818459192 124.961423243243  60.237079023646 124.291523243243  60.237079023646 124.291523243243  C 60.237079023646 124.291523243243  60.2573266590389 123.015476216216  60.2573266590389 123.015476216216  C 60.2573266590389 123.015476216216  61.0294041571319 122.522460540541  61.0294041571319 122.522460540541  C 61.0294041571319 122.522460540541  64.7870985507246 122.989909189189  64.7870985507246 122.989909189189  C 64.7870985507246 122.989909189189  65.8870180015256 121.934748108108  65.8870180015256 121.934748108108  C 65.8870180015256 121.934748108108  68.4488894736842 121.303034054054  68.4488894736842 121.303034054054  C 68.4488894736842 121.303034054054  65.7913570175438 119.862063243243  65.7913570175438 119.862063243243  C 65.7913570175438 119.862063243243  62.9901512204425 117.60591027027  62.9901512204425 117.60591027027  C 62.9901512204425 117.60591027027  61.0979066361557 116.740691351351  61.0979066361557 116.740691351351  C 61.0979066361557 116.740691351351  59.7175513729977 116.550749189189  59.7175513729977 116.550749189189  C 59.7175513729977 116.550749189189  47.8981457665905 118.756316756757  47.8981457665905 118.756316756757  C 47.8981457665905 118.756316756757  46.9146199084667 133.196858918919  46.9146199084667 133.196858918919  C 46.9146199084667 133.196858918919  46.5048174675821 134.916433513514  46.5048174675821 134.916433513514  C 46.5048174675821 134.916433513514  45.2064226926011 136.572364864865  45.2064226926011 136.572364864865  C 45.2064226926011 136.572364864865  41.3120870709382 139.581592972973  41.3120870709382 139.581592972973  C 41.3120870709382 139.581592972973  39.7476844393593 141.155885405405  39.7476844393593 141.155885405405  C 39.7476844393593 141.155885405405  38.9004360793288 143.513757837838  38.9004360793288 143.513757837838  C 38.9004360793288 143.513757837838  38.2240195652174 146.744420540541  38.2240195652174 146.744420540541  C 38.2240195652174 146.744420540541  37.6228951563692 148.34428  37.6228951563692 148.34428  C 37.6228951563692 148.34428  36.4819954614797 149.457158918919  36.4819954614797 149.457158918919  C 36.4819954614797 149.457158918919  33.1752049961861 150.861150810811  33.1752049961861 150.861150810811  C 33.1752049961861 150.861150810811  31.6996737223494 152.599708648649  31.6996737223494 152.599708648649  C 31.6996737223494 152.599708648649  30.4423804347827 155.432601081081  30.4423804347827 155.432601081081  C 30.4423804347827 155.432601081081  29.8137337909992 160.239311891892  29.8137337909992 160.239311891892  C 29.8137337909992 160.239311891892  24.4506565217391 160.429254054054  24.4506565217391 160.429254054054  C 24.4506565217391 160.429254054054  22.5855704424104 162.06718972973  22.5855704424104 162.06718972973  C 22.5855704424104 162.06718972973  20.0236989702517 162.218945945946  20.0236989702517 162.218945945946  C 20.0236989702517 162.218945945946  16.6414951563692 163.48412972973  16.6414951563692 163.48412972973  C 16.6414951563692 163.48412972973  12.4332605644546 163.616902702703  12.4332605644546 163.616902702703  C 12.4332605644546 163.616902702703  11.1281974065599 163.09832  11.1281974065599 163.09832  C 11.1281974065599 163.09832  9.33840343249433 161.472344864865  9.33840343249433 161.472344864865  C 9.33840343249433 161.472344864865  6.55793024408848 160.549517837838  6.55793024408848 160.549517837838  C 6.55793024408848 160.549517837838  6.0727144546148 159.828483783784  6.0727144546148 159.828483783784  C 6.0727144546148 159.828483783784  6.31847467582002 150.54490972973  6.31847467582002 150.54490972973  C 6.31847467582002 150.54490972973  6.31847467582002 143.709625405405  6.31847467582002 143.709625405405  C 6.31847467582002 143.709625405405  5.56712978642261 141.414847567568  5.56712978642261 141.414847567568  C 5.56712978642261 141.414847567568  4.26206662852792 140.257967027027  4.26206662852792 140.257967027027  C 4.26206662852792 140.257967027027  3.85214294431729 139.120179459459  3.85214294431729 139.120179459459  C 3.85214294431729 139.120179459459  3.46307311212811 135.080808648649  3.46307311212811 135.080808648649  C 3.46307311212811 135.080808648649  0.675204080854272 131.755888108108  0.675204080854272 131.755888108108  C 0.675204080854272 131.755888108108  0.360941380625449 129.126544324324  0.360941380625449 129.126544324324  C 0.360941380625449 129.126544324324  10.0965379481312 126.927011891892  10.0965379481312 126.927011891892  C 10.0965379481312 126.927011891892  10.5545952326468 125.890834054054  10.5545952326468 125.890834054054  C 10.5545952326468 125.890834054054  10.4315332570556 122.383213513514  10.4315332570556 122.383213513514  C 10.4315332570556 122.383213513514  9.33161380625475 121.953841081081  9.33161380625475 121.953841081081  C 9.33161380625475 121.953841081081  9.54997303585048 119.931741621622  9.54997303585048 119.931741621622  C 9.54997303585048 119.931741621622  10.041857208238 118.901598918919  10.041857208238 118.901598918919  C 10.041857208238 118.901598918919  13.0957340961099 116.974086486486  13.0957340961099 116.974086486486  C 13.0957340961099 116.974086486486  14.1139355453852 116.039298918919  14.1139355453852 116.039298918919  C 14.1139355453852 116.039298918919  14.4417774980931 114.130879459459  14.4417774980931 114.130879459459  C 14.4417774980931 114.130879459459  13.6422990083906 113.176889189189  13.6422990083906 113.176889189189  C 13.6422990083906 113.176889189189  12.1122082379863 113.145396756757  12.1122082379863 113.145396756757  C 12.1122082379863 113.145396756757  11.1625092677345 112.437969189189  11.1625092677345 112.437969189189  C 11.1625092677345 112.437969189189  10.9167490465294 110.952887027027  10.9167490465294 110.952887027027  C 10.9167490465294 110.952887027027  11.5246630816171 106.707882702703  11.5246630816171 106.707882702703  C 11.5246630816171 106.707882702703  12.3579684591915 105.49493027027  12.3579684591915 105.49493027027  C 12.3579684591915 105.49493027027  14.8792234172387 103.504871891892  14.8792234172387 103.504871891892  C 14.8792234172387 103.504871891892  16.6212475209764 94.1715902702703  16.6212475209764 94.1715902702703  C 16.6212475209764 94.1715902702703  18.7118461861174 95.5674621621621  18.7118461861174 95.5674621621621  C 18.7118461861174 95.5674621621621  23.8838439740655 96.539887027027  23.8838439740655 96.539887027027  C 23.8838439740655 96.539887027027  26.0975046147979 97.165127027027  26.0975046147979 97.165127027027  C 26.0975046147979 97.165127027027  25.6122888253242 91.2793340540541  25.6122888253242 91.2793340540541  C 25.6122888253242 91.2793340540541  25.2705038901602 89.4477254054054  25.2705038901602 89.4477254054054  C 25.2705038901602 89.4477254054054  23.8770543478261 88.1156064864865  23.8770543478261 88.1156064864865  C 23.8770543478261 88.1156064864865  22.8862538901602 80.1908156756757  22.8862538901602 80.1908156756757  C 22.8862538901602 80.1908156756757  19.4360325705568 79.9324021621622  19.4360325705568 79.9324021621622  C 19.4360325705568 79.9324021621622  19.6069856598017 63.9175675675676  19.6069856598017 63.9175675675676  C 19.6069856598017 63.9175675675676  18.7461580472921 63.2362556756757  18.7461580472921 63.2362556756757  C 18.7461580472921 63.2362556756757  15.5692191838291 63.2487648648648  15.5692191838291 63.2487648648648  C 15.5692191838291 63.2487648648648  14.4215298627002 62.3775108108108  14.4215298627002 62.3775108108108  C 14.4215298627002 62.3775108108108  14.1275147978642 58.982472972973  14.1275147978642 58.982472972973  C 14.1275147978642 58.982472972973  20.9593337147216 55.7011151351351  20.9593337147216 55.7011151351351  C 20.9593337147216 55.7011151351351  24.2869780320367 55.4361178378378  24.2869780320367 55.4361178378378  C 24.2869780320367 55.4361178378378  27.3678921815408 55.9596383783784  27.3678921815408 55.9596383783784  C 27.3678921815408 55.9596383783784  34.9857315789474 58.5030637837838  34.9857315789474 58.5030637837838  C 34.9857315789474 58.5030637837838  36.9261097635393 59.5315605405406  36.9261097635393 59.5315605405406  C 36.9261097635393 59.5315605405406  38.5928417620137 60.9322605405405  38.5928417620137 60.9322605405405  C 38.5928417620137 60.9322605405405  42.3573257818458 66.1959956756756  42.3573257818458 66.1959956756756  C 42.3573257818458 66.1959956756756  43.7102800533944 67.1237605405406  43.7102800533944 67.1237605405406  C 43.7102800533944 67.1237605405406  47.064840389016 68.4242772972973  47.064840389016 68.4242772972973  C 47.064840389016 68.4242772972973  58.0711882532418 68.4744237837838  58.0711882532418 68.4744237837838  C 58.0711882532418 68.4744237837838  60.1959775362319 68.1402967567568  60.1959775362319 68.1402967567568  C 60.1959775362319 68.1402967567568  72.0699426392068 64.1068513513513  72.0699426392068 64.1068513513513  C 72.0699426392068 64.1068513513513  75.2193592677346 63.7853432432432  75.2193592677346 63.7853432432432  C 75.2193592677346 63.7853432432432  84.6000766209001 64.7065243243243  84.6000766209001 64.7065243243243  C 84.6000766209001 64.7065243243243  86.4308508390542 64.6559389189189  86.4308508390542 64.6559389189189  C 86.4308508390542 64.6559389189189  94.1781781083142 63.7346481081081  94.1781781083142 63.7346481081081  C 94.1781781083142 63.7346481081081  94.9980254767355 63.7912686486487  94.9980254767355 63.7912686486487  C 94.9980254767355 63.7912686486487  96.7198019450801 65.1358967567568  96.7198019450801 65.1358967567568  C 96.7198019450801 65.1358967567568  97.9567263539283 62.2958718918919  97.9567263539283 62.2958718918919  C 97.9567263539283 62.2958718918919  98.7286826086958 61.6456135135135  98.7286826086958 61.6456135135135  C 98.7286826086958 61.6456135135135  100.86717238749 61.4181437837838  100.86717238749 61.4181437837838  C 100.86717238749 61.4181437837838  102.390473531655 60.4021562162162  102.390473531655 60.4021562162162  C 102.390473531655 60.4021562162162  105.112628680397 58.2189735135135  105.112628680397 58.2189735135135  C 105.112628680397 58.2189735135135  105.789045194508 56.6540081081081  105.789045194508 56.6540081081081  C 105.789045194508 56.6540081081081  106.424481464531 53.9532302702702  106.424481464531 53.9532302702702  C 106.424481464531 53.9532302702702  108.972773684211 49.1455318918919  108.972773684211 49.1455318918919  C 108.972773684211 49.1455318918919  109.382697368421 47.3851378378379  109.382697368421 47.3851378378379  C 109.382697368421 47.3851378378379  109.293826010679 44.8112075675676  109.293826010679 44.8112075675676  C 109.293826010679 44.8112075675676  106.998568611747 42.7227216216216  106.998568611747 42.7227216216216  C 106.998568611747 42.7227216216216  106.260802974828 41.4233021621621  106.260802974828 41.4233021621621  C 106.260802974828 41.4233021621621  105.953208657513 39.7456443243243  105.953208657513 39.7456443243243  C 105.953208657513 39.7456443243243  106.445214073227 36.1693329729729  106.445214073227 36.1693329729729  C 106.445214073227 36.1693329729729  107.319620938215 34.239187027027  107.319620938215 34.239187027027  C 107.319620938215 34.239187027027  107.797562128146 29.798754054054  107.797562128146 29.798754054054  C 107.797562128146 29.798754054054  108.494832494279 28.0019297297297  108.494832494279 28.0019297297297  C 108.494832494279 28.0019297297297  109.83360129672 26.7024005405406  109.83360129672 26.7024005405406  C 109.83360129672 26.7024005405406  111.732999237223 26.1223691891892  111.732999237223 26.1223691891892  C 111.732999237223 26.1223691891892  114.008130244089 24.2498313513514  114.008130244089 24.2498313513514  C 114.008130244089 24.2498313513514  116.713796300534 19.4829524324325  116.713796300534 19.4829524324325  C 116.713796300534 19.4829524324325  116.713796300534 17.2633394594595  116.713796300534 17.2633394594595  C 116.713796300534 17.2633394594595  115.135450686499 14.7035643243243  115.135450686499 14.7035643243243  C 115.135450686499 14.7035643243243  114.98523020595 12.2199416216216  114.98523020595 12.2199416216216  C 114.98523020595 12.2199416216216  115.914196567506 9.84352486486483  115.914196567506 9.84352486486483  C 115.914196567506 9.84352486486483  117.403670823799 7.15152540540544  117.403670823799 7.15152540540544  C 117.403670823799 7.15152540540544  123.27912238749 0.955636216216249  123.27912238749 0.955636216216249  C 123.27912238749 0.955636216216249  126.415081006865 3.32557891891889  126.415081006865 3.32557891891889  C 126.415081006865 3.32557891891889  128.765382875667 3.9561956756757  128.765382875667 3.9561956756757  C 128.765382875667 3.9561956756757  134.517651220442 1.74360540540539  134.517651220442 1.74360540540539  C 134.517651220442 1.74360540540539  138.439630320366 1.90139675675675  138.439630320366 1.90139675675675  C 138.439630320366 1.90139675675675  144.321750266972 5.36775891891892  144.321750266972 5.36775891891892  C 144.321750266972 5.36775891891892  138.630831045004 23.6001216216216  138.630831045004 23.6001216216216  C 138.630831045004 23.6001216216216  137.933681922197 26.8096064864865  137.933681922197 26.8096064864865  C 137.933681922197 26.8096064864865  137.018173569794 28.7648805405406  137.018173569794 28.7648805405406  C 137.018173569794 28.7648805405406  127.275908619375 24.4386762162162  127.275908619375 24.4386762162162  C 127.275908619375 24.4386762162162  124.372252212052 23.8270427027027  124.372252212052 23.8270427027027  C 124.372252212052 23.8270427027027  122.295111556064 23.7639481081081  122.295111556064 23.7639481081081  C 122.295111556064 23.7639481081081  118.435087795576 24.6971994594595  118.435087795576 24.6971994594595  C 118.435087795576 24.6971994594595  116.549632837529 25.8323535135135  116.549632837529 25.8323535135135  C 116.549632837529 25.8323535135135  115.196799809306 27.440332972973  115.196799809306 27.440332972973  C 115.196799809306 27.440332972973  111.30961754386 37.771387027027  111.30961754386 37.771387027027  C 111.30961754386 37.771387027027  110.783300266972 41.6252048648649  110.783300266972 41.6252048648649  C 110.783300266972 41.6252048648649  110.947463729977 46.0035308108108  110.947463729977 46.0035308108108  C 110.947463729977 46.0035308108108  110.680970900076 48.4577459459459  110.680970900076 48.4577459459459  C 110.680970900076 48.4577459459459  110.004554385965 50.7034745945946  110.004554385965 50.7034745945946  C 110.004554385965 50.7034745945946  107.333078947369 55.6571135135135  107.333078947369 55.6571135135135  C 107.333078947369 55.6571135135135  104.402385278414 60.4212491891892  104.402385278414 60.4212491891892  C 104.402385278414 60.4212491891892  99.6030894736843 67.2124221621622  99.6030894736843 67.2124221621622  C 99.6030894736843 67.2124221621622  99.4118887490466 68.7584043243244  99.4118887490466 68.7584043243244  C 99.4118887490466 68.7584043243244  99.9584536613272 69.9012394594595  99.9584536613272 69.9012394594595  C 99.9584536613272 69.9012394594595  101.80280713196 70.9237010810811  101.80280713196 70.9237010810811  C 101.80280713196 70.9237010810811  101.550378527841 72.4452135135135  101.550378527841 72.4452135135135  C 101.550378527841 72.4452135135135  97.4028868421053 74.1870632432432  97.4028868421053 74.1870632432432  C 97.4028868421053 74.1870632432432  96.7815147978643 74.7997940540541  96.7815147978643 74.7997940540541  C 96.7815147978643 74.7997940540541  97.1914384820749 76.491607027027  97.1914384820749 76.491607027027  C 97.1914384820749 76.491607027027  100.081151906941 80.5570935135136  100.081151906941 80.5570935135136  C 100.081151906941 80.5570935135136  107.784104118993 84.1371356756757  107.784104118993 84.1371356756757  C 107.784104118993 84.1371356756757  109.184707017544 84.1371356756757  109.184707017544 84.1371356756757  C 109.184707017544 84.1371356756757  110.079846491228 82.3566610810811  110.079846491228 82.3566610810811  C 110.079846491228 82.3566610810811  111.234325438596 78.3287021621622  111.234325438596 78.3287021621622  C 111.234325438596 78.3287021621622  112.006281693364 77.6593508108108  112.006281693364 77.6593508108108  C 112.006281693364 77.6593508108108  116.740833562166 75.1278859459459  116.740833562166 75.1278859459459  C 116.740833562166 75.1278859459459  117.799651525553 74.8944908108108  117.799651525553 74.8944908108108  C 117.799651525553 74.8944908108108  120.628500800915 75.1153767567567  120.628500800915 75.1153767567567  C 120.628500800915 75.1153767567567  122.787116971777 74.2376486486486  122.787116971777 74.2376486486486  C 122.787116971777 74.2376486486486  124.9733766209 71.8955772972973  124.9733766209 71.8955772972973  C 124.9733766209 71.8955772972973  126.30596201373 71.5423572972973  126.30596201373 71.5423572972973  C 126.30596201373 71.5423572972973  126.981893554538 72.0980286486487  126.981893554538 72.0980286486487  C 126.981893554538 72.0980286486487  128.7924201373 72.0980286486487  128.7924201373 72.0980286486487  C 128.7924201373 72.0980286486487  130.391013386728 71.5739594594595  130.391013386728 71.5739594594595  C 130.391013386728 71.5739594594595  132.031193096873 72.6535902702703  132.031193096873 72.6535902702703  C 132.031193096873 72.6535902702703  133.3632935164 72.6219881081081  133.3632935164 72.6219881081081  C 133.3632935164 72.6219881081081  139.149873722349 76.7882064864865  139.149873722349 76.7882064864865  C 139.149873722349 76.7882064864865  143.611143135011 79.5221227027027  143.611143135011 79.5221227027027  C 143.611143135011 79.5221227027027  144.492703356217 79.6227448648648  144.492703356217 79.6227448648648  C 144.492703356217 79.6227448648648  148.07956590389 84.2068140540541  148.07956590389 84.2068140540541  C 148.07956590389 84.2068140540541  148.728460183066 84.5981102702702  148.728460183066 84.5981102702702  C 148.728460183066 84.5981102702702  150.259035926773 83.1082  150.259035926773 83.1082  C 150.259035926773 83.1082  154.207446071701 81.5675945945946  154.207446071701 81.5675945945946  C 154.207446071701 81.5675945945946  156.024762280702 81.9213632432433  156.024762280702 81.9213632432433  C 156.024762280702 81.9213632432433  157.364137299771 81.4603886486486  157.364137299771 81.4603886486486  C 157.364137299771 81.4603886486486  160.602425286041 81.5550854054054  160.602425286041 81.5550854054054  C 160.602425286041 81.5550854054054  161.695555110603 81.0942205405405  161.695555110603 81.0942205405405  C 161.695555110603 81.0942205405405  162.88422467582 78.7956021621622  162.88422467582 78.7956021621622  C 162.88422467582 78.7956021621622  162.959516781083 76.8513010810811  162.959516781083 76.8513010810811  C 162.959516781083 76.8513010810811  163.718015026697 74.3829308108108  163.718015026697 74.3829308108108  C 163.718015026697 74.3829308108108  164.503550533944 74.3389291891892  164.503550533944 74.3389291891892  C 164.503550533944 74.3389291891892  168.616245385202 78.8402621621622  168.616245385202 78.8402621621622  C 168.616245385202 78.8402621621622  170.761888520214 80.5129821621621  170.761888520214 80.5129821621621  C 170.761888520214 80.5129821621621  173.282658504958 79.6037616216216  173.282658504958 79.6037616216216  C 173.282658504958 79.6037616216216  174.854214492753 80.8982432432433  174.854214492753 80.8982432432433  C 174.854214492753 80.8982432432433  175.871930968726 80.7970724324324  175.871930968726 80.7970724324324  C 175.871930968726 80.7970724324324  179.055659458429 79.3071621621622  179.055659458429 79.3071621621622  C 179.055659458429 79.3071621621622  181.13946849733 77.5081432432432  181.13946849733 77.5081432432432  C 181.13946849733 77.5081432432432  182.629063996949 80.2164924324325  182.629063996949 80.2164924324325  C 182.629063996949 80.2164924324325  182.273699809306 81.6367243243243  182.273699809306 81.6367243243243  C 182.273699809306 81.6367243243243  184.821992028986 82.8491281081081  184.821992028986 82.8491281081081  C 184.821992028986 82.8491281081081  187.247222273074 86.5369248648649  187.247222273074 86.5369248648649  C 187.247222273074 86.5369248648649  188.818778260869 85.2864448648649  188.818778260869 85.2864448648649  C 188.818778260869 85.2864448648649  183.079967925248 78.5936994594595  183.079967925248 78.5936994594595  C 183.079967925248 78.5936994594595  188.504394317315 73.8654454054054  188.504394317315 73.8654454054054  C 188.504394317315 73.8654454054054  193.300780282227 79.1749378378378  193.300780282227 79.1749378378378  C 193.300780282227 79.1749378378378  190.957146796339 81.2454281081081  190.957146796339 81.2454281081081  C 190.957146796339 81.2454281081081  195.541478184592 87.4778572972973  195.541478184592 87.4778572972973  C 195.541478184592 87.4778572972973  200.959236193745 84.7814686486486  200.959236193745 84.7814686486486  C 200.959236193745 84.7814686486486  203.405199046529 88.9427491891892  203.405199046529 88.9427491891892  C 203.405199046529 88.9427491891892  185.935854462242 102.961819459459  185.935854462242 102.961819459459  C 185.935854462242 102.961819459459  185.860562356979 104.780918918919  185.860562356979 104.780918918919  C 185.860562356979 104.780918918919  177.347947215866 110.472929189189  177.347947215866 110.472929189189  C 177.347947215866 110.472929189189  181.412750953471 118.964693513514  181.412750953471 118.964693513514  C 181.412750953471 118.964693513514  177.395717086194 121.391147027027  177.395717086194 121.391147027027  C 177.395717086194 121.391147027027  176.391458619374 121.088073513514  176.391458619374 121.088073513514  C 176.391458619374 121.088073513514  174.23235747521 118.851013513514  174.23235747521 118.851013513514  C 174.23235747521 118.851013513514  171.021106750572 118.149511351351  171.021106750572 118.149511351351  C 171.021106750572 118.149511351351  168.760039969489 121.694220540541  168.760039969489 121.694220540541  C 168.760039969489 121.694220540541  161.128621319603 129.600467027027  161.128621319603 129.600467027027  C 161.128621319603 129.600467027027  158.969520175439 130.649592972973  158.969520175439 130.649592972973  C 158.969520175439 130.649592972973  152.192139511823 131.161701621622  152.192139511823 131.161701621622  C 152.192139511823 131.161701621622  149.206522616323 147.591753513513  149.206522616323 147.591753513513  C 149.206522616323 147.591753513513  152.021307665904 150.576511891892  152.021307665904 150.576511891892  C 152.021307665904 150.576511891892  157.391174561403 154.977771351351  157.391174561403 154.977771351351  C 157.391174561403 154.977771351351  160.513553928299 157.836230810811  160.513553928299 157.836230810811  C 160.513553928299 157.836230810811  163.308091342487 159.651050810811  163.308091342487 159.651050810811  C 163.308091342487 159.651050810811  167.2498331045 161.156213513514  167.2498331045 161.156213513514  C 167.2498331045 161.156213513514  171.192059839817 162.042061621622  171.192059839817 162.042061621622  C 171.192059839817 162.042061621622  171.472131922197 160.036860540541  171.472131922197 160.036860540541  C 171.472131922197 160.036860540541  173.829223417239 156.729387027027  173.829223417239 156.729387027027  C 173.829223417239 156.729387027027  174.901984363081 157.501006486486  174.901984363081 157.501006486486  C 174.901984363081 157.501006486486  172.312590655988 162.750037837838  172.312590655988 162.750037837838  C 172.312590655988 162.750037837838  175.134286575134 165.577553513514  175.134286575134 165.577553513514  C 175.134286575134 165.577553513514  175.742079366895 167.74712972973  175.742079366895 167.74712972973  C 175.742079366895 167.74712972973  178.023878756674 168.968311891892  178.023878756674 168.968311891892  C 178.023878756674 168.968311891892  180.326410755149 169.76494972973  180.326410755149 169.76494972973  C 180.326410755149 169.76494972973  179.636536231884 171.922565405405  179.636536231884 171.922565405405  C 179.636536231884 171.922565405405  179.43139252479 173.870707027027  179.43139252479 173.870707027027  C 179.43139252479 173.870707027027  183.933642181541 174.788157297297  183.933642181541 174.788157297297  C 183.933642181541 174.788157297297  187.971408657513 175.888965945946  187.971408657513 175.888965945946  C 187.971408657513 175.888965945946  194.338865636918 178.07170972973  194.338865636918 178.07170972973  Z " fill-rule="nonzero" fill="#409eff" stroke="none" fill-opacity="0.298039215686275" transform="matrix(1 0 0 1 936 294 )" />
    <path d="M 194.338865636918 178.07170972973  C 194.338865636918 178.07170972973  196.511424790236 180.640702162162  196.511424790236 180.640702162162  C 196.511424790236 180.640702162162  196.224684324943 182.11536  196.224684324943 182.11536  C 196.224684324943 182.11536  181.296478604119 182.039207567568  181.296478604119 182.039207567568  C 181.296478604119 182.039207567568  170.085350762776 182.494695675676  170.085350762776 182.494695675676  C 170.085350762776 182.494695675676  163.082578756674 183.089430810811  163.082578756674 183.089430810811  C 163.082578756674 183.089430810811  147.259718535469 184.266501621622  147.259718535469 184.266501621622  C 147.259718535469 184.266501621622  141.630027192982 184.551030810811  141.630027192982 184.551030810811  C 141.630027192982 184.551030810811  131.559435316552 185.241121081081  131.559435316552 185.241121081081  C 131.559435316552 185.241121081081  128.341516209001 186.65860972973  128.341516209001 186.65860972973  C 128.341516209001 186.65860972973  127.959114759725 187.240945405405  127.959114759725 187.240945405405  C 127.959114759725 187.240945405405  126.121429672006 187.30404  126.121429672006 187.30404  C 126.121429672006 187.30404  125.711142257819 187.766002162162  125.711142257819 187.766002162162  C 125.711142257819 187.766002162162  121.858150610221 187.7344  121.858150610221 187.7344  C 121.858150610221 187.7344  121.482053813883 186.550855135135  121.482053813883 186.550855135135  C 121.482053813883 186.550855135135  115.12187143402 187.259928648649  115.12187143402 187.259928648649  C 115.12187143402 187.259928648649  114.103669984745 186.974741081081  114.103669984745 186.974741081081  C 114.103669984745 186.974741081081  112.07442044241 188.918054594595  112.07442044241 188.918054594595  C 112.07442044241 188.918054594595  113.577837681159 192.575895135135  113.577837681159 192.575895135135  C 113.577837681159 192.575895135135  112.361645881007 193.766023783784  112.361645881007 193.766023783784  C 112.361645881007 193.766023783784  110.954253356217 193.905270810811  110.954253356217 193.905270810811  C 110.954253356217 193.905270810811  109.341595881007 191.9365  109.341595881007 191.9365  C 109.341595881007 191.9365  107.128420213577 194.18990972973  107.128420213577 194.18990972973  C 107.128420213577 194.18990972973  101.67295553013 199.836162702703  101.67295553013 199.836162702703  C 101.67295553013 199.836162702703  100.921731884058 200.196954054054  100.921731884058 200.196954054054  C 100.921731884058 200.196954054054  91.0901106025935 199.202802702703  91.0901106025935 199.202802702703  C 91.0901106025935 199.202802702703  87.6330996567506 198.582390810811  87.6330996567506 198.582390810811  C 87.6330996567506 198.582390810811  87.4418989321129 201.78595027027  87.4418989321129 201.78595027027  C 87.4418989321129 201.78595027027  83.5817539282991 202.355667027027  83.5817539282991 202.355667027027  C 83.5817539282991 202.355667027027  79.7491311594203 202.659289189189  79.7491311594203 202.659289189189  C 79.7491311594203 202.659289189189  72.4455544622426 201.874063243243  72.4455544622426 201.874063243243  C 72.4455544622426 201.874063243243  70.6827977498093 201.861554054054  70.6827977498093 201.861554054054  C 70.6827977498093 201.861554054054  68.5583721967963 201.279328108108  68.5583721967963 201.279328108108  C 68.5583721967963 201.279328108108  67.8752872997712 200.336310810811  67.8752872997712 200.336310810811  C 67.8752872997712 200.336310810811  67.1780169336385 197.867391891892  67.1780169336385 197.867391891892  C 67.1780169336385 197.867391891892  64.7804301678109 195.924188108108  64.7804301678109 195.924188108108  C 64.7804301678109 195.924188108108  57.6887868039665 193.227799459459  57.6887868039665 193.227799459459  C 57.6887868039665 193.227799459459  56.2470824180016 193.316570810811  56.2470824180016 193.316570810811  C 56.2470824180016 193.316570810811  54.1767313882533 194.227985945946  54.1767313882533 194.227985945946  C 54.1767313882533 194.227985945946  49.6267118611747 197.266072972973  49.6267118611747 197.266072972973  C 49.6267118611747 197.266072972973  50.8704258962624 187.19025027027  50.8704258962624 187.19025027027  C 50.8704258962624 187.19025027027  55.1950540808544 187.816587567568  55.1950540808544 187.816587567568  C 55.1950540808544 187.816587567568  57.8388860411899 187.873756756757  57.8388860411899 187.873756756757  C 57.8388860411899 187.873756756757  59.635469641495 186.323385405405  59.635469641495 186.323385405405  C 59.635469641495 186.323385405405  60.0931631960335 183.513316756757  60.0931631960335 183.513316756757  C 60.0931631960335 183.513316756757  58.8706667429443 180.691287567568  58.8706667429443 180.691287567568  C 58.8706667429443 180.691287567568  58.8228968726163 179.470215135135  58.8228968726163 179.470215135135  C 58.8228968726163 179.470215135135  59.4374792906179 176.395039459459  59.4374792906179 176.395039459459  C 59.4374792906179 176.395039459459  60.7629113272311 173.573558918919  60.7629113272311 173.573558918919  C 60.7629113272311 173.573558918919  61.6034913043479 168.366992972973  61.6034913043479 168.366992972973  C 61.6034913043479 168.366992972973  62.2388063310449 160.359575675676  62.2388063310449 160.359575675676  C 62.2388063310449 160.359575675676  61.992561136537 156.065522162162  61.992561136537 156.065522162162  C 61.992561136537 156.065522162162  61.6444715484362 153.504101081081  61.6444715484362 153.504101081081  C 61.6444715484362 153.504101081081  60.5919582379862 152.587199459459  60.5919582379862 152.587199459459  C 60.5919582379862 152.587199459459  58.8499341342487 152.309144324324  58.8499341342487 152.309144324324  C 58.8499341342487 152.309144324324  58.0508193745233 151.120112972973  58.0508193745233 151.120112972973  C 58.0508193745233 151.120112972973  58.1942502288329 150.285398918919  58.1942502288329 150.285398918919  C 58.1942502288329 150.285398918919  59.6629918764302 148.881955675676  59.6629918764302 148.881955675676  C 59.6629918764302 148.881955675676  60.237079023646 147.275622162162  60.237079023646 147.275622162162  C 60.237079023646 147.275622162162  60.0251456903127 145.366105405405  60.0251456903127 145.366105405405  C 60.0251456903127 145.366105405405  63.7553178489702 143.469646486486  63.7553178489702 143.469646486486  C 63.7553178489702 143.469646486486  66.4949320366132 142.400878918919  66.4949320366132 142.400878918919  C 66.4949320366132 142.400878918919  66.8502962242563 140.959469189189  66.8502962242563 140.959469189189  C 66.8502962242563 140.959469189189  66.0850083524027 138.576468648649  66.0850083524027 138.576468648649  C 66.0850083524027 138.576468648649  65.8870180015256 136.06684  65.8870180015256 136.06684  C 65.8870180015256 136.06684  65.1762896262395 134.214492432432  65.1762896262395 134.214492432432  C 65.1762896262395 134.214492432432  65.3061412280701 132.830690810811  65.3061412280701 132.830690810811  C 65.3061412280701 132.830690810811  66.747845614035 129.259317297297  66.747845614035 129.259317297297  C 66.747845614035 129.259317297297  67.5609033562167 127.805837297297  67.5609033562167 127.805837297297  C 67.5609033562167 127.805837297297  67.7245818459192 124.961423243243  67.7245818459192 124.961423243243  C 67.7245818459192 124.961423243243  60.237079023646 124.291523243243  60.237079023646 124.291523243243  C 60.237079023646 124.291523243243  60.2573266590389 123.015476216216  60.2573266590389 123.015476216216  C 60.2573266590389 123.015476216216  61.0294041571319 122.522460540541  61.0294041571319 122.522460540541  C 61.0294041571319 122.522460540541  64.7870985507246 122.989909189189  64.7870985507246 122.989909189189  C 64.7870985507246 122.989909189189  65.8870180015256 121.934748108108  65.8870180015256 121.934748108108  C 65.8870180015256 121.934748108108  68.4488894736842 121.303034054054  68.4488894736842 121.303034054054  C 68.4488894736842 121.303034054054  65.7913570175438 119.862063243243  65.7913570175438 119.862063243243  C 65.7913570175438 119.862063243243  62.9901512204425 117.60591027027  62.9901512204425 117.60591027027  C 62.9901512204425 117.60591027027  61.0979066361557 116.740691351351  61.0979066361557 116.740691351351  C 61.0979066361557 116.740691351351  59.7175513729977 116.550749189189  59.7175513729977 116.550749189189  C 59.7175513729977 116.550749189189  47.8981457665905 118.756316756757  47.8981457665905 118.756316756757  C 47.8981457665905 118.756316756757  46.9146199084667 133.196858918919  46.9146199084667 133.196858918919  C 46.9146199084667 133.196858918919  46.5048174675821 134.916433513514  46.5048174675821 134.916433513514  C 46.5048174675821 134.916433513514  45.2064226926011 136.572364864865  45.2064226926011 136.572364864865  C 45.2064226926011 136.572364864865  41.3120870709382 139.581592972973  41.3120870709382 139.581592972973  C 41.3120870709382 139.581592972973  39.7476844393593 141.155885405405  39.7476844393593 141.155885405405  C 39.7476844393593 141.155885405405  38.9004360793288 143.513757837838  38.9004360793288 143.513757837838  C 38.9004360793288 143.513757837838  38.2240195652174 146.744420540541  38.2240195652174 146.744420540541  C 38.2240195652174 146.744420540541  37.6228951563692 148.34428  37.6228951563692 148.34428  C 37.6228951563692 148.34428  36.4819954614797 149.457158918919  36.4819954614797 149.457158918919  C 36.4819954614797 149.457158918919  33.1752049961861 150.861150810811  33.1752049961861 150.861150810811  C 33.1752049961861 150.861150810811  31.6996737223494 152.599708648649  31.6996737223494 152.599708648649  C 31.6996737223494 152.599708648649  30.4423804347827 155.432601081081  30.4423804347827 155.432601081081  C 30.4423804347827 155.432601081081  29.8137337909992 160.239311891892  29.8137337909992 160.239311891892  C 29.8137337909992 160.239311891892  24.4506565217391 160.429254054054  24.4506565217391 160.429254054054  C 24.4506565217391 160.429254054054  22.5855704424104 162.06718972973  22.5855704424104 162.06718972973  C 22.5855704424104 162.06718972973  20.0236989702517 162.218945945946  20.0236989702517 162.218945945946  C 20.0236989702517 162.218945945946  16.6414951563692 163.48412972973  16.6414951563692 163.48412972973  C 16.6414951563692 163.48412972973  12.4332605644546 163.616902702703  12.4332605644546 163.616902702703  C 12.4332605644546 163.616902702703  11.1281974065599 163.09832  11.1281974065599 163.09832  C 11.1281974065599 163.09832  9.33840343249433 161.472344864865  9.33840343249433 161.472344864865  C 9.33840343249433 161.472344864865  6.55793024408848 160.549517837838  6.55793024408848 160.549517837838  C 6.55793024408848 160.549517837838  6.0727144546148 159.828483783784  6.0727144546148 159.828483783784  C 6.0727144546148 159.828483783784  6.31847467582002 150.54490972973  6.31847467582002 150.54490972973  C 6.31847467582002 150.54490972973  6.31847467582002 143.709625405405  6.31847467582002 143.709625405405  C 6.31847467582002 143.709625405405  5.56712978642261 141.414847567568  5.56712978642261 141.414847567568  C 5.56712978642261 141.414847567568  4.26206662852792 140.257967027027  4.26206662852792 140.257967027027  C 4.26206662852792 140.257967027027  3.85214294431729 139.120179459459  3.85214294431729 139.120179459459  C 3.85214294431729 139.120179459459  3.46307311212811 135.080808648649  3.46307311212811 135.080808648649  C 3.46307311212811 135.080808648649  0.675204080854272 131.755888108108  0.675204080854272 131.755888108108  C 0.675204080854272 131.755888108108  0.360941380625449 129.126544324324  0.360941380625449 129.126544324324  C 0.360941380625449 129.126544324324  10.0965379481312 126.927011891892  10.0965379481312 126.927011891892  C 10.0965379481312 126.927011891892  10.5545952326468 125.890834054054  10.5545952326468 125.890834054054  C 10.5545952326468 125.890834054054  10.4315332570556 122.383213513514  10.4315332570556 122.383213513514  C 10.4315332570556 122.383213513514  9.33161380625475 121.953841081081  9.33161380625475 121.953841081081  C 9.33161380625475 121.953841081081  9.54997303585048 119.931741621622  9.54997303585048 119.931741621622  C 9.54997303585048 119.931741621622  10.041857208238 118.901598918919  10.041857208238 118.901598918919  C 10.041857208238 118.901598918919  13.0957340961099 116.974086486486  13.0957340961099 116.974086486486  C 13.0957340961099 116.974086486486  14.1139355453852 116.039298918919  14.1139355453852 116.039298918919  C 14.1139355453852 116.039298918919  14.4417774980931 114.130879459459  14.4417774980931 114.130879459459  C 14.4417774980931 114.130879459459  13.6422990083906 113.176889189189  13.6422990083906 113.176889189189  C 13.6422990083906 113.176889189189  12.1122082379863 113.145396756757  12.1122082379863 113.145396756757  C 12.1122082379863 113.145396756757  11.1625092677345 112.437969189189  11.1625092677345 112.437969189189  C 11.1625092677345 112.437969189189  10.9167490465294 110.952887027027  10.9167490465294 110.952887027027  C 10.9167490465294 110.952887027027  11.5246630816171 106.707882702703  11.5246630816171 106.707882702703  C 11.5246630816171 106.707882702703  12.3579684591915 105.49493027027  12.3579684591915 105.49493027027  C 12.3579684591915 105.49493027027  14.8792234172387 103.504871891892  14.8792234172387 103.504871891892  C 14.8792234172387 103.504871891892  16.6212475209764 94.1715902702703  16.6212475209764 94.1715902702703  C 16.6212475209764 94.1715902702703  18.7118461861174 95.5674621621621  18.7118461861174 95.5674621621621  C 18.7118461861174 95.5674621621621  23.8838439740655 96.539887027027  23.8838439740655 96.539887027027  C 23.8838439740655 96.539887027027  26.0975046147979 97.165127027027  26.0975046147979 97.165127027027  C 26.0975046147979 97.165127027027  25.6122888253242 91.2793340540541  25.6122888253242 91.2793340540541  C 25.6122888253242 91.2793340540541  25.2705038901602 89.4477254054054  25.2705038901602 89.4477254054054  C 25.2705038901602 89.4477254054054  23.8770543478261 88.1156064864865  23.8770543478261 88.1156064864865  C 23.8770543478261 88.1156064864865  22.8862538901602 80.1908156756757  22.8862538901602 80.1908156756757  C 22.8862538901602 80.1908156756757  19.4360325705568 79.9324021621622  19.4360325705568 79.9324021621622  C 19.4360325705568 79.9324021621622  19.6069856598017 63.9175675675676  19.6069856598017 63.9175675675676  C 19.6069856598017 63.9175675675676  18.7461580472921 63.2362556756757  18.7461580472921 63.2362556756757  C 18.7461580472921 63.2362556756757  15.5692191838291 63.2487648648648  15.5692191838291 63.2487648648648  C 15.5692191838291 63.2487648648648  14.4215298627002 62.3775108108108  14.4215298627002 62.3775108108108  C 14.4215298627002 62.3775108108108  14.1275147978642 58.982472972973  14.1275147978642 58.982472972973  C 14.1275147978642 58.982472972973  20.9593337147216 55.7011151351351  20.9593337147216 55.7011151351351  C 20.9593337147216 55.7011151351351  24.2869780320367 55.4361178378378  24.2869780320367 55.4361178378378  C 24.2869780320367 55.4361178378378  27.3678921815408 55.9596383783784  27.3678921815408 55.9596383783784  C 27.3678921815408 55.9596383783784  34.9857315789474 58.5030637837838  34.9857315789474 58.5030637837838  C 34.9857315789474 58.5030637837838  36.9261097635393 59.5315605405406  36.9261097635393 59.5315605405406  C 36.9261097635393 59.5315605405406  38.5928417620137 60.9322605405405  38.5928417620137 60.9322605405405  C 38.5928417620137 60.9322605405405  42.3573257818458 66.1959956756756  42.3573257818458 66.1959956756756  C 42.3573257818458 66.1959956756756  43.7102800533944 67.1237605405406  43.7102800533944 67.1237605405406  C 43.7102800533944 67.1237605405406  47.064840389016 68.4242772972973  47.064840389016 68.4242772972973  C 47.064840389016 68.4242772972973  58.0711882532418 68.4744237837838  58.0711882532418 68.4744237837838  C 58.0711882532418 68.4744237837838  60.1959775362319 68.1402967567568  60.1959775362319 68.1402967567568  C 60.1959775362319 68.1402967567568  72.0699426392068 64.1068513513513  72.0699426392068 64.1068513513513  C 72.0699426392068 64.1068513513513  75.2193592677346 63.7853432432432  75.2193592677346 63.7853432432432  C 75.2193592677346 63.7853432432432  84.6000766209001 64.7065243243243  84.6000766209001 64.7065243243243  C 84.6000766209001 64.7065243243243  86.4308508390542 64.6559389189189  86.4308508390542 64.6559389189189  C 86.4308508390542 64.6559389189189  94.1781781083142 63.7346481081081  94.1781781083142 63.7346481081081  C 94.1781781083142 63.7346481081081  94.9980254767355 63.7912686486487  94.9980254767355 63.7912686486487  C 94.9980254767355 63.7912686486487  96.7198019450801 65.1358967567568  96.7198019450801 65.1358967567568  C 96.7198019450801 65.1358967567568  97.9567263539283 62.2958718918919  97.9567263539283 62.2958718918919  C 97.9567263539283 62.2958718918919  98.7286826086958 61.6456135135135  98.7286826086958 61.6456135135135  C 98.7286826086958 61.6456135135135  100.86717238749 61.4181437837838  100.86717238749 61.4181437837838  C 100.86717238749 61.4181437837838  102.390473531655 60.4021562162162  102.390473531655 60.4021562162162  C 102.390473531655 60.4021562162162  105.112628680397 58.2189735135135  105.112628680397 58.2189735135135  C 105.112628680397 58.2189735135135  105.789045194508 56.6540081081081  105.789045194508 56.6540081081081  C 105.789045194508 56.6540081081081  106.424481464531 53.9532302702702  106.424481464531 53.9532302702702  C 106.424481464531 53.9532302702702  108.972773684211 49.1455318918919  108.972773684211 49.1455318918919  C 108.972773684211 49.1455318918919  109.382697368421 47.3851378378379  109.382697368421 47.3851378378379  C 109.382697368421 47.3851378378379  109.293826010679 44.8112075675676  109.293826010679 44.8112075675676  C 109.293826010679 44.8112075675676  106.998568611747 42.7227216216216  106.998568611747 42.7227216216216  C 106.998568611747 42.7227216216216  106.260802974828 41.4233021621621  106.260802974828 41.4233021621621  C 106.260802974828 41.4233021621621  105.953208657513 39.7456443243243  105.953208657513 39.7456443243243  C 105.953208657513 39.7456443243243  106.445214073227 36.1693329729729  106.445214073227 36.1693329729729  C 106.445214073227 36.1693329729729  107.319620938215 34.239187027027  107.319620938215 34.239187027027  C 107.319620938215 34.239187027027  107.797562128146 29.798754054054  107.797562128146 29.798754054054  C 107.797562128146 29.798754054054  108.494832494279 28.0019297297297  108.494832494279 28.0019297297297  C 108.494832494279 28.0019297297297  109.83360129672 26.7024005405406  109.83360129672 26.7024005405406  C 109.83360129672 26.7024005405406  111.732999237223 26.1223691891892  111.732999237223 26.1223691891892  C 111.732999237223 26.1223691891892  114.008130244089 24.2498313513514  114.008130244089 24.2498313513514  C 114.008130244089 24.2498313513514  116.713796300534 19.4829524324325  116.713796300534 19.4829524324325  C 116.713796300534 19.4829524324325  116.713796300534 17.2633394594595  116.713796300534 17.2633394594595  C 116.713796300534 17.2633394594595  115.135450686499 14.7035643243243  115.135450686499 14.7035643243243  C 115.135450686499 14.7035643243243  114.98523020595 12.2199416216216  114.98523020595 12.2199416216216  C 114.98523020595 12.2199416216216  115.914196567506 9.84352486486483  115.914196567506 9.84352486486483  C 115.914196567506 9.84352486486483  117.403670823799 7.15152540540544  117.403670823799 7.15152540540544  C 117.403670823799 7.15152540540544  123.27912238749 0.955636216216249  123.27912238749 0.955636216216249  C 123.27912238749 0.955636216216249  126.415081006865 3.32557891891889  126.415081006865 3.32557891891889  C 126.415081006865 3.32557891891889  128.765382875667 3.9561956756757  128.765382875667 3.9561956756757  C 128.765382875667 3.9561956756757  134.517651220442 1.74360540540539  134.517651220442 1.74360540540539  C 134.517651220442 1.74360540540539  138.439630320366 1.90139675675675  138.439630320366 1.90139675675675  C 138.439630320366 1.90139675675675  144.321750266972 5.36775891891892  144.321750266972 5.36775891891892  C 144.321750266972 5.36775891891892  138.630831045004 23.6001216216216  138.630831045004 23.6001216216216  C 138.630831045004 23.6001216216216  137.933681922197 26.8096064864865  137.933681922197 26.8096064864865  C 137.933681922197 26.8096064864865  137.018173569794 28.7648805405406  137.018173569794 28.7648805405406  C 137.018173569794 28.7648805405406  127.275908619375 24.4386762162162  127.275908619375 24.4386762162162  C 127.275908619375 24.4386762162162  124.372252212052 23.8270427027027  124.372252212052 23.8270427027027  C 124.372252212052 23.8270427027027  122.295111556064 23.7639481081081  122.295111556064 23.7639481081081  C 122.295111556064 23.7639481081081  118.435087795576 24.6971994594595  118.435087795576 24.6971994594595  C 118.435087795576 24.6971994594595  116.549632837529 25.8323535135135  116.549632837529 25.8323535135135  C 116.549632837529 25.8323535135135  115.196799809306 27.440332972973  115.196799809306 27.440332972973  C 115.196799809306 27.440332972973  111.30961754386 37.771387027027  111.30961754386 37.771387027027  C 111.30961754386 37.771387027027  110.783300266972 41.6252048648649  110.783300266972 41.6252048648649  C 110.783300266972 41.6252048648649  110.947463729977 46.0035308108108  110.947463729977 46.0035308108108  C 110.947463729977 46.0035308108108  110.680970900076 48.4577459459459  110.680970900076 48.4577459459459  C 110.680970900076 48.4577459459459  110.004554385965 50.7034745945946  110.004554385965 50.7034745945946  C 110.004554385965 50.7034745945946  107.333078947369 55.6571135135135  107.333078947369 55.6571135135135  C 107.333078947369 55.6571135135135  104.402385278414 60.4212491891892  104.402385278414 60.4212491891892  C 104.402385278414 60.4212491891892  99.6030894736843 67.2124221621622  99.6030894736843 67.2124221621622  C 99.6030894736843 67.2124221621622  99.4118887490466 68.7584043243244  99.4118887490466 68.7584043243244  C 99.4118887490466 68.7584043243244  99.9584536613272 69.9012394594595  99.9584536613272 69.9012394594595  C 99.9584536613272 69.9012394594595  101.80280713196 70.9237010810811  101.80280713196 70.9237010810811  C 101.80280713196 70.9237010810811  101.550378527841 72.4452135135135  101.550378527841 72.4452135135135  C 101.550378527841 72.4452135135135  97.4028868421053 74.1870632432432  97.4028868421053 74.1870632432432  C 97.4028868421053 74.1870632432432  96.7815147978643 74.7997940540541  96.7815147978643 74.7997940540541  C 96.7815147978643 74.7997940540541  97.1914384820749 76.491607027027  97.1914384820749 76.491607027027  C 97.1914384820749 76.491607027027  100.081151906941 80.5570935135136  100.081151906941 80.5570935135136  C 100.081151906941 80.5570935135136  107.784104118993 84.1371356756757  107.784104118993 84.1371356756757  C 107.784104118993 84.1371356756757  109.184707017544 84.1371356756757  109.184707017544 84.1371356756757  C 109.184707017544 84.1371356756757  110.079846491228 82.3566610810811  110.079846491228 82.3566610810811  C 110.079846491228 82.3566610810811  111.234325438596 78.3287021621622  111.234325438596 78.3287021621622  C 111.234325438596 78.3287021621622  112.006281693364 77.6593508108108  112.006281693364 77.6593508108108  C 112.006281693364 77.6593508108108  116.740833562166 75.1278859459459  116.740833562166 75.1278859459459  C 116.740833562166 75.1278859459459  117.799651525553 74.8944908108108  117.799651525553 74.8944908108108  C 117.799651525553 74.8944908108108  120.628500800915 75.1153767567567  120.628500800915 75.1153767567567  C 120.628500800915 75.1153767567567  122.787116971777 74.2376486486486  122.787116971777 74.2376486486486  C 122.787116971777 74.2376486486486  124.9733766209 71.8955772972973  124.9733766209 71.8955772972973  C 124.9733766209 71.8955772972973  126.30596201373 71.5423572972973  126.30596201373 71.5423572972973  C 126.30596201373 71.5423572972973  126.981893554538 72.0980286486487  126.981893554538 72.0980286486487  C 126.981893554538 72.0980286486487  128.7924201373 72.0980286486487  128.7924201373 72.0980286486487  C 128.7924201373 72.0980286486487  130.391013386728 71.5739594594595  130.391013386728 71.5739594594595  C 130.391013386728 71.5739594594595  132.031193096873 72.6535902702703  132.031193096873 72.6535902702703  C 132.031193096873 72.6535902702703  133.3632935164 72.6219881081081  133.3632935164 72.6219881081081  C 133.3632935164 72.6219881081081  139.149873722349 76.7882064864865  139.149873722349 76.7882064864865  C 139.149873722349 76.7882064864865  143.611143135011 79.5221227027027  143.611143135011 79.5221227027027  C 143.611143135011 79.5221227027027  144.492703356217 79.6227448648648  144.492703356217 79.6227448648648  C 144.492703356217 79.6227448648648  148.07956590389 84.2068140540541  148.07956590389 84.2068140540541  C 148.07956590389 84.2068140540541  148.728460183066 84.5981102702702  148.728460183066 84.5981102702702  C 148.728460183066 84.5981102702702  150.259035926773 83.1082  150.259035926773 83.1082  C 150.259035926773 83.1082  154.207446071701 81.5675945945946  154.207446071701 81.5675945945946  C 154.207446071701 81.5675945945946  156.024762280702 81.9213632432433  156.024762280702 81.9213632432433  C 156.024762280702 81.9213632432433  157.364137299771 81.4603886486486  157.364137299771 81.4603886486486  C 157.364137299771 81.4603886486486  160.602425286041 81.5550854054054  160.602425286041 81.5550854054054  C 160.602425286041 81.5550854054054  161.695555110603 81.0942205405405  161.695555110603 81.0942205405405  C 161.695555110603 81.0942205405405  162.88422467582 78.7956021621622  162.88422467582 78.7956021621622  C 162.88422467582 78.7956021621622  162.959516781083 76.8513010810811  162.959516781083 76.8513010810811  C 162.959516781083 76.8513010810811  163.718015026697 74.3829308108108  163.718015026697 74.3829308108108  C 163.718015026697 74.3829308108108  164.503550533944 74.3389291891892  164.503550533944 74.3389291891892  C 164.503550533944 74.3389291891892  168.616245385202 78.8402621621622  168.616245385202 78.8402621621622  C 168.616245385202 78.8402621621622  170.761888520214 80.5129821621621  170.761888520214 80.5129821621621  C 170.761888520214 80.5129821621621  173.282658504958 79.6037616216216  173.282658504958 79.6037616216216  C 173.282658504958 79.6037616216216  174.854214492753 80.8982432432433  174.854214492753 80.8982432432433  C 174.854214492753 80.8982432432433  175.871930968726 80.7970724324324  175.871930968726 80.7970724324324  C 175.871930968726 80.7970724324324  179.055659458429 79.3071621621622  179.055659458429 79.3071621621622  C 179.055659458429 79.3071621621622  181.13946849733 77.5081432432432  181.13946849733 77.5081432432432  C 181.13946849733 77.5081432432432  182.629063996949 80.2164924324325  182.629063996949 80.2164924324325  C 182.629063996949 80.2164924324325  182.273699809306 81.6367243243243  182.273699809306 81.6367243243243  C 182.273699809306 81.6367243243243  184.821992028986 82.8491281081081  184.821992028986 82.8491281081081  C 184.821992028986 82.8491281081081  187.247222273074 86.5369248648649  187.247222273074 86.5369248648649  C 187.247222273074 86.5369248648649  188.818778260869 85.2864448648649  188.818778260869 85.2864448648649  C 188.818778260869 85.2864448648649  183.079967925248 78.5936994594595  183.079967925248 78.5936994594595  C 183.079967925248 78.5936994594595  188.504394317315 73.8654454054054  188.504394317315 73.8654454054054  C 188.504394317315 73.8654454054054  193.300780282227 79.1749378378378  193.300780282227 79.1749378378378  C 193.300780282227 79.1749378378378  190.957146796339 81.2454281081081  190.957146796339 81.2454281081081  C 190.957146796339 81.2454281081081  195.541478184592 87.4778572972973  195.541478184592 87.4778572972973  C 195.541478184592 87.4778572972973  200.959236193745 84.7814686486486  200.959236193745 84.7814686486486  C 200.959236193745 84.7814686486486  203.405199046529 88.9427491891892  203.405199046529 88.9427491891892  C 203.405199046529 88.9427491891892  185.935854462242 102.961819459459  185.935854462242 102.961819459459  C 185.935854462242 102.961819459459  185.860562356979 104.780918918919  185.860562356979 104.780918918919  C 185.860562356979 104.780918918919  177.347947215866 110.472929189189  177.347947215866 110.472929189189  C 177.347947215866 110.472929189189  181.412750953471 118.964693513514  181.412750953471 118.964693513514  C 181.412750953471 118.964693513514  177.395717086194 121.391147027027  177.395717086194 121.391147027027  C 177.395717086194 121.391147027027  176.391458619374 121.088073513514  176.391458619374 121.088073513514  C 176.391458619374 121.088073513514  174.23235747521 118.851013513514  174.23235747521 118.851013513514  C 174.23235747521 118.851013513514  171.021106750572 118.149511351351  171.021106750572 118.149511351351  C 171.021106750572 118.149511351351  168.760039969489 121.694220540541  168.760039969489 121.694220540541  C 168.760039969489 121.694220540541  161.128621319603 129.600467027027  161.128621319603 129.600467027027  C 161.128621319603 129.600467027027  158.969520175439 130.649592972973  158.969520175439 130.649592972973  C 158.969520175439 130.649592972973  152.192139511823 131.161701621622  152.192139511823 131.161701621622  C 152.192139511823 131.161701621622  149.206522616323 147.591753513513  149.206522616323 147.591753513513  C 149.206522616323 147.591753513513  152.021307665904 150.576511891892  152.021307665904 150.576511891892  C 152.021307665904 150.576511891892  157.391174561403 154.977771351351  157.391174561403 154.977771351351  C 157.391174561403 154.977771351351  160.513553928299 157.836230810811  160.513553928299 157.836230810811  C 160.513553928299 157.836230810811  163.308091342487 159.651050810811  163.308091342487 159.651050810811  C 163.308091342487 159.651050810811  167.2498331045 161.156213513514  167.2498331045 161.156213513514  C 167.2498331045 161.156213513514  171.192059839817 162.042061621622  171.192059839817 162.042061621622  C 171.192059839817 162.042061621622  171.472131922197 160.036860540541  171.472131922197 160.036860540541  C 171.472131922197 160.036860540541  173.829223417239 156.729387027027  173.829223417239 156.729387027027  C 173.829223417239 156.729387027027  174.901984363081 157.501006486486  174.901984363081 157.501006486486  C 174.901984363081 157.501006486486  172.312590655988 162.750037837838  172.312590655988 162.750037837838  C 172.312590655988 162.750037837838  175.134286575134 165.577553513514  175.134286575134 165.577553513514  C 175.134286575134 165.577553513514  175.742079366895 167.74712972973  175.742079366895 167.74712972973  C 175.742079366895 167.74712972973  178.023878756674 168.968311891892  178.023878756674 168.968311891892  C 178.023878756674 168.968311891892  180.326410755149 169.76494972973  180.326410755149 169.76494972973  C 180.326410755149 169.76494972973  179.636536231884 171.922565405405  179.636536231884 171.922565405405  C 179.636536231884 171.922565405405  179.43139252479 173.870707027027  179.43139252479 173.870707027027  C 179.43139252479 173.870707027027  183.933642181541 174.788157297297  183.933642181541 174.788157297297  C 183.933642181541 174.788157297297  187.971408657513 175.888965945946  187.971408657513 175.888965945946  C 187.971408657513 175.888965945946  194.338865636918 178.07170972973  194.338865636918 178.07170972973  Z " stroke-width="2" stroke="#6886b3" fill="none" transform="matrix(1 0 0 1 936 294 )" mask="url(#clip47)" />
  </g>
</svg>