<?xml version="1.0" encoding="utf-8"?>
<svg version="1.1" xmlns:xlink="http://www.w3.org/1999/xlink" width="349px" height="192px" xmlns="http://www.w3.org/2000/svg">
  <defs>
    <mask fill="white" id="clip45">
      <path d="M 336.496454257767 54.7544662921349  C 336.496454257767 54.7544662921349  337.113066024166 57.0166853932584  337.113066024166 57.0166853932584  C 337.113066024166 57.0166853932584  336.503260932106 56.6629466292135  336.503260932106 56.6629466292135  C 336.503260932106 56.6629466292135  333.476114067894 58.9882668539326  333.476114067894 58.9882668539326  C 333.476114067894 58.9882668539326  327.517235327963 64.3221741573034  327.517235327963 64.3221741573034  C 327.517235327963 64.3221741573034  319.442088607595 70.9083539325843  319.442088607595 70.9083539325843  C 319.442088607595 70.9083539325843  319.120230149597 72.5261966292135  319.120230149597 72.5261966292135  C 319.120230149597 72.5261966292135  321.394267117376 74.7955365168539  321.394267117376 74.7955365168539  C 321.394267117376 74.7955365168539  320.647356156502 76.078702247191  320.647356156502 76.078702247191  C 320.647356156502 76.078702247191  310.634252013809 85.024929775281  310.634252013809 85.024929775281  C 310.634252013809 85.024929775281  303.675278337169 90.1214410112359  303.675278337169 90.1214410112359  C 303.675278337169 90.1214410112359  299.462797756041 93.6690168539326  299.462797756041 93.6690168539326  C 299.462797756041 93.6690168539326  297.675316455696 95.4906235955057  297.675316455696 95.4906235955057  C 297.675316455696 95.4906235955057  294.709672756041 98.8630280898876  294.709672756041 98.8630280898876  C 294.709672756041 98.8630280898876  293.100258918297 100.406485955056  293.100258918297 100.406485955056  C 293.100258918297 100.406485955056  288.778385356732 99.6095056179774  288.778385356732 99.6095056179774  C 288.778385356732 99.6095056179774  280.477281357883 98.970606741573  280.477281357883 98.970606741573  C 280.477281357883 98.970606741573  279.497606444189 99.3372724719101  279.497606444189 99.3372724719101  C 279.497606444189 99.3372724719101  276.942794159954 101.671247191011  276.942794159954 101.671247191011  C 276.942794159954 101.671247191011  276.477266254315 102.771901685393  276.477266254315 102.771901685393  C 276.477266254315 102.771901685393  277.579825949367 104.574556179775  277.579825949367 104.574556179775  C 277.579825949367 104.574556179775  273.26475906214 108.154668539326  273.26475906214 108.154668539326  C 273.26475906214 108.154668539326  271.319873417722 109.565570224719  271.319873417722 109.565570224719  C 271.319873417722 109.565570224719  268.983968642117 109.976823033708  268.983968642117 109.976823033708  C 268.983968642117 109.976823033708  267.552622266973 109.445502808989  267.552622266973 109.445502808989  C 267.552622266973 109.445502808989  265.703151611047 110.071912921348  265.703151611047 110.071912921348  C 265.703151611047 110.071912921348  264.217230293441 111.912581460674  264.217230293441 111.912581460674  C 264.217230293441 111.912581460674  265.59375863061 114.481213483146  265.59375863061 114.481213483146  C 265.59375863061 114.481213483146  265.525570339471 115.563463483146  265.525570339471 115.563463483146  C 265.525570339471 115.563463483146  263.600618527043 116.252865168539  263.600618527043 116.252865168539  C 263.600618527043 116.252865168539  262.326554948217 116.157775280899  262.326554948217 116.157775280899  C 262.326554948217 116.157775280899  259.936439873418 117.316053370787  259.936439873418 117.316053370787  C 259.936439873418 117.316053370787  255.368189010357 118.986042134831  255.368189010357 118.986042134831  C 255.368189010357 118.986042134831  253.080174050633 120.517558988764  253.080174050633 120.517558988764  C 253.080174050633 120.517558988764  251.388472382049 122.162679775281  251.388472382049 122.162679775281  C 251.388472382049 122.162679775281  245.813441455696 124.934418539326  245.813441455696 124.934418539326  C 245.813441455696 124.934418539326  244.156137802071 127.339491573034  244.156137802071 127.339491573034  C 244.156137802071 127.339491573034  240.793032940161 128.86454494382  240.793032940161 128.86454494382  C 240.793032940161 128.86454494382  236.334175057537 131.585780898876  236.334175057537 131.585780898876  C 236.334175057537 131.585780898876  232.998783084005 134.516806179775  232.998783084005 134.516806179775  C 232.998783084005 134.516806179775  232.340966628308 136.187342696629  232.340966628308 136.187342696629  C 232.340966628308 136.187342696629  232.690416426928 137.59933988764  232.690416426928 137.59933988764  C 232.690416426928 137.59933988764  230.985101409666 138.593073033708  230.985101409666 138.593073033708  C 230.985101409666 138.593073033708  229.142437428078 139.206884831461  229.142437428078 139.206884831461  C 229.142437428078 139.206884831461  227.676814585731 138.352390449438  227.676814585731 138.352390449438  C 227.676814585731 138.352390449438  226.156495253164 138.877685393258  226.156495253164 138.877685393258  C 226.156495253164 138.877685393258  225.560181962025 140.808514044944  225.560181962025 140.808514044944  C 225.560181962025 140.808514044944  218.115260356732 145.778384831461  218.115260356732 145.778384831461  C 218.115260356732 145.778384831461  217.108480293441 148.589342696629  217.108480293441 148.589342696629  C 217.108480293441 148.589342696629  214.362108745685 150.767865168539  214.362108745685 150.767865168539  C 214.362108745685 150.767865168539  212.560527905639 151.774634831461  212.560527905639 151.774634831461  C 212.560527905639 151.774634831461  209.464706559264 152.907935393258  209.464706559264 152.907935393258  C 209.464706559264 152.907935393258  205.437586306099 153.933547752809  205.437586306099 153.933547752809  C 205.437586306099 153.933547752809  204.807361191024 154.693609550562  204.807361191024 154.693609550562  C 204.807361191024 154.693609550562  203.739077963176 158.113011235955  203.739077963176 158.113011235955  C 203.739077963176 158.113011235955  198.971853423475 160.893514044944  198.971853423475 160.893514044944  C 198.971853423475 160.893514044944  196.376079545455 162.122452247191  196.376079545455 162.122452247191  C 196.376079545455 162.122452247191  193.012974683544 163.192761235955  193.012974683544 163.192761235955  C 193.012974683544 163.192761235955  190.896828250863 164.11079494382  190.896828250863 164.11079494382  C 190.896828250863 164.11079494382  190.568163118527 170.406884831461  190.568163118527 170.406884831461  C 190.568163118527 170.406884831461  185.17752013809 170.774755617978  185.17752013809 170.774755617978  C 185.17752013809 170.774755617978  179.020153912543 169.697435393258  179.020153912543 169.697435393258  C 179.020153912543 169.697435393258  168.763954257768 171.078429775281  168.763954257768 171.078429775281  C 168.763954257768 171.078429775281  165.38018627733 173.308550561798  165.38018627733 173.308550561798  C 165.38018627733 173.308550561798  163.585898302647 173.669300561798  163.585898302647 173.669300561798  C 163.585898302647 173.669300561798  160.161290276179 173.885005617978  160.161290276179 173.885005617978  C 160.161290276179 173.885005617978  158.476395281933 174.486985955056  158.476395281933 174.486985955056  C 158.476395281933 174.486985955056  155.161301783659 175.177483146067  155.161301783659 175.177483146067  C 155.161301783659 175.177483146067  152.92166283084 175.132896067416  152.92166283084 175.132896067416  C 152.92166283084 175.132896067416  146.503941311853 173.625261235955  146.503941311853 173.625261235955  C 146.503941311853 173.625261235955  144.599774165708 173.739412921348  144.599774165708 173.739412921348  C 144.599774165708 173.739412921348  124.223629890679 178.136115168539  124.223629890679 178.136115168539  C 124.223629890679 178.136115168539  121.216781501726 178.275244382022  121.216781501726 178.275244382022  C 121.216781501726 178.275244382022  116.744310270426 177.705362359551  116.744310270426 177.705362359551  C 116.744310270426 177.705362359551  113.730776754891 178.060087078652  113.730776754891 178.060087078652  C 113.730776754891 178.060087078652  97.7171029919446 183.065342696629  97.7171029919446 183.065342696629  C 97.7171029919446 183.065342696629  83.6216959148446 188.705115168539  83.6216959148446 188.705115168539  C 83.6216959148446 188.705115168539  81.9163808975834 189.167966292135  81.9163808975834 189.167966292135  C 81.9163808975834 189.167966292135  68.8001625431532 190.213297752809  68.8001625431532 190.213297752809  C 68.8001625431532 190.213297752809  65.4303725546606 190.82820505618  65.4303725546606 190.82820505618  C 65.4303725546606 190.82820505618  62.7179128308401 191.569862359551  62.7179128308401 191.569862359551  C 62.7179128308401 191.569862359551  57.10167721519 191.354157303371  57.10167721519 191.354157303371  C 57.10167721519 191.354157303371  36.5129459148446 190.910258426966  36.5129459148446 190.910258426966  C 36.5129459148446 190.910258426966  35.7322446777905 188.983811797753  35.7322446777905 188.983811797753  C 35.7322446777905 188.983811797753  27.8216736191024 188.514935393258  27.8216736191024 188.514935393258  C 27.8216736191024 188.514935393258  22.6368109896433 187.596244382022  22.6368109896433 187.596244382022  C 22.6368109896433 187.596244382022  20.6779473532796 187.564255617978  20.6779473532796 187.564255617978  C 20.6779473532796 187.564255617978  20.9998058112773 181.329514044944  20.9998058112773 181.329514044944  C 20.9998058112773 181.329514044944  19.3420159666282 180.492876404494  19.3420159666282 180.492876404494  C 19.3420159666282 180.492876404494  19.4862931530495 174.037061797753  19.4862931530495 174.037061797753  C 19.4862931530495 174.037061797753  18.6164974108169 173.770853932584  18.6164974108169 173.770853932584  C 18.6164974108169 173.770853932584  18.2805394131186 172.041598314607  18.2805394131186 172.041598314607  C 18.2805394131186 172.041598314607  16.8081098964326 171.889542134831  16.8081098964326 171.889542134831  C 16.8081098964326 171.889542134831  17.1503883774453 158.062508426966  17.1503883774453 158.062508426966  C 17.1503883774453 158.062508426966  12.2398590333717 157.372558988764  12.2398590333717 157.372558988764  C 12.2398590333717 157.372558988764  9.26011579401609 156.663  9.26011579401609 156.663  C 9.26011579401609 156.663  8.58200086306101 155.199952247191  8.58200086306101 155.199952247191  C 8.58200086306101 155.199952247191  9.55486910241666 151.204752808989  9.55486910241666 151.204752808989  C 9.55486910241666 151.204752808989  10.6439369965478 148.912626404494  10.6439369965478 148.912626404494  C 10.6439369965478 148.912626404494  10.958624136939 142.049393258427  10.958624136939 142.049393258427  C 10.958624136939 142.049393258427  12.4862363348677 135.484904494382  12.4862363348677 135.484904494382  C 12.4862363348677 135.484904494382  13.027366944764 131.712421348315  13.027366944764 131.712421348315  C 13.027366944764 131.712421348315  12.3695504890678 128.636898876405  12.3695504890678 128.636898876405  C 12.3695504890678 128.636898876405  10.4794828826236 126.219337078652  10.4794828826236 126.219337078652  C 10.4794828826236 126.219337078652  9.68468210586877 124.687820224719  9.68468210586877 124.687820224719  C 9.68468210586877 124.687820224719  8.65748201956274 120.524132022472  8.65748201956274 120.524132022472  C 8.65748201956274 120.524132022472  8.70549338319904 118.992615168539  8.70549338319904 118.992615168539  C 8.70549338319904 118.992615168539  9.73305811277328 114.411648876404  9.73305811277328 114.411648876404  C 9.73305811277328 114.411648876404  3.7600798331415 116.601126404494  3.7600798331415 116.601126404494  C 3.7600798331415 116.601126404494  2.82209579976984 111.792514044944  2.82209579976984 111.792514044944  C 2.82209579976984 111.792514044944  1.43146792289986 107.079539325843  1.43146792289986 107.079539325843  C 1.43146792289986 107.079539325843  0.643960011507488 98.1356123595506  0.643960011507488 98.1356123595506  C 0.643960011507488 98.1356123595506  1.08250431530485 91.6137387640449  1.08250431530485 91.6137387640449  C 1.08250431530485 91.6137387640449  2.57523230724962 86.9029550561797  2.57523230724962 86.9029550561797  C 2.57523230724962 86.9029550561797  4.45229430379743 82.7360898876404  4.45229430379743 82.7360898876404  C 4.45229430379743 82.7360898876404  4.34241513233599 80.9530449438203  4.34241513233599 80.9530449438203  C 4.34241513233599 80.9530449438203  3.79447784810122 79.0819213483146  3.79447784810122 79.0819213483146  C 3.79447784810122 79.0819213483146  3.767372698504 76.8251797752808  3.767372698504 76.8251797752808  C 3.767372698504 76.8251797752808  13.9654725258919 76.4203904494382  13.9654725258919 76.4203904494382  C 13.9654725258919 76.4203904494382  14.8424395857309 72.3556264044944  14.8424395857309 72.3556264044944  C 14.8424395857309 72.3556264044944  15.4106753452244 68.797095505618  15.4106753452244 68.797095505618  C 15.4106753452244 68.797095505618  3.41111622554661 70.3770337078652  3.41111622554661 70.3770337078652  C 3.41111622554661 70.3770337078652  3.06847310126579 67.305345505618  3.06847310126579 67.305345505618  C 3.06847310126579 67.305345505618  3.4658127157652 64.574797752809  3.4658127157652 64.574797752809  C 3.4658127157652 64.574797752809  4.71945627157641 60.7136882022472  4.71945627157641 60.7136882022472  C 4.71945627157641 60.7136882022472  6.55494893555806 60.4230505617977  6.55494893555806 60.4230505617977  C 6.55494893555806 60.4230505617977  9.54769778481011 60.6126825842697  9.54769778481011 60.6126825842697  C 9.54769778481011 60.6126825842697  10.85603783084 60.0057724719101  10.85603783084 60.0057724719101  C 10.85603783084 60.0057724719101  15.4174820195627 56.9726460674158  15.4174820195627 56.9726460674158  C 15.4174820195627 56.9726460674158  17.4930315017261 56.0627191011236  17.4930315017261 56.0627191011236  C 17.4930315017261 56.0627191011236  18.9383558688148 55.9740926966292  18.9383558688148 55.9740926966292  C 18.9383558688148 55.9740926966292  26.0478056674337 58.6660786516854  26.0478056674337 58.6660786516854  C 26.0478056674337 58.6660786516854  28.451412543153 60.6061095505618  28.451412543153 60.6061095505618  C 28.451412543153 60.6061095505618  29.1504336881474 63.0709971910112  29.1504336881474 63.0709971910112  C 29.1504336881474 63.0709971910112  29.8352337456847 64.0124747191011  29.8352337456847 64.0124747191011  C 29.8352337456847 64.0124747191011  31.9649935270426 64.59375  31.9649935270426 64.59375  C 31.9649935270426 64.59375  33.7321763521289 64.606238764045  33.7321763521289 64.606238764045  C 33.7321763521289 64.606238764045  41.0540916283084 65.3901825842697  41.0540916283084 65.3901825842697  C 41.0540916283084 65.3901825842697  44.896337744534 65.0870561797753  44.896337744534 65.0870561797753  C 44.896337744534 65.0870561797753  48.7661752013807 64.5182696629213  48.7661752013807 64.5182696629213  C 48.7661752013807 64.5182696629213  48.9578560126583 61.319941011236  48.9578560126583 61.319941011236  C 48.9578560126583 61.319941011236  52.4235471806674 61.9393398876404  52.4235471806674 61.9393398876404  C 52.4235471806674 61.9393398876404  62.2798547180666 62.9318679775281  62.2798547180666 62.9318679775281  C 62.2798547180666 62.9318679775281  63.0329646144994 62.571665730337  63.0329646144994 62.571665730337  C 63.0329646144994 62.571665730337  67.2866498849253 56.9346320224719  67.2866498849253 56.9346320224719  C 67.2866498849253 56.9346320224719  69.5053826237054 54.6849016853933  69.5053826237054 54.6849016853933  C 69.5053826237054 54.6849016853933  71.1220893268126 56.6504578651686  71.1220893268126 56.6504578651686  C 71.1220893268126 56.6504578651686  72.5330156789414 56.5114382022472  72.5330156789414 56.5114382022472  C 72.5330156789414 56.5114382022472  73.7522612197929 55.3232528089887  73.7522612197929 55.3232528089887  C 73.7522612197929 55.3232528089887  72.2450690448793 51.6713848314607  72.2450690448793 51.6713848314607  C 72.2450690448793 51.6713848314607  74.2794138377446 49.7312443820225  74.2794138377446 49.7312443820225  C 74.2794138377446 49.7312443820225  75.3001718929804 50.0159662921348  75.3001718929804 50.0159662921348  C 75.3001718929804 50.0159662921348  81.6763240794016 49.3080505617978  81.6763240794016 49.3080505617978  C 81.6763240794016 49.3080505617978  82.0533652186421 50.4896629213483  82.0533652186421 50.4896629213483  C 82.0533652186421 50.4896629213483  85.9160313578827 50.5212134831461  85.9160313578827 50.5212134831461  C 85.9160313578827 50.5212134831461  86.3273489643268 50.0600056179775  86.3273489643268 50.0600056179775  C 86.3273489643268 50.0600056179775  88.1696483026467 49.9970140449439  88.1696483026467 49.9970140449439  C 88.1696483026467 49.9970140449439  88.5530099252014 49.4156292134832  88.5530099252014 49.4156292134832  C 88.5530099252014 49.4156292134832  91.779008918297 48.0004550561798  91.779008918297 48.0004550561798  C 91.779008918297 48.0004550561798  101.874887082854 47.3114915730337  101.874887082854 47.3114915730337  C 101.874887082854 47.3114915730337  107.518714039125 47.0274269662921  107.518714039125 47.0274269662921  C 107.518714039125 47.0274269662921  123.381303941312 45.8522780898876  123.381303941312 45.8522780898876  C 123.381303941312 45.8522780898876  130.401659234753 45.2585140449438  130.401659234753 45.2585140449438  C 130.401659234753 45.2585140449438  141.640937140391 44.8037696629214  141.640937140391 44.8037696629214  C 141.640937140391 44.8037696629214  156.606626150748 44.879797752809  156.606626150748 44.879797752809  C 156.606626150748 44.879797752809  156.894086593786 43.407547752809  156.894086593786 43.407547752809  C 156.894086593786 43.407547752809  158.058757192175 43.8942808988764  158.058757192175 43.8942808988764  C 158.058757192175 43.8942808988764  158.380615650173 44.879797752809  158.380615650173 44.879797752809  C 158.380615650173 44.879797752809  161.914495109321 44.8227219101124  161.914495109321 44.8227219101124  C 161.914495109321 44.8227219101124  167.065081271576 43.3064325842697  167.065081271576 43.3064325842697  C 167.065081271576 43.3064325842697  177.75982523015 39.4535393258427  177.75982523015 39.4535393258427  C 177.75982523015 39.4535393258427  183.074865506329 37.0527387640449  183.074865506329 37.0527387640449  C 183.074865506329 37.0527387640449  188.088467347526 35.9096882022473  188.088467347526 35.9096882022473  C 188.088467347526 35.9096882022473  191.841740506329 34.4635112359551  191.841740506329 34.4635112359551  C 191.841740506329 34.4635112359551  205.916727560414 31.9497640449438  205.916727560414 31.9497640449438  C 205.916727560414 31.9497640449438  210.403298331415 31.5205449438203  210.403298331415 31.5205449438203  C 210.403298331415 31.5205449438203  211.711516829689 31.1853202247191  211.711516829689 31.1853202247191  C 211.711516829689 31.1853202247191  214.910046029919 28.6911825842697  214.910046029919 28.6911825842697  C 214.910046029919 28.6911825842697  216.827826524741 27.7882668539326  216.827826524741 27.7882668539326  C 216.827826524741 27.7882668539326  219.273124280782 28.1354325842697  219.273124280782 28.1354325842697  C 219.273124280782 28.1354325842697  222.724715909091 30.5035870786517  222.724715909091 30.5035870786517  C 222.724715909091 30.5035870786517  226.163301927503 33.7056404494382  226.163301927503 33.7056404494382  C 226.163301927503 33.7056404494382  227.170081990794 34.0337443820225  227.170081990794 34.0337443820225  C 227.170081990794 34.0337443820225  229.88205552359 33.4590421348315  229.88205552359 33.4590421348315  C 229.88205552359 33.4590421348315  231.793029344074 32.5686151685393  231.793029344074 32.5686151685393  C 231.793029344074 32.5686151685393  235.292996979286 32.9857837078652  235.292996979286 32.9857837078652  C 235.292996979286 32.9857837078652  237.745101409666 33.5980617977528  237.745101409666 33.5980617977528  C 237.745101409666 33.5980617977528  241.272295742232 33.9011882022472  241.272295742232 33.9011882022472  C 241.272295742232 33.9011882022472  243.231159378596 34.7732106741573  243.231159378596 34.7732106741573  C 243.231159378596 34.7732106741573  244.436791570771 34.8237134831461  244.436791570771 34.8237134831461  C 244.436791570771 34.8237134831461  246.553059551208 33.6046348314607  246.553059551208 33.6046348314607  C 246.553059551208 33.6046348314607  249.792671892981 30.7371488764045  249.792671892981 30.7371488764045  C 249.792671892981 30.7371488764045  251.361367232451 30.0238651685394  251.361367232451 30.0238651685394  C 251.361367232451 30.0238651685394  252.6077179229 31.0022612359551  252.6077179229 31.0022612359551  C 252.6077179229 31.0022612359551  253.676487341772 32.6000561797753  253.676487341772 32.6000561797753  C 253.676487341772 32.6000561797753  254.964042721519 33.0487752808989  254.964042721519 33.0487752808989  C 254.964042721519 33.0487752808989  256.032325949367 32.0257921348314  256.032325949367 32.0257921348314  C 256.032325949367 32.0257921348314  258.327026035673 28.2109129213483  258.327026035673 28.2109129213483  C 258.327026035673 28.2109129213483  262.963586737629 25.2179915730337  262.963586737629 25.2179915730337  C 262.963586737629 25.2179915730337  266.545842203682 23.715286516854  266.545842203682 23.715286516854  C 266.545842203682 23.715286516854  268.032371260069 22.3071235955056  268.032371260069 22.3071235955056  C 268.032371260069 22.3071235955056  269.840151035673 17.8935505617977  269.840151035673 17.8935505617977  C 269.840151035673 17.8935505617977  272.004795023015 13.9286966292135  272.004795023015 13.9286966292135  C 272.004795023015 13.9286966292135  274.436114787112 11.3154775280899  274.436114787112 11.3154775280899  C 274.436114787112 11.3154775280899  282.02519203107 5.56483988764046  282.02519203107 5.56483988764046  C 282.02519203107 5.56483988764046  287.298662974684 0.269494382022458  287.298662974684 0.269494382022458  C 287.298662974684 0.269494382022458  292.333049482163 2.54803651685393  292.333049482163 2.54803651685393  C 292.333049482163 2.54803651685393  311.866989355581 10.0088679775281  311.866989355581 10.0088679775281  C 311.866989355581 10.0088679775281  330.270413550057 19.3017134831461  330.270413550057 19.3017134831461  C 330.270413550057 19.3017134831461  332.167774021864 21.2085505617978  332.167774021864 21.2085505617978  C 332.167774021864 21.2085505617978  343.742888377445 35.7076769662921  343.742888377445 35.7076769662921  C 343.742888377445 35.7076769662921  347.927777617952 37.5711320224719  347.927777617952 37.5711320224719  C 347.927777617952 37.5711320224719  348.900159666283 37.6405870786517  348.900159666283 37.6405870786517  C 348.900159666283 37.6405870786517  347.18815952244 48.0318960674157  347.18815952244 48.0318960674157  C 347.18815952244 48.0318960674157  345.921024165708 47.7983342696629  345.921024165708 47.7983342696629  C 345.921024165708 47.7983342696629  343.852767548907 48.3350224719101  343.852767548907 48.3350224719101  C 343.852767548907 48.3350224719101  342.393829833142 54.9821123595506  342.393829833142 54.9821123595506  C 342.393829833142 54.9821123595506  338.67459004603 53.5858904494382  338.67459004603 53.5858904494382  C 338.67459004603 53.5858904494382  338.763684551208 54.1921432584269  338.763684551208 54.1921432584269  C 338.763684551208 54.1921432584269  336.496454257767 54.7544662921349  336.496454257767 54.7544662921349  Z " fill-rule="evenodd" />
    </mask>
  </defs>
  <g transform="matrix(1 0 0 1 -976 -430 )">
    <path d="M 336.496454257767 54.7544662921349  C 336.496454257767 54.7544662921349  337.113066024166 57.0166853932584  337.113066024166 57.0166853932584  C 337.113066024166 57.0166853932584  336.503260932106 56.6629466292135  336.503260932106 56.6629466292135  C 336.503260932106 56.6629466292135  333.476114067894 58.9882668539326  333.476114067894 58.9882668539326  C 333.476114067894 58.9882668539326  327.517235327963 64.3221741573034  327.517235327963 64.3221741573034  C 327.517235327963 64.3221741573034  319.442088607595 70.9083539325843  319.442088607595 70.9083539325843  C 319.442088607595 70.9083539325843  319.120230149597 72.5261966292135  319.120230149597 72.5261966292135  C 319.120230149597 72.5261966292135  321.394267117376 74.7955365168539  321.394267117376 74.7955365168539  C 321.394267117376 74.7955365168539  320.647356156502 76.078702247191  320.647356156502 76.078702247191  C 320.647356156502 76.078702247191  310.634252013809 85.024929775281  310.634252013809 85.024929775281  C 310.634252013809 85.024929775281  303.675278337169 90.1214410112359  303.675278337169 90.1214410112359  C 303.675278337169 90.1214410112359  299.462797756041 93.6690168539326  299.462797756041 93.6690168539326  C 299.462797756041 93.6690168539326  297.675316455696 95.4906235955057  297.675316455696 95.4906235955057  C 297.675316455696 95.4906235955057  294.709672756041 98.8630280898876  294.709672756041 98.8630280898876  C 294.709672756041 98.8630280898876  293.100258918297 100.406485955056  293.100258918297 100.406485955056  C 293.100258918297 100.406485955056  288.778385356732 99.6095056179774  288.778385356732 99.6095056179774  C 288.778385356732 99.6095056179774  280.477281357883 98.970606741573  280.477281357883 98.970606741573  C 280.477281357883 98.970606741573  279.497606444189 99.3372724719101  279.497606444189 99.3372724719101  C 279.497606444189 99.3372724719101  276.942794159954 101.671247191011  276.942794159954 101.671247191011  C 276.942794159954 101.671247191011  276.477266254315 102.771901685393  276.477266254315 102.771901685393  C 276.477266254315 102.771901685393  277.579825949367 104.574556179775  277.579825949367 104.574556179775  C 277.579825949367 104.574556179775  273.26475906214 108.154668539326  273.26475906214 108.154668539326  C 273.26475906214 108.154668539326  271.319873417722 109.565570224719  271.319873417722 109.565570224719  C 271.319873417722 109.565570224719  268.983968642117 109.976823033708  268.983968642117 109.976823033708  C 268.983968642117 109.976823033708  267.552622266973 109.445502808989  267.552622266973 109.445502808989  C 267.552622266973 109.445502808989  265.703151611047 110.071912921348  265.703151611047 110.071912921348  C 265.703151611047 110.071912921348  264.217230293441 111.912581460674  264.217230293441 111.912581460674  C 264.217230293441 111.912581460674  265.59375863061 114.481213483146  265.59375863061 114.481213483146  C 265.59375863061 114.481213483146  265.525570339471 115.563463483146  265.525570339471 115.563463483146  C 265.525570339471 115.563463483146  263.600618527043 116.252865168539  263.600618527043 116.252865168539  C 263.600618527043 116.252865168539  262.326554948217 116.157775280899  262.326554948217 116.157775280899  C 262.326554948217 116.157775280899  259.936439873418 117.316053370787  259.936439873418 117.316053370787  C 259.936439873418 117.316053370787  255.368189010357 118.986042134831  255.368189010357 118.986042134831  C 255.368189010357 118.986042134831  253.080174050633 120.517558988764  253.080174050633 120.517558988764  C 253.080174050633 120.517558988764  251.388472382049 122.162679775281  251.388472382049 122.162679775281  C 251.388472382049 122.162679775281  245.813441455696 124.934418539326  245.813441455696 124.934418539326  C 245.813441455696 124.934418539326  244.156137802071 127.339491573034  244.156137802071 127.339491573034  C 244.156137802071 127.339491573034  240.793032940161 128.86454494382  240.793032940161 128.86454494382  C 240.793032940161 128.86454494382  236.334175057537 131.585780898876  236.334175057537 131.585780898876  C 236.334175057537 131.585780898876  232.998783084005 134.516806179775  232.998783084005 134.516806179775  C 232.998783084005 134.516806179775  232.340966628308 136.187342696629  232.340966628308 136.187342696629  C 232.340966628308 136.187342696629  232.690416426928 137.59933988764  232.690416426928 137.59933988764  C 232.690416426928 137.59933988764  230.985101409666 138.593073033708  230.985101409666 138.593073033708  C 230.985101409666 138.593073033708  229.142437428078 139.206884831461  229.142437428078 139.206884831461  C 229.142437428078 139.206884831461  227.676814585731 138.352390449438  227.676814585731 138.352390449438  C 227.676814585731 138.352390449438  226.156495253164 138.877685393258  226.156495253164 138.877685393258  C 226.156495253164 138.877685393258  225.560181962025 140.808514044944  225.560181962025 140.808514044944  C 225.560181962025 140.808514044944  218.115260356732 145.778384831461  218.115260356732 145.778384831461  C 218.115260356732 145.778384831461  217.108480293441 148.589342696629  217.108480293441 148.589342696629  C 217.108480293441 148.589342696629  214.362108745685 150.767865168539  214.362108745685 150.767865168539  C 214.362108745685 150.767865168539  212.560527905639 151.774634831461  212.560527905639 151.774634831461  C 212.560527905639 151.774634831461  209.464706559264 152.907935393258  209.464706559264 152.907935393258  C 209.464706559264 152.907935393258  205.437586306099 153.933547752809  205.437586306099 153.933547752809  C 205.437586306099 153.933547752809  204.807361191024 154.693609550562  204.807361191024 154.693609550562  C 204.807361191024 154.693609550562  203.739077963176 158.113011235955  203.739077963176 158.113011235955  C 203.739077963176 158.113011235955  198.971853423475 160.893514044944  198.971853423475 160.893514044944  C 198.971853423475 160.893514044944  196.376079545455 162.122452247191  196.376079545455 162.122452247191  C 196.376079545455 162.122452247191  193.012974683544 163.192761235955  193.012974683544 163.192761235955  C 193.012974683544 163.192761235955  190.896828250863 164.11079494382  190.896828250863 164.11079494382  C 190.896828250863 164.11079494382  190.568163118527 170.406884831461  190.568163118527 170.406884831461  C 190.568163118527 170.406884831461  185.17752013809 170.774755617978  185.17752013809 170.774755617978  C 185.17752013809 170.774755617978  179.020153912543 169.697435393258  179.020153912543 169.697435393258  C 179.020153912543 169.697435393258  168.763954257768 171.078429775281  168.763954257768 171.078429775281  C 168.763954257768 171.078429775281  165.38018627733 173.308550561798  165.38018627733 173.308550561798  C 165.38018627733 173.308550561798  163.585898302647 173.669300561798  163.585898302647 173.669300561798  C 163.585898302647 173.669300561798  160.161290276179 173.885005617978  160.161290276179 173.885005617978  C 160.161290276179 173.885005617978  158.476395281933 174.486985955056  158.476395281933 174.486985955056  C 158.476395281933 174.486985955056  155.161301783659 175.177483146067  155.161301783659 175.177483146067  C 155.161301783659 175.177483146067  152.92166283084 175.132896067416  152.92166283084 175.132896067416  C 152.92166283084 175.132896067416  146.503941311853 173.625261235955  146.503941311853 173.625261235955  C 146.503941311853 173.625261235955  144.599774165708 173.739412921348  144.599774165708 173.739412921348  C 144.599774165708 173.739412921348  124.223629890679 178.136115168539  124.223629890679 178.136115168539  C 124.223629890679 178.136115168539  121.216781501726 178.275244382022  121.216781501726 178.275244382022  C 121.216781501726 178.275244382022  116.744310270426 177.705362359551  116.744310270426 177.705362359551  C 116.744310270426 177.705362359551  113.730776754891 178.060087078652  113.730776754891 178.060087078652  C 113.730776754891 178.060087078652  97.7171029919446 183.065342696629  97.7171029919446 183.065342696629  C 97.7171029919446 183.065342696629  83.6216959148446 188.705115168539  83.6216959148446 188.705115168539  C 83.6216959148446 188.705115168539  81.9163808975834 189.167966292135  81.9163808975834 189.167966292135  C 81.9163808975834 189.167966292135  68.8001625431532 190.213297752809  68.8001625431532 190.213297752809  C 68.8001625431532 190.213297752809  65.4303725546606 190.82820505618  65.4303725546606 190.82820505618  C 65.4303725546606 190.82820505618  62.7179128308401 191.569862359551  62.7179128308401 191.569862359551  C 62.7179128308401 191.569862359551  57.10167721519 191.354157303371  57.10167721519 191.354157303371  C 57.10167721519 191.354157303371  36.5129459148446 190.910258426966  36.5129459148446 190.910258426966  C 36.5129459148446 190.910258426966  35.7322446777905 188.983811797753  35.7322446777905 188.983811797753  C 35.7322446777905 188.983811797753  27.8216736191024 188.514935393258  27.8216736191024 188.514935393258  C 27.8216736191024 188.514935393258  22.6368109896433 187.596244382022  22.6368109896433 187.596244382022  C 22.6368109896433 187.596244382022  20.6779473532796 187.564255617978  20.6779473532796 187.564255617978  C 20.6779473532796 187.564255617978  20.9998058112773 181.329514044944  20.9998058112773 181.329514044944  C 20.9998058112773 181.329514044944  19.3420159666282 180.492876404494  19.3420159666282 180.492876404494  C 19.3420159666282 180.492876404494  19.4862931530495 174.037061797753  19.4862931530495 174.037061797753  C 19.4862931530495 174.037061797753  18.6164974108169 173.770853932584  18.6164974108169 173.770853932584  C 18.6164974108169 173.770853932584  18.2805394131186 172.041598314607  18.2805394131186 172.041598314607  C 18.2805394131186 172.041598314607  16.8081098964326 171.889542134831  16.8081098964326 171.889542134831  C 16.8081098964326 171.889542134831  17.1503883774453 158.062508426966  17.1503883774453 158.062508426966  C 17.1503883774453 158.062508426966  12.2398590333717 157.372558988764  12.2398590333717 157.372558988764  C 12.2398590333717 157.372558988764  9.26011579401609 156.663  9.26011579401609 156.663  C 9.26011579401609 156.663  8.58200086306101 155.199952247191  8.58200086306101 155.199952247191  C 8.58200086306101 155.199952247191  9.55486910241666 151.204752808989  9.55486910241666 151.204752808989  C 9.55486910241666 151.204752808989  10.6439369965478 148.912626404494  10.6439369965478 148.912626404494  C 10.6439369965478 148.912626404494  10.958624136939 142.049393258427  10.958624136939 142.049393258427  C 10.958624136939 142.049393258427  12.4862363348677 135.484904494382  12.4862363348677 135.484904494382  C 12.4862363348677 135.484904494382  13.027366944764 131.712421348315  13.027366944764 131.712421348315  C 13.027366944764 131.712421348315  12.3695504890678 128.636898876405  12.3695504890678 128.636898876405  C 12.3695504890678 128.636898876405  10.4794828826236 126.219337078652  10.4794828826236 126.219337078652  C 10.4794828826236 126.219337078652  9.68468210586877 124.687820224719  9.68468210586877 124.687820224719  C 9.68468210586877 124.687820224719  8.65748201956274 120.524132022472  8.65748201956274 120.524132022472  C 8.65748201956274 120.524132022472  8.70549338319904 118.992615168539  8.70549338319904 118.992615168539  C 8.70549338319904 118.992615168539  9.73305811277328 114.411648876404  9.73305811277328 114.411648876404  C 9.73305811277328 114.411648876404  3.7600798331415 116.601126404494  3.7600798331415 116.601126404494  C 3.7600798331415 116.601126404494  2.82209579976984 111.792514044944  2.82209579976984 111.792514044944  C 2.82209579976984 111.792514044944  1.43146792289986 107.079539325843  1.43146792289986 107.079539325843  C 1.43146792289986 107.079539325843  0.643960011507488 98.1356123595506  0.643960011507488 98.1356123595506  C 0.643960011507488 98.1356123595506  1.08250431530485 91.6137387640449  1.08250431530485 91.6137387640449  C 1.08250431530485 91.6137387640449  2.57523230724962 86.9029550561797  2.57523230724962 86.9029550561797  C 2.57523230724962 86.9029550561797  4.45229430379743 82.7360898876404  4.45229430379743 82.7360898876404  C 4.45229430379743 82.7360898876404  4.34241513233599 80.9530449438203  4.34241513233599 80.9530449438203  C 4.34241513233599 80.9530449438203  3.79447784810122 79.0819213483146  3.79447784810122 79.0819213483146  C 3.79447784810122 79.0819213483146  3.767372698504 76.8251797752808  3.767372698504 76.8251797752808  C 3.767372698504 76.8251797752808  13.9654725258919 76.4203904494382  13.9654725258919 76.4203904494382  C 13.9654725258919 76.4203904494382  14.8424395857309 72.3556264044944  14.8424395857309 72.3556264044944  C 14.8424395857309 72.3556264044944  15.4106753452244 68.797095505618  15.4106753452244 68.797095505618  C 15.4106753452244 68.797095505618  3.41111622554661 70.3770337078652  3.41111622554661 70.3770337078652  C 3.41111622554661 70.3770337078652  3.06847310126579 67.305345505618  3.06847310126579 67.305345505618  C 3.06847310126579 67.305345505618  3.4658127157652 64.574797752809  3.4658127157652 64.574797752809  C 3.4658127157652 64.574797752809  4.71945627157641 60.7136882022472  4.71945627157641 60.7136882022472  C 4.71945627157641 60.7136882022472  6.55494893555806 60.4230505617977  6.55494893555806 60.4230505617977  C 6.55494893555806 60.4230505617977  9.54769778481011 60.6126825842697  9.54769778481011 60.6126825842697  C 9.54769778481011 60.6126825842697  10.85603783084 60.0057724719101  10.85603783084 60.0057724719101  C 10.85603783084 60.0057724719101  15.4174820195627 56.9726460674158  15.4174820195627 56.9726460674158  C 15.4174820195627 56.9726460674158  17.4930315017261 56.0627191011236  17.4930315017261 56.0627191011236  C 17.4930315017261 56.0627191011236  18.9383558688148 55.9740926966292  18.9383558688148 55.9740926966292  C 18.9383558688148 55.9740926966292  26.0478056674337 58.6660786516854  26.0478056674337 58.6660786516854  C 26.0478056674337 58.6660786516854  28.451412543153 60.6061095505618  28.451412543153 60.6061095505618  C 28.451412543153 60.6061095505618  29.1504336881474 63.0709971910112  29.1504336881474 63.0709971910112  C 29.1504336881474 63.0709971910112  29.8352337456847 64.0124747191011  29.8352337456847 64.0124747191011  C 29.8352337456847 64.0124747191011  31.9649935270426 64.59375  31.9649935270426 64.59375  C 31.9649935270426 64.59375  33.7321763521289 64.606238764045  33.7321763521289 64.606238764045  C 33.7321763521289 64.606238764045  41.0540916283084 65.3901825842697  41.0540916283084 65.3901825842697  C 41.0540916283084 65.3901825842697  44.896337744534 65.0870561797753  44.896337744534 65.0870561797753  C 44.896337744534 65.0870561797753  48.7661752013807 64.5182696629213  48.7661752013807 64.5182696629213  C 48.7661752013807 64.5182696629213  48.9578560126583 61.319941011236  48.9578560126583 61.319941011236  C 48.9578560126583 61.319941011236  52.4235471806674 61.9393398876404  52.4235471806674 61.9393398876404  C 52.4235471806674 61.9393398876404  62.2798547180666 62.9318679775281  62.2798547180666 62.9318679775281  C 62.2798547180666 62.9318679775281  63.0329646144994 62.571665730337  63.0329646144994 62.571665730337  C 63.0329646144994 62.571665730337  67.2866498849253 56.9346320224719  67.2866498849253 56.9346320224719  C 67.2866498849253 56.9346320224719  69.5053826237054 54.6849016853933  69.5053826237054 54.6849016853933  C 69.5053826237054 54.6849016853933  71.1220893268126 56.6504578651686  71.1220893268126 56.6504578651686  C 71.1220893268126 56.6504578651686  72.5330156789414 56.5114382022472  72.5330156789414 56.5114382022472  C 72.5330156789414 56.5114382022472  73.7522612197929 55.3232528089887  73.7522612197929 55.3232528089887  C 73.7522612197929 55.3232528089887  72.2450690448793 51.6713848314607  72.2450690448793 51.6713848314607  C 72.2450690448793 51.6713848314607  74.2794138377446 49.7312443820225  74.2794138377446 49.7312443820225  C 74.2794138377446 49.7312443820225  75.3001718929804 50.0159662921348  75.3001718929804 50.0159662921348  C 75.3001718929804 50.0159662921348  81.6763240794016 49.3080505617978  81.6763240794016 49.3080505617978  C 81.6763240794016 49.3080505617978  82.0533652186421 50.4896629213483  82.0533652186421 50.4896629213483  C 82.0533652186421 50.4896629213483  85.9160313578827 50.5212134831461  85.9160313578827 50.5212134831461  C 85.9160313578827 50.5212134831461  86.3273489643268 50.0600056179775  86.3273489643268 50.0600056179775  C 86.3273489643268 50.0600056179775  88.1696483026467 49.9970140449439  88.1696483026467 49.9970140449439  C 88.1696483026467 49.9970140449439  88.5530099252014 49.4156292134832  88.5530099252014 49.4156292134832  C 88.5530099252014 49.4156292134832  91.779008918297 48.0004550561798  91.779008918297 48.0004550561798  C 91.779008918297 48.0004550561798  101.874887082854 47.3114915730337  101.874887082854 47.3114915730337  C 101.874887082854 47.3114915730337  107.518714039125 47.0274269662921  107.518714039125 47.0274269662921  C 107.518714039125 47.0274269662921  123.381303941312 45.8522780898876  123.381303941312 45.8522780898876  C 123.381303941312 45.8522780898876  130.401659234753 45.2585140449438  130.401659234753 45.2585140449438  C 130.401659234753 45.2585140449438  141.640937140391 44.8037696629214  141.640937140391 44.8037696629214  C 141.640937140391 44.8037696629214  156.606626150748 44.879797752809  156.606626150748 44.879797752809  C 156.606626150748 44.879797752809  156.894086593786 43.407547752809  156.894086593786 43.407547752809  C 156.894086593786 43.407547752809  158.058757192175 43.8942808988764  158.058757192175 43.8942808988764  C 158.058757192175 43.8942808988764  158.380615650173 44.879797752809  158.380615650173 44.879797752809  C 158.380615650173 44.879797752809  161.914495109321 44.8227219101124  161.914495109321 44.8227219101124  C 161.914495109321 44.8227219101124  167.065081271576 43.3064325842697  167.065081271576 43.3064325842697  C 167.065081271576 43.3064325842697  177.75982523015 39.4535393258427  177.75982523015 39.4535393258427  C 177.75982523015 39.4535393258427  183.074865506329 37.0527387640449  183.074865506329 37.0527387640449  C 183.074865506329 37.0527387640449  188.088467347526 35.9096882022473  188.088467347526 35.9096882022473  C 188.088467347526 35.9096882022473  191.841740506329 34.4635112359551  191.841740506329 34.4635112359551  C 191.841740506329 34.4635112359551  205.916727560414 31.9497640449438  205.916727560414 31.9497640449438  C 205.916727560414 31.9497640449438  210.403298331415 31.5205449438203  210.403298331415 31.5205449438203  C 210.403298331415 31.5205449438203  211.711516829689 31.1853202247191  211.711516829689 31.1853202247191  C 211.711516829689 31.1853202247191  214.910046029919 28.6911825842697  214.910046029919 28.6911825842697  C 214.910046029919 28.6911825842697  216.827826524741 27.7882668539326  216.827826524741 27.7882668539326  C 216.827826524741 27.7882668539326  219.273124280782 28.1354325842697  219.273124280782 28.1354325842697  C 219.273124280782 28.1354325842697  222.724715909091 30.5035870786517  222.724715909091 30.5035870786517  C 222.724715909091 30.5035870786517  226.163301927503 33.7056404494382  226.163301927503 33.7056404494382  C 226.163301927503 33.7056404494382  227.170081990794 34.0337443820225  227.170081990794 34.0337443820225  C 227.170081990794 34.0337443820225  229.88205552359 33.4590421348315  229.88205552359 33.4590421348315  C 229.88205552359 33.4590421348315  231.793029344074 32.5686151685393  231.793029344074 32.5686151685393  C 231.793029344074 32.5686151685393  235.292996979286 32.9857837078652  235.292996979286 32.9857837078652  C 235.292996979286 32.9857837078652  237.745101409666 33.5980617977528  237.745101409666 33.5980617977528  C 237.745101409666 33.5980617977528  241.272295742232 33.9011882022472  241.272295742232 33.9011882022472  C 241.272295742232 33.9011882022472  243.231159378596 34.7732106741573  243.231159378596 34.7732106741573  C 243.231159378596 34.7732106741573  244.436791570771 34.8237134831461  244.436791570771 34.8237134831461  C 244.436791570771 34.8237134831461  246.553059551208 33.6046348314607  246.553059551208 33.6046348314607  C 246.553059551208 33.6046348314607  249.792671892981 30.7371488764045  249.792671892981 30.7371488764045  C 249.792671892981 30.7371488764045  251.361367232451 30.0238651685394  251.361367232451 30.0238651685394  C 251.361367232451 30.0238651685394  252.6077179229 31.0022612359551  252.6077179229 31.0022612359551  C 252.6077179229 31.0022612359551  253.676487341772 32.6000561797753  253.676487341772 32.6000561797753  C 253.676487341772 32.6000561797753  254.964042721519 33.0487752808989  254.964042721519 33.0487752808989  C 254.964042721519 33.0487752808989  256.032325949367 32.0257921348314  256.032325949367 32.0257921348314  C 256.032325949367 32.0257921348314  258.327026035673 28.2109129213483  258.327026035673 28.2109129213483  C 258.327026035673 28.2109129213483  262.963586737629 25.2179915730337  262.963586737629 25.2179915730337  C 262.963586737629 25.2179915730337  266.545842203682 23.715286516854  266.545842203682 23.715286516854  C 266.545842203682 23.715286516854  268.032371260069 22.3071235955056  268.032371260069 22.3071235955056  C 268.032371260069 22.3071235955056  269.840151035673 17.8935505617977  269.840151035673 17.8935505617977  C 269.840151035673 17.8935505617977  272.004795023015 13.9286966292135  272.004795023015 13.9286966292135  C 272.004795023015 13.9286966292135  274.436114787112 11.3154775280899  274.436114787112 11.3154775280899  C 274.436114787112 11.3154775280899  282.02519203107 5.56483988764046  282.02519203107 5.56483988764046  C 282.02519203107 5.56483988764046  287.298662974684 0.269494382022458  287.298662974684 0.269494382022458  C 287.298662974684 0.269494382022458  292.333049482163 2.54803651685393  292.333049482163 2.54803651685393  C 292.333049482163 2.54803651685393  311.866989355581 10.0088679775281  311.866989355581 10.0088679775281  C 311.866989355581 10.0088679775281  330.270413550057 19.3017134831461  330.270413550057 19.3017134831461  C 330.270413550057 19.3017134831461  332.167774021864 21.2085505617978  332.167774021864 21.2085505617978  C 332.167774021864 21.2085505617978  343.742888377445 35.7076769662921  343.742888377445 35.7076769662921  C 343.742888377445 35.7076769662921  347.927777617952 37.5711320224719  347.927777617952 37.5711320224719  C 347.927777617952 37.5711320224719  348.900159666283 37.6405870786517  348.900159666283 37.6405870786517  C 348.900159666283 37.6405870786517  347.18815952244 48.0318960674157  347.18815952244 48.0318960674157  C 347.18815952244 48.0318960674157  345.921024165708 47.7983342696629  345.921024165708 47.7983342696629  C 345.921024165708 47.7983342696629  343.852767548907 48.3350224719101  343.852767548907 48.3350224719101  C 343.852767548907 48.3350224719101  342.393829833142 54.9821123595506  342.393829833142 54.9821123595506  C 342.393829833142 54.9821123595506  338.67459004603 53.5858904494382  338.67459004603 53.5858904494382  C 338.67459004603 53.5858904494382  338.763684551208 54.1921432584269  338.763684551208 54.1921432584269  C 338.763684551208 54.1921432584269  336.496454257767 54.7544662921349  336.496454257767 54.7544662921349  Z " fill-rule="nonzero" fill="#409eff" stroke="none" fill-opacity="0.298039215686275" transform="matrix(1 0 0 1 976 430 )" />
    <path d="M 336.496454257767 54.7544662921349  C 336.496454257767 54.7544662921349  337.113066024166 57.0166853932584  337.113066024166 57.0166853932584  C 337.113066024166 57.0166853932584  336.503260932106 56.6629466292135  336.503260932106 56.6629466292135  C 336.503260932106 56.6629466292135  333.476114067894 58.9882668539326  333.476114067894 58.9882668539326  C 333.476114067894 58.9882668539326  327.517235327963 64.3221741573034  327.517235327963 64.3221741573034  C 327.517235327963 64.3221741573034  319.442088607595 70.9083539325843  319.442088607595 70.9083539325843  C 319.442088607595 70.9083539325843  319.120230149597 72.5261966292135  319.120230149597 72.5261966292135  C 319.120230149597 72.5261966292135  321.394267117376 74.7955365168539  321.394267117376 74.7955365168539  C 321.394267117376 74.7955365168539  320.647356156502 76.078702247191  320.647356156502 76.078702247191  C 320.647356156502 76.078702247191  310.634252013809 85.024929775281  310.634252013809 85.024929775281  C 310.634252013809 85.024929775281  303.675278337169 90.1214410112359  303.675278337169 90.1214410112359  C 303.675278337169 90.1214410112359  299.462797756041 93.6690168539326  299.462797756041 93.6690168539326  C 299.462797756041 93.6690168539326  297.675316455696 95.4906235955057  297.675316455696 95.4906235955057  C 297.675316455696 95.4906235955057  294.709672756041 98.8630280898876  294.709672756041 98.8630280898876  C 294.709672756041 98.8630280898876  293.100258918297 100.406485955056  293.100258918297 100.406485955056  C 293.100258918297 100.406485955056  288.778385356732 99.6095056179774  288.778385356732 99.6095056179774  C 288.778385356732 99.6095056179774  280.477281357883 98.970606741573  280.477281357883 98.970606741573  C 280.477281357883 98.970606741573  279.497606444189 99.3372724719101  279.497606444189 99.3372724719101  C 279.497606444189 99.3372724719101  276.942794159954 101.671247191011  276.942794159954 101.671247191011  C 276.942794159954 101.671247191011  276.477266254315 102.771901685393  276.477266254315 102.771901685393  C 276.477266254315 102.771901685393  277.579825949367 104.574556179775  277.579825949367 104.574556179775  C 277.579825949367 104.574556179775  273.26475906214 108.154668539326  273.26475906214 108.154668539326  C 273.26475906214 108.154668539326  271.319873417722 109.565570224719  271.319873417722 109.565570224719  C 271.319873417722 109.565570224719  268.983968642117 109.976823033708  268.983968642117 109.976823033708  C 268.983968642117 109.976823033708  267.552622266973 109.445502808989  267.552622266973 109.445502808989  C 267.552622266973 109.445502808989  265.703151611047 110.071912921348  265.703151611047 110.071912921348  C 265.703151611047 110.071912921348  264.217230293441 111.912581460674  264.217230293441 111.912581460674  C 264.217230293441 111.912581460674  265.59375863061 114.481213483146  265.59375863061 114.481213483146  C 265.59375863061 114.481213483146  265.525570339471 115.563463483146  265.525570339471 115.563463483146  C 265.525570339471 115.563463483146  263.600618527043 116.252865168539  263.600618527043 116.252865168539  C 263.600618527043 116.252865168539  262.326554948217 116.157775280899  262.326554948217 116.157775280899  C 262.326554948217 116.157775280899  259.936439873418 117.316053370787  259.936439873418 117.316053370787  C 259.936439873418 117.316053370787  255.368189010357 118.986042134831  255.368189010357 118.986042134831  C 255.368189010357 118.986042134831  253.080174050633 120.517558988764  253.080174050633 120.517558988764  C 253.080174050633 120.517558988764  251.388472382049 122.162679775281  251.388472382049 122.162679775281  C 251.388472382049 122.162679775281  245.813441455696 124.934418539326  245.813441455696 124.934418539326  C 245.813441455696 124.934418539326  244.156137802071 127.339491573034  244.156137802071 127.339491573034  C 244.156137802071 127.339491573034  240.793032940161 128.86454494382  240.793032940161 128.86454494382  C 240.793032940161 128.86454494382  236.334175057537 131.585780898876  236.334175057537 131.585780898876  C 236.334175057537 131.585780898876  232.998783084005 134.516806179775  232.998783084005 134.516806179775  C 232.998783084005 134.516806179775  232.340966628308 136.187342696629  232.340966628308 136.187342696629  C 232.340966628308 136.187342696629  232.690416426928 137.59933988764  232.690416426928 137.59933988764  C 232.690416426928 137.59933988764  230.985101409666 138.593073033708  230.985101409666 138.593073033708  C 230.985101409666 138.593073033708  229.142437428078 139.206884831461  229.142437428078 139.206884831461  C 229.142437428078 139.206884831461  227.676814585731 138.352390449438  227.676814585731 138.352390449438  C 227.676814585731 138.352390449438  226.156495253164 138.877685393258  226.156495253164 138.877685393258  C 226.156495253164 138.877685393258  225.560181962025 140.808514044944  225.560181962025 140.808514044944  C 225.560181962025 140.808514044944  218.115260356732 145.778384831461  218.115260356732 145.778384831461  C 218.115260356732 145.778384831461  217.108480293441 148.589342696629  217.108480293441 148.589342696629  C 217.108480293441 148.589342696629  214.362108745685 150.767865168539  214.362108745685 150.767865168539  C 214.362108745685 150.767865168539  212.560527905639 151.774634831461  212.560527905639 151.774634831461  C 212.560527905639 151.774634831461  209.464706559264 152.907935393258  209.464706559264 152.907935393258  C 209.464706559264 152.907935393258  205.437586306099 153.933547752809  205.437586306099 153.933547752809  C 205.437586306099 153.933547752809  204.807361191024 154.693609550562  204.807361191024 154.693609550562  C 204.807361191024 154.693609550562  203.739077963176 158.113011235955  203.739077963176 158.113011235955  C 203.739077963176 158.113011235955  198.971853423475 160.893514044944  198.971853423475 160.893514044944  C 198.971853423475 160.893514044944  196.376079545455 162.122452247191  196.376079545455 162.122452247191  C 196.376079545455 162.122452247191  193.012974683544 163.192761235955  193.012974683544 163.192761235955  C 193.012974683544 163.192761235955  190.896828250863 164.11079494382  190.896828250863 164.11079494382  C 190.896828250863 164.11079494382  190.568163118527 170.406884831461  190.568163118527 170.406884831461  C 190.568163118527 170.406884831461  185.17752013809 170.774755617978  185.17752013809 170.774755617978  C 185.17752013809 170.774755617978  179.020153912543 169.697435393258  179.020153912543 169.697435393258  C 179.020153912543 169.697435393258  168.763954257768 171.078429775281  168.763954257768 171.078429775281  C 168.763954257768 171.078429775281  165.38018627733 173.308550561798  165.38018627733 173.308550561798  C 165.38018627733 173.308550561798  163.585898302647 173.669300561798  163.585898302647 173.669300561798  C 163.585898302647 173.669300561798  160.161290276179 173.885005617978  160.161290276179 173.885005617978  C 160.161290276179 173.885005617978  158.476395281933 174.486985955056  158.476395281933 174.486985955056  C 158.476395281933 174.486985955056  155.161301783659 175.177483146067  155.161301783659 175.177483146067  C 155.161301783659 175.177483146067  152.92166283084 175.132896067416  152.92166283084 175.132896067416  C 152.92166283084 175.132896067416  146.503941311853 173.625261235955  146.503941311853 173.625261235955  C 146.503941311853 173.625261235955  144.599774165708 173.739412921348  144.599774165708 173.739412921348  C 144.599774165708 173.739412921348  124.223629890679 178.136115168539  124.223629890679 178.136115168539  C 124.223629890679 178.136115168539  121.216781501726 178.275244382022  121.216781501726 178.275244382022  C 121.216781501726 178.275244382022  116.744310270426 177.705362359551  116.744310270426 177.705362359551  C 116.744310270426 177.705362359551  113.730776754891 178.060087078652  113.730776754891 178.060087078652  C 113.730776754891 178.060087078652  97.7171029919446 183.065342696629  97.7171029919446 183.065342696629  C 97.7171029919446 183.065342696629  83.6216959148446 188.705115168539  83.6216959148446 188.705115168539  C 83.6216959148446 188.705115168539  81.9163808975834 189.167966292135  81.9163808975834 189.167966292135  C 81.9163808975834 189.167966292135  68.8001625431532 190.213297752809  68.8001625431532 190.213297752809  C 68.8001625431532 190.213297752809  65.4303725546606 190.82820505618  65.4303725546606 190.82820505618  C 65.4303725546606 190.82820505618  62.7179128308401 191.569862359551  62.7179128308401 191.569862359551  C 62.7179128308401 191.569862359551  57.10167721519 191.354157303371  57.10167721519 191.354157303371  C 57.10167721519 191.354157303371  36.5129459148446 190.910258426966  36.5129459148446 190.910258426966  C 36.5129459148446 190.910258426966  35.7322446777905 188.983811797753  35.7322446777905 188.983811797753  C 35.7322446777905 188.983811797753  27.8216736191024 188.514935393258  27.8216736191024 188.514935393258  C 27.8216736191024 188.514935393258  22.6368109896433 187.596244382022  22.6368109896433 187.596244382022  C 22.6368109896433 187.596244382022  20.6779473532796 187.564255617978  20.6779473532796 187.564255617978  C 20.6779473532796 187.564255617978  20.9998058112773 181.329514044944  20.9998058112773 181.329514044944  C 20.9998058112773 181.329514044944  19.3420159666282 180.492876404494  19.3420159666282 180.492876404494  C 19.3420159666282 180.492876404494  19.4862931530495 174.037061797753  19.4862931530495 174.037061797753  C 19.4862931530495 174.037061797753  18.6164974108169 173.770853932584  18.6164974108169 173.770853932584  C 18.6164974108169 173.770853932584  18.2805394131186 172.041598314607  18.2805394131186 172.041598314607  C 18.2805394131186 172.041598314607  16.8081098964326 171.889542134831  16.8081098964326 171.889542134831  C 16.8081098964326 171.889542134831  17.1503883774453 158.062508426966  17.1503883774453 158.062508426966  C 17.1503883774453 158.062508426966  12.2398590333717 157.372558988764  12.2398590333717 157.372558988764  C 12.2398590333717 157.372558988764  9.26011579401609 156.663  9.26011579401609 156.663  C 9.26011579401609 156.663  8.58200086306101 155.199952247191  8.58200086306101 155.199952247191  C 8.58200086306101 155.199952247191  9.55486910241666 151.204752808989  9.55486910241666 151.204752808989  C 9.55486910241666 151.204752808989  10.6439369965478 148.912626404494  10.6439369965478 148.912626404494  C 10.6439369965478 148.912626404494  10.958624136939 142.049393258427  10.958624136939 142.049393258427  C 10.958624136939 142.049393258427  12.4862363348677 135.484904494382  12.4862363348677 135.484904494382  C 12.4862363348677 135.484904494382  13.027366944764 131.712421348315  13.027366944764 131.712421348315  C 13.027366944764 131.712421348315  12.3695504890678 128.636898876405  12.3695504890678 128.636898876405  C 12.3695504890678 128.636898876405  10.4794828826236 126.219337078652  10.4794828826236 126.219337078652  C 10.4794828826236 126.219337078652  9.68468210586877 124.687820224719  9.68468210586877 124.687820224719  C 9.68468210586877 124.687820224719  8.65748201956274 120.524132022472  8.65748201956274 120.524132022472  C 8.65748201956274 120.524132022472  8.70549338319904 118.992615168539  8.70549338319904 118.992615168539  C 8.70549338319904 118.992615168539  9.73305811277328 114.411648876404  9.73305811277328 114.411648876404  C 9.73305811277328 114.411648876404  3.7600798331415 116.601126404494  3.7600798331415 116.601126404494  C 3.7600798331415 116.601126404494  2.82209579976984 111.792514044944  2.82209579976984 111.792514044944  C 2.82209579976984 111.792514044944  1.43146792289986 107.079539325843  1.43146792289986 107.079539325843  C 1.43146792289986 107.079539325843  0.643960011507488 98.1356123595506  0.643960011507488 98.1356123595506  C 0.643960011507488 98.1356123595506  1.08250431530485 91.6137387640449  1.08250431530485 91.6137387640449  C 1.08250431530485 91.6137387640449  2.57523230724962 86.9029550561797  2.57523230724962 86.9029550561797  C 2.57523230724962 86.9029550561797  4.45229430379743 82.7360898876404  4.45229430379743 82.7360898876404  C 4.45229430379743 82.7360898876404  4.34241513233599 80.9530449438203  4.34241513233599 80.9530449438203  C 4.34241513233599 80.9530449438203  3.79447784810122 79.0819213483146  3.79447784810122 79.0819213483146  C 3.79447784810122 79.0819213483146  3.767372698504 76.8251797752808  3.767372698504 76.8251797752808  C 3.767372698504 76.8251797752808  13.9654725258919 76.4203904494382  13.9654725258919 76.4203904494382  C 13.9654725258919 76.4203904494382  14.8424395857309 72.3556264044944  14.8424395857309 72.3556264044944  C 14.8424395857309 72.3556264044944  15.4106753452244 68.797095505618  15.4106753452244 68.797095505618  C 15.4106753452244 68.797095505618  3.41111622554661 70.3770337078652  3.41111622554661 70.3770337078652  C 3.41111622554661 70.3770337078652  3.06847310126579 67.305345505618  3.06847310126579 67.305345505618  C 3.06847310126579 67.305345505618  3.4658127157652 64.574797752809  3.4658127157652 64.574797752809  C 3.4658127157652 64.574797752809  4.71945627157641 60.7136882022472  4.71945627157641 60.7136882022472  C 4.71945627157641 60.7136882022472  6.55494893555806 60.4230505617977  6.55494893555806 60.4230505617977  C 6.55494893555806 60.4230505617977  9.54769778481011 60.6126825842697  9.54769778481011 60.6126825842697  C 9.54769778481011 60.6126825842697  10.85603783084 60.0057724719101  10.85603783084 60.0057724719101  C 10.85603783084 60.0057724719101  15.4174820195627 56.9726460674158  15.4174820195627 56.9726460674158  C 15.4174820195627 56.9726460674158  17.4930315017261 56.0627191011236  17.4930315017261 56.0627191011236  C 17.4930315017261 56.0627191011236  18.9383558688148 55.9740926966292  18.9383558688148 55.9740926966292  C 18.9383558688148 55.9740926966292  26.0478056674337 58.6660786516854  26.0478056674337 58.6660786516854  C 26.0478056674337 58.6660786516854  28.451412543153 60.6061095505618  28.451412543153 60.6061095505618  C 28.451412543153 60.6061095505618  29.1504336881474 63.0709971910112  29.1504336881474 63.0709971910112  C 29.1504336881474 63.0709971910112  29.8352337456847 64.0124747191011  29.8352337456847 64.0124747191011  C 29.8352337456847 64.0124747191011  31.9649935270426 64.59375  31.9649935270426 64.59375  C 31.9649935270426 64.59375  33.7321763521289 64.606238764045  33.7321763521289 64.606238764045  C 33.7321763521289 64.606238764045  41.0540916283084 65.3901825842697  41.0540916283084 65.3901825842697  C 41.0540916283084 65.3901825842697  44.896337744534 65.0870561797753  44.896337744534 65.0870561797753  C 44.896337744534 65.0870561797753  48.7661752013807 64.5182696629213  48.7661752013807 64.5182696629213  C 48.7661752013807 64.5182696629213  48.9578560126583 61.319941011236  48.9578560126583 61.319941011236  C 48.9578560126583 61.319941011236  52.4235471806674 61.9393398876404  52.4235471806674 61.9393398876404  C 52.4235471806674 61.9393398876404  62.2798547180666 62.9318679775281  62.2798547180666 62.9318679775281  C 62.2798547180666 62.9318679775281  63.0329646144994 62.571665730337  63.0329646144994 62.571665730337  C 63.0329646144994 62.571665730337  67.2866498849253 56.9346320224719  67.2866498849253 56.9346320224719  C 67.2866498849253 56.9346320224719  69.5053826237054 54.6849016853933  69.5053826237054 54.6849016853933  C 69.5053826237054 54.6849016853933  71.1220893268126 56.6504578651686  71.1220893268126 56.6504578651686  C 71.1220893268126 56.6504578651686  72.5330156789414 56.5114382022472  72.5330156789414 56.5114382022472  C 72.5330156789414 56.5114382022472  73.7522612197929 55.3232528089887  73.7522612197929 55.3232528089887  C 73.7522612197929 55.3232528089887  72.2450690448793 51.6713848314607  72.2450690448793 51.6713848314607  C 72.2450690448793 51.6713848314607  74.2794138377446 49.7312443820225  74.2794138377446 49.7312443820225  C 74.2794138377446 49.7312443820225  75.3001718929804 50.0159662921348  75.3001718929804 50.0159662921348  C 75.3001718929804 50.0159662921348  81.6763240794016 49.3080505617978  81.6763240794016 49.3080505617978  C 81.6763240794016 49.3080505617978  82.0533652186421 50.4896629213483  82.0533652186421 50.4896629213483  C 82.0533652186421 50.4896629213483  85.9160313578827 50.5212134831461  85.9160313578827 50.5212134831461  C 85.9160313578827 50.5212134831461  86.3273489643268 50.0600056179775  86.3273489643268 50.0600056179775  C 86.3273489643268 50.0600056179775  88.1696483026467 49.9970140449439  88.1696483026467 49.9970140449439  C 88.1696483026467 49.9970140449439  88.5530099252014 49.4156292134832  88.5530099252014 49.4156292134832  C 88.5530099252014 49.4156292134832  91.779008918297 48.0004550561798  91.779008918297 48.0004550561798  C 91.779008918297 48.0004550561798  101.874887082854 47.3114915730337  101.874887082854 47.3114915730337  C 101.874887082854 47.3114915730337  107.518714039125 47.0274269662921  107.518714039125 47.0274269662921  C 107.518714039125 47.0274269662921  123.381303941312 45.8522780898876  123.381303941312 45.8522780898876  C 123.381303941312 45.8522780898876  130.401659234753 45.2585140449438  130.401659234753 45.2585140449438  C 130.401659234753 45.2585140449438  141.640937140391 44.8037696629214  141.640937140391 44.8037696629214  C 141.640937140391 44.8037696629214  156.606626150748 44.879797752809  156.606626150748 44.879797752809  C 156.606626150748 44.879797752809  156.894086593786 43.407547752809  156.894086593786 43.407547752809  C 156.894086593786 43.407547752809  158.058757192175 43.8942808988764  158.058757192175 43.8942808988764  C 158.058757192175 43.8942808988764  158.380615650173 44.879797752809  158.380615650173 44.879797752809  C 158.380615650173 44.879797752809  161.914495109321 44.8227219101124  161.914495109321 44.8227219101124  C 161.914495109321 44.8227219101124  167.065081271576 43.3064325842697  167.065081271576 43.3064325842697  C 167.065081271576 43.3064325842697  177.75982523015 39.4535393258427  177.75982523015 39.4535393258427  C 177.75982523015 39.4535393258427  183.074865506329 37.0527387640449  183.074865506329 37.0527387640449  C 183.074865506329 37.0527387640449  188.088467347526 35.9096882022473  188.088467347526 35.9096882022473  C 188.088467347526 35.9096882022473  191.841740506329 34.4635112359551  191.841740506329 34.4635112359551  C 191.841740506329 34.4635112359551  205.916727560414 31.9497640449438  205.916727560414 31.9497640449438  C 205.916727560414 31.9497640449438  210.403298331415 31.5205449438203  210.403298331415 31.5205449438203  C 210.403298331415 31.5205449438203  211.711516829689 31.1853202247191  211.711516829689 31.1853202247191  C 211.711516829689 31.1853202247191  214.910046029919 28.6911825842697  214.910046029919 28.6911825842697  C 214.910046029919 28.6911825842697  216.827826524741 27.7882668539326  216.827826524741 27.7882668539326  C 216.827826524741 27.7882668539326  219.273124280782 28.1354325842697  219.273124280782 28.1354325842697  C 219.273124280782 28.1354325842697  222.724715909091 30.5035870786517  222.724715909091 30.5035870786517  C 222.724715909091 30.5035870786517  226.163301927503 33.7056404494382  226.163301927503 33.7056404494382  C 226.163301927503 33.7056404494382  227.170081990794 34.0337443820225  227.170081990794 34.0337443820225  C 227.170081990794 34.0337443820225  229.88205552359 33.4590421348315  229.88205552359 33.4590421348315  C 229.88205552359 33.4590421348315  231.793029344074 32.5686151685393  231.793029344074 32.5686151685393  C 231.793029344074 32.5686151685393  235.292996979286 32.9857837078652  235.292996979286 32.9857837078652  C 235.292996979286 32.9857837078652  237.745101409666 33.5980617977528  237.745101409666 33.5980617977528  C 237.745101409666 33.5980617977528  241.272295742232 33.9011882022472  241.272295742232 33.9011882022472  C 241.272295742232 33.9011882022472  243.231159378596 34.7732106741573  243.231159378596 34.7732106741573  C 243.231159378596 34.7732106741573  244.436791570771 34.8237134831461  244.436791570771 34.8237134831461  C 244.436791570771 34.8237134831461  246.553059551208 33.6046348314607  246.553059551208 33.6046348314607  C 246.553059551208 33.6046348314607  249.792671892981 30.7371488764045  249.792671892981 30.7371488764045  C 249.792671892981 30.7371488764045  251.361367232451 30.0238651685394  251.361367232451 30.0238651685394  C 251.361367232451 30.0238651685394  252.6077179229 31.0022612359551  252.6077179229 31.0022612359551  C 252.6077179229 31.0022612359551  253.676487341772 32.6000561797753  253.676487341772 32.6000561797753  C 253.676487341772 32.6000561797753  254.964042721519 33.0487752808989  254.964042721519 33.0487752808989  C 254.964042721519 33.0487752808989  256.032325949367 32.0257921348314  256.032325949367 32.0257921348314  C 256.032325949367 32.0257921348314  258.327026035673 28.2109129213483  258.327026035673 28.2109129213483  C 258.327026035673 28.2109129213483  262.963586737629 25.2179915730337  262.963586737629 25.2179915730337  C 262.963586737629 25.2179915730337  266.545842203682 23.715286516854  266.545842203682 23.715286516854  C 266.545842203682 23.715286516854  268.032371260069 22.3071235955056  268.032371260069 22.3071235955056  C 268.032371260069 22.3071235955056  269.840151035673 17.8935505617977  269.840151035673 17.8935505617977  C 269.840151035673 17.8935505617977  272.004795023015 13.9286966292135  272.004795023015 13.9286966292135  C 272.004795023015 13.9286966292135  274.436114787112 11.3154775280899  274.436114787112 11.3154775280899  C 274.436114787112 11.3154775280899  282.02519203107 5.56483988764046  282.02519203107 5.56483988764046  C 282.02519203107 5.56483988764046  287.298662974684 0.269494382022458  287.298662974684 0.269494382022458  C 287.298662974684 0.269494382022458  292.333049482163 2.54803651685393  292.333049482163 2.54803651685393  C 292.333049482163 2.54803651685393  311.866989355581 10.0088679775281  311.866989355581 10.0088679775281  C 311.866989355581 10.0088679775281  330.270413550057 19.3017134831461  330.270413550057 19.3017134831461  C 330.270413550057 19.3017134831461  332.167774021864 21.2085505617978  332.167774021864 21.2085505617978  C 332.167774021864 21.2085505617978  343.742888377445 35.7076769662921  343.742888377445 35.7076769662921  C 343.742888377445 35.7076769662921  347.927777617952 37.5711320224719  347.927777617952 37.5711320224719  C 347.927777617952 37.5711320224719  348.900159666283 37.6405870786517  348.900159666283 37.6405870786517  C 348.900159666283 37.6405870786517  347.18815952244 48.0318960674157  347.18815952244 48.0318960674157  C 347.18815952244 48.0318960674157  345.921024165708 47.7983342696629  345.921024165708 47.7983342696629  C 345.921024165708 47.7983342696629  343.852767548907 48.3350224719101  343.852767548907 48.3350224719101  C 343.852767548907 48.3350224719101  342.393829833142 54.9821123595506  342.393829833142 54.9821123595506  C 342.393829833142 54.9821123595506  338.67459004603 53.5858904494382  338.67459004603 53.5858904494382  C 338.67459004603 53.5858904494382  338.763684551208 54.1921432584269  338.763684551208 54.1921432584269  C 338.763684551208 54.1921432584269  336.496454257767 54.7544662921349  336.496454257767 54.7544662921349  Z " stroke-width="2" stroke="#6886b3" fill="none" transform="matrix(1 0 0 1 976 430 )" mask="url(#clip45)" />
  </g>
</svg>