<?xml version="1.0" encoding="utf-8"?>
<svg version="1.1" xmlns:xlink="http://www.w3.org/1999/xlink" width="308px" height="256px" xmlns="http://www.w3.org/2000/svg">
  <defs>
    <mask fill="white" id="clip43">
      <path d="M 302.966018897638 0.791083760683748  C 302.966018897638 0.791083760683748  303.574379527559 1.14434188034187  303.574379527559 1.14434188034187  C 303.574379527559 1.14434188034187  303.42377480315 1.65535726495727  303.42377480315 1.65535726495727  C 303.42377480315 1.65535726495727  304.250888188976 5.51122051282051  304.250888188976 5.51122051282051  C 304.250888188976 5.51122051282051  304.448905511811 9.82230427350429  304.448905511811 9.82230427350429  C 304.448905511811 9.82230427350429  303.711039370079 12.1513572649573  303.711039370079 12.1513572649573  C 303.711039370079 12.1513572649573  300.848094488189 18.7351521367521  300.848094488189 18.7351521367521  C 300.848094488189 18.7351521367521  299.775066141732 21.9040820512821  299.775066141732 21.9040820512821  C 299.775066141732 21.9040820512821  299.939251968504 23.7541743589744  299.939251968504 23.7541743589744  C 299.939251968504 23.7541743589744  300.977963779528 26.1088273504273  300.977963779528 26.1088273504273  C 300.977963779528 26.1088273504273  304.489891338583 30.6678153846154  304.489891338583 30.6678153846154  C 304.489891338583 30.6678153846154  306.683239370079 34.0527042735043  306.683239370079 34.0527042735043  C 306.683239370079 34.0527042735043  307.134204724409 35.9911931623931  307.134204724409 35.9911931623931  C 307.134204724409 35.9911931623931  306.881256692913 38.1766017094017  306.881256692913 38.1766017094017  C 306.881256692913 38.1766017094017  306.040925984252 39.2187623931624  306.040925984252 39.2187623931624  C 306.040925984252 39.2187623931624  302.836149606299 40.5577299145299  302.836149606299 40.5577299145299  C 302.836149606299 40.5577299145299  298.804987401575 41.6883965811966  298.804987401575 41.6883965811966  C 298.804987401575 41.6883965811966  297.062240944882 42.6796854700855  297.062240944882 42.6796854700855  C 297.062240944882 42.6796854700855  294.527546456693 46.7286427350427  294.527546456693 46.7286427350427  C 294.527546456693 46.7286427350427  293.946711811024 49.2303316239316  293.946711811024 49.2303316239316  C 293.946711811024 49.2303316239316  292.217910236221 51.0749538461538  292.217910236221 51.0749538461538  C 292.217910236221 51.0749538461538  290.106291338583 51.9467760683761  290.106291338583 51.9467760683761  C 290.106291338583 51.9467760683761  286.36202992126 53.1029333333333  286.36202992126 53.1029333333333  C 286.36202992126 53.1029333333333  284.476318110236 55.7564717948718  284.476318110236 55.7564717948718  C 284.476318110236 55.7564717948718  284.025352755906 57.0765128205128  284.025352755906 57.0765128205128  C 284.025352755906 57.0765128205128  284.23682992126 60.1603282051282  284.23682992126 60.1603282051282  C 284.23682992126 60.1603282051282  285.118631496063 63.4584615384615  285.118631496063 63.4584615384615  C 285.118631496063 63.4584615384615  284.838036220472 65.4430085470086  284.838036220472 65.4430085470086  C 284.838036220472 65.4430085470086  284.202998425197 66.3718290598291  284.202998425197 66.3718290598291  C 284.202998425197 66.3718290598291  280.40368503937 68.8746119658119  280.40368503937 68.8746119658119  C 280.40368503937 68.8746119658119  279.283001574803 70.1952  279.283001574803 70.1952  C 279.283001574803 70.1952  279.180537007874 72.8183247863248  279.180537007874 72.8183247863248  C 279.180537007874 72.8183247863248  278.114905511811 75.7507282051282  278.114905511811 75.7507282051282  C 278.114905511811 75.7507282051282  276.051062992126 77.4071794871795  276.051062992126 77.4071794871795  C 276.051062992126 77.4071794871795  272.436670866142 78.8605811965812  272.436670866142 78.8605811965812  C 272.436670866142 78.8605811965812  270.338996850394 80.6748991452991  270.338996850394 80.6748991452991  C 270.338996850394 80.6748991452991  268.288735433071 84.1074871794872  268.288735433071 84.1074871794872  C 268.288735433071 84.1074871794872  260.786146456693 90.7460923076923  260.786146456693 90.7460923076923  C 260.786146456693 90.7460923076923  253.666496062992 96.0135658119658  253.666496062992 96.0135658119658  C 253.666496062992 96.0135658119658  251.821406299213 97.7334700854701  251.821406299213 97.7334700854701  C 251.821406299213 97.7334700854701  243.054683464567 104.431152136752  243.054683464567 104.431152136752  C 243.054683464567 104.431152136752  239.631518110236 106.423357264957  239.631518110236 106.423357264957  C 239.631518110236 106.423357264957  234.88274015748 108.162735042735  234.88274015748 108.162735042735  C 234.88274015748 108.162735042735  231.172310236221 109.706283760684  231.172310236221 109.706283760684  C 231.172310236221 109.706283760684  228.20011023622 111.490078632479  228.20011023622 111.490078632479  C 228.20011023622 111.490078632479  220.287177952756 118.524717948718  220.287177952756 118.524717948718  C 220.287177952756 118.524717948718  217.882352755905 119.853401709402  217.882352755905 119.853401709402  C 217.882352755905 119.853401709402  215.449637795276 120.366058119658  215.449637795276 120.366058119658  C 215.449637795276 120.366058119658  213.590966929134 121.485894017094  213.590966929134 121.485894017094  C 213.590966929134 121.485894017094  206.484897637795 129.432724786325  206.484897637795 129.432724786325  C 206.484897637795 129.432724786325  202.781137007874 131.641435897436  202.781137007874 131.641435897436  C 202.781137007874 131.641435897436  199.064401574803 132.742235897436  199.064401574803 132.742235897436  C 199.064401574803 132.742235897436  195.558658267716 132.97011965812  195.558658267716 132.97011965812  C 195.558658267716 132.97011965812  193.33111496063 131.552492307692  193.33111496063 131.552492307692  C 193.33111496063 131.552492307692  192.76422519685 132.628348717949  192.76422519685 132.628348717949  C 192.76422519685 132.628348717949  189.586853543307 136.274160683761  189.586853543307 136.274160683761  C 189.586853543307 136.274160683761  187.174874015748 138.394475213675  187.174874015748 138.394475213675  C 187.174874015748 138.394475213675  184.339333858268 142.084266666667  184.339333858268 142.084266666667  C 184.339333858268 142.084266666667  180.020907086614 144.857162393162  180.020907086614 144.857162393162  C 180.020907086614 144.857162393162  177.581401574803 146.901442735043  177.581401574803 146.901442735043  C 177.581401574803 146.901442735043  176.043948031496 147.572622222222  176.043948031496 147.572622222222  C 176.043948031496 147.572622222222  173.789363779528 149.332676923077  173.789363779528 149.332676923077  C 173.789363779528 149.332676923077  171.411094488189 150.750851282051  171.411094488189 150.750851282051  C 171.411094488189 150.750851282051  174.288105511811 157.31014017094  174.288105511811 157.31014017094  C 174.288105511811 157.31014017094  175.880247244094 157.189688888889  175.880247244094 157.189688888889  C 175.880247244094 157.189688888889  182.870028346457 153.872082051282  182.870028346457 153.872082051282  C 182.870028346457 153.872082051282  183.813066141732 158.791876923077  183.813066141732 158.791876923077  C 183.813066141732 158.791876923077  183.792694488189 163.617148717949  183.792694488189 163.617148717949  C 183.792694488189 163.617148717949  184.708327559055 165.479165811966  184.708327559055 165.479165811966  C 184.708327559055 165.479165811966  182.064014173228 165.966878632479  182.064014173228 165.966878632479  C 182.064014173228 165.966878632479  182.754103937008 169.665422222222  182.754103937008 169.665422222222  C 182.754103937008 169.665422222222  181.913409448819 169.539063247863  181.913409448819 169.539063247863  C 181.913409448819 169.539063247863  179.296622047244 170.216697435897  179.296622047244 170.216697435897  C 179.296622047244 170.216697435897  185.582853543307 183.576177777778  185.582853543307 183.576177777778  C 185.582853543307 183.576177777778  186.573667716535 185.261839316239  186.573667716535 185.261839316239  C 186.573667716535 185.261839316239  192.641146456693 181.669196581197  192.641146456693 181.669196581197  C 192.641146456693 181.669196581197  193.153954330709 181.999042735043  193.153954330709 181.999042735043  C 193.153954330709 181.999042735043  194.568329133858 184.843596581197  194.568329133858 184.843596581197  C 194.568329133858 184.843596581197  196.1806 189.170871794872  196.1806 189.170871794872  C 196.1806 189.170871794872  199.911401574803 187.612116239316  199.911401574803 187.612116239316  C 199.911401574803 187.612116239316  201.093563779528 186.757141880342  201.093563779528 186.757141880342  C 201.093563779528 186.757141880342  203.205182677165 189.53868034188  203.205182677165 189.53868034188  C 203.205182677165 189.53868034188  206.320711811024 191.991029059829  206.320711811024 191.991029059829  C 206.320711811024 191.991029059829  209.518818897638 194.829565811966  209.518818897638 194.829565811966  C 209.518818897638 194.829565811966  208.124815748031 196.990468376068  208.124815748031 196.990468376068  C 208.124815748031 196.990468376068  208.309251968504 201.648793162393  208.309251968504 201.648793162393  C 208.309251968504 201.648793162393  205.446185826772 205.616902564103  205.446185826772 205.616902564103  C 205.446185826772 205.616902564103  204.380433070866 206.542003418803  204.380433070866 206.542003418803  C 204.380433070866 206.542003418803  201.203061417323 206.244102564103  201.203061417323 206.244102564103  C 201.203061417323 206.244102564103  199.255628346457 206.38348034188  199.255628346457 206.38348034188  C 199.255628346457 206.38348034188  198.353576377953 206.947774358974  198.353576377953 206.947774358974  C 198.353576377953 206.947774358974  193.953056692913 211.588157264957  193.953056692913 211.588157264957  C 193.953056692913 211.588157264957  201.107508661417 226.602447863248  201.107508661417 226.602447863248  C 201.107508661417 226.602447863248  199.891151181102 227.166632478632  199.891151181102 227.166632478632  C 199.891151181102 227.166632478632  202.097959055118 232.982099145299  202.097959055118 232.982099145299  C 202.097959055118 232.982099145299  199.870415748032 236.629661538462  199.870415748032 236.629661538462  C 199.870415748032 236.629661538462  200.437790551181 237.231917948718  200.437790551181 237.231917948718  C 200.437790551181 237.231917948718  198.216916535433 238.836731623932  198.216916535433 238.836731623932  C 198.216916535433 238.836731623932  196.488236220472 235.918878632479  196.488236220472 235.918878632479  C 196.488236220472 235.918878632479  194.568329133858 234.276102564103  194.568329133858 234.276102564103  C 194.568329133858 234.276102564103  190.181269291339 234.885360683761  190.181269291339 234.885360683761  C 190.181269291339 234.885360683761  188.220376377953 235.386092307692  188.220376377953 235.386092307692  C 188.220376377953 235.386092307692  187.195609448819 234.403008547009  187.195609448819 234.403008547009  C 187.195609448819 234.403008547009  187.024633070866 229.392738461538  187.024633070866 229.392738461538  C 187.024633070866 229.392738461538  185.93814488189 227.724909401709  185.93814488189 227.724909401709  C 185.93814488189 227.724909401709  185.172874015748 227.344629059829  185.172874015748 227.344629059829  C 185.172874015748 227.344629059829  180.724577952756 226.298092307692  180.724577952756 226.298092307692  C 180.724577952756 226.298092307692  178.387779527559 227.008218803419  178.387779527559 227.008218803419  C 178.387779527559 227.008218803419  177.697811023622 228.397182905983  177.697811023622 228.397182905983  C 177.697811023622 228.397182905983  178.490244094488 230.413784615385  178.490244094488 230.413784615385  C 178.490244094488 230.413784615385  178.203343307087 230.857517948718  178.203343307087 230.857517948718  C 178.203343307087 230.857517948718  175.422491338583 232.094523076923  175.422491338583 232.094523076923  C 175.422491338583 232.094523076923  173.829864566929 235.069264957265  173.829864566929 235.069264957265  C 173.829864566929 235.069264957265  172.586466141732 235.772936752137  172.586466141732 235.772936752137  C 172.586466141732 235.772936752137  170.188067716536 235.95695042735  170.188067716536 235.95695042735  C 170.188067716536 235.95695042735  168.678018897638 236.470700854701  168.678018897638 236.470700854701  C 168.678018897638 236.470700854701  165.00857480315 239.699364102564  165.00857480315 239.699364102564  C 165.00857480315 239.699364102564  157.998058267717 244.806235897436  157.998058267717 244.806235897436  C 157.998058267717 244.806235897436  141.021801574803 255.452553846154  141.021801574803 255.452553846154  C 141.021801574803 255.452553846154  140.721440944882 252.908088888889  140.721440944882 252.908088888889  C 140.721440944882 252.908088888889  139.231763779528 252.387774358974  139.231763779528 252.387774358974  C 139.231763779528 252.387774358974  136.87422992126 252.184834188034  136.87422992126 252.184834188034  C 136.87422992126 252.184834188034  135.746755905512 245.332567521367  135.746755905512 245.332567521367  C 135.746755905512 245.332567521367  136.067851968504 244.577914529914  136.067851968504 244.577914529914  C 136.067851968504 244.577914529914  134.824453543307 242.465258119658  134.824453543307 242.465258119658  C 134.824453543307 242.465258119658  133.58105511811 242.293825641026  133.58105511811 242.293825641026  C 133.58105511811 242.293825641026  129.945806299213 242.490748717949  129.945806299213 242.490748717949  C 129.945806299213 242.490748717949  127.533826771654 243.334345299145  127.533826771654 243.334345299145  C 127.533826771654 243.334345299145  125.627379527559 241.995924786325  125.627379527559 241.995924786325  C 125.627379527559 241.995924786325  124.848527559055 239.680328205128  124.848527559055 239.680328205128  C 124.848527559055 239.680328205128  126.32425984252 237.657271794872  126.32425984252 237.657271794872  C 126.32425984252 237.657271794872  125.504300787402 235.17078974359  125.504300787402 235.17078974359  C 125.504300787402 235.17078974359  125.702318110236 233.737408547009  125.702318110236 233.737408547009  C 125.702318110236 233.737408547009  124.841373228346 232.265408547009  124.841373228346 232.265408547009  C 124.841373228346 232.265408547009  122.402231496063 231.111439316239  122.402231496063 231.111439316239  C 122.402231496063 231.111439316239  122.238045669291 229.899924786325  122.238045669291 229.899924786325  C 122.238045669291 229.899924786325  120.803420472441 227.166632478632  120.803420472441 227.166632478632  C 120.803420472441 227.166632478632  120.112966929134 224.439794871795  120.112966929134 224.439794871795  C 120.112966929134 224.439794871795  119.006107086614 224.002516239316  119.006107086614 224.002516239316  C 119.006107086614 224.002516239316  115.118395275591 224.357415384615  115.118395275591 224.357415384615  C 115.118395275591 224.357415384615  115.0842 226.678372649573  115.0842 226.678372649573  C 115.0842 226.678372649573  113.09565984252 227.287083760684  113.09565984252 227.287083760684  C 113.09565984252 227.287083760684  110.143831496063 226.494468376068  110.143831496063 226.494468376068  C 110.143831496063 226.494468376068  107.041762204724 226.678372649573  107.041762204724 226.678372649573  C 107.041762204724 226.678372649573  102.627661417323 227.414099145299  102.627661417323 227.414099145299  C 102.627661417323 227.414099145299  95.3506157480315 228.276731623932  95.3506157480315 228.276731623932  C 95.3506157480315 228.276731623932  94.8721244094488 227.667911111111  94.8721244094488 227.667911111111  C 94.8721244094488 227.667911111111  93.6765023622047 227.845360683761  93.6765023622047 227.845360683761  C 93.6765023622047 227.845360683761  92.788031496063 229.481682051282  92.788031496063 229.481682051282  C 92.788031496063 229.481682051282  89.8294125984252 230.566181196581  89.8294125984252 230.566181196581  C 89.8294125984252 230.566181196581  87.2739826771653 230.217408547009  87.2739826771653 230.217408547009  C 87.2739826771653 230.217408547009  86.9527653543307 226.551357264957  86.9527653543307 226.551357264957  C 86.9527653543307 226.551357264957  79.7989196850394 225.632382905983  79.7989196850394 225.632382905983  C 79.7989196850394 225.632382905983  79.5458503937008 222.455247863248  79.5458503937008 222.455247863248  C 79.5458503937008 222.455247863248  78.2271496062992 221.922461538462  78.2271496062992 221.922461538462  C 78.2271496062992 221.922461538462  73.6010866141732 221.643596581197  73.6010866141732 221.643596581197  C 73.6010866141732 221.643596581197  69.7201653543307 221.174263247863  69.7201653543307 221.174263247863  C 69.7201653543307 221.174263247863  68.8388488188976 221.834064957265  68.8388488188976 221.834064957265  C 68.8388488188976 221.834064957265  63.9805732283464 221.370639316239  63.9805732283464 221.370639316239  C 63.9805732283464 221.370639316239  63.9052708661417 222.239835897436  63.9052708661417 222.239835897436  C 63.9052708661417 222.239835897436  64.7662157480315 223.146447863248  64.7662157480315 223.146447863248  C 64.7662157480315 223.146447863248  64.6228866141732 225.099596581197  64.6228866141732 225.099596581197  C 64.6228866141732 225.099596581197  63.918851968504 225.777777777778  63.918851968504 225.777777777778  C 63.918851968504 225.777777777778  55.0564551181103 226.069661538462  55.0564551181103 226.069661538462  C 55.0564551181103 226.069661538462  54.2640220472441 225.137558974359  54.2640220472441 225.137558974359  C 54.2640220472441 225.137558974359  51.4830488188976 225.194557264957  51.4830488188976 225.194557264957  C 51.4830488188976 225.194557264957  49.4603133858268 224.687261538462  49.4603133858268 224.687261538462  C 49.4603133858268 224.687261538462  49.5969732283465 221.877935042735  49.5969732283465 221.877935042735  C 49.5969732283465 221.877935042735  49.255505511811 220.515117948718  49.255505511811 220.515117948718  C 49.255505511811 220.515117948718  47.2395606299212 219.107227350427  47.2395606299212 219.107227350427  C 47.2395606299212 219.107227350427  45.8661716535433 216.342974358974  45.8661716535433 216.342974358974  C 45.8661716535433 216.342974358974  44.9163433070866 215.296984615385  44.9163433070866 215.296984615385  C 44.9163433070866 215.296984615385  43.501968503937 214.694728205128  43.501968503937 214.694728205128  C 43.501968503937 214.694728205128  37.4278204724409 213.876512820513  37.4278204724409 213.876512820513  C 37.4278204724409 213.876512820513  29.2144062992126 203.246058119658  29.2144062992126 203.246058119658  C 29.2144062992126 203.246058119658  27.6633716535433 198.816164102564  27.6633716535433 198.816164102564  C 27.6633716535433 198.816164102564  25.9549417322835 195.678632478632  25.9549417322835 195.678632478632  C 25.9549417322835 195.678632478632  24.4725401574803 194.246892307692  24.4725401574803 194.246892307692  C 24.4725401574803 194.246892307692  21.8277417322835 193.6512  21.8277417322835 193.6512  C 21.8277417322835 193.6512  19.9285700787401 189.735165811966  19.9285700787401 189.735165811966  C 19.9285700787401 189.735165811966  17.9743464566929 187.650078632479  17.9743464566929 187.650078632479  C 17.9743464566929 187.650078632479  18.1926141732283 186.085415384615  18.1926141732283 186.085415384615  C 18.1926141732283 186.085415384615  22.2449968503937 181.017052991453  22.2449968503937 181.017052991453  C 22.2449968503937 181.017052991453  22.3816566929134 180.05398974359  22.3816566929134 180.05398974359  C 22.3816566929134 180.05398974359  20.3521307086614 177.538844444444  20.3521307086614 177.538844444444  C 20.3521307086614 177.538844444444  18.8898582677165 174.03612991453  18.8898582677165 174.03612991453  C 18.8898582677165 174.03612991453  16.7236724409449 172.883254700855  16.7236724409449 172.883254700855  C 16.7236724409449 172.883254700855  13.4917338582677 171.894700854701  13.4917338582677 171.894700854701  C 13.4917338582677 171.894700854701  11.6539196850394 170.482543589744  11.6539196850394 170.482543589744  C 11.6539196850394 170.482543589744  10.854211023622 168.297682051282  10.854211023622 168.297682051282  C 10.854211023622 168.297682051282  10.478548031496 168.379623931624  10.478548031496 168.379623931624  C 10.478548031496 168.379623931624  7.36932440944879 171.660909401709  7.36932440944879 171.660909401709  C 7.36932440944879 171.660909401709  3.94615905511811 168.386078632479  3.94615905511811 168.386078632479  C 3.94615905511811 168.386078632479  1.15839527559058 165.295261538462  1.15839527559058 165.295261538462  C 1.15839527559058 165.295261538462  5.11474015748034 162.489764102564  5.11474015748034 162.489764102564  C 5.11474015748034 162.489764102564  8.51753385826773 158.298147008547  8.51753385826773 158.298147008547  C 8.51753385826773 158.298147008547  6.91156850393699 156.733921367521  6.91156850393699 156.733921367521  C 6.91156850393699 156.733921367521  7.51992913385828 154.95494017094  7.51992913385828 154.95494017094  C 7.51992913385828 154.95494017094  7.39685039370081 152.270441025641  7.39685039370081 152.270441025641  C 7.39685039370081 152.270441025641  8.22347874015748 152.036102564103  8.22347874015748 152.036102564103  C 8.22347874015748 152.036102564103  8.57889133858265 150.73837948718  8.57889133858265 150.73837948718  C 8.57889133858265 150.73837948718  8.01879212598428 148.756458119658  8.01879212598428 148.756458119658  C 8.01879212598428 148.756458119658  4.73180157480314 147.901921367521  4.73180157480314 147.901921367521  C 4.73180157480314 147.901921367521  4.71822047244097 143.527384615385  4.71822047244097 143.527384615385  C 4.71822047244097 143.527384615385  3.7138251968504 141.894345299145  3.7138251968504 141.894345299145  C 3.7138251968504 141.894345299145  3.60420629921262 138.755282051282  3.60420629921262 138.755282051282  C 3.60420629921262 138.755282051282  6.41270551181105 137.925688888889  6.41270551181105 137.925688888889  C 6.41270551181105 137.925688888889  11.2028330708661 137.431958974359  11.2028330708661 137.431958974359  C 11.2028330708661 137.431958974359  18.2544566929134 136.913285470085  18.2544566929134 136.913285470085  C 18.2544566929134 136.913285470085  24.2262614173228 135.299282051282  24.2262614173228 135.299282051282  C 24.2262614173228 135.299282051282  29.8291937007874 135.514694017094  29.8291937007874 135.514694017094  C 29.8291937007874 135.514694017094  32.5352283464567 134.774044444444  32.5352283464567 134.774044444444  C 32.5352283464567 134.774044444444  35.8970362204725 134.159972649573  35.8970362204725 134.159972649573  C 35.8970362204725 134.159972649573  48.9821858267717 133.116061538462  48.9821858267717 133.116061538462  C 48.9821858267717 133.116061538462  50.6834614173228 132.653839316239  50.6834614173228 132.653839316239  C 50.6834614173228 132.653839316239  64.7454803149606 125.927712820513  64.7454803149606 125.927712820513  C 64.7454803149606 125.927712820513  80.7212220472441 120.929258119658  80.7212220472441 120.929258119658  C 80.7212220472441 120.929258119658  83.7276173228346 120.575015384615  83.7276173228346 120.575015384615  C 83.7276173228346 120.575015384615  88.189494488189 121.144123076923  88.189494488189 121.144123076923  C 88.189494488189 121.144123076923  91.189220472441 121.005182905983  91.189220472441 121.005182905983  C 91.189220472441 121.005182905983  111.517099212598 116.614454700855  111.517099212598 116.614454700855  C 111.517099212598 116.614454700855  113.416755905512 116.500458119658  113.416755905512 116.500458119658  C 113.416755905512 116.500458119658  119.819275590551 118.006044444444  119.819275590551 118.006044444444  C 119.819275590551 118.006044444444  122.053609448819 118.050570940171  122.053609448819 118.050570940171  C 122.053609448819 118.050570940171  125.360850393701 117.361011965812  125.360850393701 117.361011965812  C 125.360850393701 117.361011965812  127.041754330709 116.75984957265  127.041754330709 116.75984957265  C 127.041754330709 116.75984957265  130.458250393701 116.544437606838  130.458250393701 116.544437606838  C 130.458250393701 116.544437606838  132.248288188976 116.184177777778  132.248288188976 116.184177777778  C 132.248288188976 116.184177777778  135.624040944882 113.957087179487  135.624040944882 113.957087179487  C 135.624040944882 113.957087179487  144.643348031496 112.577969230769  144.643348031496 112.577969230769  C 144.643348031496 112.577969230769  150.786129133858 113.653825641026  150.786129133858 113.653825641026  C 150.786129133858 113.653825641026  157.376601574803 113.286454700855  157.376601574803 113.286454700855  C 157.376601574803 113.286454700855  157.704488188976 106.99891965812  157.704488188976 106.99891965812  C 157.704488188976 106.99891965812  159.815622047244 106.082133333333  159.815622047244 106.082133333333  C 159.815622047244 106.082133333333  163.170760629921 105.013278632479  163.170760629921 105.013278632479  C 163.170760629921 105.013278632479  165.760385826772 103.78601025641  165.760385826772 103.78601025641  C 165.760385826772 103.78601025641  170.516318110236 101.009285470085  170.516318110236 101.009285470085  C 170.516318110236 101.009285470085  171.582070866142 97.5945299145299  171.582070866142 97.5945299145299  C 171.582070866142 97.5945299145299  172.210803149606 96.8355008547008  172.210803149606 96.8355008547008  C 172.210803149606 96.8355008547008  176.228384251968 95.811282051282  176.228384251968 95.811282051282  C 176.228384251968 95.811282051282  179.316872440945 94.6795213675214  179.316872440945 94.6795213675214  C 179.316872440945 94.6795213675214  181.114185826772 93.6741196581197  181.114185826772 93.6741196581197  C 181.114185826772 93.6741196581197  183.854051968504 91.4985572649573  183.854051968504 91.4985572649573  C 183.854051968504 91.4985572649573  184.858447244095 88.6914188034188  184.858447244095 88.6914188034188  C 184.858447244095 88.6914188034188  192.285733858268 83.7283008547008  192.285733858268 83.7283008547008  C 192.285733858268 83.7283008547008  192.880634645669 81.8000957264957  192.880634645669 81.8000957264957  C 192.880634645669 81.8000957264957  194.397352755906 81.2755145299146  194.397352755906 81.2755145299146  C 194.397352755906 81.2755145299146  195.859503937008 82.1288478632479  195.859503937008 82.1288478632479  C 195.859503937008 82.1288478632479  197.697803149606 81.5158700854701  197.697803149606 81.5158700854701  C 197.697803149606 81.5158700854701  199.399078740157 80.5234871794872  199.399078740157 80.5234871794872  C 199.399078740157 80.5234871794872  199.050456692913 79.1134085470085  199.050456692913 79.1134085470085  C 199.050456692913 79.1134085470085  199.70671496063 77.4451418803419  199.70671496063 77.4451418803419  C 199.70671496063 77.4451418803419  203.034206299213 74.5180991452991  203.034206299213 74.5180991452991  C 203.034206299213 74.5180991452991  207.482502362205 71.8005606837607  207.482502362205 71.8005606837607  C 207.482502362205 71.8005606837607  210.837640944882 70.2775794871795  210.837640944882 70.2775794871795  C 210.837640944882 70.2775794871795  212.491018897638 67.8757743589744  212.491018897638 67.8757743589744  C 212.491018897638 67.8757743589744  218.052844094488 65.1078017094017  218.052844094488 65.1078017094017  C 218.052844094488 65.1078017094017  219.740538582677 63.4649162393162  219.740538582677 63.4649162393162  C 219.740538582677 63.4649162393162  222.023133858268 61.9354803418804  222.023133858268 61.9354803418804  C 222.023133858268 61.9354803418804  226.580563779528 60.2677606837607  226.580563779528 60.2677606837607  C 226.580563779528 60.2677606837607  228.965017322835 59.1110564102564  228.965017322835 59.1110564102564  C 228.965017322835 59.1110564102564  230.236062992126 59.2060170940171  230.236062992126 59.2060170940171  C 230.236062992126 59.2060170940171  232.15645511811 58.5175521367521  232.15645511811 58.5175521367521  C 232.15645511811 58.5175521367521  232.224481889764 57.4367726495727  232.224481889764 57.4367726495727  C 232.224481889764 57.4367726495727  230.851214173228 54.8716307692307  230.851214173228 54.8716307692307  C 230.851214173228 54.8716307692307  232.333615748031 53.0334632478633  232.333615748031 53.0334632478633  C 232.333615748031 53.0334632478633  234.178705511811 52.4079042735043  234.178705511811 52.4079042735043  C 234.178705511811 52.4079042735043  235.606661417323 52.9385025641025  235.606661417323 52.9385025641025  C 235.606661417323 52.9385025641025  237.937033070866 52.5278085470085  237.937033070866 52.5278085470085  C 237.937033070866 52.5278085470085  239.877311811024 51.1188239316239  239.877311811024 51.1188239316239  C 239.877311811024 51.1188239316239  244.182157480315 47.5435760683761  244.182157480315 47.5435760683761  C 244.182157480315 47.5435760683761  243.082209448819 45.7433709401709  243.082209448819 45.7433709401709  C 243.082209448819 45.7433709401709  243.546634645669 44.6442119658119  243.546634645669 44.6442119658119  C 243.546634645669 44.6442119658119  246.095395275591 42.3134085470085  246.095395275591 42.3134085470085  C 246.095395275591 42.3134085470085  247.072749606299 41.947241025641  247.072749606299 41.947241025641  C 247.072749606299 41.947241025641  255.354190551181 42.5852717948718  255.354190551181 42.5852717948718  C 255.354190551181 42.5852717948718  259.665826771654 43.3811692307692  259.665826771654 43.3811692307692  C 259.665826771654 43.3811692307692  261.271428346457 41.8398085470085  261.271428346457 41.8398085470085  C 261.271428346457 41.8398085470085  264.230047244094 39.5660034188034  264.230047244094 39.5660034188034  C 264.230047244094 39.5660034188034  266.013294488189 37.7468717948718  266.013294488189 37.7468717948718  C 266.013294488189 37.7468717948718  270.215796850394 34.2041162393162  270.215796850394 34.2041162393162  C 270.215796850394 34.2041162393162  277.158286614173 29.1145299145299  277.158286614173 29.1145299145299  C 277.158286614173 29.1145299145299  287.147672440945 20.1804581196581  287.147672440945 20.1804581196581  C 287.147672440945 20.1804581196581  287.892814173228 18.8990358974359  287.892814173228 18.8990358974359  C 287.892814173228 18.8990358974359  285.624163779528 16.6327794871795  285.624163779528 16.6327794871795  C 285.624163779528 16.6327794871795  285.94525984252 15.0171350427351  285.94525984252 15.0171350427351  C 285.94525984252 15.0171350427351  294.001278740157 8.43990427350429  294.001278740157 8.43990427350429  C 294.001278740157 8.43990427350429  299.946042519685 3.11324444444447  299.946042519685 3.11324444444447  C 299.946042519685 3.11324444444447  302.966018897638 0.791083760683748  302.966018897638 0.791083760683748  Z " fill-rule="evenodd" />
    </mask>
  </defs>
  <g transform="matrix(1 0 0 1 -1008 -486 )">
    <path d="M 302.966018897638 0.791083760683748  C 302.966018897638 0.791083760683748  303.574379527559 1.14434188034187  303.574379527559 1.14434188034187  C 303.574379527559 1.14434188034187  303.42377480315 1.65535726495727  303.42377480315 1.65535726495727  C 303.42377480315 1.65535726495727  304.250888188976 5.51122051282051  304.250888188976 5.51122051282051  C 304.250888188976 5.51122051282051  304.448905511811 9.82230427350429  304.448905511811 9.82230427350429  C 304.448905511811 9.82230427350429  303.711039370079 12.1513572649573  303.711039370079 12.1513572649573  C 303.711039370079 12.1513572649573  300.848094488189 18.7351521367521  300.848094488189 18.7351521367521  C 300.848094488189 18.7351521367521  299.775066141732 21.9040820512821  299.775066141732 21.9040820512821  C 299.775066141732 21.9040820512821  299.939251968504 23.7541743589744  299.939251968504 23.7541743589744  C 299.939251968504 23.7541743589744  300.977963779528 26.1088273504273  300.977963779528 26.1088273504273  C 300.977963779528 26.1088273504273  304.489891338583 30.6678153846154  304.489891338583 30.6678153846154  C 304.489891338583 30.6678153846154  306.683239370079 34.0527042735043  306.683239370079 34.0527042735043  C 306.683239370079 34.0527042735043  307.134204724409 35.9911931623931  307.134204724409 35.9911931623931  C 307.134204724409 35.9911931623931  306.881256692913 38.1766017094017  306.881256692913 38.1766017094017  C 306.881256692913 38.1766017094017  306.040925984252 39.2187623931624  306.040925984252 39.2187623931624  C 306.040925984252 39.2187623931624  302.836149606299 40.5577299145299  302.836149606299 40.5577299145299  C 302.836149606299 40.5577299145299  298.804987401575 41.6883965811966  298.804987401575 41.6883965811966  C 298.804987401575 41.6883965811966  297.062240944882 42.6796854700855  297.062240944882 42.6796854700855  C 297.062240944882 42.6796854700855  294.527546456693 46.7286427350427  294.527546456693 46.7286427350427  C 294.527546456693 46.7286427350427  293.946711811024 49.2303316239316  293.946711811024 49.2303316239316  C 293.946711811024 49.2303316239316  292.217910236221 51.0749538461538  292.217910236221 51.0749538461538  C 292.217910236221 51.0749538461538  290.106291338583 51.9467760683761  290.106291338583 51.9467760683761  C 290.106291338583 51.9467760683761  286.36202992126 53.1029333333333  286.36202992126 53.1029333333333  C 286.36202992126 53.1029333333333  284.476318110236 55.7564717948718  284.476318110236 55.7564717948718  C 284.476318110236 55.7564717948718  284.025352755906 57.0765128205128  284.025352755906 57.0765128205128  C 284.025352755906 57.0765128205128  284.23682992126 60.1603282051282  284.23682992126 60.1603282051282  C 284.23682992126 60.1603282051282  285.118631496063 63.4584615384615  285.118631496063 63.4584615384615  C 285.118631496063 63.4584615384615  284.838036220472 65.4430085470086  284.838036220472 65.4430085470086  C 284.838036220472 65.4430085470086  284.202998425197 66.3718290598291  284.202998425197 66.3718290598291  C 284.202998425197 66.3718290598291  280.40368503937 68.8746119658119  280.40368503937 68.8746119658119  C 280.40368503937 68.8746119658119  279.283001574803 70.1952  279.283001574803 70.1952  C 279.283001574803 70.1952  279.180537007874 72.8183247863248  279.180537007874 72.8183247863248  C 279.180537007874 72.8183247863248  278.114905511811 75.7507282051282  278.114905511811 75.7507282051282  C 278.114905511811 75.7507282051282  276.051062992126 77.4071794871795  276.051062992126 77.4071794871795  C 276.051062992126 77.4071794871795  272.436670866142 78.8605811965812  272.436670866142 78.8605811965812  C 272.436670866142 78.8605811965812  270.338996850394 80.6748991452991  270.338996850394 80.6748991452991  C 270.338996850394 80.6748991452991  268.288735433071 84.1074871794872  268.288735433071 84.1074871794872  C 268.288735433071 84.1074871794872  260.786146456693 90.7460923076923  260.786146456693 90.7460923076923  C 260.786146456693 90.7460923076923  253.666496062992 96.0135658119658  253.666496062992 96.0135658119658  C 253.666496062992 96.0135658119658  251.821406299213 97.7334700854701  251.821406299213 97.7334700854701  C 251.821406299213 97.7334700854701  243.054683464567 104.431152136752  243.054683464567 104.431152136752  C 243.054683464567 104.431152136752  239.631518110236 106.423357264957  239.631518110236 106.423357264957  C 239.631518110236 106.423357264957  234.88274015748 108.162735042735  234.88274015748 108.162735042735  C 234.88274015748 108.162735042735  231.172310236221 109.706283760684  231.172310236221 109.706283760684  C 231.172310236221 109.706283760684  228.20011023622 111.490078632479  228.20011023622 111.490078632479  C 228.20011023622 111.490078632479  220.287177952756 118.524717948718  220.287177952756 118.524717948718  C 220.287177952756 118.524717948718  217.882352755905 119.853401709402  217.882352755905 119.853401709402  C 217.882352755905 119.853401709402  215.449637795276 120.366058119658  215.449637795276 120.366058119658  C 215.449637795276 120.366058119658  213.590966929134 121.485894017094  213.590966929134 121.485894017094  C 213.590966929134 121.485894017094  206.484897637795 129.432724786325  206.484897637795 129.432724786325  C 206.484897637795 129.432724786325  202.781137007874 131.641435897436  202.781137007874 131.641435897436  C 202.781137007874 131.641435897436  199.064401574803 132.742235897436  199.064401574803 132.742235897436  C 199.064401574803 132.742235897436  195.558658267716 132.97011965812  195.558658267716 132.97011965812  C 195.558658267716 132.97011965812  193.33111496063 131.552492307692  193.33111496063 131.552492307692  C 193.33111496063 131.552492307692  192.76422519685 132.628348717949  192.76422519685 132.628348717949  C 192.76422519685 132.628348717949  189.586853543307 136.274160683761  189.586853543307 136.274160683761  C 189.586853543307 136.274160683761  187.174874015748 138.394475213675  187.174874015748 138.394475213675  C 187.174874015748 138.394475213675  184.339333858268 142.084266666667  184.339333858268 142.084266666667  C 184.339333858268 142.084266666667  180.020907086614 144.857162393162  180.020907086614 144.857162393162  C 180.020907086614 144.857162393162  177.581401574803 146.901442735043  177.581401574803 146.901442735043  C 177.581401574803 146.901442735043  176.043948031496 147.572622222222  176.043948031496 147.572622222222  C 176.043948031496 147.572622222222  173.789363779528 149.332676923077  173.789363779528 149.332676923077  C 173.789363779528 149.332676923077  171.411094488189 150.750851282051  171.411094488189 150.750851282051  C 171.411094488189 150.750851282051  174.288105511811 157.31014017094  174.288105511811 157.31014017094  C 174.288105511811 157.31014017094  175.880247244094 157.189688888889  175.880247244094 157.189688888889  C 175.880247244094 157.189688888889  182.870028346457 153.872082051282  182.870028346457 153.872082051282  C 182.870028346457 153.872082051282  183.813066141732 158.791876923077  183.813066141732 158.791876923077  C 183.813066141732 158.791876923077  183.792694488189 163.617148717949  183.792694488189 163.617148717949  C 183.792694488189 163.617148717949  184.708327559055 165.479165811966  184.708327559055 165.479165811966  C 184.708327559055 165.479165811966  182.064014173228 165.966878632479  182.064014173228 165.966878632479  C 182.064014173228 165.966878632479  182.754103937008 169.665422222222  182.754103937008 169.665422222222  C 182.754103937008 169.665422222222  181.913409448819 169.539063247863  181.913409448819 169.539063247863  C 181.913409448819 169.539063247863  179.296622047244 170.216697435897  179.296622047244 170.216697435897  C 179.296622047244 170.216697435897  185.582853543307 183.576177777778  185.582853543307 183.576177777778  C 185.582853543307 183.576177777778  186.573667716535 185.261839316239  186.573667716535 185.261839316239  C 186.573667716535 185.261839316239  192.641146456693 181.669196581197  192.641146456693 181.669196581197  C 192.641146456693 181.669196581197  193.153954330709 181.999042735043  193.153954330709 181.999042735043  C 193.153954330709 181.999042735043  194.568329133858 184.843596581197  194.568329133858 184.843596581197  C 194.568329133858 184.843596581197  196.1806 189.170871794872  196.1806 189.170871794872  C 196.1806 189.170871794872  199.911401574803 187.612116239316  199.911401574803 187.612116239316  C 199.911401574803 187.612116239316  201.093563779528 186.757141880342  201.093563779528 186.757141880342  C 201.093563779528 186.757141880342  203.205182677165 189.53868034188  203.205182677165 189.53868034188  C 203.205182677165 189.53868034188  206.320711811024 191.991029059829  206.320711811024 191.991029059829  C 206.320711811024 191.991029059829  209.518818897638 194.829565811966  209.518818897638 194.829565811966  C 209.518818897638 194.829565811966  208.124815748031 196.990468376068  208.124815748031 196.990468376068  C 208.124815748031 196.990468376068  208.309251968504 201.648793162393  208.309251968504 201.648793162393  C 208.309251968504 201.648793162393  205.446185826772 205.616902564103  205.446185826772 205.616902564103  C 205.446185826772 205.616902564103  204.380433070866 206.542003418803  204.380433070866 206.542003418803  C 204.380433070866 206.542003418803  201.203061417323 206.244102564103  201.203061417323 206.244102564103  C 201.203061417323 206.244102564103  199.255628346457 206.38348034188  199.255628346457 206.38348034188  C 199.255628346457 206.38348034188  198.353576377953 206.947774358974  198.353576377953 206.947774358974  C 198.353576377953 206.947774358974  193.953056692913 211.588157264957  193.953056692913 211.588157264957  C 193.953056692913 211.588157264957  201.107508661417 226.602447863248  201.107508661417 226.602447863248  C 201.107508661417 226.602447863248  199.891151181102 227.166632478632  199.891151181102 227.166632478632  C 199.891151181102 227.166632478632  202.097959055118 232.982099145299  202.097959055118 232.982099145299  C 202.097959055118 232.982099145299  199.870415748032 236.629661538462  199.870415748032 236.629661538462  C 199.870415748032 236.629661538462  200.437790551181 237.231917948718  200.437790551181 237.231917948718  C 200.437790551181 237.231917948718  198.216916535433 238.836731623932  198.216916535433 238.836731623932  C 198.216916535433 238.836731623932  196.488236220472 235.918878632479  196.488236220472 235.918878632479  C 196.488236220472 235.918878632479  194.568329133858 234.276102564103  194.568329133858 234.276102564103  C 194.568329133858 234.276102564103  190.181269291339 234.885360683761  190.181269291339 234.885360683761  C 190.181269291339 234.885360683761  188.220376377953 235.386092307692  188.220376377953 235.386092307692  C 188.220376377953 235.386092307692  187.195609448819 234.403008547009  187.195609448819 234.403008547009  C 187.195609448819 234.403008547009  187.024633070866 229.392738461538  187.024633070866 229.392738461538  C 187.024633070866 229.392738461538  185.93814488189 227.724909401709  185.93814488189 227.724909401709  C 185.93814488189 227.724909401709  185.172874015748 227.344629059829  185.172874015748 227.344629059829  C 185.172874015748 227.344629059829  180.724577952756 226.298092307692  180.724577952756 226.298092307692  C 180.724577952756 226.298092307692  178.387779527559 227.008218803419  178.387779527559 227.008218803419  C 178.387779527559 227.008218803419  177.697811023622 228.397182905983  177.697811023622 228.397182905983  C 177.697811023622 228.397182905983  178.490244094488 230.413784615385  178.490244094488 230.413784615385  C 178.490244094488 230.413784615385  178.203343307087 230.857517948718  178.203343307087 230.857517948718  C 178.203343307087 230.857517948718  175.422491338583 232.094523076923  175.422491338583 232.094523076923  C 175.422491338583 232.094523076923  173.829864566929 235.069264957265  173.829864566929 235.069264957265  C 173.829864566929 235.069264957265  172.586466141732 235.772936752137  172.586466141732 235.772936752137  C 172.586466141732 235.772936752137  170.188067716536 235.95695042735  170.188067716536 235.95695042735  C 170.188067716536 235.95695042735  168.678018897638 236.470700854701  168.678018897638 236.470700854701  C 168.678018897638 236.470700854701  165.00857480315 239.699364102564  165.00857480315 239.699364102564  C 165.00857480315 239.699364102564  157.998058267717 244.806235897436  157.998058267717 244.806235897436  C 157.998058267717 244.806235897436  141.021801574803 255.452553846154  141.021801574803 255.452553846154  C 141.021801574803 255.452553846154  140.721440944882 252.908088888889  140.721440944882 252.908088888889  C 140.721440944882 252.908088888889  139.231763779528 252.387774358974  139.231763779528 252.387774358974  C 139.231763779528 252.387774358974  136.87422992126 252.184834188034  136.87422992126 252.184834188034  C 136.87422992126 252.184834188034  135.746755905512 245.332567521367  135.746755905512 245.332567521367  C 135.746755905512 245.332567521367  136.067851968504 244.577914529914  136.067851968504 244.577914529914  C 136.067851968504 244.577914529914  134.824453543307 242.465258119658  134.824453543307 242.465258119658  C 134.824453543307 242.465258119658  133.58105511811 242.293825641026  133.58105511811 242.293825641026  C 133.58105511811 242.293825641026  129.945806299213 242.490748717949  129.945806299213 242.490748717949  C 129.945806299213 242.490748717949  127.533826771654 243.334345299145  127.533826771654 243.334345299145  C 127.533826771654 243.334345299145  125.627379527559 241.995924786325  125.627379527559 241.995924786325  C 125.627379527559 241.995924786325  124.848527559055 239.680328205128  124.848527559055 239.680328205128  C 124.848527559055 239.680328205128  126.32425984252 237.657271794872  126.32425984252 237.657271794872  C 126.32425984252 237.657271794872  125.504300787402 235.17078974359  125.504300787402 235.17078974359  C 125.504300787402 235.17078974359  125.702318110236 233.737408547009  125.702318110236 233.737408547009  C 125.702318110236 233.737408547009  124.841373228346 232.265408547009  124.841373228346 232.265408547009  C 124.841373228346 232.265408547009  122.402231496063 231.111439316239  122.402231496063 231.111439316239  C 122.402231496063 231.111439316239  122.238045669291 229.899924786325  122.238045669291 229.899924786325  C 122.238045669291 229.899924786325  120.803420472441 227.166632478632  120.803420472441 227.166632478632  C 120.803420472441 227.166632478632  120.112966929134 224.439794871795  120.112966929134 224.439794871795  C 120.112966929134 224.439794871795  119.006107086614 224.002516239316  119.006107086614 224.002516239316  C 119.006107086614 224.002516239316  115.118395275591 224.357415384615  115.118395275591 224.357415384615  C 115.118395275591 224.357415384615  115.0842 226.678372649573  115.0842 226.678372649573  C 115.0842 226.678372649573  113.09565984252 227.287083760684  113.09565984252 227.287083760684  C 113.09565984252 227.287083760684  110.143831496063 226.494468376068  110.143831496063 226.494468376068  C 110.143831496063 226.494468376068  107.041762204724 226.678372649573  107.041762204724 226.678372649573  C 107.041762204724 226.678372649573  102.627661417323 227.414099145299  102.627661417323 227.414099145299  C 102.627661417323 227.414099145299  95.3506157480315 228.276731623932  95.3506157480315 228.276731623932  C 95.3506157480315 228.276731623932  94.8721244094488 227.667911111111  94.8721244094488 227.667911111111  C 94.8721244094488 227.667911111111  93.6765023622047 227.845360683761  93.6765023622047 227.845360683761  C 93.6765023622047 227.845360683761  92.788031496063 229.481682051282  92.788031496063 229.481682051282  C 92.788031496063 229.481682051282  89.8294125984252 230.566181196581  89.8294125984252 230.566181196581  C 89.8294125984252 230.566181196581  87.2739826771653 230.217408547009  87.2739826771653 230.217408547009  C 87.2739826771653 230.217408547009  86.9527653543307 226.551357264957  86.9527653543307 226.551357264957  C 86.9527653543307 226.551357264957  79.7989196850394 225.632382905983  79.7989196850394 225.632382905983  C 79.7989196850394 225.632382905983  79.5458503937008 222.455247863248  79.5458503937008 222.455247863248  C 79.5458503937008 222.455247863248  78.2271496062992 221.922461538462  78.2271496062992 221.922461538462  C 78.2271496062992 221.922461538462  73.6010866141732 221.643596581197  73.6010866141732 221.643596581197  C 73.6010866141732 221.643596581197  69.7201653543307 221.174263247863  69.7201653543307 221.174263247863  C 69.7201653543307 221.174263247863  68.8388488188976 221.834064957265  68.8388488188976 221.834064957265  C 68.8388488188976 221.834064957265  63.9805732283464 221.370639316239  63.9805732283464 221.370639316239  C 63.9805732283464 221.370639316239  63.9052708661417 222.239835897436  63.9052708661417 222.239835897436  C 63.9052708661417 222.239835897436  64.7662157480315 223.146447863248  64.7662157480315 223.146447863248  C 64.7662157480315 223.146447863248  64.6228866141732 225.099596581197  64.6228866141732 225.099596581197  C 64.6228866141732 225.099596581197  63.918851968504 225.777777777778  63.918851968504 225.777777777778  C 63.918851968504 225.777777777778  55.0564551181103 226.069661538462  55.0564551181103 226.069661538462  C 55.0564551181103 226.069661538462  54.2640220472441 225.137558974359  54.2640220472441 225.137558974359  C 54.2640220472441 225.137558974359  51.4830488188976 225.194557264957  51.4830488188976 225.194557264957  C 51.4830488188976 225.194557264957  49.4603133858268 224.687261538462  49.4603133858268 224.687261538462  C 49.4603133858268 224.687261538462  49.5969732283465 221.877935042735  49.5969732283465 221.877935042735  C 49.5969732283465 221.877935042735  49.255505511811 220.515117948718  49.255505511811 220.515117948718  C 49.255505511811 220.515117948718  47.2395606299212 219.107227350427  47.2395606299212 219.107227350427  C 47.2395606299212 219.107227350427  45.8661716535433 216.342974358974  45.8661716535433 216.342974358974  C 45.8661716535433 216.342974358974  44.9163433070866 215.296984615385  44.9163433070866 215.296984615385  C 44.9163433070866 215.296984615385  43.501968503937 214.694728205128  43.501968503937 214.694728205128  C 43.501968503937 214.694728205128  37.4278204724409 213.876512820513  37.4278204724409 213.876512820513  C 37.4278204724409 213.876512820513  29.2144062992126 203.246058119658  29.2144062992126 203.246058119658  C 29.2144062992126 203.246058119658  27.6633716535433 198.816164102564  27.6633716535433 198.816164102564  C 27.6633716535433 198.816164102564  25.9549417322835 195.678632478632  25.9549417322835 195.678632478632  C 25.9549417322835 195.678632478632  24.4725401574803 194.246892307692  24.4725401574803 194.246892307692  C 24.4725401574803 194.246892307692  21.8277417322835 193.6512  21.8277417322835 193.6512  C 21.8277417322835 193.6512  19.9285700787401 189.735165811966  19.9285700787401 189.735165811966  C 19.9285700787401 189.735165811966  17.9743464566929 187.650078632479  17.9743464566929 187.650078632479  C 17.9743464566929 187.650078632479  18.1926141732283 186.085415384615  18.1926141732283 186.085415384615  C 18.1926141732283 186.085415384615  22.2449968503937 181.017052991453  22.2449968503937 181.017052991453  C 22.2449968503937 181.017052991453  22.3816566929134 180.05398974359  22.3816566929134 180.05398974359  C 22.3816566929134 180.05398974359  20.3521307086614 177.538844444444  20.3521307086614 177.538844444444  C 20.3521307086614 177.538844444444  18.8898582677165 174.03612991453  18.8898582677165 174.03612991453  C 18.8898582677165 174.03612991453  16.7236724409449 172.883254700855  16.7236724409449 172.883254700855  C 16.7236724409449 172.883254700855  13.4917338582677 171.894700854701  13.4917338582677 171.894700854701  C 13.4917338582677 171.894700854701  11.6539196850394 170.482543589744  11.6539196850394 170.482543589744  C 11.6539196850394 170.482543589744  10.854211023622 168.297682051282  10.854211023622 168.297682051282  C 10.854211023622 168.297682051282  10.478548031496 168.379623931624  10.478548031496 168.379623931624  C 10.478548031496 168.379623931624  7.36932440944879 171.660909401709  7.36932440944879 171.660909401709  C 7.36932440944879 171.660909401709  3.94615905511811 168.386078632479  3.94615905511811 168.386078632479  C 3.94615905511811 168.386078632479  1.15839527559058 165.295261538462  1.15839527559058 165.295261538462  C 1.15839527559058 165.295261538462  5.11474015748034 162.489764102564  5.11474015748034 162.489764102564  C 5.11474015748034 162.489764102564  8.51753385826773 158.298147008547  8.51753385826773 158.298147008547  C 8.51753385826773 158.298147008547  6.91156850393699 156.733921367521  6.91156850393699 156.733921367521  C 6.91156850393699 156.733921367521  7.51992913385828 154.95494017094  7.51992913385828 154.95494017094  C 7.51992913385828 154.95494017094  7.39685039370081 152.270441025641  7.39685039370081 152.270441025641  C 7.39685039370081 152.270441025641  8.22347874015748 152.036102564103  8.22347874015748 152.036102564103  C 8.22347874015748 152.036102564103  8.57889133858265 150.73837948718  8.57889133858265 150.73837948718  C 8.57889133858265 150.73837948718  8.01879212598428 148.756458119658  8.01879212598428 148.756458119658  C 8.01879212598428 148.756458119658  4.73180157480314 147.901921367521  4.73180157480314 147.901921367521  C 4.73180157480314 147.901921367521  4.71822047244097 143.527384615385  4.71822047244097 143.527384615385  C 4.71822047244097 143.527384615385  3.7138251968504 141.894345299145  3.7138251968504 141.894345299145  C 3.7138251968504 141.894345299145  3.60420629921262 138.755282051282  3.60420629921262 138.755282051282  C 3.60420629921262 138.755282051282  6.41270551181105 137.925688888889  6.41270551181105 137.925688888889  C 6.41270551181105 137.925688888889  11.2028330708661 137.431958974359  11.2028330708661 137.431958974359  C 11.2028330708661 137.431958974359  18.2544566929134 136.913285470085  18.2544566929134 136.913285470085  C 18.2544566929134 136.913285470085  24.2262614173228 135.299282051282  24.2262614173228 135.299282051282  C 24.2262614173228 135.299282051282  29.8291937007874 135.514694017094  29.8291937007874 135.514694017094  C 29.8291937007874 135.514694017094  32.5352283464567 134.774044444444  32.5352283464567 134.774044444444  C 32.5352283464567 134.774044444444  35.8970362204725 134.159972649573  35.8970362204725 134.159972649573  C 35.8970362204725 134.159972649573  48.9821858267717 133.116061538462  48.9821858267717 133.116061538462  C 48.9821858267717 133.116061538462  50.6834614173228 132.653839316239  50.6834614173228 132.653839316239  C 50.6834614173228 132.653839316239  64.7454803149606 125.927712820513  64.7454803149606 125.927712820513  C 64.7454803149606 125.927712820513  80.7212220472441 120.929258119658  80.7212220472441 120.929258119658  C 80.7212220472441 120.929258119658  83.7276173228346 120.575015384615  83.7276173228346 120.575015384615  C 83.7276173228346 120.575015384615  88.189494488189 121.144123076923  88.189494488189 121.144123076923  C 88.189494488189 121.144123076923  91.189220472441 121.005182905983  91.189220472441 121.005182905983  C 91.189220472441 121.005182905983  111.517099212598 116.614454700855  111.517099212598 116.614454700855  C 111.517099212598 116.614454700855  113.416755905512 116.500458119658  113.416755905512 116.500458119658  C 113.416755905512 116.500458119658  119.819275590551 118.006044444444  119.819275590551 118.006044444444  C 119.819275590551 118.006044444444  122.053609448819 118.050570940171  122.053609448819 118.050570940171  C 122.053609448819 118.050570940171  125.360850393701 117.361011965812  125.360850393701 117.361011965812  C 125.360850393701 117.361011965812  127.041754330709 116.75984957265  127.041754330709 116.75984957265  C 127.041754330709 116.75984957265  130.458250393701 116.544437606838  130.458250393701 116.544437606838  C 130.458250393701 116.544437606838  132.248288188976 116.184177777778  132.248288188976 116.184177777778  C 132.248288188976 116.184177777778  135.624040944882 113.957087179487  135.624040944882 113.957087179487  C 135.624040944882 113.957087179487  144.643348031496 112.577969230769  144.643348031496 112.577969230769  C 144.643348031496 112.577969230769  150.786129133858 113.653825641026  150.786129133858 113.653825641026  C 150.786129133858 113.653825641026  157.376601574803 113.286454700855  157.376601574803 113.286454700855  C 157.376601574803 113.286454700855  157.704488188976 106.99891965812  157.704488188976 106.99891965812  C 157.704488188976 106.99891965812  159.815622047244 106.082133333333  159.815622047244 106.082133333333  C 159.815622047244 106.082133333333  163.170760629921 105.013278632479  163.170760629921 105.013278632479  C 163.170760629921 105.013278632479  165.760385826772 103.78601025641  165.760385826772 103.78601025641  C 165.760385826772 103.78601025641  170.516318110236 101.009285470085  170.516318110236 101.009285470085  C 170.516318110236 101.009285470085  171.582070866142 97.5945299145299  171.582070866142 97.5945299145299  C 171.582070866142 97.5945299145299  172.210803149606 96.8355008547008  172.210803149606 96.8355008547008  C 172.210803149606 96.8355008547008  176.228384251968 95.811282051282  176.228384251968 95.811282051282  C 176.228384251968 95.811282051282  179.316872440945 94.6795213675214  179.316872440945 94.6795213675214  C 179.316872440945 94.6795213675214  181.114185826772 93.6741196581197  181.114185826772 93.6741196581197  C 181.114185826772 93.6741196581197  183.854051968504 91.4985572649573  183.854051968504 91.4985572649573  C 183.854051968504 91.4985572649573  184.858447244095 88.6914188034188  184.858447244095 88.6914188034188  C 184.858447244095 88.6914188034188  192.285733858268 83.7283008547008  192.285733858268 83.7283008547008  C 192.285733858268 83.7283008547008  192.880634645669 81.8000957264957  192.880634645669 81.8000957264957  C 192.880634645669 81.8000957264957  194.397352755906 81.2755145299146  194.397352755906 81.2755145299146  C 194.397352755906 81.2755145299146  195.859503937008 82.1288478632479  195.859503937008 82.1288478632479  C 195.859503937008 82.1288478632479  197.697803149606 81.5158700854701  197.697803149606 81.5158700854701  C 197.697803149606 81.5158700854701  199.399078740157 80.5234871794872  199.399078740157 80.5234871794872  C 199.399078740157 80.5234871794872  199.050456692913 79.1134085470085  199.050456692913 79.1134085470085  C 199.050456692913 79.1134085470085  199.70671496063 77.4451418803419  199.70671496063 77.4451418803419  C 199.70671496063 77.4451418803419  203.034206299213 74.5180991452991  203.034206299213 74.5180991452991  C 203.034206299213 74.5180991452991  207.482502362205 71.8005606837607  207.482502362205 71.8005606837607  C 207.482502362205 71.8005606837607  210.837640944882 70.2775794871795  210.837640944882 70.2775794871795  C 210.837640944882 70.2775794871795  212.491018897638 67.8757743589744  212.491018897638 67.8757743589744  C 212.491018897638 67.8757743589744  218.052844094488 65.1078017094017  218.052844094488 65.1078017094017  C 218.052844094488 65.1078017094017  219.740538582677 63.4649162393162  219.740538582677 63.4649162393162  C 219.740538582677 63.4649162393162  222.023133858268 61.9354803418804  222.023133858268 61.9354803418804  C 222.023133858268 61.9354803418804  226.580563779528 60.2677606837607  226.580563779528 60.2677606837607  C 226.580563779528 60.2677606837607  228.965017322835 59.1110564102564  228.965017322835 59.1110564102564  C 228.965017322835 59.1110564102564  230.236062992126 59.2060170940171  230.236062992126 59.2060170940171  C 230.236062992126 59.2060170940171  232.15645511811 58.5175521367521  232.15645511811 58.5175521367521  C 232.15645511811 58.5175521367521  232.224481889764 57.4367726495727  232.224481889764 57.4367726495727  C 232.224481889764 57.4367726495727  230.851214173228 54.8716307692307  230.851214173228 54.8716307692307  C 230.851214173228 54.8716307692307  232.333615748031 53.0334632478633  232.333615748031 53.0334632478633  C 232.333615748031 53.0334632478633  234.178705511811 52.4079042735043  234.178705511811 52.4079042735043  C 234.178705511811 52.4079042735043  235.606661417323 52.9385025641025  235.606661417323 52.9385025641025  C 235.606661417323 52.9385025641025  237.937033070866 52.5278085470085  237.937033070866 52.5278085470085  C 237.937033070866 52.5278085470085  239.877311811024 51.1188239316239  239.877311811024 51.1188239316239  C 239.877311811024 51.1188239316239  244.182157480315 47.5435760683761  244.182157480315 47.5435760683761  C 244.182157480315 47.5435760683761  243.082209448819 45.7433709401709  243.082209448819 45.7433709401709  C 243.082209448819 45.7433709401709  243.546634645669 44.6442119658119  243.546634645669 44.6442119658119  C 243.546634645669 44.6442119658119  246.095395275591 42.3134085470085  246.095395275591 42.3134085470085  C 246.095395275591 42.3134085470085  247.072749606299 41.947241025641  247.072749606299 41.947241025641  C 247.072749606299 41.947241025641  255.354190551181 42.5852717948718  255.354190551181 42.5852717948718  C 255.354190551181 42.5852717948718  259.665826771654 43.3811692307692  259.665826771654 43.3811692307692  C 259.665826771654 43.3811692307692  261.271428346457 41.8398085470085  261.271428346457 41.8398085470085  C 261.271428346457 41.8398085470085  264.230047244094 39.5660034188034  264.230047244094 39.5660034188034  C 264.230047244094 39.5660034188034  266.013294488189 37.7468717948718  266.013294488189 37.7468717948718  C 266.013294488189 37.7468717948718  270.215796850394 34.2041162393162  270.215796850394 34.2041162393162  C 270.215796850394 34.2041162393162  277.158286614173 29.1145299145299  277.158286614173 29.1145299145299  C 277.158286614173 29.1145299145299  287.147672440945 20.1804581196581  287.147672440945 20.1804581196581  C 287.147672440945 20.1804581196581  287.892814173228 18.8990358974359  287.892814173228 18.8990358974359  C 287.892814173228 18.8990358974359  285.624163779528 16.6327794871795  285.624163779528 16.6327794871795  C 285.624163779528 16.6327794871795  285.94525984252 15.0171350427351  285.94525984252 15.0171350427351  C 285.94525984252 15.0171350427351  294.001278740157 8.43990427350429  294.001278740157 8.43990427350429  C 294.001278740157 8.43990427350429  299.946042519685 3.11324444444447  299.946042519685 3.11324444444447  C 299.946042519685 3.11324444444447  302.966018897638 0.791083760683748  302.966018897638 0.791083760683748  Z " fill-rule="nonzero" fill="#409eff" stroke="none" fill-opacity="0.298039215686275" transform="matrix(1 0 0 1 1008 486 )" />
    <path d="M 302.966018897638 0.791083760683748  C 302.966018897638 0.791083760683748  303.574379527559 1.14434188034187  303.574379527559 1.14434188034187  C 303.574379527559 1.14434188034187  303.42377480315 1.65535726495727  303.42377480315 1.65535726495727  C 303.42377480315 1.65535726495727  304.250888188976 5.51122051282051  304.250888188976 5.51122051282051  C 304.250888188976 5.51122051282051  304.448905511811 9.82230427350429  304.448905511811 9.82230427350429  C 304.448905511811 9.82230427350429  303.711039370079 12.1513572649573  303.711039370079 12.1513572649573  C 303.711039370079 12.1513572649573  300.848094488189 18.7351521367521  300.848094488189 18.7351521367521  C 300.848094488189 18.7351521367521  299.775066141732 21.9040820512821  299.775066141732 21.9040820512821  C 299.775066141732 21.9040820512821  299.939251968504 23.7541743589744  299.939251968504 23.7541743589744  C 299.939251968504 23.7541743589744  300.977963779528 26.1088273504273  300.977963779528 26.1088273504273  C 300.977963779528 26.1088273504273  304.489891338583 30.6678153846154  304.489891338583 30.6678153846154  C 304.489891338583 30.6678153846154  306.683239370079 34.0527042735043  306.683239370079 34.0527042735043  C 306.683239370079 34.0527042735043  307.134204724409 35.9911931623931  307.134204724409 35.9911931623931  C 307.134204724409 35.9911931623931  306.881256692913 38.1766017094017  306.881256692913 38.1766017094017  C 306.881256692913 38.1766017094017  306.040925984252 39.2187623931624  306.040925984252 39.2187623931624  C 306.040925984252 39.2187623931624  302.836149606299 40.5577299145299  302.836149606299 40.5577299145299  C 302.836149606299 40.5577299145299  298.804987401575 41.6883965811966  298.804987401575 41.6883965811966  C 298.804987401575 41.6883965811966  297.062240944882 42.6796854700855  297.062240944882 42.6796854700855  C 297.062240944882 42.6796854700855  294.527546456693 46.7286427350427  294.527546456693 46.7286427350427  C 294.527546456693 46.7286427350427  293.946711811024 49.2303316239316  293.946711811024 49.2303316239316  C 293.946711811024 49.2303316239316  292.217910236221 51.0749538461538  292.217910236221 51.0749538461538  C 292.217910236221 51.0749538461538  290.106291338583 51.9467760683761  290.106291338583 51.9467760683761  C 290.106291338583 51.9467760683761  286.36202992126 53.1029333333333  286.36202992126 53.1029333333333  C 286.36202992126 53.1029333333333  284.476318110236 55.7564717948718  284.476318110236 55.7564717948718  C 284.476318110236 55.7564717948718  284.025352755906 57.0765128205128  284.025352755906 57.0765128205128  C 284.025352755906 57.0765128205128  284.23682992126 60.1603282051282  284.23682992126 60.1603282051282  C 284.23682992126 60.1603282051282  285.118631496063 63.4584615384615  285.118631496063 63.4584615384615  C 285.118631496063 63.4584615384615  284.838036220472 65.4430085470086  284.838036220472 65.4430085470086  C 284.838036220472 65.4430085470086  284.202998425197 66.3718290598291  284.202998425197 66.3718290598291  C 284.202998425197 66.3718290598291  280.40368503937 68.8746119658119  280.40368503937 68.8746119658119  C 280.40368503937 68.8746119658119  279.283001574803 70.1952  279.283001574803 70.1952  C 279.283001574803 70.1952  279.180537007874 72.8183247863248  279.180537007874 72.8183247863248  C 279.180537007874 72.8183247863248  278.114905511811 75.7507282051282  278.114905511811 75.7507282051282  C 278.114905511811 75.7507282051282  276.051062992126 77.4071794871795  276.051062992126 77.4071794871795  C 276.051062992126 77.4071794871795  272.436670866142 78.8605811965812  272.436670866142 78.8605811965812  C 272.436670866142 78.8605811965812  270.338996850394 80.6748991452991  270.338996850394 80.6748991452991  C 270.338996850394 80.6748991452991  268.288735433071 84.1074871794872  268.288735433071 84.1074871794872  C 268.288735433071 84.1074871794872  260.786146456693 90.7460923076923  260.786146456693 90.7460923076923  C 260.786146456693 90.7460923076923  253.666496062992 96.0135658119658  253.666496062992 96.0135658119658  C 253.666496062992 96.0135658119658  251.821406299213 97.7334700854701  251.821406299213 97.7334700854701  C 251.821406299213 97.7334700854701  243.054683464567 104.431152136752  243.054683464567 104.431152136752  C 243.054683464567 104.431152136752  239.631518110236 106.423357264957  239.631518110236 106.423357264957  C 239.631518110236 106.423357264957  234.88274015748 108.162735042735  234.88274015748 108.162735042735  C 234.88274015748 108.162735042735  231.172310236221 109.706283760684  231.172310236221 109.706283760684  C 231.172310236221 109.706283760684  228.20011023622 111.490078632479  228.20011023622 111.490078632479  C 228.20011023622 111.490078632479  220.287177952756 118.524717948718  220.287177952756 118.524717948718  C 220.287177952756 118.524717948718  217.882352755905 119.853401709402  217.882352755905 119.853401709402  C 217.882352755905 119.853401709402  215.449637795276 120.366058119658  215.449637795276 120.366058119658  C 215.449637795276 120.366058119658  213.590966929134 121.485894017094  213.590966929134 121.485894017094  C 213.590966929134 121.485894017094  206.484897637795 129.432724786325  206.484897637795 129.432724786325  C 206.484897637795 129.432724786325  202.781137007874 131.641435897436  202.781137007874 131.641435897436  C 202.781137007874 131.641435897436  199.064401574803 132.742235897436  199.064401574803 132.742235897436  C 199.064401574803 132.742235897436  195.558658267716 132.97011965812  195.558658267716 132.97011965812  C 195.558658267716 132.97011965812  193.33111496063 131.552492307692  193.33111496063 131.552492307692  C 193.33111496063 131.552492307692  192.76422519685 132.628348717949  192.76422519685 132.628348717949  C 192.76422519685 132.628348717949  189.586853543307 136.274160683761  189.586853543307 136.274160683761  C 189.586853543307 136.274160683761  187.174874015748 138.394475213675  187.174874015748 138.394475213675  C 187.174874015748 138.394475213675  184.339333858268 142.084266666667  184.339333858268 142.084266666667  C 184.339333858268 142.084266666667  180.020907086614 144.857162393162  180.020907086614 144.857162393162  C 180.020907086614 144.857162393162  177.581401574803 146.901442735043  177.581401574803 146.901442735043  C 177.581401574803 146.901442735043  176.043948031496 147.572622222222  176.043948031496 147.572622222222  C 176.043948031496 147.572622222222  173.789363779528 149.332676923077  173.789363779528 149.332676923077  C 173.789363779528 149.332676923077  171.411094488189 150.750851282051  171.411094488189 150.750851282051  C 171.411094488189 150.750851282051  174.288105511811 157.31014017094  174.288105511811 157.31014017094  C 174.288105511811 157.31014017094  175.880247244094 157.189688888889  175.880247244094 157.189688888889  C 175.880247244094 157.189688888889  182.870028346457 153.872082051282  182.870028346457 153.872082051282  C 182.870028346457 153.872082051282  183.813066141732 158.791876923077  183.813066141732 158.791876923077  C 183.813066141732 158.791876923077  183.792694488189 163.617148717949  183.792694488189 163.617148717949  C 183.792694488189 163.617148717949  184.708327559055 165.479165811966  184.708327559055 165.479165811966  C 184.708327559055 165.479165811966  182.064014173228 165.966878632479  182.064014173228 165.966878632479  C 182.064014173228 165.966878632479  182.754103937008 169.665422222222  182.754103937008 169.665422222222  C 182.754103937008 169.665422222222  181.913409448819 169.539063247863  181.913409448819 169.539063247863  C 181.913409448819 169.539063247863  179.296622047244 170.216697435897  179.296622047244 170.216697435897  C 179.296622047244 170.216697435897  185.582853543307 183.576177777778  185.582853543307 183.576177777778  C 185.582853543307 183.576177777778  186.573667716535 185.261839316239  186.573667716535 185.261839316239  C 186.573667716535 185.261839316239  192.641146456693 181.669196581197  192.641146456693 181.669196581197  C 192.641146456693 181.669196581197  193.153954330709 181.999042735043  193.153954330709 181.999042735043  C 193.153954330709 181.999042735043  194.568329133858 184.843596581197  194.568329133858 184.843596581197  C 194.568329133858 184.843596581197  196.1806 189.170871794872  196.1806 189.170871794872  C 196.1806 189.170871794872  199.911401574803 187.612116239316  199.911401574803 187.612116239316  C 199.911401574803 187.612116239316  201.093563779528 186.757141880342  201.093563779528 186.757141880342  C 201.093563779528 186.757141880342  203.205182677165 189.53868034188  203.205182677165 189.53868034188  C 203.205182677165 189.53868034188  206.320711811024 191.991029059829  206.320711811024 191.991029059829  C 206.320711811024 191.991029059829  209.518818897638 194.829565811966  209.518818897638 194.829565811966  C 209.518818897638 194.829565811966  208.124815748031 196.990468376068  208.124815748031 196.990468376068  C 208.124815748031 196.990468376068  208.309251968504 201.648793162393  208.309251968504 201.648793162393  C 208.309251968504 201.648793162393  205.446185826772 205.616902564103  205.446185826772 205.616902564103  C 205.446185826772 205.616902564103  204.380433070866 206.542003418803  204.380433070866 206.542003418803  C 204.380433070866 206.542003418803  201.203061417323 206.244102564103  201.203061417323 206.244102564103  C 201.203061417323 206.244102564103  199.255628346457 206.38348034188  199.255628346457 206.38348034188  C 199.255628346457 206.38348034188  198.353576377953 206.947774358974  198.353576377953 206.947774358974  C 198.353576377953 206.947774358974  193.953056692913 211.588157264957  193.953056692913 211.588157264957  C 193.953056692913 211.588157264957  201.107508661417 226.602447863248  201.107508661417 226.602447863248  C 201.107508661417 226.602447863248  199.891151181102 227.166632478632  199.891151181102 227.166632478632  C 199.891151181102 227.166632478632  202.097959055118 232.982099145299  202.097959055118 232.982099145299  C 202.097959055118 232.982099145299  199.870415748032 236.629661538462  199.870415748032 236.629661538462  C 199.870415748032 236.629661538462  200.437790551181 237.231917948718  200.437790551181 237.231917948718  C 200.437790551181 237.231917948718  198.216916535433 238.836731623932  198.216916535433 238.836731623932  C 198.216916535433 238.836731623932  196.488236220472 235.918878632479  196.488236220472 235.918878632479  C 196.488236220472 235.918878632479  194.568329133858 234.276102564103  194.568329133858 234.276102564103  C 194.568329133858 234.276102564103  190.181269291339 234.885360683761  190.181269291339 234.885360683761  C 190.181269291339 234.885360683761  188.220376377953 235.386092307692  188.220376377953 235.386092307692  C 188.220376377953 235.386092307692  187.195609448819 234.403008547009  187.195609448819 234.403008547009  C 187.195609448819 234.403008547009  187.024633070866 229.392738461538  187.024633070866 229.392738461538  C 187.024633070866 229.392738461538  185.93814488189 227.724909401709  185.93814488189 227.724909401709  C 185.93814488189 227.724909401709  185.172874015748 227.344629059829  185.172874015748 227.344629059829  C 185.172874015748 227.344629059829  180.724577952756 226.298092307692  180.724577952756 226.298092307692  C 180.724577952756 226.298092307692  178.387779527559 227.008218803419  178.387779527559 227.008218803419  C 178.387779527559 227.008218803419  177.697811023622 228.397182905983  177.697811023622 228.397182905983  C 177.697811023622 228.397182905983  178.490244094488 230.413784615385  178.490244094488 230.413784615385  C 178.490244094488 230.413784615385  178.203343307087 230.857517948718  178.203343307087 230.857517948718  C 178.203343307087 230.857517948718  175.422491338583 232.094523076923  175.422491338583 232.094523076923  C 175.422491338583 232.094523076923  173.829864566929 235.069264957265  173.829864566929 235.069264957265  C 173.829864566929 235.069264957265  172.586466141732 235.772936752137  172.586466141732 235.772936752137  C 172.586466141732 235.772936752137  170.188067716536 235.95695042735  170.188067716536 235.95695042735  C 170.188067716536 235.95695042735  168.678018897638 236.470700854701  168.678018897638 236.470700854701  C 168.678018897638 236.470700854701  165.00857480315 239.699364102564  165.00857480315 239.699364102564  C 165.00857480315 239.699364102564  157.998058267717 244.806235897436  157.998058267717 244.806235897436  C 157.998058267717 244.806235897436  141.021801574803 255.452553846154  141.021801574803 255.452553846154  C 141.021801574803 255.452553846154  140.721440944882 252.908088888889  140.721440944882 252.908088888889  C 140.721440944882 252.908088888889  139.231763779528 252.387774358974  139.231763779528 252.387774358974  C 139.231763779528 252.387774358974  136.87422992126 252.184834188034  136.87422992126 252.184834188034  C 136.87422992126 252.184834188034  135.746755905512 245.332567521367  135.746755905512 245.332567521367  C 135.746755905512 245.332567521367  136.067851968504 244.577914529914  136.067851968504 244.577914529914  C 136.067851968504 244.577914529914  134.824453543307 242.465258119658  134.824453543307 242.465258119658  C 134.824453543307 242.465258119658  133.58105511811 242.293825641026  133.58105511811 242.293825641026  C 133.58105511811 242.293825641026  129.945806299213 242.490748717949  129.945806299213 242.490748717949  C 129.945806299213 242.490748717949  127.533826771654 243.334345299145  127.533826771654 243.334345299145  C 127.533826771654 243.334345299145  125.627379527559 241.995924786325  125.627379527559 241.995924786325  C 125.627379527559 241.995924786325  124.848527559055 239.680328205128  124.848527559055 239.680328205128  C 124.848527559055 239.680328205128  126.32425984252 237.657271794872  126.32425984252 237.657271794872  C 126.32425984252 237.657271794872  125.504300787402 235.17078974359  125.504300787402 235.17078974359  C 125.504300787402 235.17078974359  125.702318110236 233.737408547009  125.702318110236 233.737408547009  C 125.702318110236 233.737408547009  124.841373228346 232.265408547009  124.841373228346 232.265408547009  C 124.841373228346 232.265408547009  122.402231496063 231.111439316239  122.402231496063 231.111439316239  C 122.402231496063 231.111439316239  122.238045669291 229.899924786325  122.238045669291 229.899924786325  C 122.238045669291 229.899924786325  120.803420472441 227.166632478632  120.803420472441 227.166632478632  C 120.803420472441 227.166632478632  120.112966929134 224.439794871795  120.112966929134 224.439794871795  C 120.112966929134 224.439794871795  119.006107086614 224.002516239316  119.006107086614 224.002516239316  C 119.006107086614 224.002516239316  115.118395275591 224.357415384615  115.118395275591 224.357415384615  C 115.118395275591 224.357415384615  115.0842 226.678372649573  115.0842 226.678372649573  C 115.0842 226.678372649573  113.09565984252 227.287083760684  113.09565984252 227.287083760684  C 113.09565984252 227.287083760684  110.143831496063 226.494468376068  110.143831496063 226.494468376068  C 110.143831496063 226.494468376068  107.041762204724 226.678372649573  107.041762204724 226.678372649573  C 107.041762204724 226.678372649573  102.627661417323 227.414099145299  102.627661417323 227.414099145299  C 102.627661417323 227.414099145299  95.3506157480315 228.276731623932  95.3506157480315 228.276731623932  C 95.3506157480315 228.276731623932  94.8721244094488 227.667911111111  94.8721244094488 227.667911111111  C 94.8721244094488 227.667911111111  93.6765023622047 227.845360683761  93.6765023622047 227.845360683761  C 93.6765023622047 227.845360683761  92.788031496063 229.481682051282  92.788031496063 229.481682051282  C 92.788031496063 229.481682051282  89.8294125984252 230.566181196581  89.8294125984252 230.566181196581  C 89.8294125984252 230.566181196581  87.2739826771653 230.217408547009  87.2739826771653 230.217408547009  C 87.2739826771653 230.217408547009  86.9527653543307 226.551357264957  86.9527653543307 226.551357264957  C 86.9527653543307 226.551357264957  79.7989196850394 225.632382905983  79.7989196850394 225.632382905983  C 79.7989196850394 225.632382905983  79.5458503937008 222.455247863248  79.5458503937008 222.455247863248  C 79.5458503937008 222.455247863248  78.2271496062992 221.922461538462  78.2271496062992 221.922461538462  C 78.2271496062992 221.922461538462  73.6010866141732 221.643596581197  73.6010866141732 221.643596581197  C 73.6010866141732 221.643596581197  69.7201653543307 221.174263247863  69.7201653543307 221.174263247863  C 69.7201653543307 221.174263247863  68.8388488188976 221.834064957265  68.8388488188976 221.834064957265  C 68.8388488188976 221.834064957265  63.9805732283464 221.370639316239  63.9805732283464 221.370639316239  C 63.9805732283464 221.370639316239  63.9052708661417 222.239835897436  63.9052708661417 222.239835897436  C 63.9052708661417 222.239835897436  64.7662157480315 223.146447863248  64.7662157480315 223.146447863248  C 64.7662157480315 223.146447863248  64.6228866141732 225.099596581197  64.6228866141732 225.099596581197  C 64.6228866141732 225.099596581197  63.918851968504 225.777777777778  63.918851968504 225.777777777778  C 63.918851968504 225.777777777778  55.0564551181103 226.069661538462  55.0564551181103 226.069661538462  C 55.0564551181103 226.069661538462  54.2640220472441 225.137558974359  54.2640220472441 225.137558974359  C 54.2640220472441 225.137558974359  51.4830488188976 225.194557264957  51.4830488188976 225.194557264957  C 51.4830488188976 225.194557264957  49.4603133858268 224.687261538462  49.4603133858268 224.687261538462  C 49.4603133858268 224.687261538462  49.5969732283465 221.877935042735  49.5969732283465 221.877935042735  C 49.5969732283465 221.877935042735  49.255505511811 220.515117948718  49.255505511811 220.515117948718  C 49.255505511811 220.515117948718  47.2395606299212 219.107227350427  47.2395606299212 219.107227350427  C 47.2395606299212 219.107227350427  45.8661716535433 216.342974358974  45.8661716535433 216.342974358974  C 45.8661716535433 216.342974358974  44.9163433070866 215.296984615385  44.9163433070866 215.296984615385  C 44.9163433070866 215.296984615385  43.501968503937 214.694728205128  43.501968503937 214.694728205128  C 43.501968503937 214.694728205128  37.4278204724409 213.876512820513  37.4278204724409 213.876512820513  C 37.4278204724409 213.876512820513  29.2144062992126 203.246058119658  29.2144062992126 203.246058119658  C 29.2144062992126 203.246058119658  27.6633716535433 198.816164102564  27.6633716535433 198.816164102564  C 27.6633716535433 198.816164102564  25.9549417322835 195.678632478632  25.9549417322835 195.678632478632  C 25.9549417322835 195.678632478632  24.4725401574803 194.246892307692  24.4725401574803 194.246892307692  C 24.4725401574803 194.246892307692  21.8277417322835 193.6512  21.8277417322835 193.6512  C 21.8277417322835 193.6512  19.9285700787401 189.735165811966  19.9285700787401 189.735165811966  C 19.9285700787401 189.735165811966  17.9743464566929 187.650078632479  17.9743464566929 187.650078632479  C 17.9743464566929 187.650078632479  18.1926141732283 186.085415384615  18.1926141732283 186.085415384615  C 18.1926141732283 186.085415384615  22.2449968503937 181.017052991453  22.2449968503937 181.017052991453  C 22.2449968503937 181.017052991453  22.3816566929134 180.05398974359  22.3816566929134 180.05398974359  C 22.3816566929134 180.05398974359  20.3521307086614 177.538844444444  20.3521307086614 177.538844444444  C 20.3521307086614 177.538844444444  18.8898582677165 174.03612991453  18.8898582677165 174.03612991453  C 18.8898582677165 174.03612991453  16.7236724409449 172.883254700855  16.7236724409449 172.883254700855  C 16.7236724409449 172.883254700855  13.4917338582677 171.894700854701  13.4917338582677 171.894700854701  C 13.4917338582677 171.894700854701  11.6539196850394 170.482543589744  11.6539196850394 170.482543589744  C 11.6539196850394 170.482543589744  10.854211023622 168.297682051282  10.854211023622 168.297682051282  C 10.854211023622 168.297682051282  10.478548031496 168.379623931624  10.478548031496 168.379623931624  C 10.478548031496 168.379623931624  7.36932440944879 171.660909401709  7.36932440944879 171.660909401709  C 7.36932440944879 171.660909401709  3.94615905511811 168.386078632479  3.94615905511811 168.386078632479  C 3.94615905511811 168.386078632479  1.15839527559058 165.295261538462  1.15839527559058 165.295261538462  C 1.15839527559058 165.295261538462  5.11474015748034 162.489764102564  5.11474015748034 162.489764102564  C 5.11474015748034 162.489764102564  8.51753385826773 158.298147008547  8.51753385826773 158.298147008547  C 8.51753385826773 158.298147008547  6.91156850393699 156.733921367521  6.91156850393699 156.733921367521  C 6.91156850393699 156.733921367521  7.51992913385828 154.95494017094  7.51992913385828 154.95494017094  C 7.51992913385828 154.95494017094  7.39685039370081 152.270441025641  7.39685039370081 152.270441025641  C 7.39685039370081 152.270441025641  8.22347874015748 152.036102564103  8.22347874015748 152.036102564103  C 8.22347874015748 152.036102564103  8.57889133858265 150.73837948718  8.57889133858265 150.73837948718  C 8.57889133858265 150.73837948718  8.01879212598428 148.756458119658  8.01879212598428 148.756458119658  C 8.01879212598428 148.756458119658  4.73180157480314 147.901921367521  4.73180157480314 147.901921367521  C 4.73180157480314 147.901921367521  4.71822047244097 143.527384615385  4.71822047244097 143.527384615385  C 4.71822047244097 143.527384615385  3.7138251968504 141.894345299145  3.7138251968504 141.894345299145  C 3.7138251968504 141.894345299145  3.60420629921262 138.755282051282  3.60420629921262 138.755282051282  C 3.60420629921262 138.755282051282  6.41270551181105 137.925688888889  6.41270551181105 137.925688888889  C 6.41270551181105 137.925688888889  11.2028330708661 137.431958974359  11.2028330708661 137.431958974359  C 11.2028330708661 137.431958974359  18.2544566929134 136.913285470085  18.2544566929134 136.913285470085  C 18.2544566929134 136.913285470085  24.2262614173228 135.299282051282  24.2262614173228 135.299282051282  C 24.2262614173228 135.299282051282  29.8291937007874 135.514694017094  29.8291937007874 135.514694017094  C 29.8291937007874 135.514694017094  32.5352283464567 134.774044444444  32.5352283464567 134.774044444444  C 32.5352283464567 134.774044444444  35.8970362204725 134.159972649573  35.8970362204725 134.159972649573  C 35.8970362204725 134.159972649573  48.9821858267717 133.116061538462  48.9821858267717 133.116061538462  C 48.9821858267717 133.116061538462  50.6834614173228 132.653839316239  50.6834614173228 132.653839316239  C 50.6834614173228 132.653839316239  64.7454803149606 125.927712820513  64.7454803149606 125.927712820513  C 64.7454803149606 125.927712820513  80.7212220472441 120.929258119658  80.7212220472441 120.929258119658  C 80.7212220472441 120.929258119658  83.7276173228346 120.575015384615  83.7276173228346 120.575015384615  C 83.7276173228346 120.575015384615  88.189494488189 121.144123076923  88.189494488189 121.144123076923  C 88.189494488189 121.144123076923  91.189220472441 121.005182905983  91.189220472441 121.005182905983  C 91.189220472441 121.005182905983  111.517099212598 116.614454700855  111.517099212598 116.614454700855  C 111.517099212598 116.614454700855  113.416755905512 116.500458119658  113.416755905512 116.500458119658  C 113.416755905512 116.500458119658  119.819275590551 118.006044444444  119.819275590551 118.006044444444  C 119.819275590551 118.006044444444  122.053609448819 118.050570940171  122.053609448819 118.050570940171  C 122.053609448819 118.050570940171  125.360850393701 117.361011965812  125.360850393701 117.361011965812  C 125.360850393701 117.361011965812  127.041754330709 116.75984957265  127.041754330709 116.75984957265  C 127.041754330709 116.75984957265  130.458250393701 116.544437606838  130.458250393701 116.544437606838  C 130.458250393701 116.544437606838  132.248288188976 116.184177777778  132.248288188976 116.184177777778  C 132.248288188976 116.184177777778  135.624040944882 113.957087179487  135.624040944882 113.957087179487  C 135.624040944882 113.957087179487  144.643348031496 112.577969230769  144.643348031496 112.577969230769  C 144.643348031496 112.577969230769  150.786129133858 113.653825641026  150.786129133858 113.653825641026  C 150.786129133858 113.653825641026  157.376601574803 113.286454700855  157.376601574803 113.286454700855  C 157.376601574803 113.286454700855  157.704488188976 106.99891965812  157.704488188976 106.99891965812  C 157.704488188976 106.99891965812  159.815622047244 106.082133333333  159.815622047244 106.082133333333  C 159.815622047244 106.082133333333  163.170760629921 105.013278632479  163.170760629921 105.013278632479  C 163.170760629921 105.013278632479  165.760385826772 103.78601025641  165.760385826772 103.78601025641  C 165.760385826772 103.78601025641  170.516318110236 101.009285470085  170.516318110236 101.009285470085  C 170.516318110236 101.009285470085  171.582070866142 97.5945299145299  171.582070866142 97.5945299145299  C 171.582070866142 97.5945299145299  172.210803149606 96.8355008547008  172.210803149606 96.8355008547008  C 172.210803149606 96.8355008547008  176.228384251968 95.811282051282  176.228384251968 95.811282051282  C 176.228384251968 95.811282051282  179.316872440945 94.6795213675214  179.316872440945 94.6795213675214  C 179.316872440945 94.6795213675214  181.114185826772 93.6741196581197  181.114185826772 93.6741196581197  C 181.114185826772 93.6741196581197  183.854051968504 91.4985572649573  183.854051968504 91.4985572649573  C 183.854051968504 91.4985572649573  184.858447244095 88.6914188034188  184.858447244095 88.6914188034188  C 184.858447244095 88.6914188034188  192.285733858268 83.7283008547008  192.285733858268 83.7283008547008  C 192.285733858268 83.7283008547008  192.880634645669 81.8000957264957  192.880634645669 81.8000957264957  C 192.880634645669 81.8000957264957  194.397352755906 81.2755145299146  194.397352755906 81.2755145299146  C 194.397352755906 81.2755145299146  195.859503937008 82.1288478632479  195.859503937008 82.1288478632479  C 195.859503937008 82.1288478632479  197.697803149606 81.5158700854701  197.697803149606 81.5158700854701  C 197.697803149606 81.5158700854701  199.399078740157 80.5234871794872  199.399078740157 80.5234871794872  C 199.399078740157 80.5234871794872  199.050456692913 79.1134085470085  199.050456692913 79.1134085470085  C 199.050456692913 79.1134085470085  199.70671496063 77.4451418803419  199.70671496063 77.4451418803419  C 199.70671496063 77.4451418803419  203.034206299213 74.5180991452991  203.034206299213 74.5180991452991  C 203.034206299213 74.5180991452991  207.482502362205 71.8005606837607  207.482502362205 71.8005606837607  C 207.482502362205 71.8005606837607  210.837640944882 70.2775794871795  210.837640944882 70.2775794871795  C 210.837640944882 70.2775794871795  212.491018897638 67.8757743589744  212.491018897638 67.8757743589744  C 212.491018897638 67.8757743589744  218.052844094488 65.1078017094017  218.052844094488 65.1078017094017  C 218.052844094488 65.1078017094017  219.740538582677 63.4649162393162  219.740538582677 63.4649162393162  C 219.740538582677 63.4649162393162  222.023133858268 61.9354803418804  222.023133858268 61.9354803418804  C 222.023133858268 61.9354803418804  226.580563779528 60.2677606837607  226.580563779528 60.2677606837607  C 226.580563779528 60.2677606837607  228.965017322835 59.1110564102564  228.965017322835 59.1110564102564  C 228.965017322835 59.1110564102564  230.236062992126 59.2060170940171  230.236062992126 59.2060170940171  C 230.236062992126 59.2060170940171  232.15645511811 58.5175521367521  232.15645511811 58.5175521367521  C 232.15645511811 58.5175521367521  232.224481889764 57.4367726495727  232.224481889764 57.4367726495727  C 232.224481889764 57.4367726495727  230.851214173228 54.8716307692307  230.851214173228 54.8716307692307  C 230.851214173228 54.8716307692307  232.333615748031 53.0334632478633  232.333615748031 53.0334632478633  C 232.333615748031 53.0334632478633  234.178705511811 52.4079042735043  234.178705511811 52.4079042735043  C 234.178705511811 52.4079042735043  235.606661417323 52.9385025641025  235.606661417323 52.9385025641025  C 235.606661417323 52.9385025641025  237.937033070866 52.5278085470085  237.937033070866 52.5278085470085  C 237.937033070866 52.5278085470085  239.877311811024 51.1188239316239  239.877311811024 51.1188239316239  C 239.877311811024 51.1188239316239  244.182157480315 47.5435760683761  244.182157480315 47.5435760683761  C 244.182157480315 47.5435760683761  243.082209448819 45.7433709401709  243.082209448819 45.7433709401709  C 243.082209448819 45.7433709401709  243.546634645669 44.6442119658119  243.546634645669 44.6442119658119  C 243.546634645669 44.6442119658119  246.095395275591 42.3134085470085  246.095395275591 42.3134085470085  C 246.095395275591 42.3134085470085  247.072749606299 41.947241025641  247.072749606299 41.947241025641  C 247.072749606299 41.947241025641  255.354190551181 42.5852717948718  255.354190551181 42.5852717948718  C 255.354190551181 42.5852717948718  259.665826771654 43.3811692307692  259.665826771654 43.3811692307692  C 259.665826771654 43.3811692307692  261.271428346457 41.8398085470085  261.271428346457 41.8398085470085  C 261.271428346457 41.8398085470085  264.230047244094 39.5660034188034  264.230047244094 39.5660034188034  C 264.230047244094 39.5660034188034  266.013294488189 37.7468717948718  266.013294488189 37.7468717948718  C 266.013294488189 37.7468717948718  270.215796850394 34.2041162393162  270.215796850394 34.2041162393162  C 270.215796850394 34.2041162393162  277.158286614173 29.1145299145299  277.158286614173 29.1145299145299  C 277.158286614173 29.1145299145299  287.147672440945 20.1804581196581  287.147672440945 20.1804581196581  C 287.147672440945 20.1804581196581  287.892814173228 18.8990358974359  287.892814173228 18.8990358974359  C 287.892814173228 18.8990358974359  285.624163779528 16.6327794871795  285.624163779528 16.6327794871795  C 285.624163779528 16.6327794871795  285.94525984252 15.0171350427351  285.94525984252 15.0171350427351  C 285.94525984252 15.0171350427351  294.001278740157 8.43990427350429  294.001278740157 8.43990427350429  C 294.001278740157 8.43990427350429  299.946042519685 3.11324444444447  299.946042519685 3.11324444444447  C 299.946042519685 3.11324444444447  302.966018897638 0.791083760683748  302.966018897638 0.791083760683748  Z " stroke-width="2" stroke="#6886b3" fill="none" transform="matrix(1 0 0 1 1008 486 )" mask="url(#clip43)" />
  </g>
</svg>