<?xml version="1.0" encoding="utf-8"?>
<svg version="1.1" xmlns:xlink="http://www.w3.org/1999/xlink" width="246px" height="247px" xmlns="http://www.w3.org/2000/svg">
  <defs>
    <mask fill="white" id="clip39">
      <path d="M 204.447933990148 163.464490222222  C 204.447933990148 163.464490222222  214.103736945813 178.796054666667  214.103736945813 178.796054666667  C 214.103736945813 178.796054666667  208.231244334975 184.994656888889  208.231244334975 184.994656888889  C 208.231244334975 184.994656888889  206.742520197044 187.687835111111  206.742520197044 187.687835111111  C 206.742520197044 187.687835111111  205.814021674877 190.065292444444  205.814021674877 190.065292444444  C 205.814021674877 190.065292444444  205.964166502463 192.550002666667  205.964166502463 192.550002666667  C 205.964166502463 192.550002666667  207.541717241379 195.110898666667  207.541717241379 195.110898666667  C 207.541717241379 195.110898666667  207.541717241379 197.331483555556  207.541717241379 197.331483555556  C 207.541717241379 197.331483555556  204.837413793103 202.100449777778  204.837413793103 202.100449777778  C 204.837413793103 202.100449777778  202.563428571429 203.973807555556  202.563428571429 203.973807555556  C 202.563428571429 203.973807555556  200.664987192118 204.554092888889  200.664987192118 204.554092888889  C 200.664987192118 204.554092888889  199.326892610837 205.854191111111  199.326892610837 205.854191111111  C 199.326892610837 205.854191111111  198.629973399015 207.651802222222  198.629973399015 207.651802222222  C 198.629973399015 207.651802222222  198.152272906404 212.094179555556  198.152272906404 212.094179555556  C 198.152272906404 212.094179555556  197.278306403941 214.025170666667  197.278306403941 214.025170666667  C 197.278306403941 214.025170666667  196.786548768473 217.603048  196.786548768473 217.603048  C 196.786548768473 217.603048  197.09398817734 219.281440444444  197.09398817734 219.281440444444  C 197.09398817734 219.281440444444  197.83138226601 220.581428888889  197.83138226601 220.581428888889  C 197.83138226601 220.581428888889  200.125483743842 222.670829333333  200.125483743842 222.670829333333  C 200.125483743842 222.670829333333  200.214310344828 225.245886666667  200.214310344828 225.245886666667  C 200.214310344828 225.245886666667  199.804593103448 227.007051555556  199.804593103448 227.007051555556  C 199.804593103448 227.007051555556  197.257584236453 231.816855111111  197.257584236453 231.816855111111  C 197.257584236453 231.816855111111  196.622467980296 234.518815555556  196.622467980296 234.518815555556  C 196.622467980296 234.518815555556  195.946392118227 236.084466222222  195.946392118227 236.084466222222  C 195.946392118227 236.084466222222  194.437430541872 238.268604888889  194.437430541872 238.268604888889  C 194.437430541872 238.268604888889  192.914896551724 239.285037333333  192.914896551724 239.285037333333  C 192.914896551724 239.285037333333  190.777483743842 239.512606666667  190.777483743842 239.512606666667  C 190.777483743842 239.512606666667  190.005916256158 240.163149777778  190.005916256158 240.163149777778  C 190.005916256158 240.163149777778  188.769614778325 243.004418222222  188.769614778325 243.004418222222  C 188.769614778325 243.004418222222  187.048705418719 241.659201333333  187.048705418719 241.659201333333  C 187.048705418719 241.659201333333  186.229270935961 241.602556  186.229270935961 241.602556  C 186.229270935961 241.602556  178.485845320197 242.524250222222  178.485845320197 242.524250222222  C 178.485845320197 242.524250222222  176.655993103448 242.574857777778  176.655993103448 242.574857777778  C 176.655993103448 242.574857777778  167.28 241.653273333333  167.28 241.653273333333  C 167.28 241.653273333333  164.132169458128 241.974922222222  164.132169458128 241.974922222222  C 164.132169458128 241.974922222222  152.264184236453 246.010133777778  152.264184236453 246.010133777778  C 152.264184236453 246.010133777778  150.140465024631 246.344407111111  150.140465024631 246.344407111111  C 150.140465024631 246.344407111111  139.139660098522 246.294238666667  139.139660098522 246.294238666667  C 139.139660098522 246.294238666667  135.786789162562 244.993152444444  135.786789162562 244.993152444444  C 135.786789162562 244.993152444444  134.434516256158 244.064981333333  134.434516256158 244.064981333333  C 134.434516256158 244.064981333333  130.671928078818 238.798941333333  130.671928078818 238.798941333333  C 130.671928078818 238.798941333333  129.00603546798 237.397628  129.00603546798 237.397628  C 129.00603546798 237.397628  127.066634482759 236.368680888889  127.066634482759 236.368680888889  C 127.066634482759 236.368680888889  118.240808866995 233.824141777778  118.240808866995 233.824141777778  C 118.240808866995 233.824141777778  115.161446305419 233.300392  115.161446305419 233.300392  C 115.161446305419 233.300392  111.835477832512 233.565505333333  111.835477832512 233.565505333333  C 111.835477832512 233.565505333333  105.007099507389 236.8483  105.007099507389 236.8483  C 105.007099507389 236.8483  101.756991133005 238.338313777778  101.756991133005 238.338313777778  C 101.756991133005 238.338313777778  99.3190463054187 239.114662222222  99.3190463054187 239.114662222222  C 99.3190463054187 239.114662222222  95.8092443349753 238.773912  95.8092443349753 238.773912  C 95.8092443349753 238.773912  89.2331674876847 236.235849777778  89.2331674876847 236.235849777778  C 89.2331674876847 236.235849777778  88.1130798029557 235.661492444444  88.1130798029557 235.661492444444  C 88.1130798029557 235.661492444444  83.025848275862 231.665581333333  83.025848275862 231.665581333333  C 83.025848275862 231.665581333333  73.8346581280788 224.116273333333  73.8346581280788 224.116273333333  C 73.8346581280788 224.116273333333  64.5070167487685 217.836545333333  64.5070167487685 217.836545333333  C 64.5070167487685 217.836545333333  59.815445320197 214.510827555556  59.815445320197 214.510827555556  C 59.815445320197 214.510827555556  57.3027310344828 211.658581333333  57.3027310344828 211.658581333333  C 57.3027310344828 211.658581333333  55.5547980295566 207.853793333333  55.5547980295566 207.853793333333  C 55.5547980295566 207.853793333333  51.7647014778325 202.157095111111  51.7647014778325 202.157095111111  C 51.7647014778325 202.157095111111  50.2899133004926 200.491766222222  50.2899133004926 200.491766222222  C 50.2899133004926 200.491766222222  47.9885408866995 199.021841777778  47.9885408866995 199.021841777778  C 47.9885408866995 199.021841777778  40.1287802955665 195.735314666667  40.1287802955665 195.735314666667  C 40.1287802955665 195.735314666667  38.1482985221675 195.337919111111  38.1482985221675 195.337919111111  C 38.1482985221675 195.337919111111  34.9802305418719 195.413556  34.9802305418719 195.413556  C 34.9802305418719 195.413556  26.1438620689655 194.915384444444  26.1438620689655 194.915384444444  C 26.1438620689655 194.915384444444  18.6460729064039 195.571416444444  18.6460729064039 195.571416444444  C 18.6460729064039 195.571416444444  11.3803477832512 196.309672  11.3803477832512 196.309672  C 11.3803477832512 196.309672  4.77736847290639 198.636960888889  4.77736847290639 198.636960888889  C 4.77736847290639 198.636960888889  2.87892709359605 198.454071111111  2.87892709359605 198.454071111111  C 2.87892709359605 198.454071111111  2.78331428571427 196.820248444444  2.78331428571427 196.820248444444  C 2.78331428571427 196.820248444444  3.13171330049263 194.347613777778  3.13171330049263 194.347613777778  C 3.13171330049263 194.347613777778  3.07669655172415 188.192044444444  3.07669655172415 188.192044444444  C 3.07669655172415 188.192044444444  3.29530935960592 181.104352  3.29530935960592 181.104352  C 3.29530935960592 181.104352  4.92739211822661 177.478611555556  4.92739211822661 177.478611555556  C 4.92739211822661 177.478611555556  5.77433497536944 173.311227555556  5.77433497536944 173.311227555556  C 5.77433497536944 173.311227555556  4.68175566502465 168.336976888889  4.68175566502465 168.336976888889  C 4.68175566502465 168.336976888889  7.2900827586207 164.737912444444  7.2900827586207 164.737912444444  C 7.2900827586207 164.737912444444  7.09219211822659 163.590844444444  7.09219211822659 163.590844444444  C 7.09219211822659 163.590844444444  5.99294778325124 162.620189333333  5.99294778325124 162.620189333333  C 5.99294778325124 162.620189333333  0.90559507389162 157.426492888889  0.90559507389162 157.426492888889  C 0.90559507389162 157.426492888889  0.106519211822649 155.554891555556  0.106519211822649 155.554891555556  C 0.106519211822649 155.554891555556  1.25363054187193 153.443645333333  1.25363054187193 153.443645333333  C 1.25363054187193 153.443645333333  2.80367290640395 153.443645333333  2.80367290640395 153.443645333333  C 2.80367290640395 153.443645333333  5.34389556650245 154.288056  5.34389556650245 154.288056  C 5.34389556650245 154.288056  6.76451527093596 154.420887111111  6.76451527093596 154.420887111111  C 6.76451527093596 154.420887111111  10.1445310344827 153.702281777778  10.1445310344827 153.702281777778  C 10.1445310344827 153.702281777778  13.9959458128079 155.221167111111  13.9959458128079 155.221167111111  C 13.9959458128079 155.221167111111  15.3683349753694 154.98756  15.3683349753694 154.98756  C 15.3683349753694 154.98756  16.3379142857143 153.708758666667  16.3379142857143 153.708758666667  C 16.3379142857143 153.708758666667  17.293921182266 149.984547555556  17.293921182266 149.984547555556  C 17.293921182266 149.984547555556  16.8160995073892 146.166037333333  16.8160995073892 146.166037333333  C 16.8160995073892 146.166037333333  17.2190305418719 140.300610666667  17.2190305418719 140.300610666667  C 17.2190305418719 140.300610666667  18.4549684729064 136.249700888889  18.4549684729064 136.249700888889  C 18.4549684729064 136.249700888889  19.5475477832512 134.385674222222  19.5475477832512 134.385674222222  C 19.5475477832512 134.385674222222  21.7803310344828 131.658135555556  21.7803310344828 131.658135555556  C 21.7803310344828 131.658135555556  23.4399221674877 127.274599111111  23.4399221674877 127.274599111111  C 23.4399221674877 127.274599111111  28.622766502463 116.957354222222  28.622766502463 116.957354222222  C 28.622766502463 116.957354222222  37.3563724137931 105.209046222222  37.3563724137931 105.209046222222  C 37.3563724137931 105.209046222222  39.1525359605912 102.993291555556  39.1525359605912 102.993291555556  C 39.1525359605912 102.993291555556  40.9279773399015 101.778710222222  40.9279773399015 101.778710222222  C 40.9279773399015 101.778710222222  42.60780591133 99.0659915555556  42.60780591133 99.0659915555556  C 42.60780591133 99.0659915555556  41.9249438423646 88.9204391111111  41.9249438423646 88.9204391111111  C 41.9249438423646 88.9204391111111  42.5735113300493 84.5161546666667  42.5735113300493 84.5161546666667  C 42.5735113300493 84.5161546666667  42.6757891625616 80.4075017777778  42.6757891625616 80.4075017777778  C 42.6757891625616 80.4075017777778  43.1198009852217 78.2369755555556  43.1198009852217 78.2369755555556  C 43.1198009852217 78.2369755555556  44.1167674876847 76.0033271111111  44.1167674876847 76.0033271111111  C 44.1167674876847 76.0033271111111  44.5675655172414 72.2670404444444  44.5675655172414 72.2670404444444  C 44.5675655172414 72.2670404444444  43.8706463054187 61.6374777777778  43.8706463054187 61.6374777777778  C 43.8706463054187 61.6374777777778  43.3722236453202 59.4680493333333  43.3722236453202 59.4680493333333  C 43.3722236453202 59.4680493333333  43.3722236453202 54.5754733333333  43.3722236453202 54.5754733333333  C 43.3722236453202 54.5754733333333  44.6562709359606 52.3308471111111  44.6562709359606 52.3308471111111  C 44.6562709359606 52.3308471111111  47.6472916256157 51.90952  47.6472916256157 51.90952  C 47.6472916256157 51.90952  53.8749694581281 49.9289093333333  53.8749694581281 49.9289093333333  C 53.8749694581281 49.9289093333333  62.0077536945813 46.0691226666667  62.0077536945813 46.0691226666667  C 62.0077536945813 46.0691226666667  63.5577960591133 44.9813346666667  63.5577960591133 44.9813346666667  C 63.5577960591133 44.9813346666667  65.3057290640394 42.5675408888889  65.3057290640394 42.5675408888889  C 65.3057290640394 42.5675408888889  67.5525694581281 42.2653226666667  67.5525694581281 42.2653226666667  C 67.5525694581281 42.2653226666667  72.250442364532 40.9331693333333  72.250442364532 40.9331693333333  C 72.250442364532 40.9331693333333  73.1519172413793 40.876524  73.1519172413793 40.876524  C 73.1519172413793 40.876524  74.5518147783251 41.7753844444444  74.5518147783251 41.7753844444444  C 74.5518147783251 41.7753844444444  76.8460374384236 44.9748577777778  76.8460374384236 44.9748577777778  C 76.8460374384236 44.9748577777778  78.252721182266 45.8741573333333  78.252721182266 45.8741573333333  C 78.252721182266 45.8741573333333  80.6495852216749 46.3581675555556  80.6495852216749 46.3581675555556  C 80.6495852216749 46.3581675555556  83.8794561576355 45.5661208888889  83.8794561576355 45.5661208888889  C 83.8794561576355 45.5661208888889  89.8614975369458 43.2839506666667  89.8614975369458 43.2839506666667  C 89.8614975369458 43.2839506666667  92.6406916256158 42.6110128888889  92.6406916256158 42.6110128888889  C 92.6406916256158 42.6110128888889  95.7951871921182 42.5734688888889  95.7951871921182 42.5734688888889  C 95.7951871921182 42.5734688888889  98.6771438423645 41.8946031111111  98.6771438423645 41.8946031111111  C 98.6771438423645 41.8946031111111  101.811523152709 42.3410693333333  101.811523152709 42.3410693333333  C 101.811523152709 42.3410693333333  103.484565517241 41.3980782222222  103.484565517241 41.3980782222222  C 103.484565517241 41.3980782222222  105.314538916256 39.7006942222222  105.314538916256 39.7006942222222  C 105.314538916256 39.7006942222222  107.772721182266 39.1164568888889  107.772721182266 39.1164568888889  C 107.772721182266 39.1164568888889  110.654193103448 39.4365688888889  110.654193103448 39.4365688888889  C 110.654193103448 39.4365688888889  117.619628571429 38.4561435555556  117.619628571429 38.4561435555556  C 117.619628571429 38.4561435555556  123.413473891626 40.6375377777778  123.413473891626 40.6375377777778  C 123.413473891626 40.6375377777778  131.170471921182 40.2793328888889  131.170471921182 40.2793328888889  C 131.170471921182 40.2793328888889  134.250198029557 40.4868128888889  134.250198029557 40.4868128888889  C 134.250198029557 40.4868128888889  137.152392118227 39.6065048888889  137.152392118227 39.6065048888889  C 137.152392118227 39.6065048888889  139.747267980296 37.7272191111111  139.747267980296 37.7272191111111  C 139.747267980296 37.7272191111111  141.850749753695 37.6330297777778  141.850749753695 37.6330297777778  C 141.850749753695 37.6330297777778  146.794259113301 37.9029733333333  146.794259113301 37.9029733333333  C 146.794259113301 37.9029733333333  148.276197044335 37.7772777777778  148.276197044335 37.7772777777778  C 148.276197044335 37.7772777777778  154.087371428571 38.04788  154.087371428571 38.04788  C 154.087371428571 38.04788  158.232289655172 38.6575857777778  158.232289655172 38.6575857777778  C 158.232289655172 38.6575857777778  160.553899507389 37.6580591111111  160.553899507389 37.6580591111111  C 160.553899507389 37.6580591111111  160.827044334975 36.9981848888889  160.827044334975 36.9981848888889  C 160.827044334975 36.9981848888889  160.88157635468 30.4179951111111  160.88157635468 30.4179951111111  C 160.88157635468 30.4179951111111  164.917309359606 27.099852  164.917309359606 27.099852  C 164.917309359606 27.099852  167.559931034483 19.1073711111111  167.559931034483 19.1073711111111  C 167.559931034483 19.1073711111111  168.809804926108 16.1479817777778  168.809804926108 16.1479817777778  C 168.809804926108 16.1479817777778  170.353061083744 15.3063155555556  170.353061083744 15.3063155555556  C 170.353061083744 15.3063155555556  174.361285714286 14.8599591111111  174.361285714286 14.8599591111111  C 174.361285714286 14.8599591111111  178.246995073892 13.6034426666667  178.246995073892 13.6034426666667  C 178.246995073892 13.6034426666667  183.825620689655 10.2368875555556  183.825620689655 10.2368875555556  C 183.825620689655 10.2368875555556  185.423893596059 9.75287733333333  185.423893596059 9.75287733333333  C 185.423893596059 9.75287733333333  190.25155270936 9.64617333333333  190.25155270936 9.64617333333333  C 190.25155270936 9.64617333333333  192.095462068966 8.74786177777778  192.095462068966 8.74786177777778  C 192.095462068966 8.74786177777778  198.172510344828 8.21379288888889  198.172510344828 8.21379288888889  C 198.172510344828 8.21379288888889  201.361421674877 9.727848  201.361421674877 9.727848  C 201.361421674877 9.727848  202.911827586207 10.2177862222222  202.911827586207 10.2177862222222  C 202.911827586207 10.2177862222222  206.046206896552 10.2177862222222  206.046206896552 10.2177862222222  C 206.046206896552 10.2177862222222  207.4457408867 9.43869333333333  207.4457408867 9.43869333333333  C 207.4457408867 9.43869333333333  208.538199014778 8.11367555555555  208.538199014778 8.11367555555555  C 208.538199014778 8.11367555555555  208.886598029557 6.48040177777778  208.886598029557 6.48040177777778  C 208.886598029557 6.48040177777778  210.033709359606 5.87728266666667  210.033709359606 5.87728266666667  C 210.033709359606 5.87728266666667  212.628948768473 5.21795733333333  212.628948768473 5.21795733333333  C 212.628948768473 5.21795733333333  213.523273891626 4.01215822222222  213.523273891626 4.01215822222222  C 213.523273891626 4.01215822222222  214.226858128079 2.20302044444444  214.226858128079 2.20302044444444  C 214.226858128079 2.20302044444444  215.073316256158 1.65698577777778  215.073316256158 1.65698577777778  C 215.073316256158 1.65698577777778  218.7678 1.53721822222222  218.7678 1.53721822222222  C 218.7678 1.53721822222222  219.150008866995 0.790290222222225  219.150008866995 0.790290222222225  C 219.150008866995 0.790290222222225  220.570265024631 1.81374844444445  220.570265024631 1.81374844444445  C 220.570265024631 1.81374844444445  221.738098522167 1.81374844444445  221.738098522167 1.81374844444445  C 221.738098522167 1.81374844444445  222.386666009852 2.52368133333334  222.386666009852 2.52368133333334  C 222.386666009852 2.52368133333334  224.087216748768 3.03875866666666  224.087216748768 3.03875866666666  C 224.087216748768 3.03875866666666  227.043942857143 4.78466444444444  227.043942857143 4.78466444444444  C 227.043942857143 4.78466444444444  229.304355665025 5.21795733333333  229.304355665025 5.21795733333333  C 229.304355665025 5.21795733333333  230.335132019704 5.75147733333333  230.335132019704 5.75147733333333  C 230.335132019704 5.75147733333333  235.777669950739 5.88375955555555  235.777669950739 5.88375955555555  C 235.777669950739 5.88375955555555  237.98342955665 8.55948311111111  237.98342955665 8.55948311111111  C 237.98342955665 8.55948311111111  238.877754679803 10.4818017777778  238.877754679803 10.4818017777778  C 238.877754679803 10.4818017777778  239.041714285714 12.2527368888889  239.041714285714 12.2527368888889  C 239.041714285714 12.2527368888889  239.690402955665 14.1440982222222  239.690402955665 14.1440982222222  C 239.690402955665 14.1440982222222  241.602295566502 15.5513395555556  241.602295566502 15.5513395555556  C 241.602295566502 15.5513395555556  242.599262068966 17.8629302222222  242.599262068966 17.8629302222222  C 242.599262068966 17.8629302222222  244.422449261084 26.8292497777778  244.422449261084 26.8292497777778  C 244.422449261084 26.8292497777778  240.134293596059 27.9290035555556  240.134293596059 27.9290035555556  C 240.134293596059 27.9290035555556  238.86418226601 28.8527835555556  238.86418226601 28.8527835555556  C 238.86418226601 28.8527835555556  238.488759605911 31.2786528888889  238.488759605911 31.2786528888889  C 238.488759605911 31.2786528888889  245.009819704434 50.5702311111111  245.009819704434 50.5702311111111  C 245.009819704434 50.5702311111111  238.120001970443 53.0729448888889  238.120001970443 53.0729448888889  C 238.120001970443 53.0729448888889  233.250898522167 39.3489662222222  233.250898522167 39.3489662222222  C 233.250898522167 39.3489662222222  235.217807881773 31.2852395555556  235.217807881773 31.2852395555556  C 235.217807881773 31.2852395555556  233.961268965517 29.9214702222222  233.961268965517 29.9214702222222  C 233.961268965517 29.9214702222222  232.513504433498 29.8773395555556  232.513504433498 29.8773395555556  C 232.513504433498 29.8773395555556  229.727645320197 30.5872724444444  229.727645320197 30.5872724444444  C 229.727645320197 30.5872724444444  228.68281182266 31.2411088888889  228.68281182266 31.2411088888889  C 228.68281182266 31.2411088888889  227.091809852217 34.0187062222222  227.091809852217 34.0187062222222  C 227.091809852217 34.0187062222222  223.950644334975 36.4451244444444  223.950644334975 36.4451244444444  C 223.950644334975 36.4451244444444  219.334327093596 38.6325564444444  219.334327093596 38.6325564444444  C 219.334327093596 38.6325564444444  213.885124137931 42.1902346666667  213.885124137931 42.1902346666667  C 213.885124137931 42.1902346666667  211.39264729064 45.8110351111111  211.39264729064 45.8110351111111  C 211.39264729064 45.8110351111111  209.118783251232 57.1662288888889  209.118783251232 57.1662288888889  C 209.118783251232 57.1662288888889  205.281304433498 65.957892  205.281304433498 65.957892  C 205.281304433498 65.957892  203.355354679803 72.6317222222222  203.355354679803 72.6317222222222  C 203.355354679803 72.6317222222222  201.826034482759 78.5385351111111  201.826034482759 78.5385351111111  C 201.826034482759 78.5385351111111  202.037497536946 91.4943986666667  202.037497536946 91.4943986666667  C 202.037497536946 91.4943986666667  203.300822660099 102.496217777778  203.300822660099 102.496217777778  C 203.300822660099 102.496217777778  203.300822660099 109.061807111111  203.300822660099 109.061807111111  C 203.300822660099 109.061807111111  202.45436453202 113.324478222222  202.45436453202 113.324478222222  C 202.45436453202 113.324478222222  200.624027586207 119.501344444444  200.624027586207 119.501344444444  C 200.624027586207 119.501344444444  197.817325123153 129.321076444444  197.817325123153 129.321076444444  C 197.817325123153 129.321076444444  198.86215862069 132.231395111111  198.86215862069 132.231395111111  C 198.86215862069 132.231395111111  201.675526108374 134.001232444444  201.675526108374 134.001232444444  C 201.675526108374 134.001232444444  202.9254 136.785416444444  202.9254 136.785416444444  C 202.9254 136.785416444444  201.464184236453 144.609608  201.464184236453 144.609608  C 201.464184236453 144.609608  202.542706403941 147.46394  202.542706403941 147.46394  C 202.542706403941 147.46394  204.837413793103 149.927902222222  204.837413793103 149.927902222222  C 204.837413793103 149.927902222222  206.155270935961 153.670665777778  206.155270935961 153.670665777778  C 206.155270935961 153.670665777778  205.895698522167 156.1287  205.895698522167 156.1287  C 205.895698522167 156.1287  203.22605320197 158.536016888889  203.22605320197 158.536016888889  C 203.22605320197 158.536016888889  202.843359605911 160.074003555556  202.843359605911 160.074003555556  C 202.843359605911 160.074003555556  204.447933990148 163.464490222222  204.447933990148 163.464490222222  Z M 236.132855172414 139.675426222222  C 236.132855172414 139.675426222222  235.1082591133 140.424988888889  235.1082591133 140.424988888889  C 235.1082591133 140.424988888889  234.132014778325 140.267677333333  234.132014778325 140.267677333333  C 234.132014778325 140.267677333333  231.233577339902 143.431472888889  231.233577339902 143.431472888889  C 231.233577339902 143.431472888889  230.632392118227 143.009596888889  230.632392118227 143.009596888889  C 230.632392118227 143.009596888889  231.936798029557 139.971496888889  231.936798029557 139.971496888889  C 231.936798029557 139.971496888889  235.402126108374 138.862521777778  235.402126108374 138.862521777778  C 235.402126108374 138.862521777778  236.132855172414 139.675426222222  236.132855172414 139.675426222222  Z " fill-rule="evenodd" />
    </mask>
  </defs>
  <g transform="matrix(1 0 0 1 -845 -117 )">
    <path d="M 204.447933990148 163.464490222222  C 204.447933990148 163.464490222222  214.103736945813 178.796054666667  214.103736945813 178.796054666667  C 214.103736945813 178.796054666667  208.231244334975 184.994656888889  208.231244334975 184.994656888889  C 208.231244334975 184.994656888889  206.742520197044 187.687835111111  206.742520197044 187.687835111111  C 206.742520197044 187.687835111111  205.814021674877 190.065292444444  205.814021674877 190.065292444444  C 205.814021674877 190.065292444444  205.964166502463 192.550002666667  205.964166502463 192.550002666667  C 205.964166502463 192.550002666667  207.541717241379 195.110898666667  207.541717241379 195.110898666667  C 207.541717241379 195.110898666667  207.541717241379 197.331483555556  207.541717241379 197.331483555556  C 207.541717241379 197.331483555556  204.837413793103 202.100449777778  204.837413793103 202.100449777778  C 204.837413793103 202.100449777778  202.563428571429 203.973807555556  202.563428571429 203.973807555556  C 202.563428571429 203.973807555556  200.664987192118 204.554092888889  200.664987192118 204.554092888889  C 200.664987192118 204.554092888889  199.326892610837 205.854191111111  199.326892610837 205.854191111111  C 199.326892610837 205.854191111111  198.629973399015 207.651802222222  198.629973399015 207.651802222222  C 198.629973399015 207.651802222222  198.152272906404 212.094179555556  198.152272906404 212.094179555556  C 198.152272906404 212.094179555556  197.278306403941 214.025170666667  197.278306403941 214.025170666667  C 197.278306403941 214.025170666667  196.786548768473 217.603048  196.786548768473 217.603048  C 196.786548768473 217.603048  197.09398817734 219.281440444444  197.09398817734 219.281440444444  C 197.09398817734 219.281440444444  197.83138226601 220.581428888889  197.83138226601 220.581428888889  C 197.83138226601 220.581428888889  200.125483743842 222.670829333333  200.125483743842 222.670829333333  C 200.125483743842 222.670829333333  200.214310344828 225.245886666667  200.214310344828 225.245886666667  C 200.214310344828 225.245886666667  199.804593103448 227.007051555556  199.804593103448 227.007051555556  C 199.804593103448 227.007051555556  197.257584236453 231.816855111111  197.257584236453 231.816855111111  C 197.257584236453 231.816855111111  196.622467980296 234.518815555556  196.622467980296 234.518815555556  C 196.622467980296 234.518815555556  195.946392118227 236.084466222222  195.946392118227 236.084466222222  C 195.946392118227 236.084466222222  194.437430541872 238.268604888889  194.437430541872 238.268604888889  C 194.437430541872 238.268604888889  192.914896551724 239.285037333333  192.914896551724 239.285037333333  C 192.914896551724 239.285037333333  190.777483743842 239.512606666667  190.777483743842 239.512606666667  C 190.777483743842 239.512606666667  190.005916256158 240.163149777778  190.005916256158 240.163149777778  C 190.005916256158 240.163149777778  188.769614778325 243.004418222222  188.769614778325 243.004418222222  C 188.769614778325 243.004418222222  187.048705418719 241.659201333333  187.048705418719 241.659201333333  C 187.048705418719 241.659201333333  186.229270935961 241.602556  186.229270935961 241.602556  C 186.229270935961 241.602556  178.485845320197 242.524250222222  178.485845320197 242.524250222222  C 178.485845320197 242.524250222222  176.655993103448 242.574857777778  176.655993103448 242.574857777778  C 176.655993103448 242.574857777778  167.28 241.653273333333  167.28 241.653273333333  C 167.28 241.653273333333  164.132169458128 241.974922222222  164.132169458128 241.974922222222  C 164.132169458128 241.974922222222  152.264184236453 246.010133777778  152.264184236453 246.010133777778  C 152.264184236453 246.010133777778  150.140465024631 246.344407111111  150.140465024631 246.344407111111  C 150.140465024631 246.344407111111  139.139660098522 246.294238666667  139.139660098522 246.294238666667  C 139.139660098522 246.294238666667  135.786789162562 244.993152444444  135.786789162562 244.993152444444  C 135.786789162562 244.993152444444  134.434516256158 244.064981333333  134.434516256158 244.064981333333  C 134.434516256158 244.064981333333  130.671928078818 238.798941333333  130.671928078818 238.798941333333  C 130.671928078818 238.798941333333  129.00603546798 237.397628  129.00603546798 237.397628  C 129.00603546798 237.397628  127.066634482759 236.368680888889  127.066634482759 236.368680888889  C 127.066634482759 236.368680888889  118.240808866995 233.824141777778  118.240808866995 233.824141777778  C 118.240808866995 233.824141777778  115.161446305419 233.300392  115.161446305419 233.300392  C 115.161446305419 233.300392  111.835477832512 233.565505333333  111.835477832512 233.565505333333  C 111.835477832512 233.565505333333  105.007099507389 236.8483  105.007099507389 236.8483  C 105.007099507389 236.8483  101.756991133005 238.338313777778  101.756991133005 238.338313777778  C 101.756991133005 238.338313777778  99.3190463054187 239.114662222222  99.3190463054187 239.114662222222  C 99.3190463054187 239.114662222222  95.8092443349753 238.773912  95.8092443349753 238.773912  C 95.8092443349753 238.773912  89.2331674876847 236.235849777778  89.2331674876847 236.235849777778  C 89.2331674876847 236.235849777778  88.1130798029557 235.661492444444  88.1130798029557 235.661492444444  C 88.1130798029557 235.661492444444  83.025848275862 231.665581333333  83.025848275862 231.665581333333  C 83.025848275862 231.665581333333  73.8346581280788 224.116273333333  73.8346581280788 224.116273333333  C 73.8346581280788 224.116273333333  64.5070167487685 217.836545333333  64.5070167487685 217.836545333333  C 64.5070167487685 217.836545333333  59.815445320197 214.510827555556  59.815445320197 214.510827555556  C 59.815445320197 214.510827555556  57.3027310344828 211.658581333333  57.3027310344828 211.658581333333  C 57.3027310344828 211.658581333333  55.5547980295566 207.853793333333  55.5547980295566 207.853793333333  C 55.5547980295566 207.853793333333  51.7647014778325 202.157095111111  51.7647014778325 202.157095111111  C 51.7647014778325 202.157095111111  50.2899133004926 200.491766222222  50.2899133004926 200.491766222222  C 50.2899133004926 200.491766222222  47.9885408866995 199.021841777778  47.9885408866995 199.021841777778  C 47.9885408866995 199.021841777778  40.1287802955665 195.735314666667  40.1287802955665 195.735314666667  C 40.1287802955665 195.735314666667  38.1482985221675 195.337919111111  38.1482985221675 195.337919111111  C 38.1482985221675 195.337919111111  34.9802305418719 195.413556  34.9802305418719 195.413556  C 34.9802305418719 195.413556  26.1438620689655 194.915384444444  26.1438620689655 194.915384444444  C 26.1438620689655 194.915384444444  18.6460729064039 195.571416444444  18.6460729064039 195.571416444444  C 18.6460729064039 195.571416444444  11.3803477832512 196.309672  11.3803477832512 196.309672  C 11.3803477832512 196.309672  4.77736847290639 198.636960888889  4.77736847290639 198.636960888889  C 4.77736847290639 198.636960888889  2.87892709359605 198.454071111111  2.87892709359605 198.454071111111  C 2.87892709359605 198.454071111111  2.78331428571427 196.820248444444  2.78331428571427 196.820248444444  C 2.78331428571427 196.820248444444  3.13171330049263 194.347613777778  3.13171330049263 194.347613777778  C 3.13171330049263 194.347613777778  3.07669655172415 188.192044444444  3.07669655172415 188.192044444444  C 3.07669655172415 188.192044444444  3.29530935960592 181.104352  3.29530935960592 181.104352  C 3.29530935960592 181.104352  4.92739211822661 177.478611555556  4.92739211822661 177.478611555556  C 4.92739211822661 177.478611555556  5.77433497536944 173.311227555556  5.77433497536944 173.311227555556  C 5.77433497536944 173.311227555556  4.68175566502465 168.336976888889  4.68175566502465 168.336976888889  C 4.68175566502465 168.336976888889  7.2900827586207 164.737912444444  7.2900827586207 164.737912444444  C 7.2900827586207 164.737912444444  7.09219211822659 163.590844444444  7.09219211822659 163.590844444444  C 7.09219211822659 163.590844444444  5.99294778325124 162.620189333333  5.99294778325124 162.620189333333  C 5.99294778325124 162.620189333333  0.90559507389162 157.426492888889  0.90559507389162 157.426492888889  C 0.90559507389162 157.426492888889  0.106519211822649 155.554891555556  0.106519211822649 155.554891555556  C 0.106519211822649 155.554891555556  1.25363054187193 153.443645333333  1.25363054187193 153.443645333333  C 1.25363054187193 153.443645333333  2.80367290640395 153.443645333333  2.80367290640395 153.443645333333  C 2.80367290640395 153.443645333333  5.34389556650245 154.288056  5.34389556650245 154.288056  C 5.34389556650245 154.288056  6.76451527093596 154.420887111111  6.76451527093596 154.420887111111  C 6.76451527093596 154.420887111111  10.1445310344827 153.702281777778  10.1445310344827 153.702281777778  C 10.1445310344827 153.702281777778  13.9959458128079 155.221167111111  13.9959458128079 155.221167111111  C 13.9959458128079 155.221167111111  15.3683349753694 154.98756  15.3683349753694 154.98756  C 15.3683349753694 154.98756  16.3379142857143 153.708758666667  16.3379142857143 153.708758666667  C 16.3379142857143 153.708758666667  17.293921182266 149.984547555556  17.293921182266 149.984547555556  C 17.293921182266 149.984547555556  16.8160995073892 146.166037333333  16.8160995073892 146.166037333333  C 16.8160995073892 146.166037333333  17.2190305418719 140.300610666667  17.2190305418719 140.300610666667  C 17.2190305418719 140.300610666667  18.4549684729064 136.249700888889  18.4549684729064 136.249700888889  C 18.4549684729064 136.249700888889  19.5475477832512 134.385674222222  19.5475477832512 134.385674222222  C 19.5475477832512 134.385674222222  21.7803310344828 131.658135555556  21.7803310344828 131.658135555556  C 21.7803310344828 131.658135555556  23.4399221674877 127.274599111111  23.4399221674877 127.274599111111  C 23.4399221674877 127.274599111111  28.622766502463 116.957354222222  28.622766502463 116.957354222222  C 28.622766502463 116.957354222222  37.3563724137931 105.209046222222  37.3563724137931 105.209046222222  C 37.3563724137931 105.209046222222  39.1525359605912 102.993291555556  39.1525359605912 102.993291555556  C 39.1525359605912 102.993291555556  40.9279773399015 101.778710222222  40.9279773399015 101.778710222222  C 40.9279773399015 101.778710222222  42.60780591133 99.0659915555556  42.60780591133 99.0659915555556  C 42.60780591133 99.0659915555556  41.9249438423646 88.9204391111111  41.9249438423646 88.9204391111111  C 41.9249438423646 88.9204391111111  42.5735113300493 84.5161546666667  42.5735113300493 84.5161546666667  C 42.5735113300493 84.5161546666667  42.6757891625616 80.4075017777778  42.6757891625616 80.4075017777778  C 42.6757891625616 80.4075017777778  43.1198009852217 78.2369755555556  43.1198009852217 78.2369755555556  C 43.1198009852217 78.2369755555556  44.1167674876847 76.0033271111111  44.1167674876847 76.0033271111111  C 44.1167674876847 76.0033271111111  44.5675655172414 72.2670404444444  44.5675655172414 72.2670404444444  C 44.5675655172414 72.2670404444444  43.8706463054187 61.6374777777778  43.8706463054187 61.6374777777778  C 43.8706463054187 61.6374777777778  43.3722236453202 59.4680493333333  43.3722236453202 59.4680493333333  C 43.3722236453202 59.4680493333333  43.3722236453202 54.5754733333333  43.3722236453202 54.5754733333333  C 43.3722236453202 54.5754733333333  44.6562709359606 52.3308471111111  44.6562709359606 52.3308471111111  C 44.6562709359606 52.3308471111111  47.6472916256157 51.90952  47.6472916256157 51.90952  C 47.6472916256157 51.90952  53.8749694581281 49.9289093333333  53.8749694581281 49.9289093333333  C 53.8749694581281 49.9289093333333  62.0077536945813 46.0691226666667  62.0077536945813 46.0691226666667  C 62.0077536945813 46.0691226666667  63.5577960591133 44.9813346666667  63.5577960591133 44.9813346666667  C 63.5577960591133 44.9813346666667  65.3057290640394 42.5675408888889  65.3057290640394 42.5675408888889  C 65.3057290640394 42.5675408888889  67.5525694581281 42.2653226666667  67.5525694581281 42.2653226666667  C 67.5525694581281 42.2653226666667  72.250442364532 40.9331693333333  72.250442364532 40.9331693333333  C 72.250442364532 40.9331693333333  73.1519172413793 40.876524  73.1519172413793 40.876524  C 73.1519172413793 40.876524  74.5518147783251 41.7753844444444  74.5518147783251 41.7753844444444  C 74.5518147783251 41.7753844444444  76.8460374384236 44.9748577777778  76.8460374384236 44.9748577777778  C 76.8460374384236 44.9748577777778  78.252721182266 45.8741573333333  78.252721182266 45.8741573333333  C 78.252721182266 45.8741573333333  80.6495852216749 46.3581675555556  80.6495852216749 46.3581675555556  C 80.6495852216749 46.3581675555556  83.8794561576355 45.5661208888889  83.8794561576355 45.5661208888889  C 83.8794561576355 45.5661208888889  89.8614975369458 43.2839506666667  89.8614975369458 43.2839506666667  C 89.8614975369458 43.2839506666667  92.6406916256158 42.6110128888889  92.6406916256158 42.6110128888889  C 92.6406916256158 42.6110128888889  95.7951871921182 42.5734688888889  95.7951871921182 42.5734688888889  C 95.7951871921182 42.5734688888889  98.6771438423645 41.8946031111111  98.6771438423645 41.8946031111111  C 98.6771438423645 41.8946031111111  101.811523152709 42.3410693333333  101.811523152709 42.3410693333333  C 101.811523152709 42.3410693333333  103.484565517241 41.3980782222222  103.484565517241 41.3980782222222  C 103.484565517241 41.3980782222222  105.314538916256 39.7006942222222  105.314538916256 39.7006942222222  C 105.314538916256 39.7006942222222  107.772721182266 39.1164568888889  107.772721182266 39.1164568888889  C 107.772721182266 39.1164568888889  110.654193103448 39.4365688888889  110.654193103448 39.4365688888889  C 110.654193103448 39.4365688888889  117.619628571429 38.4561435555556  117.619628571429 38.4561435555556  C 117.619628571429 38.4561435555556  123.413473891626 40.6375377777778  123.413473891626 40.6375377777778  C 123.413473891626 40.6375377777778  131.170471921182 40.2793328888889  131.170471921182 40.2793328888889  C 131.170471921182 40.2793328888889  134.250198029557 40.4868128888889  134.250198029557 40.4868128888889  C 134.250198029557 40.4868128888889  137.152392118227 39.6065048888889  137.152392118227 39.6065048888889  C 137.152392118227 39.6065048888889  139.747267980296 37.7272191111111  139.747267980296 37.7272191111111  C 139.747267980296 37.7272191111111  141.850749753695 37.6330297777778  141.850749753695 37.6330297777778  C 141.850749753695 37.6330297777778  146.794259113301 37.9029733333333  146.794259113301 37.9029733333333  C 146.794259113301 37.9029733333333  148.276197044335 37.7772777777778  148.276197044335 37.7772777777778  C 148.276197044335 37.7772777777778  154.087371428571 38.04788  154.087371428571 38.04788  C 154.087371428571 38.04788  158.232289655172 38.6575857777778  158.232289655172 38.6575857777778  C 158.232289655172 38.6575857777778  160.553899507389 37.6580591111111  160.553899507389 37.6580591111111  C 160.553899507389 37.6580591111111  160.827044334975 36.9981848888889  160.827044334975 36.9981848888889  C 160.827044334975 36.9981848888889  160.88157635468 30.4179951111111  160.88157635468 30.4179951111111  C 160.88157635468 30.4179951111111  164.917309359606 27.099852  164.917309359606 27.099852  C 164.917309359606 27.099852  167.559931034483 19.1073711111111  167.559931034483 19.1073711111111  C 167.559931034483 19.1073711111111  168.809804926108 16.1479817777778  168.809804926108 16.1479817777778  C 168.809804926108 16.1479817777778  170.353061083744 15.3063155555556  170.353061083744 15.3063155555556  C 170.353061083744 15.3063155555556  174.361285714286 14.8599591111111  174.361285714286 14.8599591111111  C 174.361285714286 14.8599591111111  178.246995073892 13.6034426666667  178.246995073892 13.6034426666667  C 178.246995073892 13.6034426666667  183.825620689655 10.2368875555556  183.825620689655 10.2368875555556  C 183.825620689655 10.2368875555556  185.423893596059 9.75287733333333  185.423893596059 9.75287733333333  C 185.423893596059 9.75287733333333  190.25155270936 9.64617333333333  190.25155270936 9.64617333333333  C 190.25155270936 9.64617333333333  192.095462068966 8.74786177777778  192.095462068966 8.74786177777778  C 192.095462068966 8.74786177777778  198.172510344828 8.21379288888889  198.172510344828 8.21379288888889  C 198.172510344828 8.21379288888889  201.361421674877 9.727848  201.361421674877 9.727848  C 201.361421674877 9.727848  202.911827586207 10.2177862222222  202.911827586207 10.2177862222222  C 202.911827586207 10.2177862222222  206.046206896552 10.2177862222222  206.046206896552 10.2177862222222  C 206.046206896552 10.2177862222222  207.4457408867 9.43869333333333  207.4457408867 9.43869333333333  C 207.4457408867 9.43869333333333  208.538199014778 8.11367555555555  208.538199014778 8.11367555555555  C 208.538199014778 8.11367555555555  208.886598029557 6.48040177777778  208.886598029557 6.48040177777778  C 208.886598029557 6.48040177777778  210.033709359606 5.87728266666667  210.033709359606 5.87728266666667  C 210.033709359606 5.87728266666667  212.628948768473 5.21795733333333  212.628948768473 5.21795733333333  C 212.628948768473 5.21795733333333  213.523273891626 4.01215822222222  213.523273891626 4.01215822222222  C 213.523273891626 4.01215822222222  214.226858128079 2.20302044444444  214.226858128079 2.20302044444444  C 214.226858128079 2.20302044444444  215.073316256158 1.65698577777778  215.073316256158 1.65698577777778  C 215.073316256158 1.65698577777778  218.7678 1.53721822222222  218.7678 1.53721822222222  C 218.7678 1.53721822222222  219.150008866995 0.790290222222225  219.150008866995 0.790290222222225  C 219.150008866995 0.790290222222225  220.570265024631 1.81374844444445  220.570265024631 1.81374844444445  C 220.570265024631 1.81374844444445  221.738098522167 1.81374844444445  221.738098522167 1.81374844444445  C 221.738098522167 1.81374844444445  222.386666009852 2.52368133333334  222.386666009852 2.52368133333334  C 222.386666009852 2.52368133333334  224.087216748768 3.03875866666666  224.087216748768 3.03875866666666  C 224.087216748768 3.03875866666666  227.043942857143 4.78466444444444  227.043942857143 4.78466444444444  C 227.043942857143 4.78466444444444  229.304355665025 5.21795733333333  229.304355665025 5.21795733333333  C 229.304355665025 5.21795733333333  230.335132019704 5.75147733333333  230.335132019704 5.75147733333333  C 230.335132019704 5.75147733333333  235.777669950739 5.88375955555555  235.777669950739 5.88375955555555  C 235.777669950739 5.88375955555555  237.98342955665 8.55948311111111  237.98342955665 8.55948311111111  C 237.98342955665 8.55948311111111  238.877754679803 10.4818017777778  238.877754679803 10.4818017777778  C 238.877754679803 10.4818017777778  239.041714285714 12.2527368888889  239.041714285714 12.2527368888889  C 239.041714285714 12.2527368888889  239.690402955665 14.1440982222222  239.690402955665 14.1440982222222  C 239.690402955665 14.1440982222222  241.602295566502 15.5513395555556  241.602295566502 15.5513395555556  C 241.602295566502 15.5513395555556  242.599262068966 17.8629302222222  242.599262068966 17.8629302222222  C 242.599262068966 17.8629302222222  244.422449261084 26.8292497777778  244.422449261084 26.8292497777778  C 244.422449261084 26.8292497777778  240.134293596059 27.9290035555556  240.134293596059 27.9290035555556  C 240.134293596059 27.9290035555556  238.86418226601 28.8527835555556  238.86418226601 28.8527835555556  C 238.86418226601 28.8527835555556  238.488759605911 31.2786528888889  238.488759605911 31.2786528888889  C 238.488759605911 31.2786528888889  245.009819704434 50.5702311111111  245.009819704434 50.5702311111111  C 245.009819704434 50.5702311111111  238.120001970443 53.0729448888889  238.120001970443 53.0729448888889  C 238.120001970443 53.0729448888889  233.250898522167 39.3489662222222  233.250898522167 39.3489662222222  C 233.250898522167 39.3489662222222  235.217807881773 31.2852395555556  235.217807881773 31.2852395555556  C 235.217807881773 31.2852395555556  233.961268965517 29.9214702222222  233.961268965517 29.9214702222222  C 233.961268965517 29.9214702222222  232.513504433498 29.8773395555556  232.513504433498 29.8773395555556  C 232.513504433498 29.8773395555556  229.727645320197 30.5872724444444  229.727645320197 30.5872724444444  C 229.727645320197 30.5872724444444  228.68281182266 31.2411088888889  228.68281182266 31.2411088888889  C 228.68281182266 31.2411088888889  227.091809852217 34.0187062222222  227.091809852217 34.0187062222222  C 227.091809852217 34.0187062222222  223.950644334975 36.4451244444444  223.950644334975 36.4451244444444  C 223.950644334975 36.4451244444444  219.334327093596 38.6325564444444  219.334327093596 38.6325564444444  C 219.334327093596 38.6325564444444  213.885124137931 42.1902346666667  213.885124137931 42.1902346666667  C 213.885124137931 42.1902346666667  211.39264729064 45.8110351111111  211.39264729064 45.8110351111111  C 211.39264729064 45.8110351111111  209.118783251232 57.1662288888889  209.118783251232 57.1662288888889  C 209.118783251232 57.1662288888889  205.281304433498 65.957892  205.281304433498 65.957892  C 205.281304433498 65.957892  203.355354679803 72.6317222222222  203.355354679803 72.6317222222222  C 203.355354679803 72.6317222222222  201.826034482759 78.5385351111111  201.826034482759 78.5385351111111  C 201.826034482759 78.5385351111111  202.037497536946 91.4943986666667  202.037497536946 91.4943986666667  C 202.037497536946 91.4943986666667  203.300822660099 102.496217777778  203.300822660099 102.496217777778  C 203.300822660099 102.496217777778  203.300822660099 109.061807111111  203.300822660099 109.061807111111  C 203.300822660099 109.061807111111  202.45436453202 113.324478222222  202.45436453202 113.324478222222  C 202.45436453202 113.324478222222  200.624027586207 119.501344444444  200.624027586207 119.501344444444  C 200.624027586207 119.501344444444  197.817325123153 129.321076444444  197.817325123153 129.321076444444  C 197.817325123153 129.321076444444  198.86215862069 132.231395111111  198.86215862069 132.231395111111  C 198.86215862069 132.231395111111  201.675526108374 134.001232444444  201.675526108374 134.001232444444  C 201.675526108374 134.001232444444  202.9254 136.785416444444  202.9254 136.785416444444  C 202.9254 136.785416444444  201.464184236453 144.609608  201.464184236453 144.609608  C 201.464184236453 144.609608  202.542706403941 147.46394  202.542706403941 147.46394  C 202.542706403941 147.46394  204.837413793103 149.927902222222  204.837413793103 149.927902222222  C 204.837413793103 149.927902222222  206.155270935961 153.670665777778  206.155270935961 153.670665777778  C 206.155270935961 153.670665777778  205.895698522167 156.1287  205.895698522167 156.1287  C 205.895698522167 156.1287  203.22605320197 158.536016888889  203.22605320197 158.536016888889  C 203.22605320197 158.536016888889  202.843359605911 160.074003555556  202.843359605911 160.074003555556  C 202.843359605911 160.074003555556  204.447933990148 163.464490222222  204.447933990148 163.464490222222  Z M 236.132855172414 139.675426222222  C 236.132855172414 139.675426222222  235.1082591133 140.424988888889  235.1082591133 140.424988888889  C 235.1082591133 140.424988888889  234.132014778325 140.267677333333  234.132014778325 140.267677333333  C 234.132014778325 140.267677333333  231.233577339902 143.431472888889  231.233577339902 143.431472888889  C 231.233577339902 143.431472888889  230.632392118227 143.009596888889  230.632392118227 143.009596888889  C 230.632392118227 143.009596888889  231.936798029557 139.971496888889  231.936798029557 139.971496888889  C 231.936798029557 139.971496888889  235.402126108374 138.862521777778  235.402126108374 138.862521777778  C 235.402126108374 138.862521777778  236.132855172414 139.675426222222  236.132855172414 139.675426222222  Z " fill-rule="nonzero" fill="#409eff" stroke="none" fill-opacity="0.298039215686275" transform="matrix(1 0 0 1 845 117 )" />
    <path d="M 204.447933990148 163.464490222222  C 204.447933990148 163.464490222222  214.103736945813 178.796054666667  214.103736945813 178.796054666667  C 214.103736945813 178.796054666667  208.231244334975 184.994656888889  208.231244334975 184.994656888889  C 208.231244334975 184.994656888889  206.742520197044 187.687835111111  206.742520197044 187.687835111111  C 206.742520197044 187.687835111111  205.814021674877 190.065292444444  205.814021674877 190.065292444444  C 205.814021674877 190.065292444444  205.964166502463 192.550002666667  205.964166502463 192.550002666667  C 205.964166502463 192.550002666667  207.541717241379 195.110898666667  207.541717241379 195.110898666667  C 207.541717241379 195.110898666667  207.541717241379 197.331483555556  207.541717241379 197.331483555556  C 207.541717241379 197.331483555556  204.837413793103 202.100449777778  204.837413793103 202.100449777778  C 204.837413793103 202.100449777778  202.563428571429 203.973807555556  202.563428571429 203.973807555556  C 202.563428571429 203.973807555556  200.664987192118 204.554092888889  200.664987192118 204.554092888889  C 200.664987192118 204.554092888889  199.326892610837 205.854191111111  199.326892610837 205.854191111111  C 199.326892610837 205.854191111111  198.629973399015 207.651802222222  198.629973399015 207.651802222222  C 198.629973399015 207.651802222222  198.152272906404 212.094179555556  198.152272906404 212.094179555556  C 198.152272906404 212.094179555556  197.278306403941 214.025170666667  197.278306403941 214.025170666667  C 197.278306403941 214.025170666667  196.786548768473 217.603048  196.786548768473 217.603048  C 196.786548768473 217.603048  197.09398817734 219.281440444444  197.09398817734 219.281440444444  C 197.09398817734 219.281440444444  197.83138226601 220.581428888889  197.83138226601 220.581428888889  C 197.83138226601 220.581428888889  200.125483743842 222.670829333333  200.125483743842 222.670829333333  C 200.125483743842 222.670829333333  200.214310344828 225.245886666667  200.214310344828 225.245886666667  C 200.214310344828 225.245886666667  199.804593103448 227.007051555556  199.804593103448 227.007051555556  C 199.804593103448 227.007051555556  197.257584236453 231.816855111111  197.257584236453 231.816855111111  C 197.257584236453 231.816855111111  196.622467980296 234.518815555556  196.622467980296 234.518815555556  C 196.622467980296 234.518815555556  195.946392118227 236.084466222222  195.946392118227 236.084466222222  C 195.946392118227 236.084466222222  194.437430541872 238.268604888889  194.437430541872 238.268604888889  C 194.437430541872 238.268604888889  192.914896551724 239.285037333333  192.914896551724 239.285037333333  C 192.914896551724 239.285037333333  190.777483743842 239.512606666667  190.777483743842 239.512606666667  C 190.777483743842 239.512606666667  190.005916256158 240.163149777778  190.005916256158 240.163149777778  C 190.005916256158 240.163149777778  188.769614778325 243.004418222222  188.769614778325 243.004418222222  C 188.769614778325 243.004418222222  187.048705418719 241.659201333333  187.048705418719 241.659201333333  C 187.048705418719 241.659201333333  186.229270935961 241.602556  186.229270935961 241.602556  C 186.229270935961 241.602556  178.485845320197 242.524250222222  178.485845320197 242.524250222222  C 178.485845320197 242.524250222222  176.655993103448 242.574857777778  176.655993103448 242.574857777778  C 176.655993103448 242.574857777778  167.28 241.653273333333  167.28 241.653273333333  C 167.28 241.653273333333  164.132169458128 241.974922222222  164.132169458128 241.974922222222  C 164.132169458128 241.974922222222  152.264184236453 246.010133777778  152.264184236453 246.010133777778  C 152.264184236453 246.010133777778  150.140465024631 246.344407111111  150.140465024631 246.344407111111  C 150.140465024631 246.344407111111  139.139660098522 246.294238666667  139.139660098522 246.294238666667  C 139.139660098522 246.294238666667  135.786789162562 244.993152444444  135.786789162562 244.993152444444  C 135.786789162562 244.993152444444  134.434516256158 244.064981333333  134.434516256158 244.064981333333  C 134.434516256158 244.064981333333  130.671928078818 238.798941333333  130.671928078818 238.798941333333  C 130.671928078818 238.798941333333  129.00603546798 237.397628  129.00603546798 237.397628  C 129.00603546798 237.397628  127.066634482759 236.368680888889  127.066634482759 236.368680888889  C 127.066634482759 236.368680888889  118.240808866995 233.824141777778  118.240808866995 233.824141777778  C 118.240808866995 233.824141777778  115.161446305419 233.300392  115.161446305419 233.300392  C 115.161446305419 233.300392  111.835477832512 233.565505333333  111.835477832512 233.565505333333  C 111.835477832512 233.565505333333  105.007099507389 236.8483  105.007099507389 236.8483  C 105.007099507389 236.8483  101.756991133005 238.338313777778  101.756991133005 238.338313777778  C 101.756991133005 238.338313777778  99.3190463054187 239.114662222222  99.3190463054187 239.114662222222  C 99.3190463054187 239.114662222222  95.8092443349753 238.773912  95.8092443349753 238.773912  C 95.8092443349753 238.773912  89.2331674876847 236.235849777778  89.2331674876847 236.235849777778  C 89.2331674876847 236.235849777778  88.1130798029557 235.661492444444  88.1130798029557 235.661492444444  C 88.1130798029557 235.661492444444  83.025848275862 231.665581333333  83.025848275862 231.665581333333  C 83.025848275862 231.665581333333  73.8346581280788 224.116273333333  73.8346581280788 224.116273333333  C 73.8346581280788 224.116273333333  64.5070167487685 217.836545333333  64.5070167487685 217.836545333333  C 64.5070167487685 217.836545333333  59.815445320197 214.510827555556  59.815445320197 214.510827555556  C 59.815445320197 214.510827555556  57.3027310344828 211.658581333333  57.3027310344828 211.658581333333  C 57.3027310344828 211.658581333333  55.5547980295566 207.853793333333  55.5547980295566 207.853793333333  C 55.5547980295566 207.853793333333  51.7647014778325 202.157095111111  51.7647014778325 202.157095111111  C 51.7647014778325 202.157095111111  50.2899133004926 200.491766222222  50.2899133004926 200.491766222222  C 50.2899133004926 200.491766222222  47.9885408866995 199.021841777778  47.9885408866995 199.021841777778  C 47.9885408866995 199.021841777778  40.1287802955665 195.735314666667  40.1287802955665 195.735314666667  C 40.1287802955665 195.735314666667  38.1482985221675 195.337919111111  38.1482985221675 195.337919111111  C 38.1482985221675 195.337919111111  34.9802305418719 195.413556  34.9802305418719 195.413556  C 34.9802305418719 195.413556  26.1438620689655 194.915384444444  26.1438620689655 194.915384444444  C 26.1438620689655 194.915384444444  18.6460729064039 195.571416444444  18.6460729064039 195.571416444444  C 18.6460729064039 195.571416444444  11.3803477832512 196.309672  11.3803477832512 196.309672  C 11.3803477832512 196.309672  4.77736847290639 198.636960888889  4.77736847290639 198.636960888889  C 4.77736847290639 198.636960888889  2.87892709359605 198.454071111111  2.87892709359605 198.454071111111  C 2.87892709359605 198.454071111111  2.78331428571427 196.820248444444  2.78331428571427 196.820248444444  C 2.78331428571427 196.820248444444  3.13171330049263 194.347613777778  3.13171330049263 194.347613777778  C 3.13171330049263 194.347613777778  3.07669655172415 188.192044444444  3.07669655172415 188.192044444444  C 3.07669655172415 188.192044444444  3.29530935960592 181.104352  3.29530935960592 181.104352  C 3.29530935960592 181.104352  4.92739211822661 177.478611555556  4.92739211822661 177.478611555556  C 4.92739211822661 177.478611555556  5.77433497536944 173.311227555556  5.77433497536944 173.311227555556  C 5.77433497536944 173.311227555556  4.68175566502465 168.336976888889  4.68175566502465 168.336976888889  C 4.68175566502465 168.336976888889  7.2900827586207 164.737912444444  7.2900827586207 164.737912444444  C 7.2900827586207 164.737912444444  7.09219211822659 163.590844444444  7.09219211822659 163.590844444444  C 7.09219211822659 163.590844444444  5.99294778325124 162.620189333333  5.99294778325124 162.620189333333  C 5.99294778325124 162.620189333333  0.90559507389162 157.426492888889  0.90559507389162 157.426492888889  C 0.90559507389162 157.426492888889  0.106519211822649 155.554891555556  0.106519211822649 155.554891555556  C 0.106519211822649 155.554891555556  1.25363054187193 153.443645333333  1.25363054187193 153.443645333333  C 1.25363054187193 153.443645333333  2.80367290640395 153.443645333333  2.80367290640395 153.443645333333  C 2.80367290640395 153.443645333333  5.34389556650245 154.288056  5.34389556650245 154.288056  C 5.34389556650245 154.288056  6.76451527093596 154.420887111111  6.76451527093596 154.420887111111  C 6.76451527093596 154.420887111111  10.1445310344827 153.702281777778  10.1445310344827 153.702281777778  C 10.1445310344827 153.702281777778  13.9959458128079 155.221167111111  13.9959458128079 155.221167111111  C 13.9959458128079 155.221167111111  15.3683349753694 154.98756  15.3683349753694 154.98756  C 15.3683349753694 154.98756  16.3379142857143 153.708758666667  16.3379142857143 153.708758666667  C 16.3379142857143 153.708758666667  17.293921182266 149.984547555556  17.293921182266 149.984547555556  C 17.293921182266 149.984547555556  16.8160995073892 146.166037333333  16.8160995073892 146.166037333333  C 16.8160995073892 146.166037333333  17.2190305418719 140.300610666667  17.2190305418719 140.300610666667  C 17.2190305418719 140.300610666667  18.4549684729064 136.249700888889  18.4549684729064 136.249700888889  C 18.4549684729064 136.249700888889  19.5475477832512 134.385674222222  19.5475477832512 134.385674222222  C 19.5475477832512 134.385674222222  21.7803310344828 131.658135555556  21.7803310344828 131.658135555556  C 21.7803310344828 131.658135555556  23.4399221674877 127.274599111111  23.4399221674877 127.274599111111  C 23.4399221674877 127.274599111111  28.622766502463 116.957354222222  28.622766502463 116.957354222222  C 28.622766502463 116.957354222222  37.3563724137931 105.209046222222  37.3563724137931 105.209046222222  C 37.3563724137931 105.209046222222  39.1525359605912 102.993291555556  39.1525359605912 102.993291555556  C 39.1525359605912 102.993291555556  40.9279773399015 101.778710222222  40.9279773399015 101.778710222222  C 40.9279773399015 101.778710222222  42.60780591133 99.0659915555556  42.60780591133 99.0659915555556  C 42.60780591133 99.0659915555556  41.9249438423646 88.9204391111111  41.9249438423646 88.9204391111111  C 41.9249438423646 88.9204391111111  42.5735113300493 84.5161546666667  42.5735113300493 84.5161546666667  C 42.5735113300493 84.5161546666667  42.6757891625616 80.4075017777778  42.6757891625616 80.4075017777778  C 42.6757891625616 80.4075017777778  43.1198009852217 78.2369755555556  43.1198009852217 78.2369755555556  C 43.1198009852217 78.2369755555556  44.1167674876847 76.0033271111111  44.1167674876847 76.0033271111111  C 44.1167674876847 76.0033271111111  44.5675655172414 72.2670404444444  44.5675655172414 72.2670404444444  C 44.5675655172414 72.2670404444444  43.8706463054187 61.6374777777778  43.8706463054187 61.6374777777778  C 43.8706463054187 61.6374777777778  43.3722236453202 59.4680493333333  43.3722236453202 59.4680493333333  C 43.3722236453202 59.4680493333333  43.3722236453202 54.5754733333333  43.3722236453202 54.5754733333333  C 43.3722236453202 54.5754733333333  44.6562709359606 52.3308471111111  44.6562709359606 52.3308471111111  C 44.6562709359606 52.3308471111111  47.6472916256157 51.90952  47.6472916256157 51.90952  C 47.6472916256157 51.90952  53.8749694581281 49.9289093333333  53.8749694581281 49.9289093333333  C 53.8749694581281 49.9289093333333  62.0077536945813 46.0691226666667  62.0077536945813 46.0691226666667  C 62.0077536945813 46.0691226666667  63.5577960591133 44.9813346666667  63.5577960591133 44.9813346666667  C 63.5577960591133 44.9813346666667  65.3057290640394 42.5675408888889  65.3057290640394 42.5675408888889  C 65.3057290640394 42.5675408888889  67.5525694581281 42.2653226666667  67.5525694581281 42.2653226666667  C 67.5525694581281 42.2653226666667  72.250442364532 40.9331693333333  72.250442364532 40.9331693333333  C 72.250442364532 40.9331693333333  73.1519172413793 40.876524  73.1519172413793 40.876524  C 73.1519172413793 40.876524  74.5518147783251 41.7753844444444  74.5518147783251 41.7753844444444  C 74.5518147783251 41.7753844444444  76.8460374384236 44.9748577777778  76.8460374384236 44.9748577777778  C 76.8460374384236 44.9748577777778  78.252721182266 45.8741573333333  78.252721182266 45.8741573333333  C 78.252721182266 45.8741573333333  80.6495852216749 46.3581675555556  80.6495852216749 46.3581675555556  C 80.6495852216749 46.3581675555556  83.8794561576355 45.5661208888889  83.8794561576355 45.5661208888889  C 83.8794561576355 45.5661208888889  89.8614975369458 43.2839506666667  89.8614975369458 43.2839506666667  C 89.8614975369458 43.2839506666667  92.6406916256158 42.6110128888889  92.6406916256158 42.6110128888889  C 92.6406916256158 42.6110128888889  95.7951871921182 42.5734688888889  95.7951871921182 42.5734688888889  C 95.7951871921182 42.5734688888889  98.6771438423645 41.8946031111111  98.6771438423645 41.8946031111111  C 98.6771438423645 41.8946031111111  101.811523152709 42.3410693333333  101.811523152709 42.3410693333333  C 101.811523152709 42.3410693333333  103.484565517241 41.3980782222222  103.484565517241 41.3980782222222  C 103.484565517241 41.3980782222222  105.314538916256 39.7006942222222  105.314538916256 39.7006942222222  C 105.314538916256 39.7006942222222  107.772721182266 39.1164568888889  107.772721182266 39.1164568888889  C 107.772721182266 39.1164568888889  110.654193103448 39.4365688888889  110.654193103448 39.4365688888889  C 110.654193103448 39.4365688888889  117.619628571429 38.4561435555556  117.619628571429 38.4561435555556  C 117.619628571429 38.4561435555556  123.413473891626 40.6375377777778  123.413473891626 40.6375377777778  C 123.413473891626 40.6375377777778  131.170471921182 40.2793328888889  131.170471921182 40.2793328888889  C 131.170471921182 40.2793328888889  134.250198029557 40.4868128888889  134.250198029557 40.4868128888889  C 134.250198029557 40.4868128888889  137.152392118227 39.6065048888889  137.152392118227 39.6065048888889  C 137.152392118227 39.6065048888889  139.747267980296 37.7272191111111  139.747267980296 37.7272191111111  C 139.747267980296 37.7272191111111  141.850749753695 37.6330297777778  141.850749753695 37.6330297777778  C 141.850749753695 37.6330297777778  146.794259113301 37.9029733333333  146.794259113301 37.9029733333333  C 146.794259113301 37.9029733333333  148.276197044335 37.7772777777778  148.276197044335 37.7772777777778  C 148.276197044335 37.7772777777778  154.087371428571 38.04788  154.087371428571 38.04788  C 154.087371428571 38.04788  158.232289655172 38.6575857777778  158.232289655172 38.6575857777778  C 158.232289655172 38.6575857777778  160.553899507389 37.6580591111111  160.553899507389 37.6580591111111  C 160.553899507389 37.6580591111111  160.827044334975 36.9981848888889  160.827044334975 36.9981848888889  C 160.827044334975 36.9981848888889  160.88157635468 30.4179951111111  160.88157635468 30.4179951111111  C 160.88157635468 30.4179951111111  164.917309359606 27.099852  164.917309359606 27.099852  C 164.917309359606 27.099852  167.559931034483 19.1073711111111  167.559931034483 19.1073711111111  C 167.559931034483 19.1073711111111  168.809804926108 16.1479817777778  168.809804926108 16.1479817777778  C 168.809804926108 16.1479817777778  170.353061083744 15.3063155555556  170.353061083744 15.3063155555556  C 170.353061083744 15.3063155555556  174.361285714286 14.8599591111111  174.361285714286 14.8599591111111  C 174.361285714286 14.8599591111111  178.246995073892 13.6034426666667  178.246995073892 13.6034426666667  C 178.246995073892 13.6034426666667  183.825620689655 10.2368875555556  183.825620689655 10.2368875555556  C 183.825620689655 10.2368875555556  185.423893596059 9.75287733333333  185.423893596059 9.75287733333333  C 185.423893596059 9.75287733333333  190.25155270936 9.64617333333333  190.25155270936 9.64617333333333  C 190.25155270936 9.64617333333333  192.095462068966 8.74786177777778  192.095462068966 8.74786177777778  C 192.095462068966 8.74786177777778  198.172510344828 8.21379288888889  198.172510344828 8.21379288888889  C 198.172510344828 8.21379288888889  201.361421674877 9.727848  201.361421674877 9.727848  C 201.361421674877 9.727848  202.911827586207 10.2177862222222  202.911827586207 10.2177862222222  C 202.911827586207 10.2177862222222  206.046206896552 10.2177862222222  206.046206896552 10.2177862222222  C 206.046206896552 10.2177862222222  207.4457408867 9.43869333333333  207.4457408867 9.43869333333333  C 207.4457408867 9.43869333333333  208.538199014778 8.11367555555555  208.538199014778 8.11367555555555  C 208.538199014778 8.11367555555555  208.886598029557 6.48040177777778  208.886598029557 6.48040177777778  C 208.886598029557 6.48040177777778  210.033709359606 5.87728266666667  210.033709359606 5.87728266666667  C 210.033709359606 5.87728266666667  212.628948768473 5.21795733333333  212.628948768473 5.21795733333333  C 212.628948768473 5.21795733333333  213.523273891626 4.01215822222222  213.523273891626 4.01215822222222  C 213.523273891626 4.01215822222222  214.226858128079 2.20302044444444  214.226858128079 2.20302044444444  C 214.226858128079 2.20302044444444  215.073316256158 1.65698577777778  215.073316256158 1.65698577777778  C 215.073316256158 1.65698577777778  218.7678 1.53721822222222  218.7678 1.53721822222222  C 218.7678 1.53721822222222  219.150008866995 0.790290222222225  219.150008866995 0.790290222222225  C 219.150008866995 0.790290222222225  220.570265024631 1.81374844444445  220.570265024631 1.81374844444445  C 220.570265024631 1.81374844444445  221.738098522167 1.81374844444445  221.738098522167 1.81374844444445  C 221.738098522167 1.81374844444445  222.386666009852 2.52368133333334  222.386666009852 2.52368133333334  C 222.386666009852 2.52368133333334  224.087216748768 3.03875866666666  224.087216748768 3.03875866666666  C 224.087216748768 3.03875866666666  227.043942857143 4.78466444444444  227.043942857143 4.78466444444444  C 227.043942857143 4.78466444444444  229.304355665025 5.21795733333333  229.304355665025 5.21795733333333  C 229.304355665025 5.21795733333333  230.335132019704 5.75147733333333  230.335132019704 5.75147733333333  C 230.335132019704 5.75147733333333  235.777669950739 5.88375955555555  235.777669950739 5.88375955555555  C 235.777669950739 5.88375955555555  237.98342955665 8.55948311111111  237.98342955665 8.55948311111111  C 237.98342955665 8.55948311111111  238.877754679803 10.4818017777778  238.877754679803 10.4818017777778  C 238.877754679803 10.4818017777778  239.041714285714 12.2527368888889  239.041714285714 12.2527368888889  C 239.041714285714 12.2527368888889  239.690402955665 14.1440982222222  239.690402955665 14.1440982222222  C 239.690402955665 14.1440982222222  241.602295566502 15.5513395555556  241.602295566502 15.5513395555556  C 241.602295566502 15.5513395555556  242.599262068966 17.8629302222222  242.599262068966 17.8629302222222  C 242.599262068966 17.8629302222222  244.422449261084 26.8292497777778  244.422449261084 26.8292497777778  C 244.422449261084 26.8292497777778  240.134293596059 27.9290035555556  240.134293596059 27.9290035555556  C 240.134293596059 27.9290035555556  238.86418226601 28.8527835555556  238.86418226601 28.8527835555556  C 238.86418226601 28.8527835555556  238.488759605911 31.2786528888889  238.488759605911 31.2786528888889  C 238.488759605911 31.2786528888889  245.009819704434 50.5702311111111  245.009819704434 50.5702311111111  C 245.009819704434 50.5702311111111  238.120001970443 53.0729448888889  238.120001970443 53.0729448888889  C 238.120001970443 53.0729448888889  233.250898522167 39.3489662222222  233.250898522167 39.3489662222222  C 233.250898522167 39.3489662222222  235.217807881773 31.2852395555556  235.217807881773 31.2852395555556  C 235.217807881773 31.2852395555556  233.961268965517 29.9214702222222  233.961268965517 29.9214702222222  C 233.961268965517 29.9214702222222  232.513504433498 29.8773395555556  232.513504433498 29.8773395555556  C 232.513504433498 29.8773395555556  229.727645320197 30.5872724444444  229.727645320197 30.5872724444444  C 229.727645320197 30.5872724444444  228.68281182266 31.2411088888889  228.68281182266 31.2411088888889  C 228.68281182266 31.2411088888889  227.091809852217 34.0187062222222  227.091809852217 34.0187062222222  C 227.091809852217 34.0187062222222  223.950644334975 36.4451244444444  223.950644334975 36.4451244444444  C 223.950644334975 36.4451244444444  219.334327093596 38.6325564444444  219.334327093596 38.6325564444444  C 219.334327093596 38.6325564444444  213.885124137931 42.1902346666667  213.885124137931 42.1902346666667  C 213.885124137931 42.1902346666667  211.39264729064 45.8110351111111  211.39264729064 45.8110351111111  C 211.39264729064 45.8110351111111  209.118783251232 57.1662288888889  209.118783251232 57.1662288888889  C 209.118783251232 57.1662288888889  205.281304433498 65.957892  205.281304433498 65.957892  C 205.281304433498 65.957892  203.355354679803 72.6317222222222  203.355354679803 72.6317222222222  C 203.355354679803 72.6317222222222  201.826034482759 78.5385351111111  201.826034482759 78.5385351111111  C 201.826034482759 78.5385351111111  202.037497536946 91.4943986666667  202.037497536946 91.4943986666667  C 202.037497536946 91.4943986666667  203.300822660099 102.496217777778  203.300822660099 102.496217777778  C 203.300822660099 102.496217777778  203.300822660099 109.061807111111  203.300822660099 109.061807111111  C 203.300822660099 109.061807111111  202.45436453202 113.324478222222  202.45436453202 113.324478222222  C 202.45436453202 113.324478222222  200.624027586207 119.501344444444  200.624027586207 119.501344444444  C 200.624027586207 119.501344444444  197.817325123153 129.321076444444  197.817325123153 129.321076444444  C 197.817325123153 129.321076444444  198.86215862069 132.231395111111  198.86215862069 132.231395111111  C 198.86215862069 132.231395111111  201.675526108374 134.001232444444  201.675526108374 134.001232444444  C 201.675526108374 134.001232444444  202.9254 136.785416444444  202.9254 136.785416444444  C 202.9254 136.785416444444  201.464184236453 144.609608  201.464184236453 144.609608  C 201.464184236453 144.609608  202.542706403941 147.46394  202.542706403941 147.46394  C 202.542706403941 147.46394  204.837413793103 149.927902222222  204.837413793103 149.927902222222  C 204.837413793103 149.927902222222  206.155270935961 153.670665777778  206.155270935961 153.670665777778  C 206.155270935961 153.670665777778  205.895698522167 156.1287  205.895698522167 156.1287  C 205.895698522167 156.1287  203.22605320197 158.536016888889  203.22605320197 158.536016888889  C 203.22605320197 158.536016888889  202.843359605911 160.074003555556  202.843359605911 160.074003555556  C 202.843359605911 160.074003555556  204.447933990148 163.464490222222  204.447933990148 163.464490222222  Z " stroke-width="2" stroke="#6886b3" fill="none" transform="matrix(1 0 0 1 845 117 )" mask="url(#clip39)" />
    <path d="M 236.132855172414 139.675426222222  C 236.132855172414 139.675426222222  235.1082591133 140.424988888889  235.1082591133 140.424988888889  C 235.1082591133 140.424988888889  234.132014778325 140.267677333333  234.132014778325 140.267677333333  C 234.132014778325 140.267677333333  231.233577339902 143.431472888889  231.233577339902 143.431472888889  C 231.233577339902 143.431472888889  230.632392118227 143.009596888889  230.632392118227 143.009596888889  C 230.632392118227 143.009596888889  231.936798029557 139.971496888889  231.936798029557 139.971496888889  C 231.936798029557 139.971496888889  235.402126108374 138.862521777778  235.402126108374 138.862521777778  C 235.402126108374 138.862521777778  236.132855172414 139.675426222222  236.132855172414 139.675426222222  Z " stroke-width="2" stroke="#6886b3" fill="none" transform="matrix(1 0 0 1 845 117 )" mask="url(#clip39)" />
  </g>
</svg>