<?xml version="1.0" encoding="utf-8"?>
<svg version="1.1" xmlns:xlink="http://www.w3.org/1999/xlink" width="230px" height="177px" xmlns="http://www.w3.org/2000/svg">
  <defs>
    <mask fill="white" id="clip38">
      <path d="M 41.6745820605388 18.7052313432836  C 41.6745820605388 18.7052313432836  47.3707514579283 0.502359999999953  47.3707514579283 0.502359999999953  C 47.3707514579283 0.502359999999953  51.2344576506526 3.68660537313428  51.2344576506526 3.68660537313428  C 51.2344576506526 3.68660537313428  59.8234918078311 9.58402149253732  59.8234918078311 9.58402149253732  C 59.8234918078311 9.58402149253732  65.0480749791725 11.9320546268657  65.0480749791725 11.9320546268657  C 65.0480749791725 11.9320546268657  68.1660535962232 12.208564477612  68.1660535962232 12.208564477612  C 68.1660535962232 12.208564477612  69.1234246042766 12.0390871641791  69.1234246042766 12.0390871641791  C 69.1234246042766 12.0390871641791  73.2948875312413 12.5676767164179  73.2948875312413 12.5676767164179  C 73.2948875312413 12.5676767164179  74.4504315467926 11.9695214925374  74.4504315467926 11.9695214925374  C 74.4504315467926 11.9695214925374  75.5309780616496 10.1065856716418  75.5309780616496 10.1065856716418  C 75.5309780616496 10.1065856716418  76.6933179672313 10.1065856716418  76.6933179672313 10.1065856716418  C 76.6933179672313 10.1065856716418  78.8887545126355 9.03636985074627  78.8887545126355 9.03636985074627  C 78.8887545126355 9.03636985074627  80.9059202999166 9.11842447761194  80.9059202999166 9.11842447761194  C 80.9059202999166 9.11842447761194  86.0140024993059 10.5347158208955  86.0140024993059 10.5347158208955  C 86.0140024993059 10.5347158208955  87.9359044709803 11.7429674626866  87.9359044709803 11.7429674626866  C 87.9359044709803 11.7429674626866  88.4008161621772 14.8023232835821  88.4008161621772 14.8023232835821  C 88.4008161621772 14.8023232835821  89.4538150513747 15.1233113432836  89.4538150513747 15.1233113432836  C 89.4538150513747 15.1233113432836  96.2031046931407 14.1915695522388  96.2031046931407 14.1915695522388  C 96.2031046931407 14.1915695522388  111.35672590947 12.9702811940299  111.35672590947 12.9702811940299  C 111.35672590947 12.9702811940299  118.738640099972 12.5737020895522  118.738640099972 12.5737020895522  C 118.738640099972 12.5737020895522  117.596687864482 5.32956029850743  117.596687864482 5.32956029850743  C 117.596687864482 5.32956029850743  117.651297695085 4.39781850746272  117.651297695085 4.39781850746272  C 117.651297695085 4.39781850746272  118.984627048042 4.10224656716417  118.984627048042 4.10224656716417  C 118.984627048042 4.10224656716417  120.557632879756 4.69985402985071  120.557632879756 4.69985402985071  C 120.557632879756 4.69985402985071  123.142619550125 6.55676447761198  123.142619550125 6.55676447761198  C 123.142619550125 6.55676447761198  124.571698139406 6.04668925373136  124.571698139406 6.04668925373136  C 124.571698139406 6.04668925373136  125.727606220494 6.81486955223875  125.727606220494 6.81486955223875  C 125.727606220494 6.81486955223875  127.245516800889 11.5539898507462  127.245516800889 11.5539898507462  C 127.245516800889 11.5539898507462  127.737976117745 12.0640650746269  127.737976117745 12.0640650746269  C 127.737976117745 12.0640650746269  130.110833935018 12.9012632835821  130.110833935018 12.9012632835821  C 130.110833935018 12.9012632835821  135.205324354346 12.6807346268656  135.205324354346 12.6807346268656  C 135.205324354346 12.6807346268656  135.916708414329 13.0523358208955  135.916708414329 13.0523358208955  C 135.916708414329 13.0523358208955  136.682216884199 15.3498653731343  136.682216884199 15.3498653731343  C 136.682216884199 15.3498653731343  140.545923076923 16.5206501492537  140.545923076923 16.5206501492537  C 140.545923076923 16.5206501492537  144.19070452652 17.8930110447761  144.19070452652 17.8930110447761  C 144.19070452652 17.8930110447761  146.283231880033 19.3349376119403  146.283231880033 19.3349376119403  C 146.283231880033 19.3349376119403  146.577518189392 20.1971137313433  146.577518189392 20.1971137313433  C 146.577518189392 20.1971137313433  145.907273535129 21.5004567164179  145.907273535129 21.5004567164179  C 145.907273535129 21.5004567164179  143.555167453485 20.6002659701493  143.555167453485 20.6002659701493  C 143.555167453485 20.6002659701493  141.961409886143 22.4446874626866  141.961409886143 22.4446874626866  C 141.961409886143 22.4446874626866  141.018116078867 22.7217450746269  141.018116078867 22.7217450746269  C 141.018116078867 22.7217450746269  140.293140238822 24.1761605970149  140.293140238822 24.1761605970149  C 140.293140238822 24.1761605970149  138.426333518467 24.7558014925373  138.426333518467 24.7558014925373  C 138.426333518467 24.7558014925373  135.164306303805 23.9435811940298  135.164306303805 23.9435811940298  C 135.164306303805 23.9435811940298  131.882012774229 24.2831931343284  131.882012774229 24.2831931343284  C 131.882012774229 24.2831931343284  131.184584559844 24.006135522388  131.184584559844 24.006135522388  C 131.184584559844 24.006135522388  127.812973618439 20.8077579104478  127.812973618439 20.8077579104478  C 127.812973618439 20.8077579104478  122.992381838378 18.768223880597  122.992381838378 18.768223880597  C 122.992381838378 18.768223880597  120.393317967231 18.4346373134329  120.393317967231 18.4346373134329  C 120.393317967231 18.4346373134329  99.1640497084143 19.8576113432836  99.1640497084143 19.8576113432836  C 99.1640497084143 19.8576113432836  95.1979197445155 17.7670259701493  95.1979197445155 17.7670259701493  C 95.1979197445155 17.7670259701493  91.1771799500139 17.704471641791  91.1771799500139 17.704471641791  C 91.1771799500139 17.704471641791  89.3581871702306 16.8227952238806  89.3581871702306 16.8227952238806  C 89.3581871702306 16.8227952238806  88.2982710358234 17.2948558208955  88.2982710358234 17.2948558208955  C 88.2982710358234 17.2948558208955  88.2982710358234 18.5732208955224  88.2982710358234 18.5732208955224  C 88.2982710358234 18.5732208955224  90.9514593168565 21.6954597014925  90.9514593168565 21.6954597014925  C 90.9514593168565 21.6954597014925  93.5774640377673 22.3442280597015  93.5774640377673 22.3442280597015  C 93.5774640377673 22.3442280597015  98.22743043599 22.797336119403  98.22743043599 22.797336119403  C 98.22743043599 22.797336119403  105.284598167176 22.9673611940298  105.284598167176 22.9673611940298  C 105.284598167176 22.9673611940298  108.177341571786 22.753296119403  108.177341571786 22.753296119403  C 108.177341571786 22.753296119403  112.546977506248 23.011291641791  112.546977506248 23.011291641791  C 112.546977506248 23.011291641791  126.171766176062 24.0250880597015  126.171766176062 24.0250880597015  C 126.171766176062 24.0250880597015  138.077437378506 30.4097925373134  138.077437378506 30.4097925373134  C 138.077437378506 30.4097925373134  146.406407386837 33.9048376119403  146.406407386837 33.9048376119403  C 146.406407386837 33.9048376119403  149.326334351569 34.3078802985075  149.326334351569 34.3078802985075  C 149.326334351569 34.3078802985075  156.089579838934 31.5181325373135  156.089579838934 31.5181325373135  C 156.089579838934 31.5181325373135  157.115516523188 32.1103719402985  157.115516523188 32.1103719402985  C 157.115516523188 32.1103719402985  156.739072757567 36.3609988059702  156.739072757567 36.3609988059702  C 156.739072757567 36.3609988059702  155.816045265204 38.0614686567164  155.816045265204 38.0614686567164  C 155.816045265204 38.0614686567164  153.710047486809 39.5604719402985  153.710047486809 39.5604719402985  C 153.710047486809 39.5604719402985  151.596647042488 40.4046814925373  151.596647042488 40.4046814925373  C 151.596647042488 40.4046814925373  150.19475201333 43.2140391044776  150.19475201333 43.2140391044776  C 150.19475201333 43.2140391044776  149.107895029159 44.1903686567164  149.107895029159 44.1903686567164  C 149.107895029159 44.1903686567164  142.132520688697 43.9001647761194  142.132520688697 43.9001647761194  C 142.132520688697 43.9001647761194  141.578655651208 44.586947761194  141.578655651208 44.586947761194  C 141.578655651208 44.586947761194  141.140806164954 48.3475474626865  141.140806164954 48.3475474626865  C 141.140806164954 48.3475474626865  141.96869119689 51.1259017910448  141.96869119689 51.1259017910448  C 141.96869119689 51.1259017910448  141.824642599278 52.612963880597  141.824642599278 52.612963880597  C 141.824642599278 52.612963880597  140.669098583727 53.7092531343284  140.669098583727 53.7092531343284  C 140.669098583727 53.7092531343284  138.693072202166 54.1438468656717  138.693072202166 54.1438468656717  C 138.693072202166 54.1438468656717  137.502820605387 51.4915871641791  137.502820605387 51.4915871641791  C 137.502820605387 51.4915871641791  135.185058039433 51.4410835820896  135.185058039433 51.4410835820896  C 135.185058039433 51.4410835820896  134.056697584004 52.3293331343284  134.056697584004 52.3293331343284  C 134.056697584004 52.3293331343284  133.010373229658 57.6469988059702  133.010373229658 57.6469988059702  C 133.010373229658 57.6469988059702  132.545461538461 58.8438570149253  132.545461538461 58.8438570149253  C 132.545461538461 58.8438570149253  130.083286309359 62.0704991044777  130.083286309359 62.0704991044777  C 130.083286309359 62.0704991044777  129.720798389336 63.9230274626866  129.720798389336 63.9230274626866  C 129.720798389336 63.9230274626866  130.015084698695 64.9314558208955  130.015084698695 64.9314558208955  C 130.015084698695 64.9314558208955  131.136770619272 65.7822385074627  131.136770619272 65.7822385074627  C 131.136770619272 65.7822385074627  142.618184115523 72.90412  142.618184115523 72.90412  C 142.618184115523 72.90412  153.921690919189 80.8089713432835  153.921690919189 80.8089713432835  C 153.921690919189 80.8089713432835  157.99752596501 84.3958211940299  157.99752596501 84.3958211940299  C 157.99752596501 84.3958211940299  162.230394612608 86.1673904477612  162.230394612608 86.1673904477612  C 162.230394612608 86.1673904477612  166.340087753402 85.7827525373135  166.340087753402 85.7827525373135  C 166.340087753402 85.7827525373135  172.92554790336 87.3908698507463  172.92554790336 87.3908698507463  C 172.92554790336 87.3908698507463  175.47619105804 91.9732208955224  175.47619105804 91.9732208955224  C 175.47619105804 91.9732208955224  176.632099139128 97.2447650746269  176.632099139128 97.2447650746269  C 176.632099139128 97.2447650746269  182.704348236601 106.238346567164  182.704348236601 106.238346567164  C 182.704348236601 106.238346567164  195.738379894474 109.455676716418  195.738379894474 109.455676716418  C 195.738379894474 109.455676716418  202.070571785615 113.259220895522  202.070571785615 113.259220895522  C 202.070571785615 113.259220895522  209.346664259928 122.458212835821  209.346664259928 122.458212835821  C 209.346664259928 122.458212835821  211.281672590947 123.594269552239  211.281672590947 123.594269552239  C 211.281672590947 123.594269552239  229.806540683144 132.353080597015  229.806540683144 132.353080597015  C 229.806540683144 132.353080597015  224.541424881977 137.648507164179  224.541424881977 137.648507164179  C 224.541424881977 137.648507164179  216.964371563455 143.399232835821  216.964371563455 143.399232835821  C 216.964371563455 143.399232835821  214.536903915579 146.012491940299  214.536903915579 146.012491940299  C 214.536903915579 146.012491940299  212.375689530686 149.977406567164  212.375689530686 149.977406567164  C 212.375689530686 149.977406567164  210.57077395168 154.391047164179  210.57077395168 154.391047164179  C 210.57077395168 154.391047164179  209.08660011108 155.799231641791  209.08660011108 155.799231641791  C 209.08660011108 155.799231641791  205.510020272147 157.301959701493  205.510020272147 157.301959701493  C 205.510020272147 157.301959701493  200.880805609553 160.294926865672  200.880805609553 160.294926865672  C 200.880805609553 160.294926865672  198.589741183005 164.109864477612  198.589741183005 164.109864477612  C 198.589741183005 164.109864477612  197.523150513746 165.132863283582  197.523150513746 165.132863283582  C 197.523150513746 165.132863283582  196.237635101361 164.684137313433  196.237635101361 164.684137313433  C 196.237635101361 164.684137313433  195.170559011386 163.086317910448  195.170559011386 163.086317910448  C 195.170559011386 163.086317910448  193.926183004721 162.107906865672  193.926183004721 162.107906865672  C 193.926183004721 162.107906865672  192.359973063038 162.821201492537  192.359973063038 162.821201492537  C 192.359973063038 162.821201492537  189.125493474035 165.688731343284  189.125493474035 165.688731343284  C 189.125493474035 165.688731343284  187.012578450431 166.907828656716  187.012578450431 166.907828656716  C 187.012578450431 166.907828656716  185.80885642877 166.857325074627  185.80885642877 166.857325074627  C 185.80885642877 166.857325074627  183.853096362122 165.985289253731  183.853096362122 165.985289253731  C 183.853096362122 165.985289253731  180.331490419328 165.682158208955  180.331490419328 165.682158208955  C 180.331490419328 165.682158208955  177.883271035823 165.069870746269  177.883271035823 165.069870746269  C 177.883271035823 165.069870746269  174.388848653152 164.652695820896  174.388848653152 164.652695820896  C 174.388848653152 164.652695820896  172.480902527076 165.54313641791  172.480902527076 165.54313641791  C 172.480902527076 165.54313641791  169.773225770619 166.117847462687  169.773225770619 166.117847462687  C 169.773225770619 166.117847462687  168.768040821994 165.789738507463  168.768040821994 165.789738507463  C 168.768040821994 165.789738507463  165.334902804776 162.587636119403  165.334902804776 162.587636119403  C 165.334902804776 162.587636119403  161.888779783393 160.219445373134  161.888779783393 160.219445373134  C 161.888779783393 160.219445373134  159.447356289919 159.872274328358  159.447356289919 159.872274328358  C 159.447356289919 159.872274328358  157.532614273813 160.775203880597  157.532614273813 160.775203880597  C 157.532614273813 160.775203880597  154.339152735351 163.269379701493  154.339152735351 163.269379701493  C 154.339152735351 163.269379701493  153.033006942516 163.604609552239  153.033006942516 163.604609552239  C 153.033006942516 163.604609552239  148.553544570953 164.033835223881  148.553544570953 164.033835223881  C 148.553544570953 164.033835223881  134.500857539572 166.547620895522  134.500857539572 166.547620895522  C 134.500857539572 166.547620895522  130.753530963621 167.99382  130.753530963621 167.99382  C 130.753530963621 167.99382  125.747872535407 169.136888059702  125.747872535407 169.136888059702  C 125.747872535407 169.136888059702  120.441253262983 171.537725373134  120.441253262983 171.537725373134  C 120.441253262983 171.537725373134  109.763453762844 175.39067761194  109.763453762844 175.39067761194  C 109.763453762844 175.39067761194  104.621028047765 176.906990149254  104.621028047765 176.906990149254  C 104.621028047765 176.906990149254  101.09274757012 176.964066865672  101.09274757012 176.964066865672  C 101.09274757012 176.964066865672  100.771399055818 175.978534925373  100.771399055818 175.978534925373  C 100.771399055818 175.978534925373  99.6085737295196 175.491794328358  99.6085737295196 175.491794328358  C 99.6085737295196 175.491794328358  97.4340102749238 172.926957313433  97.4340102749238 172.926957313433  C 97.4340102749238 172.926957313433  91.0606789780617 170.747744179104  91.0606789780617 170.747744179104  C 91.0606789780617 170.747744179104  87.0191874479311 169.648716119403  87.0191874479311 169.648716119403  C 87.0191874479311 169.648716119403  82.5127842266036 168.732749850746  82.5127842266036 168.732749850746  C 82.5127842266036 168.732749850746  82.7181171896694 166.787759402985  82.7181171896694 166.787759402985  C 82.7181171896694 166.787759402985  83.4086281588448 164.633633731343  83.4086281588448 164.633633731343  C 83.4086281588448 164.633633731343  81.1039719522355 163.838284477612  81.1039719522355 163.838284477612  C 81.1039719522355 163.838284477612  78.8200674812551 162.61907761194  78.8200674812551 162.61907761194  C 78.8200674812551 162.61907761194  78.2117139683421 160.453010746269  78.2117139683421 160.453010746269  C 78.2117139683421 160.453010746269  75.3874148847542 157.630068656716  75.3874148847542 157.630068656716  C 75.3874148847542 157.630068656716  77.9791974451541 152.389527761194  77.9791974451541 152.389527761194  C 77.9791974451541 152.389527761194  76.9054468203278 151.61915641791  76.9054468203278 151.61915641791  C 76.9054468203278 151.61915641791  74.5461807831157 154.92128  74.5461807831157 154.92128  C 74.5461807831157 154.92128  74.2658503193556 156.92323761194  74.2658503193556 156.92323761194  C 74.2658503193556 156.92323761194  70.3199866703693 156.03882238806  70.3199866703693 156.03882238806  C 70.3199866703693 156.03882238806  66.3746084420995 154.536094328358  66.3746084420995 154.536094328358  C 66.3746084420995 154.536094328358  63.5774929186338 152.724209850746  63.5774929186338 152.724209850746  C 63.5774929186338 152.724209850746  60.452232990836 149.870374029851  60.452232990836 149.870374029851  C 60.452232990836 149.870374029851  55.0774121077477 145.476233731343  55.0774121077477 145.476233731343  C 55.0774121077477 145.476233731343  52.2600302693697 142.496303283582  52.2600302693697 142.496303283582  C 52.2600302693697 142.496303283582  55.2484015551236 126.092827462687  55.2484015551236 126.092827462687  C 55.2484015551236 126.092827462687  62.0320347125799 125.581547164179  62.0320347125799 125.581547164179  C 62.0320347125799 125.581547164179  64.1931277422939 124.534118208955  64.1931277422939 124.534118208955  C 64.1931277422939 124.534118208955  71.8315867814497 116.640660298507  71.8315867814497 116.640660298507  C 71.8315867814497 116.640660298507  74.094739516801 113.101684776119  74.094739516801 113.101684776119  C 74.094739516801 113.101684776119  77.3089527908915 113.802052238806  77.3089527908915 113.802052238806  C 77.3089527908915 113.802052238806  79.4700458206054 116.035493731343  79.4700458206054 116.035493731343  C 79.4700458206054 116.035493731343  80.4752307692309 116.338077014925  80.4752307692309 116.338077014925  C 80.4752307692309 116.338077014925  84.4959705637323 113.915548358209  84.4959705637323 113.915548358209  C 84.4959705637323 113.915548358209  80.4274168286588 105.437519701493  80.4274168286588 105.437519701493  C 80.4274168286588 105.437519701493  88.9478853096363 99.7547164179105  88.9478853096363 99.7547164179105  C 88.9478853096363 99.7547164179105  89.0232468758678 97.9385594029851  89.0232468758678 97.9385594029851  C 89.0232468758678 97.9385594029851  107.965212718689 84.1502050746269  107.965212718689 84.1502050746269  C 107.965212718689 84.1502050746269  109.483123299084 83.9421653731343  109.483123299084 83.9421653731343  C 109.483123299084 83.9421653731343  106.508707858928 81.2692002985075  106.508707858928 81.2692002985075  C 106.508707858928 81.2692002985075  104.060488475424 79.7876158208955  104.060488475424 79.7876158208955  C 104.060488475424 79.7876158208955  98.6377322965843 82.4796429850746  98.6377322965843 82.4796429850746  C 98.6377322965843 82.4796429850746  94.0491716189946 76.2572949253731  94.0491716189946 76.2572949253731  C 94.0491716189946 76.2572949253731  96.3949672313246 74.1901537313432  96.3949672313246 74.1901537313432  C 96.3949672313246 74.1901537313432  91.5941563454597 68.8892495522388  91.5941563454597 68.8892495522388  C 91.5941563454597 68.8892495522388  86.1647256317689 73.609855522388  86.1647256317689 73.609855522388  C 86.1647256317689 73.609855522388  91.9088303249097 80.2917752238806  91.9088303249097 80.2917752238806  C 91.9088303249097 80.2917752238806  90.3358244931964 81.5402325373134  90.3358244931964 81.5402325373134  C 90.3358244931964 81.5402325373134  87.9083568453206 77.8584008955224  87.9083568453206 77.8584008955224  C 87.9083568453206 77.8584008955224  85.3577136906416 76.6479582089553  85.3577136906416 76.6479582089553  C 85.3577136906416 76.6479582089553  85.7134057206332 75.2300235820895  85.7134057206332 75.2300235820895  C 85.7134057206332 75.2300235820895  84.2224359900029 72.5260552238806  84.2224359900029 72.5260552238806  C 84.2224359900029 72.5260552238806  82.1367045265204 74.3221641791044  82.1367045265204 74.3221641791044  C 82.1367045265204 74.3221641791044  78.9500388780894 75.8096644776119  78.9500388780894 75.8096644776119  C 78.9500388780894 75.8096644776119  77.931383504582 75.9106716417911  77.931383504582 75.9106716417911  C 77.931383504582 75.9106716417911  76.3583776728687 74.618283880597  76.3583776728687 74.618283880597  C 76.3583776728687 74.618283880597  73.8352821438489 75.5260337313433  73.8352821438489 75.5260337313433  C 73.8352821438489 75.5260337313433  71.6876595390171 73.8560194029851  71.6876595390171 73.8560194029851  C 71.6876595390171 73.8560194029851  67.5711705081921 69.3619674626866  67.5711705081921 69.3619674626866  C 67.5711705081921 69.3619674626866  66.7849103026938 69.4058979104478  66.7849103026938 69.4058979104478  C 66.7849103026938 69.4058979104478  66.0257123021383 71.8702755223881  66.0257123021383 71.8702755223881  C 66.0257123021383 71.8702755223881  65.9503507359068 73.8114316417911  65.9503507359068 73.8114316417911  C 65.9503507359068 73.8114316417911  64.7605845598445 76.1063319402985  64.7605845598445 76.1063319402985  C 64.7605845598445 76.1063319402985  63.6664462649264 76.5664513432836  63.6664462649264 76.5664513432836  C 63.6664462649264 76.5664513432836  60.4251707858927 76.471907761194  60.4251707858927 76.471907761194  C 60.4251707858927 76.471907761194  59.0845601221882 76.9321367164179  59.0845601221882 76.9321367164179  C 59.0845601221882 76.9321367164179  57.2655673424049 76.5789402985075  57.2655673424049 76.5789402985075  C 57.2655673424049 76.5789402985075  53.3135145792836 78.1170537313433  53.3135145792836 78.1170537313433  C 53.3135145792836 78.1170537313433  51.7815267981117 79.6045540298507  51.7815267981117 79.6045540298507  C 51.7815267981117 79.6045540298507  51.1320338794778 79.2138907462687  51.1320338794778 79.2138907462687  C 51.1320338794778 79.2138907462687  47.5418622604832 74.6372364179104  47.5418622604832 74.6372364179104  C 47.5418622604832 74.6372364179104  46.6594887531241 74.5367770149253  46.6594887531241 74.5367770149253  C 46.6594887531241 74.5367770149253  42.1941035823382 71.8072829850746  42.1941035823382 71.8072829850746  C 42.1941035823382 71.8072829850746  36.4021849486254 67.6478035820895  36.4021849486254 67.6478035820895  C 36.4021849486254 67.6478035820895  35.0688555956678 67.6793546268657  35.0688555956678 67.6793546268657  C 35.0688555956678 67.6793546268657  33.4271627325741 66.6014701492538  33.4271627325741 66.6014701492538  C 33.4271627325741 66.6014701492538  31.8270946959178 67.1246916417911  31.8270946959178 67.1246916417911  C 31.8270946959178 67.1246916417911  30.014897806165 67.1246916417911  30.014897806165 67.1246916417911  C 30.014897806165 67.1246916417911  29.3383426825881 66.5699191044776  29.3383426825881 66.5699191044776  C 29.3383426825881 66.5699191044776  28.0045279089141 66.922567761194  28.0045279089141 66.922567761194  C 28.0045279089141 66.922567761194  25.8162513190781 69.2608507462686  25.8162513190781 69.2608507462686  C 25.8162513190781 69.2608507462686  23.6556437100806 70.1371591044776  23.6556437100806 70.1371591044776  C 23.6556437100806 70.1371591044776  20.8241846709247 69.9166304477612  20.8241846709247 69.9166304477612  C 20.8241846709247 69.9166304477612  19.7643898916968 70.1496480597015  19.7643898916968 70.1496480597015  C 19.7643898916968 70.1496480597015  15.0254701471812 72.6770182089552  15.0254701471812 72.6770182089552  C 15.0254701471812 72.6770182089552  14.2528017217441 73.3452868656717  14.2528017217441 73.3452868656717  C 14.2528017217441 73.3452868656717  13.0972577061928 77.3667304477612  13.0972577061928 77.3667304477612  C 13.0972577061928 77.3667304477612  12.2012924187725 79.1443250746268  12.2012924187725 79.1443250746268  C 12.2012924187725 79.1443250746268  10.7993973896141 79.1443250746268  10.7993973896141 79.1443250746268  C 10.7993973896141 79.1443250746268  4.30289058594824 75.5700737313433  4.30289058594824 75.5700737313433  C 4.30289058594824 75.5700737313433  1.41051124687592 71.5111632835821  1.41051124687592 71.5111632835821  C 1.41051124687592 71.5111632835821  1.00020938628156 69.8220868656716  1.00020938628156 69.8220868656716  C 1.00020938628156 69.8220868656716  1.6221546792557 69.2103471641791  1.6221546792557 69.2103471641791  C 1.6221546792557 69.2103471641791  5.773472646487 67.4713149253732  5.773472646487 67.4713149253732  C 5.773472646487 67.4713149253732  6.02613412940865 65.9522635820896  6.02613412940865 65.9522635820896  C 6.02613412940865 65.9522635820896  4.18007914468213 64.9314558208955  4.18007914468213 64.9314558208955  C 4.18007914468213 64.9314558208955  3.63300999722307 63.7904692537314  3.63300999722307 63.7904692537314  C 3.63300999722307 63.7904692537314  3.82438711469052 62.2469877611941  3.82438711469052 62.2469877611941  C 3.82438711469052 62.2469877611941  7.41455873368519 55.4667997014926  7.41455873368519 55.4667997014926  C 7.41455873368519 55.4667997014926  10.3479561232991 50.7103701492538  10.3479561232991 50.7103701492538  C 10.3479561232991 50.7103701492538  13.021896139961 45.7647438805971  13.021896139961 45.7647438805971  C 13.021896139961 45.7647438805971  13.6989366842543 43.522647761194  13.6989366842543 43.522647761194  C 13.6989366842543 43.522647761194  13.9656753679533 41.0724023880597  13.9656753679533 41.0724023880597  C 13.9656753679533 41.0724023880597  13.8013604554291 36.7011585074627  13.8013604554291 36.7011585074627  C 13.8013604554291 36.7011585074627  14.3281632879756 32.8535743283582  14.3281632879756 32.8535743283582  C 14.3281632879756 32.8535743283582  18.2189316856429 22.5392310447762  18.2189316856429 22.5392310447762  C 18.2189316856429 22.5392310447762  19.5730127742293 20.9338525373134  19.5730127742293 20.9338525373134  C 19.5730127742293 20.9338525373134  21.4602071646764 19.8005346268657  21.4602071646764 19.8005346268657  C 21.4602071646764 19.8005346268657  25.3237920022215 18.868792835821  25.3237920022215 18.868792835821  C 25.3237920022215 18.868792835821  27.4028489308525 18.9317853731343  27.4028489308525 18.9317853731343  C 27.4028489308525 18.9317853731343  30.3091841155235 19.5424295522388  30.3091841155235 19.5424295522388  C 30.3091841155235 19.5424295522388  40.0604368231047 23.861636119403  40.0604368231047 23.861636119403  C 40.0604368231047 23.861636119403  40.9767897806165 21.9095247761194  40.9767897806165 21.9095247761194  C 40.9767897806165 21.9095247761194  41.6745820605388 18.7052313432836  41.6745820605388 18.7052313432836  Z M 142.583840599833 53.8537525373134  C 142.583840599833 53.8537525373134  140.700044154401 55.7935940298507  140.700044154401 55.7935940298507  C 140.700044154401 55.7935940298507  140.638638433768 53.4066698507463  140.638638433768 53.4066698507463  C 140.638638433768 53.4066698507463  142.583840599833 53.8537525373134  142.583840599833 53.8537525373134  Z " fill-rule="evenodd" />
    </mask>
  </defs>
  <g transform="matrix(1 0 0 1 -1031 -299 )">
    <path d="M 41.6745820605388 18.7052313432836  C 41.6745820605388 18.7052313432836  47.3707514579283 0.502359999999953  47.3707514579283 0.502359999999953  C 47.3707514579283 0.502359999999953  51.2344576506526 3.68660537313428  51.2344576506526 3.68660537313428  C 51.2344576506526 3.68660537313428  59.8234918078311 9.58402149253732  59.8234918078311 9.58402149253732  C 59.8234918078311 9.58402149253732  65.0480749791725 11.9320546268657  65.0480749791725 11.9320546268657  C 65.0480749791725 11.9320546268657  68.1660535962232 12.208564477612  68.1660535962232 12.208564477612  C 68.1660535962232 12.208564477612  69.1234246042766 12.0390871641791  69.1234246042766 12.0390871641791  C 69.1234246042766 12.0390871641791  73.2948875312413 12.5676767164179  73.2948875312413 12.5676767164179  C 73.2948875312413 12.5676767164179  74.4504315467926 11.9695214925374  74.4504315467926 11.9695214925374  C 74.4504315467926 11.9695214925374  75.5309780616496 10.1065856716418  75.5309780616496 10.1065856716418  C 75.5309780616496 10.1065856716418  76.6933179672313 10.1065856716418  76.6933179672313 10.1065856716418  C 76.6933179672313 10.1065856716418  78.8887545126355 9.03636985074627  78.8887545126355 9.03636985074627  C 78.8887545126355 9.03636985074627  80.9059202999166 9.11842447761194  80.9059202999166 9.11842447761194  C 80.9059202999166 9.11842447761194  86.0140024993059 10.5347158208955  86.0140024993059 10.5347158208955  C 86.0140024993059 10.5347158208955  87.9359044709803 11.7429674626866  87.9359044709803 11.7429674626866  C 87.9359044709803 11.7429674626866  88.4008161621772 14.8023232835821  88.4008161621772 14.8023232835821  C 88.4008161621772 14.8023232835821  89.4538150513747 15.1233113432836  89.4538150513747 15.1233113432836  C 89.4538150513747 15.1233113432836  96.2031046931407 14.1915695522388  96.2031046931407 14.1915695522388  C 96.2031046931407 14.1915695522388  111.35672590947 12.9702811940299  111.35672590947 12.9702811940299  C 111.35672590947 12.9702811940299  118.738640099972 12.5737020895522  118.738640099972 12.5737020895522  C 118.738640099972 12.5737020895522  117.596687864482 5.32956029850743  117.596687864482 5.32956029850743  C 117.596687864482 5.32956029850743  117.651297695085 4.39781850746272  117.651297695085 4.39781850746272  C 117.651297695085 4.39781850746272  118.984627048042 4.10224656716417  118.984627048042 4.10224656716417  C 118.984627048042 4.10224656716417  120.557632879756 4.69985402985071  120.557632879756 4.69985402985071  C 120.557632879756 4.69985402985071  123.142619550125 6.55676447761198  123.142619550125 6.55676447761198  C 123.142619550125 6.55676447761198  124.571698139406 6.04668925373136  124.571698139406 6.04668925373136  C 124.571698139406 6.04668925373136  125.727606220494 6.81486955223875  125.727606220494 6.81486955223875  C 125.727606220494 6.81486955223875  127.245516800889 11.5539898507462  127.245516800889 11.5539898507462  C 127.245516800889 11.5539898507462  127.737976117745 12.0640650746269  127.737976117745 12.0640650746269  C 127.737976117745 12.0640650746269  130.110833935018 12.9012632835821  130.110833935018 12.9012632835821  C 130.110833935018 12.9012632835821  135.205324354346 12.6807346268656  135.205324354346 12.6807346268656  C 135.205324354346 12.6807346268656  135.916708414329 13.0523358208955  135.916708414329 13.0523358208955  C 135.916708414329 13.0523358208955  136.682216884199 15.3498653731343  136.682216884199 15.3498653731343  C 136.682216884199 15.3498653731343  140.545923076923 16.5206501492537  140.545923076923 16.5206501492537  C 140.545923076923 16.5206501492537  144.19070452652 17.8930110447761  144.19070452652 17.8930110447761  C 144.19070452652 17.8930110447761  146.283231880033 19.3349376119403  146.283231880033 19.3349376119403  C 146.283231880033 19.3349376119403  146.577518189392 20.1971137313433  146.577518189392 20.1971137313433  C 146.577518189392 20.1971137313433  145.907273535129 21.5004567164179  145.907273535129 21.5004567164179  C 145.907273535129 21.5004567164179  143.555167453485 20.6002659701493  143.555167453485 20.6002659701493  C 143.555167453485 20.6002659701493  141.961409886143 22.4446874626866  141.961409886143 22.4446874626866  C 141.961409886143 22.4446874626866  141.018116078867 22.7217450746269  141.018116078867 22.7217450746269  C 141.018116078867 22.7217450746269  140.293140238822 24.1761605970149  140.293140238822 24.1761605970149  C 140.293140238822 24.1761605970149  138.426333518467 24.7558014925373  138.426333518467 24.7558014925373  C 138.426333518467 24.7558014925373  135.164306303805 23.9435811940298  135.164306303805 23.9435811940298  C 135.164306303805 23.9435811940298  131.882012774229 24.2831931343284  131.882012774229 24.2831931343284  C 131.882012774229 24.2831931343284  131.184584559844 24.006135522388  131.184584559844 24.006135522388  C 131.184584559844 24.006135522388  127.812973618439 20.8077579104478  127.812973618439 20.8077579104478  C 127.812973618439 20.8077579104478  122.992381838378 18.768223880597  122.992381838378 18.768223880597  C 122.992381838378 18.768223880597  120.393317967231 18.4346373134329  120.393317967231 18.4346373134329  C 120.393317967231 18.4346373134329  99.1640497084143 19.8576113432836  99.1640497084143 19.8576113432836  C 99.1640497084143 19.8576113432836  95.1979197445155 17.7670259701493  95.1979197445155 17.7670259701493  C 95.1979197445155 17.7670259701493  91.1771799500139 17.704471641791  91.1771799500139 17.704471641791  C 91.1771799500139 17.704471641791  89.3581871702306 16.8227952238806  89.3581871702306 16.8227952238806  C 89.3581871702306 16.8227952238806  88.2982710358234 17.2948558208955  88.2982710358234 17.2948558208955  C 88.2982710358234 17.2948558208955  88.2982710358234 18.5732208955224  88.2982710358234 18.5732208955224  C 88.2982710358234 18.5732208955224  90.9514593168565 21.6954597014925  90.9514593168565 21.6954597014925  C 90.9514593168565 21.6954597014925  93.5774640377673 22.3442280597015  93.5774640377673 22.3442280597015  C 93.5774640377673 22.3442280597015  98.22743043599 22.797336119403  98.22743043599 22.797336119403  C 98.22743043599 22.797336119403  105.284598167176 22.9673611940298  105.284598167176 22.9673611940298  C 105.284598167176 22.9673611940298  108.177341571786 22.753296119403  108.177341571786 22.753296119403  C 108.177341571786 22.753296119403  112.546977506248 23.011291641791  112.546977506248 23.011291641791  C 112.546977506248 23.011291641791  126.171766176062 24.0250880597015  126.171766176062 24.0250880597015  C 126.171766176062 24.0250880597015  138.077437378506 30.4097925373134  138.077437378506 30.4097925373134  C 138.077437378506 30.4097925373134  146.406407386837 33.9048376119403  146.406407386837 33.9048376119403  C 146.406407386837 33.9048376119403  149.326334351569 34.3078802985075  149.326334351569 34.3078802985075  C 149.326334351569 34.3078802985075  156.089579838934 31.5181325373135  156.089579838934 31.5181325373135  C 156.089579838934 31.5181325373135  157.115516523188 32.1103719402985  157.115516523188 32.1103719402985  C 157.115516523188 32.1103719402985  156.739072757567 36.3609988059702  156.739072757567 36.3609988059702  C 156.739072757567 36.3609988059702  155.816045265204 38.0614686567164  155.816045265204 38.0614686567164  C 155.816045265204 38.0614686567164  153.710047486809 39.5604719402985  153.710047486809 39.5604719402985  C 153.710047486809 39.5604719402985  151.596647042488 40.4046814925373  151.596647042488 40.4046814925373  C 151.596647042488 40.4046814925373  150.19475201333 43.2140391044776  150.19475201333 43.2140391044776  C 150.19475201333 43.2140391044776  149.107895029159 44.1903686567164  149.107895029159 44.1903686567164  C 149.107895029159 44.1903686567164  142.132520688697 43.9001647761194  142.132520688697 43.9001647761194  C 142.132520688697 43.9001647761194  141.578655651208 44.586947761194  141.578655651208 44.586947761194  C 141.578655651208 44.586947761194  141.140806164954 48.3475474626865  141.140806164954 48.3475474626865  C 141.140806164954 48.3475474626865  141.96869119689 51.1259017910448  141.96869119689 51.1259017910448  C 141.96869119689 51.1259017910448  141.824642599278 52.612963880597  141.824642599278 52.612963880597  C 141.824642599278 52.612963880597  140.669098583727 53.7092531343284  140.669098583727 53.7092531343284  C 140.669098583727 53.7092531343284  138.693072202166 54.1438468656717  138.693072202166 54.1438468656717  C 138.693072202166 54.1438468656717  137.502820605387 51.4915871641791  137.502820605387 51.4915871641791  C 137.502820605387 51.4915871641791  135.185058039433 51.4410835820896  135.185058039433 51.4410835820896  C 135.185058039433 51.4410835820896  134.056697584004 52.3293331343284  134.056697584004 52.3293331343284  C 134.056697584004 52.3293331343284  133.010373229658 57.6469988059702  133.010373229658 57.6469988059702  C 133.010373229658 57.6469988059702  132.545461538461 58.8438570149253  132.545461538461 58.8438570149253  C 132.545461538461 58.8438570149253  130.083286309359 62.0704991044777  130.083286309359 62.0704991044777  C 130.083286309359 62.0704991044777  129.720798389336 63.9230274626866  129.720798389336 63.9230274626866  C 129.720798389336 63.9230274626866  130.015084698695 64.9314558208955  130.015084698695 64.9314558208955  C 130.015084698695 64.9314558208955  131.136770619272 65.7822385074627  131.136770619272 65.7822385074627  C 131.136770619272 65.7822385074627  142.618184115523 72.90412  142.618184115523 72.90412  C 142.618184115523 72.90412  153.921690919189 80.8089713432835  153.921690919189 80.8089713432835  C 153.921690919189 80.8089713432835  157.99752596501 84.3958211940299  157.99752596501 84.3958211940299  C 157.99752596501 84.3958211940299  162.230394612608 86.1673904477612  162.230394612608 86.1673904477612  C 162.230394612608 86.1673904477612  166.340087753402 85.7827525373135  166.340087753402 85.7827525373135  C 166.340087753402 85.7827525373135  172.92554790336 87.3908698507463  172.92554790336 87.3908698507463  C 172.92554790336 87.3908698507463  175.47619105804 91.9732208955224  175.47619105804 91.9732208955224  C 175.47619105804 91.9732208955224  176.632099139128 97.2447650746269  176.632099139128 97.2447650746269  C 176.632099139128 97.2447650746269  182.704348236601 106.238346567164  182.704348236601 106.238346567164  C 182.704348236601 106.238346567164  195.738379894474 109.455676716418  195.738379894474 109.455676716418  C 195.738379894474 109.455676716418  202.070571785615 113.259220895522  202.070571785615 113.259220895522  C 202.070571785615 113.259220895522  209.346664259928 122.458212835821  209.346664259928 122.458212835821  C 209.346664259928 122.458212835821  211.281672590947 123.594269552239  211.281672590947 123.594269552239  C 211.281672590947 123.594269552239  229.806540683144 132.353080597015  229.806540683144 132.353080597015  C 229.806540683144 132.353080597015  224.541424881977 137.648507164179  224.541424881977 137.648507164179  C 224.541424881977 137.648507164179  216.964371563455 143.399232835821  216.964371563455 143.399232835821  C 216.964371563455 143.399232835821  214.536903915579 146.012491940299  214.536903915579 146.012491940299  C 214.536903915579 146.012491940299  212.375689530686 149.977406567164  212.375689530686 149.977406567164  C 212.375689530686 149.977406567164  210.57077395168 154.391047164179  210.57077395168 154.391047164179  C 210.57077395168 154.391047164179  209.08660011108 155.799231641791  209.08660011108 155.799231641791  C 209.08660011108 155.799231641791  205.510020272147 157.301959701493  205.510020272147 157.301959701493  C 205.510020272147 157.301959701493  200.880805609553 160.294926865672  200.880805609553 160.294926865672  C 200.880805609553 160.294926865672  198.589741183005 164.109864477612  198.589741183005 164.109864477612  C 198.589741183005 164.109864477612  197.523150513746 165.132863283582  197.523150513746 165.132863283582  C 197.523150513746 165.132863283582  196.237635101361 164.684137313433  196.237635101361 164.684137313433  C 196.237635101361 164.684137313433  195.170559011386 163.086317910448  195.170559011386 163.086317910448  C 195.170559011386 163.086317910448  193.926183004721 162.107906865672  193.926183004721 162.107906865672  C 193.926183004721 162.107906865672  192.359973063038 162.821201492537  192.359973063038 162.821201492537  C 192.359973063038 162.821201492537  189.125493474035 165.688731343284  189.125493474035 165.688731343284  C 189.125493474035 165.688731343284  187.012578450431 166.907828656716  187.012578450431 166.907828656716  C 187.012578450431 166.907828656716  185.80885642877 166.857325074627  185.80885642877 166.857325074627  C 185.80885642877 166.857325074627  183.853096362122 165.985289253731  183.853096362122 165.985289253731  C 183.853096362122 165.985289253731  180.331490419328 165.682158208955  180.331490419328 165.682158208955  C 180.331490419328 165.682158208955  177.883271035823 165.069870746269  177.883271035823 165.069870746269  C 177.883271035823 165.069870746269  174.388848653152 164.652695820896  174.388848653152 164.652695820896  C 174.388848653152 164.652695820896  172.480902527076 165.54313641791  172.480902527076 165.54313641791  C 172.480902527076 165.54313641791  169.773225770619 166.117847462687  169.773225770619 166.117847462687  C 169.773225770619 166.117847462687  168.768040821994 165.789738507463  168.768040821994 165.789738507463  C 168.768040821994 165.789738507463  165.334902804776 162.587636119403  165.334902804776 162.587636119403  C 165.334902804776 162.587636119403  161.888779783393 160.219445373134  161.888779783393 160.219445373134  C 161.888779783393 160.219445373134  159.447356289919 159.872274328358  159.447356289919 159.872274328358  C 159.447356289919 159.872274328358  157.532614273813 160.775203880597  157.532614273813 160.775203880597  C 157.532614273813 160.775203880597  154.339152735351 163.269379701493  154.339152735351 163.269379701493  C 154.339152735351 163.269379701493  153.033006942516 163.604609552239  153.033006942516 163.604609552239  C 153.033006942516 163.604609552239  148.553544570953 164.033835223881  148.553544570953 164.033835223881  C 148.553544570953 164.033835223881  134.500857539572 166.547620895522  134.500857539572 166.547620895522  C 134.500857539572 166.547620895522  130.753530963621 167.99382  130.753530963621 167.99382  C 130.753530963621 167.99382  125.747872535407 169.136888059702  125.747872535407 169.136888059702  C 125.747872535407 169.136888059702  120.441253262983 171.537725373134  120.441253262983 171.537725373134  C 120.441253262983 171.537725373134  109.763453762844 175.39067761194  109.763453762844 175.39067761194  C 109.763453762844 175.39067761194  104.621028047765 176.906990149254  104.621028047765 176.906990149254  C 104.621028047765 176.906990149254  101.09274757012 176.964066865672  101.09274757012 176.964066865672  C 101.09274757012 176.964066865672  100.771399055818 175.978534925373  100.771399055818 175.978534925373  C 100.771399055818 175.978534925373  99.6085737295196 175.491794328358  99.6085737295196 175.491794328358  C 99.6085737295196 175.491794328358  97.4340102749238 172.926957313433  97.4340102749238 172.926957313433  C 97.4340102749238 172.926957313433  91.0606789780617 170.747744179104  91.0606789780617 170.747744179104  C 91.0606789780617 170.747744179104  87.0191874479311 169.648716119403  87.0191874479311 169.648716119403  C 87.0191874479311 169.648716119403  82.5127842266036 168.732749850746  82.5127842266036 168.732749850746  C 82.5127842266036 168.732749850746  82.7181171896694 166.787759402985  82.7181171896694 166.787759402985  C 82.7181171896694 166.787759402985  83.4086281588448 164.633633731343  83.4086281588448 164.633633731343  C 83.4086281588448 164.633633731343  81.1039719522355 163.838284477612  81.1039719522355 163.838284477612  C 81.1039719522355 163.838284477612  78.8200674812551 162.61907761194  78.8200674812551 162.61907761194  C 78.8200674812551 162.61907761194  78.2117139683421 160.453010746269  78.2117139683421 160.453010746269  C 78.2117139683421 160.453010746269  75.3874148847542 157.630068656716  75.3874148847542 157.630068656716  C 75.3874148847542 157.630068656716  77.9791974451541 152.389527761194  77.9791974451541 152.389527761194  C 77.9791974451541 152.389527761194  76.9054468203278 151.61915641791  76.9054468203278 151.61915641791  C 76.9054468203278 151.61915641791  74.5461807831157 154.92128  74.5461807831157 154.92128  C 74.5461807831157 154.92128  74.2658503193556 156.92323761194  74.2658503193556 156.92323761194  C 74.2658503193556 156.92323761194  70.3199866703693 156.03882238806  70.3199866703693 156.03882238806  C 70.3199866703693 156.03882238806  66.3746084420995 154.536094328358  66.3746084420995 154.536094328358  C 66.3746084420995 154.536094328358  63.5774929186338 152.724209850746  63.5774929186338 152.724209850746  C 63.5774929186338 152.724209850746  60.452232990836 149.870374029851  60.452232990836 149.870374029851  C 60.452232990836 149.870374029851  55.0774121077477 145.476233731343  55.0774121077477 145.476233731343  C 55.0774121077477 145.476233731343  52.2600302693697 142.496303283582  52.2600302693697 142.496303283582  C 52.2600302693697 142.496303283582  55.2484015551236 126.092827462687  55.2484015551236 126.092827462687  C 55.2484015551236 126.092827462687  62.0320347125799 125.581547164179  62.0320347125799 125.581547164179  C 62.0320347125799 125.581547164179  64.1931277422939 124.534118208955  64.1931277422939 124.534118208955  C 64.1931277422939 124.534118208955  71.8315867814497 116.640660298507  71.8315867814497 116.640660298507  C 71.8315867814497 116.640660298507  74.094739516801 113.101684776119  74.094739516801 113.101684776119  C 74.094739516801 113.101684776119  77.3089527908915 113.802052238806  77.3089527908915 113.802052238806  C 77.3089527908915 113.802052238806  79.4700458206054 116.035493731343  79.4700458206054 116.035493731343  C 79.4700458206054 116.035493731343  80.4752307692309 116.338077014925  80.4752307692309 116.338077014925  C 80.4752307692309 116.338077014925  84.4959705637323 113.915548358209  84.4959705637323 113.915548358209  C 84.4959705637323 113.915548358209  80.4274168286588 105.437519701493  80.4274168286588 105.437519701493  C 80.4274168286588 105.437519701493  88.9478853096363 99.7547164179105  88.9478853096363 99.7547164179105  C 88.9478853096363 99.7547164179105  89.0232468758678 97.9385594029851  89.0232468758678 97.9385594029851  C 89.0232468758678 97.9385594029851  107.965212718689 84.1502050746269  107.965212718689 84.1502050746269  C 107.965212718689 84.1502050746269  109.483123299084 83.9421653731343  109.483123299084 83.9421653731343  C 109.483123299084 83.9421653731343  106.508707858928 81.2692002985075  106.508707858928 81.2692002985075  C 106.508707858928 81.2692002985075  104.060488475424 79.7876158208955  104.060488475424 79.7876158208955  C 104.060488475424 79.7876158208955  98.6377322965843 82.4796429850746  98.6377322965843 82.4796429850746  C 98.6377322965843 82.4796429850746  94.0491716189946 76.2572949253731  94.0491716189946 76.2572949253731  C 94.0491716189946 76.2572949253731  96.3949672313246 74.1901537313432  96.3949672313246 74.1901537313432  C 96.3949672313246 74.1901537313432  91.5941563454597 68.8892495522388  91.5941563454597 68.8892495522388  C 91.5941563454597 68.8892495522388  86.1647256317689 73.609855522388  86.1647256317689 73.609855522388  C 86.1647256317689 73.609855522388  91.9088303249097 80.2917752238806  91.9088303249097 80.2917752238806  C 91.9088303249097 80.2917752238806  90.3358244931964 81.5402325373134  90.3358244931964 81.5402325373134  C 90.3358244931964 81.5402325373134  87.9083568453206 77.8584008955224  87.9083568453206 77.8584008955224  C 87.9083568453206 77.8584008955224  85.3577136906416 76.6479582089553  85.3577136906416 76.6479582089553  C 85.3577136906416 76.6479582089553  85.7134057206332 75.2300235820895  85.7134057206332 75.2300235820895  C 85.7134057206332 75.2300235820895  84.2224359900029 72.5260552238806  84.2224359900029 72.5260552238806  C 84.2224359900029 72.5260552238806  82.1367045265204 74.3221641791044  82.1367045265204 74.3221641791044  C 82.1367045265204 74.3221641791044  78.9500388780894 75.8096644776119  78.9500388780894 75.8096644776119  C 78.9500388780894 75.8096644776119  77.931383504582 75.9106716417911  77.931383504582 75.9106716417911  C 77.931383504582 75.9106716417911  76.3583776728687 74.618283880597  76.3583776728687 74.618283880597  C 76.3583776728687 74.618283880597  73.8352821438489 75.5260337313433  73.8352821438489 75.5260337313433  C 73.8352821438489 75.5260337313433  71.6876595390171 73.8560194029851  71.6876595390171 73.8560194029851  C 71.6876595390171 73.8560194029851  67.5711705081921 69.3619674626866  67.5711705081921 69.3619674626866  C 67.5711705081921 69.3619674626866  66.7849103026938 69.4058979104478  66.7849103026938 69.4058979104478  C 66.7849103026938 69.4058979104478  66.0257123021383 71.8702755223881  66.0257123021383 71.8702755223881  C 66.0257123021383 71.8702755223881  65.9503507359068 73.8114316417911  65.9503507359068 73.8114316417911  C 65.9503507359068 73.8114316417911  64.7605845598445 76.1063319402985  64.7605845598445 76.1063319402985  C 64.7605845598445 76.1063319402985  63.6664462649264 76.5664513432836  63.6664462649264 76.5664513432836  C 63.6664462649264 76.5664513432836  60.4251707858927 76.471907761194  60.4251707858927 76.471907761194  C 60.4251707858927 76.471907761194  59.0845601221882 76.9321367164179  59.0845601221882 76.9321367164179  C 59.0845601221882 76.9321367164179  57.2655673424049 76.5789402985075  57.2655673424049 76.5789402985075  C 57.2655673424049 76.5789402985075  53.3135145792836 78.1170537313433  53.3135145792836 78.1170537313433  C 53.3135145792836 78.1170537313433  51.7815267981117 79.6045540298507  51.7815267981117 79.6045540298507  C 51.7815267981117 79.6045540298507  51.1320338794778 79.2138907462687  51.1320338794778 79.2138907462687  C 51.1320338794778 79.2138907462687  47.5418622604832 74.6372364179104  47.5418622604832 74.6372364179104  C 47.5418622604832 74.6372364179104  46.6594887531241 74.5367770149253  46.6594887531241 74.5367770149253  C 46.6594887531241 74.5367770149253  42.1941035823382 71.8072829850746  42.1941035823382 71.8072829850746  C 42.1941035823382 71.8072829850746  36.4021849486254 67.6478035820895  36.4021849486254 67.6478035820895  C 36.4021849486254 67.6478035820895  35.0688555956678 67.6793546268657  35.0688555956678 67.6793546268657  C 35.0688555956678 67.6793546268657  33.4271627325741 66.6014701492538  33.4271627325741 66.6014701492538  C 33.4271627325741 66.6014701492538  31.8270946959178 67.1246916417911  31.8270946959178 67.1246916417911  C 31.8270946959178 67.1246916417911  30.014897806165 67.1246916417911  30.014897806165 67.1246916417911  C 30.014897806165 67.1246916417911  29.3383426825881 66.5699191044776  29.3383426825881 66.5699191044776  C 29.3383426825881 66.5699191044776  28.0045279089141 66.922567761194  28.0045279089141 66.922567761194  C 28.0045279089141 66.922567761194  25.8162513190781 69.2608507462686  25.8162513190781 69.2608507462686  C 25.8162513190781 69.2608507462686  23.6556437100806 70.1371591044776  23.6556437100806 70.1371591044776  C 23.6556437100806 70.1371591044776  20.8241846709247 69.9166304477612  20.8241846709247 69.9166304477612  C 20.8241846709247 69.9166304477612  19.7643898916968 70.1496480597015  19.7643898916968 70.1496480597015  C 19.7643898916968 70.1496480597015  15.0254701471812 72.6770182089552  15.0254701471812 72.6770182089552  C 15.0254701471812 72.6770182089552  14.2528017217441 73.3452868656717  14.2528017217441 73.3452868656717  C 14.2528017217441 73.3452868656717  13.0972577061928 77.3667304477612  13.0972577061928 77.3667304477612  C 13.0972577061928 77.3667304477612  12.2012924187725 79.1443250746268  12.2012924187725 79.1443250746268  C 12.2012924187725 79.1443250746268  10.7993973896141 79.1443250746268  10.7993973896141 79.1443250746268  C 10.7993973896141 79.1443250746268  4.30289058594824 75.5700737313433  4.30289058594824 75.5700737313433  C 4.30289058594824 75.5700737313433  1.41051124687592 71.5111632835821  1.41051124687592 71.5111632835821  C 1.41051124687592 71.5111632835821  1.00020938628156 69.8220868656716  1.00020938628156 69.8220868656716  C 1.00020938628156 69.8220868656716  1.6221546792557 69.2103471641791  1.6221546792557 69.2103471641791  C 1.6221546792557 69.2103471641791  5.773472646487 67.4713149253732  5.773472646487 67.4713149253732  C 5.773472646487 67.4713149253732  6.02613412940865 65.9522635820896  6.02613412940865 65.9522635820896  C 6.02613412940865 65.9522635820896  4.18007914468213 64.9314558208955  4.18007914468213 64.9314558208955  C 4.18007914468213 64.9314558208955  3.63300999722307 63.7904692537314  3.63300999722307 63.7904692537314  C 3.63300999722307 63.7904692537314  3.82438711469052 62.2469877611941  3.82438711469052 62.2469877611941  C 3.82438711469052 62.2469877611941  7.41455873368519 55.4667997014926  7.41455873368519 55.4667997014926  C 7.41455873368519 55.4667997014926  10.3479561232991 50.7103701492538  10.3479561232991 50.7103701492538  C 10.3479561232991 50.7103701492538  13.021896139961 45.7647438805971  13.021896139961 45.7647438805971  C 13.021896139961 45.7647438805971  13.6989366842543 43.522647761194  13.6989366842543 43.522647761194  C 13.6989366842543 43.522647761194  13.9656753679533 41.0724023880597  13.9656753679533 41.0724023880597  C 13.9656753679533 41.0724023880597  13.8013604554291 36.7011585074627  13.8013604554291 36.7011585074627  C 13.8013604554291 36.7011585074627  14.3281632879756 32.8535743283582  14.3281632879756 32.8535743283582  C 14.3281632879756 32.8535743283582  18.2189316856429 22.5392310447762  18.2189316856429 22.5392310447762  C 18.2189316856429 22.5392310447762  19.5730127742293 20.9338525373134  19.5730127742293 20.9338525373134  C 19.5730127742293 20.9338525373134  21.4602071646764 19.8005346268657  21.4602071646764 19.8005346268657  C 21.4602071646764 19.8005346268657  25.3237920022215 18.868792835821  25.3237920022215 18.868792835821  C 25.3237920022215 18.868792835821  27.4028489308525 18.9317853731343  27.4028489308525 18.9317853731343  C 27.4028489308525 18.9317853731343  30.3091841155235 19.5424295522388  30.3091841155235 19.5424295522388  C 30.3091841155235 19.5424295522388  40.0604368231047 23.861636119403  40.0604368231047 23.861636119403  C 40.0604368231047 23.861636119403  40.9767897806165 21.9095247761194  40.9767897806165 21.9095247761194  C 40.9767897806165 21.9095247761194  41.6745820605388 18.7052313432836  41.6745820605388 18.7052313432836  Z M 142.583840599833 53.8537525373134  C 142.583840599833 53.8537525373134  140.700044154401 55.7935940298507  140.700044154401 55.7935940298507  C 140.700044154401 55.7935940298507  140.638638433768 53.4066698507463  140.638638433768 53.4066698507463  C 140.638638433768 53.4066698507463  142.583840599833 53.8537525373134  142.583840599833 53.8537525373134  Z " fill-rule="nonzero" fill="#409eff" stroke="none" fill-opacity="0.6" transform="matrix(1 0 0 1 1031 299 )" />
    <path d="M 41.6745820605388 18.7052313432836  C 41.6745820605388 18.7052313432836  47.3707514579283 0.502359999999953  47.3707514579283 0.502359999999953  C 47.3707514579283 0.502359999999953  51.2344576506526 3.68660537313428  51.2344576506526 3.68660537313428  C 51.2344576506526 3.68660537313428  59.8234918078311 9.58402149253732  59.8234918078311 9.58402149253732  C 59.8234918078311 9.58402149253732  65.0480749791725 11.9320546268657  65.0480749791725 11.9320546268657  C 65.0480749791725 11.9320546268657  68.1660535962232 12.208564477612  68.1660535962232 12.208564477612  C 68.1660535962232 12.208564477612  69.1234246042766 12.0390871641791  69.1234246042766 12.0390871641791  C 69.1234246042766 12.0390871641791  73.2948875312413 12.5676767164179  73.2948875312413 12.5676767164179  C 73.2948875312413 12.5676767164179  74.4504315467926 11.9695214925374  74.4504315467926 11.9695214925374  C 74.4504315467926 11.9695214925374  75.5309780616496 10.1065856716418  75.5309780616496 10.1065856716418  C 75.5309780616496 10.1065856716418  76.6933179672313 10.1065856716418  76.6933179672313 10.1065856716418  C 76.6933179672313 10.1065856716418  78.8887545126355 9.03636985074627  78.8887545126355 9.03636985074627  C 78.8887545126355 9.03636985074627  80.9059202999166 9.11842447761194  80.9059202999166 9.11842447761194  C 80.9059202999166 9.11842447761194  86.0140024993059 10.5347158208955  86.0140024993059 10.5347158208955  C 86.0140024993059 10.5347158208955  87.9359044709803 11.7429674626866  87.9359044709803 11.7429674626866  C 87.9359044709803 11.7429674626866  88.4008161621772 14.8023232835821  88.4008161621772 14.8023232835821  C 88.4008161621772 14.8023232835821  89.4538150513747 15.1233113432836  89.4538150513747 15.1233113432836  C 89.4538150513747 15.1233113432836  96.2031046931407 14.1915695522388  96.2031046931407 14.1915695522388  C 96.2031046931407 14.1915695522388  111.35672590947 12.9702811940299  111.35672590947 12.9702811940299  C 111.35672590947 12.9702811940299  118.738640099972 12.5737020895522  118.738640099972 12.5737020895522  C 118.738640099972 12.5737020895522  117.596687864482 5.32956029850743  117.596687864482 5.32956029850743  C 117.596687864482 5.32956029850743  117.651297695085 4.39781850746272  117.651297695085 4.39781850746272  C 117.651297695085 4.39781850746272  118.984627048042 4.10224656716417  118.984627048042 4.10224656716417  C 118.984627048042 4.10224656716417  120.557632879756 4.69985402985071  120.557632879756 4.69985402985071  C 120.557632879756 4.69985402985071  123.142619550125 6.55676447761198  123.142619550125 6.55676447761198  C 123.142619550125 6.55676447761198  124.571698139406 6.04668925373136  124.571698139406 6.04668925373136  C 124.571698139406 6.04668925373136  125.727606220494 6.81486955223875  125.727606220494 6.81486955223875  C 125.727606220494 6.81486955223875  127.245516800889 11.5539898507462  127.245516800889 11.5539898507462  C 127.245516800889 11.5539898507462  127.737976117745 12.0640650746269  127.737976117745 12.0640650746269  C 127.737976117745 12.0640650746269  130.110833935018 12.9012632835821  130.110833935018 12.9012632835821  C 130.110833935018 12.9012632835821  135.205324354346 12.6807346268656  135.205324354346 12.6807346268656  C 135.205324354346 12.6807346268656  135.916708414329 13.0523358208955  135.916708414329 13.0523358208955  C 135.916708414329 13.0523358208955  136.682216884199 15.3498653731343  136.682216884199 15.3498653731343  C 136.682216884199 15.3498653731343  140.545923076923 16.5206501492537  140.545923076923 16.5206501492537  C 140.545923076923 16.5206501492537  144.19070452652 17.8930110447761  144.19070452652 17.8930110447761  C 144.19070452652 17.8930110447761  146.283231880033 19.3349376119403  146.283231880033 19.3349376119403  C 146.283231880033 19.3349376119403  146.577518189392 20.1971137313433  146.577518189392 20.1971137313433  C 146.577518189392 20.1971137313433  145.907273535129 21.5004567164179  145.907273535129 21.5004567164179  C 145.907273535129 21.5004567164179  143.555167453485 20.6002659701493  143.555167453485 20.6002659701493  C 143.555167453485 20.6002659701493  141.961409886143 22.4446874626866  141.961409886143 22.4446874626866  C 141.961409886143 22.4446874626866  141.018116078867 22.7217450746269  141.018116078867 22.7217450746269  C 141.018116078867 22.7217450746269  140.293140238822 24.1761605970149  140.293140238822 24.1761605970149  C 140.293140238822 24.1761605970149  138.426333518467 24.7558014925373  138.426333518467 24.7558014925373  C 138.426333518467 24.7558014925373  135.164306303805 23.9435811940298  135.164306303805 23.9435811940298  C 135.164306303805 23.9435811940298  131.882012774229 24.2831931343284  131.882012774229 24.2831931343284  C 131.882012774229 24.2831931343284  131.184584559844 24.006135522388  131.184584559844 24.006135522388  C 131.184584559844 24.006135522388  127.812973618439 20.8077579104478  127.812973618439 20.8077579104478  C 127.812973618439 20.8077579104478  122.992381838378 18.768223880597  122.992381838378 18.768223880597  C 122.992381838378 18.768223880597  120.393317967231 18.4346373134329  120.393317967231 18.4346373134329  C 120.393317967231 18.4346373134329  99.1640497084143 19.8576113432836  99.1640497084143 19.8576113432836  C 99.1640497084143 19.8576113432836  95.1979197445155 17.7670259701493  95.1979197445155 17.7670259701493  C 95.1979197445155 17.7670259701493  91.1771799500139 17.704471641791  91.1771799500139 17.704471641791  C 91.1771799500139 17.704471641791  89.3581871702306 16.8227952238806  89.3581871702306 16.8227952238806  C 89.3581871702306 16.8227952238806  88.2982710358234 17.2948558208955  88.2982710358234 17.2948558208955  C 88.2982710358234 17.2948558208955  88.2982710358234 18.5732208955224  88.2982710358234 18.5732208955224  C 88.2982710358234 18.5732208955224  90.9514593168565 21.6954597014925  90.9514593168565 21.6954597014925  C 90.9514593168565 21.6954597014925  93.5774640377673 22.3442280597015  93.5774640377673 22.3442280597015  C 93.5774640377673 22.3442280597015  98.22743043599 22.797336119403  98.22743043599 22.797336119403  C 98.22743043599 22.797336119403  105.284598167176 22.9673611940298  105.284598167176 22.9673611940298  C 105.284598167176 22.9673611940298  108.177341571786 22.753296119403  108.177341571786 22.753296119403  C 108.177341571786 22.753296119403  112.546977506248 23.011291641791  112.546977506248 23.011291641791  C 112.546977506248 23.011291641791  126.171766176062 24.0250880597015  126.171766176062 24.0250880597015  C 126.171766176062 24.0250880597015  138.077437378506 30.4097925373134  138.077437378506 30.4097925373134  C 138.077437378506 30.4097925373134  146.406407386837 33.9048376119403  146.406407386837 33.9048376119403  C 146.406407386837 33.9048376119403  149.326334351569 34.3078802985075  149.326334351569 34.3078802985075  C 149.326334351569 34.3078802985075  156.089579838934 31.5181325373135  156.089579838934 31.5181325373135  C 156.089579838934 31.5181325373135  157.115516523188 32.1103719402985  157.115516523188 32.1103719402985  C 157.115516523188 32.1103719402985  156.739072757567 36.3609988059702  156.739072757567 36.3609988059702  C 156.739072757567 36.3609988059702  155.816045265204 38.0614686567164  155.816045265204 38.0614686567164  C 155.816045265204 38.0614686567164  153.710047486809 39.5604719402985  153.710047486809 39.5604719402985  C 153.710047486809 39.5604719402985  151.596647042488 40.4046814925373  151.596647042488 40.4046814925373  C 151.596647042488 40.4046814925373  150.19475201333 43.2140391044776  150.19475201333 43.2140391044776  C 150.19475201333 43.2140391044776  149.107895029159 44.1903686567164  149.107895029159 44.1903686567164  C 149.107895029159 44.1903686567164  142.132520688697 43.9001647761194  142.132520688697 43.9001647761194  C 142.132520688697 43.9001647761194  141.578655651208 44.586947761194  141.578655651208 44.586947761194  C 141.578655651208 44.586947761194  141.140806164954 48.3475474626865  141.140806164954 48.3475474626865  C 141.140806164954 48.3475474626865  141.96869119689 51.1259017910448  141.96869119689 51.1259017910448  C 141.96869119689 51.1259017910448  141.824642599278 52.612963880597  141.824642599278 52.612963880597  C 141.824642599278 52.612963880597  140.669098583727 53.7092531343284  140.669098583727 53.7092531343284  C 140.669098583727 53.7092531343284  138.693072202166 54.1438468656717  138.693072202166 54.1438468656717  C 138.693072202166 54.1438468656717  137.502820605387 51.4915871641791  137.502820605387 51.4915871641791  C 137.502820605387 51.4915871641791  135.185058039433 51.4410835820896  135.185058039433 51.4410835820896  C 135.185058039433 51.4410835820896  134.056697584004 52.3293331343284  134.056697584004 52.3293331343284  C 134.056697584004 52.3293331343284  133.010373229658 57.6469988059702  133.010373229658 57.6469988059702  C 133.010373229658 57.6469988059702  132.545461538461 58.8438570149253  132.545461538461 58.8438570149253  C 132.545461538461 58.8438570149253  130.083286309359 62.0704991044777  130.083286309359 62.0704991044777  C 130.083286309359 62.0704991044777  129.720798389336 63.9230274626866  129.720798389336 63.9230274626866  C 129.720798389336 63.9230274626866  130.015084698695 64.9314558208955  130.015084698695 64.9314558208955  C 130.015084698695 64.9314558208955  131.136770619272 65.7822385074627  131.136770619272 65.7822385074627  C 131.136770619272 65.7822385074627  142.618184115523 72.90412  142.618184115523 72.90412  C 142.618184115523 72.90412  153.921690919189 80.8089713432835  153.921690919189 80.8089713432835  C 153.921690919189 80.8089713432835  157.99752596501 84.3958211940299  157.99752596501 84.3958211940299  C 157.99752596501 84.3958211940299  162.230394612608 86.1673904477612  162.230394612608 86.1673904477612  C 162.230394612608 86.1673904477612  166.340087753402 85.7827525373135  166.340087753402 85.7827525373135  C 166.340087753402 85.7827525373135  172.92554790336 87.3908698507463  172.92554790336 87.3908698507463  C 172.92554790336 87.3908698507463  175.47619105804 91.9732208955224  175.47619105804 91.9732208955224  C 175.47619105804 91.9732208955224  176.632099139128 97.2447650746269  176.632099139128 97.2447650746269  C 176.632099139128 97.2447650746269  182.704348236601 106.238346567164  182.704348236601 106.238346567164  C 182.704348236601 106.238346567164  195.738379894474 109.455676716418  195.738379894474 109.455676716418  C 195.738379894474 109.455676716418  202.070571785615 113.259220895522  202.070571785615 113.259220895522  C 202.070571785615 113.259220895522  209.346664259928 122.458212835821  209.346664259928 122.458212835821  C 209.346664259928 122.458212835821  211.281672590947 123.594269552239  211.281672590947 123.594269552239  C 211.281672590947 123.594269552239  229.806540683144 132.353080597015  229.806540683144 132.353080597015  C 229.806540683144 132.353080597015  224.541424881977 137.648507164179  224.541424881977 137.648507164179  C 224.541424881977 137.648507164179  216.964371563455 143.399232835821  216.964371563455 143.399232835821  C 216.964371563455 143.399232835821  214.536903915579 146.012491940299  214.536903915579 146.012491940299  C 214.536903915579 146.012491940299  212.375689530686 149.977406567164  212.375689530686 149.977406567164  C 212.375689530686 149.977406567164  210.57077395168 154.391047164179  210.57077395168 154.391047164179  C 210.57077395168 154.391047164179  209.08660011108 155.799231641791  209.08660011108 155.799231641791  C 209.08660011108 155.799231641791  205.510020272147 157.301959701493  205.510020272147 157.301959701493  C 205.510020272147 157.301959701493  200.880805609553 160.294926865672  200.880805609553 160.294926865672  C 200.880805609553 160.294926865672  198.589741183005 164.109864477612  198.589741183005 164.109864477612  C 198.589741183005 164.109864477612  197.523150513746 165.132863283582  197.523150513746 165.132863283582  C 197.523150513746 165.132863283582  196.237635101361 164.684137313433  196.237635101361 164.684137313433  C 196.237635101361 164.684137313433  195.170559011386 163.086317910448  195.170559011386 163.086317910448  C 195.170559011386 163.086317910448  193.926183004721 162.107906865672  193.926183004721 162.107906865672  C 193.926183004721 162.107906865672  192.359973063038 162.821201492537  192.359973063038 162.821201492537  C 192.359973063038 162.821201492537  189.125493474035 165.688731343284  189.125493474035 165.688731343284  C 189.125493474035 165.688731343284  187.012578450431 166.907828656716  187.012578450431 166.907828656716  C 187.012578450431 166.907828656716  185.80885642877 166.857325074627  185.80885642877 166.857325074627  C 185.80885642877 166.857325074627  183.853096362122 165.985289253731  183.853096362122 165.985289253731  C 183.853096362122 165.985289253731  180.331490419328 165.682158208955  180.331490419328 165.682158208955  C 180.331490419328 165.682158208955  177.883271035823 165.069870746269  177.883271035823 165.069870746269  C 177.883271035823 165.069870746269  174.388848653152 164.652695820896  174.388848653152 164.652695820896  C 174.388848653152 164.652695820896  172.480902527076 165.54313641791  172.480902527076 165.54313641791  C 172.480902527076 165.54313641791  169.773225770619 166.117847462687  169.773225770619 166.117847462687  C 169.773225770619 166.117847462687  168.768040821994 165.789738507463  168.768040821994 165.789738507463  C 168.768040821994 165.789738507463  165.334902804776 162.587636119403  165.334902804776 162.587636119403  C 165.334902804776 162.587636119403  161.888779783393 160.219445373134  161.888779783393 160.219445373134  C 161.888779783393 160.219445373134  159.447356289919 159.872274328358  159.447356289919 159.872274328358  C 159.447356289919 159.872274328358  157.532614273813 160.775203880597  157.532614273813 160.775203880597  C 157.532614273813 160.775203880597  154.339152735351 163.269379701493  154.339152735351 163.269379701493  C 154.339152735351 163.269379701493  153.033006942516 163.604609552239  153.033006942516 163.604609552239  C 153.033006942516 163.604609552239  148.553544570953 164.033835223881  148.553544570953 164.033835223881  C 148.553544570953 164.033835223881  134.500857539572 166.547620895522  134.500857539572 166.547620895522  C 134.500857539572 166.547620895522  130.753530963621 167.99382  130.753530963621 167.99382  C 130.753530963621 167.99382  125.747872535407 169.136888059702  125.747872535407 169.136888059702  C 125.747872535407 169.136888059702  120.441253262983 171.537725373134  120.441253262983 171.537725373134  C 120.441253262983 171.537725373134  109.763453762844 175.39067761194  109.763453762844 175.39067761194  C 109.763453762844 175.39067761194  104.621028047765 176.906990149254  104.621028047765 176.906990149254  C 104.621028047765 176.906990149254  101.09274757012 176.964066865672  101.09274757012 176.964066865672  C 101.09274757012 176.964066865672  100.771399055818 175.978534925373  100.771399055818 175.978534925373  C 100.771399055818 175.978534925373  99.6085737295196 175.491794328358  99.6085737295196 175.491794328358  C 99.6085737295196 175.491794328358  97.4340102749238 172.926957313433  97.4340102749238 172.926957313433  C 97.4340102749238 172.926957313433  91.0606789780617 170.747744179104  91.0606789780617 170.747744179104  C 91.0606789780617 170.747744179104  87.0191874479311 169.648716119403  87.0191874479311 169.648716119403  C 87.0191874479311 169.648716119403  82.5127842266036 168.732749850746  82.5127842266036 168.732749850746  C 82.5127842266036 168.732749850746  82.7181171896694 166.787759402985  82.7181171896694 166.787759402985  C 82.7181171896694 166.787759402985  83.4086281588448 164.633633731343  83.4086281588448 164.633633731343  C 83.4086281588448 164.633633731343  81.1039719522355 163.838284477612  81.1039719522355 163.838284477612  C 81.1039719522355 163.838284477612  78.8200674812551 162.61907761194  78.8200674812551 162.61907761194  C 78.8200674812551 162.61907761194  78.2117139683421 160.453010746269  78.2117139683421 160.453010746269  C 78.2117139683421 160.453010746269  75.3874148847542 157.630068656716  75.3874148847542 157.630068656716  C 75.3874148847542 157.630068656716  77.9791974451541 152.389527761194  77.9791974451541 152.389527761194  C 77.9791974451541 152.389527761194  76.9054468203278 151.61915641791  76.9054468203278 151.61915641791  C 76.9054468203278 151.61915641791  74.5461807831157 154.92128  74.5461807831157 154.92128  C 74.5461807831157 154.92128  74.2658503193556 156.92323761194  74.2658503193556 156.92323761194  C 74.2658503193556 156.92323761194  70.3199866703693 156.03882238806  70.3199866703693 156.03882238806  C 70.3199866703693 156.03882238806  66.3746084420995 154.536094328358  66.3746084420995 154.536094328358  C 66.3746084420995 154.536094328358  63.5774929186338 152.724209850746  63.5774929186338 152.724209850746  C 63.5774929186338 152.724209850746  60.452232990836 149.870374029851  60.452232990836 149.870374029851  C 60.452232990836 149.870374029851  55.0774121077477 145.476233731343  55.0774121077477 145.476233731343  C 55.0774121077477 145.476233731343  52.2600302693697 142.496303283582  52.2600302693697 142.496303283582  C 52.2600302693697 142.496303283582  55.2484015551236 126.092827462687  55.2484015551236 126.092827462687  C 55.2484015551236 126.092827462687  62.0320347125799 125.581547164179  62.0320347125799 125.581547164179  C 62.0320347125799 125.581547164179  64.1931277422939 124.534118208955  64.1931277422939 124.534118208955  C 64.1931277422939 124.534118208955  71.8315867814497 116.640660298507  71.8315867814497 116.640660298507  C 71.8315867814497 116.640660298507  74.094739516801 113.101684776119  74.094739516801 113.101684776119  C 74.094739516801 113.101684776119  77.3089527908915 113.802052238806  77.3089527908915 113.802052238806  C 77.3089527908915 113.802052238806  79.4700458206054 116.035493731343  79.4700458206054 116.035493731343  C 79.4700458206054 116.035493731343  80.4752307692309 116.338077014925  80.4752307692309 116.338077014925  C 80.4752307692309 116.338077014925  84.4959705637323 113.915548358209  84.4959705637323 113.915548358209  C 84.4959705637323 113.915548358209  80.4274168286588 105.437519701493  80.4274168286588 105.437519701493  C 80.4274168286588 105.437519701493  88.9478853096363 99.7547164179105  88.9478853096363 99.7547164179105  C 88.9478853096363 99.7547164179105  89.0232468758678 97.9385594029851  89.0232468758678 97.9385594029851  C 89.0232468758678 97.9385594029851  107.965212718689 84.1502050746269  107.965212718689 84.1502050746269  C 107.965212718689 84.1502050746269  109.483123299084 83.9421653731343  109.483123299084 83.9421653731343  C 109.483123299084 83.9421653731343  106.508707858928 81.2692002985075  106.508707858928 81.2692002985075  C 106.508707858928 81.2692002985075  104.060488475424 79.7876158208955  104.060488475424 79.7876158208955  C 104.060488475424 79.7876158208955  98.6377322965843 82.4796429850746  98.6377322965843 82.4796429850746  C 98.6377322965843 82.4796429850746  94.0491716189946 76.2572949253731  94.0491716189946 76.2572949253731  C 94.0491716189946 76.2572949253731  96.3949672313246 74.1901537313432  96.3949672313246 74.1901537313432  C 96.3949672313246 74.1901537313432  91.5941563454597 68.8892495522388  91.5941563454597 68.8892495522388  C 91.5941563454597 68.8892495522388  86.1647256317689 73.609855522388  86.1647256317689 73.609855522388  C 86.1647256317689 73.609855522388  91.9088303249097 80.2917752238806  91.9088303249097 80.2917752238806  C 91.9088303249097 80.2917752238806  90.3358244931964 81.5402325373134  90.3358244931964 81.5402325373134  C 90.3358244931964 81.5402325373134  87.9083568453206 77.8584008955224  87.9083568453206 77.8584008955224  C 87.9083568453206 77.8584008955224  85.3577136906416 76.6479582089553  85.3577136906416 76.6479582089553  C 85.3577136906416 76.6479582089553  85.7134057206332 75.2300235820895  85.7134057206332 75.2300235820895  C 85.7134057206332 75.2300235820895  84.2224359900029 72.5260552238806  84.2224359900029 72.5260552238806  C 84.2224359900029 72.5260552238806  82.1367045265204 74.3221641791044  82.1367045265204 74.3221641791044  C 82.1367045265204 74.3221641791044  78.9500388780894 75.8096644776119  78.9500388780894 75.8096644776119  C 78.9500388780894 75.8096644776119  77.931383504582 75.9106716417911  77.931383504582 75.9106716417911  C 77.931383504582 75.9106716417911  76.3583776728687 74.618283880597  76.3583776728687 74.618283880597  C 76.3583776728687 74.618283880597  73.8352821438489 75.5260337313433  73.8352821438489 75.5260337313433  C 73.8352821438489 75.5260337313433  71.6876595390171 73.8560194029851  71.6876595390171 73.8560194029851  C 71.6876595390171 73.8560194029851  67.5711705081921 69.3619674626866  67.5711705081921 69.3619674626866  C 67.5711705081921 69.3619674626866  66.7849103026938 69.4058979104478  66.7849103026938 69.4058979104478  C 66.7849103026938 69.4058979104478  66.0257123021383 71.8702755223881  66.0257123021383 71.8702755223881  C 66.0257123021383 71.8702755223881  65.9503507359068 73.8114316417911  65.9503507359068 73.8114316417911  C 65.9503507359068 73.8114316417911  64.7605845598445 76.1063319402985  64.7605845598445 76.1063319402985  C 64.7605845598445 76.1063319402985  63.6664462649264 76.5664513432836  63.6664462649264 76.5664513432836  C 63.6664462649264 76.5664513432836  60.4251707858927 76.471907761194  60.4251707858927 76.471907761194  C 60.4251707858927 76.471907761194  59.0845601221882 76.9321367164179  59.0845601221882 76.9321367164179  C 59.0845601221882 76.9321367164179  57.2655673424049 76.5789402985075  57.2655673424049 76.5789402985075  C 57.2655673424049 76.5789402985075  53.3135145792836 78.1170537313433  53.3135145792836 78.1170537313433  C 53.3135145792836 78.1170537313433  51.7815267981117 79.6045540298507  51.7815267981117 79.6045540298507  C 51.7815267981117 79.6045540298507  51.1320338794778 79.2138907462687  51.1320338794778 79.2138907462687  C 51.1320338794778 79.2138907462687  47.5418622604832 74.6372364179104  47.5418622604832 74.6372364179104  C 47.5418622604832 74.6372364179104  46.6594887531241 74.5367770149253  46.6594887531241 74.5367770149253  C 46.6594887531241 74.5367770149253  42.1941035823382 71.8072829850746  42.1941035823382 71.8072829850746  C 42.1941035823382 71.8072829850746  36.4021849486254 67.6478035820895  36.4021849486254 67.6478035820895  C 36.4021849486254 67.6478035820895  35.0688555956678 67.6793546268657  35.0688555956678 67.6793546268657  C 35.0688555956678 67.6793546268657  33.4271627325741 66.6014701492538  33.4271627325741 66.6014701492538  C 33.4271627325741 66.6014701492538  31.8270946959178 67.1246916417911  31.8270946959178 67.1246916417911  C 31.8270946959178 67.1246916417911  30.014897806165 67.1246916417911  30.014897806165 67.1246916417911  C 30.014897806165 67.1246916417911  29.3383426825881 66.5699191044776  29.3383426825881 66.5699191044776  C 29.3383426825881 66.5699191044776  28.0045279089141 66.922567761194  28.0045279089141 66.922567761194  C 28.0045279089141 66.922567761194  25.8162513190781 69.2608507462686  25.8162513190781 69.2608507462686  C 25.8162513190781 69.2608507462686  23.6556437100806 70.1371591044776  23.6556437100806 70.1371591044776  C 23.6556437100806 70.1371591044776  20.8241846709247 69.9166304477612  20.8241846709247 69.9166304477612  C 20.8241846709247 69.9166304477612  19.7643898916968 70.1496480597015  19.7643898916968 70.1496480597015  C 19.7643898916968 70.1496480597015  15.0254701471812 72.6770182089552  15.0254701471812 72.6770182089552  C 15.0254701471812 72.6770182089552  14.2528017217441 73.3452868656717  14.2528017217441 73.3452868656717  C 14.2528017217441 73.3452868656717  13.0972577061928 77.3667304477612  13.0972577061928 77.3667304477612  C 13.0972577061928 77.3667304477612  12.2012924187725 79.1443250746268  12.2012924187725 79.1443250746268  C 12.2012924187725 79.1443250746268  10.7993973896141 79.1443250746268  10.7993973896141 79.1443250746268  C 10.7993973896141 79.1443250746268  4.30289058594824 75.5700737313433  4.30289058594824 75.5700737313433  C 4.30289058594824 75.5700737313433  1.41051124687592 71.5111632835821  1.41051124687592 71.5111632835821  C 1.41051124687592 71.5111632835821  1.00020938628156 69.8220868656716  1.00020938628156 69.8220868656716  C 1.00020938628156 69.8220868656716  1.6221546792557 69.2103471641791  1.6221546792557 69.2103471641791  C 1.6221546792557 69.2103471641791  5.773472646487 67.4713149253732  5.773472646487 67.4713149253732  C 5.773472646487 67.4713149253732  6.02613412940865 65.9522635820896  6.02613412940865 65.9522635820896  C 6.02613412940865 65.9522635820896  4.18007914468213 64.9314558208955  4.18007914468213 64.9314558208955  C 4.18007914468213 64.9314558208955  3.63300999722307 63.7904692537314  3.63300999722307 63.7904692537314  C 3.63300999722307 63.7904692537314  3.82438711469052 62.2469877611941  3.82438711469052 62.2469877611941  C 3.82438711469052 62.2469877611941  7.41455873368519 55.4667997014926  7.41455873368519 55.4667997014926  C 7.41455873368519 55.4667997014926  10.3479561232991 50.7103701492538  10.3479561232991 50.7103701492538  C 10.3479561232991 50.7103701492538  13.021896139961 45.7647438805971  13.021896139961 45.7647438805971  C 13.021896139961 45.7647438805971  13.6989366842543 43.522647761194  13.6989366842543 43.522647761194  C 13.6989366842543 43.522647761194  13.9656753679533 41.0724023880597  13.9656753679533 41.0724023880597  C 13.9656753679533 41.0724023880597  13.8013604554291 36.7011585074627  13.8013604554291 36.7011585074627  C 13.8013604554291 36.7011585074627  14.3281632879756 32.8535743283582  14.3281632879756 32.8535743283582  C 14.3281632879756 32.8535743283582  18.2189316856429 22.5392310447762  18.2189316856429 22.5392310447762  C 18.2189316856429 22.5392310447762  19.5730127742293 20.9338525373134  19.5730127742293 20.9338525373134  C 19.5730127742293 20.9338525373134  21.4602071646764 19.8005346268657  21.4602071646764 19.8005346268657  C 21.4602071646764 19.8005346268657  25.3237920022215 18.868792835821  25.3237920022215 18.868792835821  C 25.3237920022215 18.868792835821  27.4028489308525 18.9317853731343  27.4028489308525 18.9317853731343  C 27.4028489308525 18.9317853731343  30.3091841155235 19.5424295522388  30.3091841155235 19.5424295522388  C 30.3091841155235 19.5424295522388  40.0604368231047 23.861636119403  40.0604368231047 23.861636119403  C 40.0604368231047 23.861636119403  40.9767897806165 21.9095247761194  40.9767897806165 21.9095247761194  C 40.9767897806165 21.9095247761194  41.6745820605388 18.7052313432836  41.6745820605388 18.7052313432836  Z " stroke-width="2" stroke="#1890ff" fill="none" stroke-opacity="0.996078431372549" transform="matrix(1 0 0 1 1031 299 )" mask="url(#clip38)" />
    <path d="M 142.583840599833 53.8537525373134  C 142.583840599833 53.8537525373134  140.700044154401 55.7935940298507  140.700044154401 55.7935940298507  C 140.700044154401 55.7935940298507  140.638638433768 53.4066698507463  140.638638433768 53.4066698507463  C 140.638638433768 53.4066698507463  142.583840599833 53.8537525373134  142.583840599833 53.8537525373134  Z " stroke-width="2" stroke="#1890ff" fill="none" stroke-opacity="0.996078431372549" transform="matrix(1 0 0 1 1031 299 )" mask="url(#clip38)" />
  </g>
</svg>